<?xml version="1.0" standalone="no"?>
<!DOCTYPE svg PUBLIC "-//W3C//DTD SVG 1.1//EN" "http://www.w3.org/Graphics/SVG/1.1/DTD/svg11.dtd" >
<!--
2015-3-11: Created with FontForge (http://fontforge.org)
-->
<svg xmlns="http://www.w3.org/2000/svg" xmlns:xlink="http://www.w3.org/1999/xlink" version="1.1">
<metadata>
Created by FontForge 20141127 at Wed Mar 11 19:03:50 2015
 By Hector Jimenez
Copyright (c) 2015, Hector Jimenez
</metadata>
<defs>
<font id="google-icons-font" horiz-adv-x="384" >
  <font-face 
    font-family="google-icons-font"
    font-weight="400"
    font-stretch="normal"
    units-per-em="512"
    panose-1="2 0 5 3 0 0 0 0 0 0"
    ascent="448"
    descent="-64"
    bbox="-0.444444 -64 512 448"
    underline-thickness="25.6"
    underline-position="-51.2"
    unicode-range="U+F100-F3D4"
  />
    <missing-glyph />
    <glyph glyph-name="ion-3d-rotation" unicode="&#xf101;" horiz-adv-x="510" 
d="M159 -10l29 28l81 -81c-5 0 -9 -1 -14 -1c-134 0 -244 104 -255 235h32c8 -80 57 -148 127 -181zM178 129c9 0 15 3 20 7c5 5 8 10 8 19c0 5 -1 10 -2 13s-3 6 -6 8s-6 4 -10 5s-8 2 -13 2h-16v22h16c5 0 9 1 13 2c3 1 6 3 8 5s5 5 6 8s1 6 1 10c0 8 -2 15 -6 19
s-10 6 -19 6c-4 0 -7 -1 -10 -2s-6 -2 -8 -4s-4 -5 -5 -8s-2 -5 -2 -9h-28c0 7 1 12 4 18s6 10 11 14s10 8 17 10s13 3 21 3s15 -1 22 -3s12 -5 17 -9s8 -8 11 -14s3 -13 3 -21c0 -3 0 -7 -1 -10s-3 -7 -5 -10s-5 -6 -8 -9s-7 -5 -11 -7c5 -2 9 -3 13 -6s6 -7 8 -10
s4 -7 5 -11s2 -7 2 -11c0 -8 -2 -15 -5 -21s-6 -12 -11 -16s-11 -7 -18 -9s-14 -3 -22 -3c-7 0 -14 1 -21 3s-12 5 -17 9s-9 8 -12 14s-5 12 -5 20h28c0 -4 1 -7 2 -10s4 -5 6 -7s5 -4 8 -5s7 -2 11 -2zM361 255c7 -7 12 -15 16 -25s5 -22 5 -34v-8c0 -12 -1 -24 -5 -34
s-9 -18 -16 -25s-15 -13 -25 -17s-20 -5 -32 -5h-49v170h50c11 0 23 -1 32 -5s17 -10 24 -17zM352 188h1v8c0 19 -5 33 -13 43s-20 14 -35 14h-20v-123h19c8 0 15 1 21 4s11 7 15 12s7 11 9 18s3 15 3 24zM255 448c134 0 244 -104 255 -235h-32c-8 80 -57 148 -127 181
l-29 -28l-81 81c5 0 9 1 14 1z" />
    <glyph glyph-name="ion-accessibility" unicode="&#xf100;" 
d="M192 405c24 0 43 -18 43 -42s-19 -43 -43 -43s-43 19 -43 43s19 42 43 42zM384 256h-128v-277h-43v128h-42v-128h-43v277h-128v43h384v-43z" />
    <glyph glyph-name="ion-account-balance" unicode="&#xf2c7;" horiz-adv-x="405" 
d="M43 235h64v-150h-64v150zM171 235h64v-150h-64v150zM0 -21v64h405v-64h-405zM299 235h64v-150h-64v150zM203 427l202 -107v-43h-405v43z" />
    <glyph glyph-name="ion-account-box" unicode="&#xf359;" 
d="M0 341c0 24 19 43 43 43h298c24 0 43 -19 43 -43v-298c0 -24 -19 -43 -43 -43h-298c-24 0 -43 19 -43 43v298zM256 256c0 35 -29 64 -64 64s-64 -29 -64 -64s29 -64 64 -64s64 29 64 64zM64 85v-21h256v21c0 43 -85 66 -128 66s-128 -23 -128 -66z" />
    <glyph glyph-name="ion-account-child" unicode="&#xf35a;" horiz-adv-x="427" 
d="M309 192c-29 0 -53 24 -53 53s24 54 53 54s53 -25 53 -54s-24 -53 -53 -53zM149 213c-35 0 -64 29 -64 64s29 64 64 64s64 -29 64 -64s-29 -64 -64 -64zM309 149c39 0 118 -19 118 -58v-48h-235v48c0 39 78 58 117 58zM149 171c14 0 32 -2 51 -6c-43 -24 -51 -56 -51 -74
v-48h-149v53c0 50 99 75 149 75z" />
    <glyph glyph-name="ion-account-wallet" unicode="&#xf35b;" horiz-adv-x="405" 
d="M384 64v-21c0 -24 -19 -43 -43 -43h-298c-24 0 -43 19 -43 43v298c0 24 19 43 43 43h298c24 0 43 -19 43 -43v-21h-192c-24 0 -43 -19 -43 -43v-170c0 -24 19 -43 43 -43h192zM192 107v170h213v-170h-213zM277 160c18 0 32 14 32 32s-14 32 -32 32s-32 -14 -32 -32
s14 -32 32 -32z" />
    <glyph glyph-name="ion-adb" unicode="&#xf35c;" horiz-adv-x="299" 
d="M0 107v85h299v-85c0 -82 -68 -150 -150 -150s-149 68 -149 150zM237 355c37 -27 62 -71 62 -120v-22h-299v22c0 49 24 93 61 120l-44 45l17 17l49 -49c20 10 42 16 66 16s46 -6 66 -16l50 49l17 -17zM85 256c12 0 22 9 22 21s-10 22 -22 22s-21 -10 -21 -22s9 -21 21 -21
zM213 256c12 0 22 9 22 21s-10 22 -22 22s-21 -10 -21 -22s9 -21 21 -21z" />
    <glyph glyph-name="ion-add" unicode="&#xf2c9;" horiz-adv-x="299" 
d="M299 171h-128v-128h-43v128h-128v42h128v128h43v-128h128v-42z" />
    <glyph glyph-name="ion-adjust" unicode="&#xf35d;" horiz-adv-x="427" 
d="M213 405c118 0 214 -95 214 -213s-96 -213 -214 -213s-213 95 -213 213s95 213 213 213zM213 21c94 0 171 77 171 171s-77 171 -171 171s-170 -77 -170 -171s76 -171 170 -171zM277 192c0 -35 -29 -64 -64 -64s-64 29 -64 64s29 64 64 64s64 -29 64 -64z" />
    <glyph glyph-name="ion-airplanemode-off" unicode="&#xf35f;" horiz-adv-x="405" 
d="M235 256l170 -107v-42l-67 21l-167 167v78c0 18 14 32 32 32s32 -14 32 -32v-117zM21 335l28 28l335 -336l-27 -27l-122 122v-79l42 -32v-32l-74 21l-75 -21v32l43 32v117l-171 -53v42l128 80z" />
    <glyph glyph-name="ion-airplanemode-on" unicode="&#xf35e;" horiz-adv-x="405" 
d="M175 256zM405 107l-170 53v-117l42 -32v-32l-74 21l-75 -21v32l43 32v117l-171 -53v42l171 107v117c0 18 14 32 32 32s32 -14 32 -32v-117l170 -107v-42z" />
    <glyph glyph-name="ion-alarm-add" unicode="&#xf361;" horiz-adv-x="427" 
d="M125 376l-98 -83l-27 33l98 82zM427 326l-28 -33l-98 83l28 32zM213 363c106 0 192 -86 192 -192s-86 -192 -192 -192s-192 86 -192 192s86 192 192 192zM213 21c83 0 150 68 150 150s-68 149 -150 149s-149 -67 -149 -149s67 -150 149 -150zM235 256v-64h64v-43h-64v-64
h-43v64h-64v43h64v64h43z" />
    <glyph glyph-name="ion-alarm-off" unicode="&#xf360;" horiz-adv-x="434" 
d="M221 320c-18 0 -35 -3 -51 -9l-33 32c25 12 54 20 84 20c106 0 192 -86 192 -192c0 -30 -8 -59 -20 -84l-32 32c6 16 9 34 9 52c0 82 -67 149 -149 149zM434 326l-27 -33l-98 83l27 32zM27 399l21 -21l372 -372l-27 -27l-47 47c-34 -29 -77 -47 -125 -47
c-106 0 -192 86 -192 192c0 48 18 91 47 125l-17 17l-24 -20l-30 31l23 20l-28 28zM316 56l-210 210c-21 -26 -34 -59 -34 -95c0 -82 67 -150 149 -150c36 0 69 14 95 35zM136 378l-18 -15l-31 30l19 15z" />
    <glyph glyph-name="ion-alarm-on" unicode="&#xf363;" horiz-adv-x="427" 
d="M427 326l-28 -33l-98 83l28 32zM125 376l-98 -83l-27 33l98 82zM213 363c106 0 192 -86 192 -192s-86 -192 -192 -192s-192 86 -192 192s86 192 192 192zM213 21c83 0 150 68 150 150s-68 149 -150 149s-149 -67 -149 -149s67 -150 149 -150zM182 138l106 106l22 -23
l-128 -128l-68 68l23 22z" />
    <glyph glyph-name="ion-alarm-snooze" unicode="&#xf362;" horiz-adv-x="427" 
d="M125 376l-98 -83l-27 33l98 82zM427 326l-28 -33l-98 83l28 32zM213 363c106 0 192 -86 192 -192s-86 -192 -192 -192s-192 86 -192 192s86 192 192 192zM213 21c83 0 150 68 150 150s-68 149 -150 149s-149 -67 -149 -149s67 -150 149 -150zM149 213v43h128v-38l-77 -90
h77v-43h-128v39l78 89h-78z" />
    <glyph glyph-name="ion-alarm" unicode="&#xf365;" horiz-adv-x="427" 
d="M427 326l-28 -33l-98 83l28 32zM125 376l-98 -83l-27 33l98 82zM224 277v-112l85 -50l-16 -27l-101 61v128h32zM213 363c106 0 192 -86 192 -192s-86 -192 -192 -192s-192 86 -192 192s86 192 192 192zM213 21c83 0 150 68 150 150s-68 149 -150 149s-149 -67 -149 -149
s67 -150 149 -150z" />
    <glyph glyph-name="ion-album" unicode="&#xf364;" horiz-adv-x="427" 
d="M213 405c118 0 214 -95 214 -213s-96 -213 -214 -213s-213 95 -213 213s95 213 213 213zM213 96c53 0 96 43 96 96s-43 96 -96 96s-96 -43 -96 -96s43 -96 96 -96zM213 213c12 0 22 -9 22 -21s-10 -21 -22 -21s-21 9 -21 21s9 21 21 21z" />
    <glyph glyph-name="ion-android" unicode="&#xf30f;" horiz-adv-x="427" 
d="M85 64v213h256v-213c0 -12 -9 -21 -21 -21h-21v-75c0 -18 -14 -32 -32 -32s-32 14 -32 32v75h-43v-75c0 -18 -14 -32 -32 -32s-32 14 -32 32v75h-21c-12 0 -22 9 -22 21zM32 277c18 0 32 -14 32 -32v-149c0 -18 -14 -32 -32 -32s-32 14 -32 32v149c0 18 14 32 32 32z
M395 277c18 0 32 -14 32 -32v-149c0 -18 -14 -32 -32 -32s-32 14 -32 32v149c0 18 14 32 32 32zM289 402c32 -23 52 -61 52 -103h-256c0 42 21 80 53 103l-28 28c-4 4 -4 11 0 15s11 4 15 0l31 -32c17 9 37 14 57 14s40 -6 57 -14l31 32c4 4 11 4 15 0s4 -11 0 -15zM171 341
v22h-22v-22h22zM277 341v22h-21v-22h21z" />
    <glyph glyph-name="ion-archive" unicode="&#xf366;" 
d="M374 337c6 -7 10 -18 10 -28v-266c0 -24 -19 -43 -43 -43h-298c-24 0 -43 19 -43 43v266c0 10 4 21 10 28l29 35c6 7 15 12 25 12h256c10 0 19 -5 25 -12zM192 75l117 117h-74v43h-86v-43h-74zM45 341h294l-20 22h-256z" />
    <glyph glyph-name="ion-arrow-down" unicode="&#xf367;" horiz-adv-x="256" 
d="M30 273l98 -98l98 98l30 -30l-128 -128l-128 128z" />
    <glyph glyph-name="ion-arrow-left" unicode="&#xf368;" horiz-adv-x="158" 
d="M158 100l-30 -31l-128 128l128 128l30 -30l-98 -98z" />
    <glyph glyph-name="ion-arrow-right" unicode="&#xf369;" horiz-adv-x="158" 
d="M0 97l98 98l-98 97l30 31l128 -128l-128 -128z" />
    <glyph glyph-name="ion-arrow-up" unicode="&#xf36a;" horiz-adv-x="256" 
d="M30 119l-30 30l128 128l128 -128l-30 -30l-98 98z" />
    <glyph glyph-name="ion-artists" unicode="&#xf36b;" horiz-adv-x="469" 
d="M427 341h42v-298h-42v298zM341 43v298h43v-298h-43zM277 341c12 0 22 -9 22 -21v-256c0 -12 -10 -21 -22 -21h-256c-12 0 -21 9 -21 21v256c0 12 9 21 21 21h256zM149 283c-26 0 -48 -22 -48 -48c0 -27 22 -48 48 -48s48 21 48 48c0 26 -22 48 -48 48zM245 85v16
c0 32 -64 48 -96 48s-96 -16 -96 -48v-16h192z" />
    <glyph glyph-name="ion-aspect-ratio" unicode="&#xf36c;" horiz-adv-x="469" 
d="M384 192v-107h-107v43h64v64h43zM128 256v-64h-43v107h107v-43h-64zM427 384c24 0 42 -19 42 -43v-298c0 -24 -18 -43 -42 -43h-384c-24 0 -43 19 -43 43v298c0 24 19 43 43 43h384zM427 42v300h-384v-300h384z" />
    <glyph glyph-name="ion-assignment-done" unicode="&#xf36d;" 
d="M341 384c24 0 43 -19 43 -43v-298c0 -24 -19 -43 -43 -43h-298c-24 0 -43 19 -43 43v298c0 24 19 43 43 43h89c9 25 32 43 60 43s51 -18 60 -43h89zM192 384c-12 0 -21 -9 -21 -21s9 -22 21 -22s21 10 21 22s-9 21 -21 21zM149 85l171 171l-30 30l-141 -140l-55 55
l-30 -30z" />
    <glyph glyph-name="ion-assignment-ind" unicode="&#xf2d1;" 
d="M341 384c24 0 43 -19 43 -43v-298c0 -24 -19 -43 -43 -43h-298c-24 0 -43 19 -43 43v298c0 24 19 43 43 43h89c9 25 32 43 60 43s51 -18 60 -43h89zM192 384c-12 0 -21 -9 -21 -21s9 -22 21 -22s21 10 21 22s-9 21 -21 21zM192 299c-35 0 -64 -29 -64 -64s29 -64 64 -64
s64 29 64 64s-29 64 -64 64zM320 43v30c0 43 -85 66 -128 66s-128 -23 -128 -66v-30h256z" />
    <glyph glyph-name="ion-assignment-late" unicode="&#xf2d2;" 
d="M341 384c24 0 43 -19 43 -43v-298c0 -24 -19 -43 -43 -43h-298c-24 0 -43 19 -43 43v298c0 24 19 43 43 43h89c9 25 32 43 60 43s51 -18 60 -43h89zM213 64v43h-42v-43h42zM213 149v128h-42v-128h42zM192 341c12 0 21 10 21 22s-9 21 -21 21s-21 -9 -21 -21s9 -22 21 -22
z" />
    <glyph glyph-name="ion-assignment-return" unicode="&#xf2d3;" 
d="M341 384c24 0 43 -19 43 -43v-298c0 -24 -19 -43 -43 -43h-298c-24 0 -43 19 -43 43v298c0 24 19 43 43 43h89c9 25 32 43 60 43s51 -18 60 -43h89zM192 384c-12 0 -21 -9 -21 -21s9 -22 21 -22s21 10 21 22s-9 21 -21 21zM277 128v85h-85v64l-107 -106l107 -107v64h85z
" />
    <glyph glyph-name="ion-assignment-submit" unicode="&#xf36e;" 
d="M341 384c24 0 43 -19 43 -43v-298c0 -24 -19 -43 -43 -43h-298c-24 0 -43 19 -43 43v298c0 24 19 43 43 43h89c9 25 32 43 60 43s51 -18 60 -43h89zM192 384c-12 0 -21 -9 -21 -21s9 -22 21 -22s21 10 21 22s-9 21 -21 21zM192 64l107 107h-64v85h-86v-85h-64z" />
    <glyph glyph-name="ion-assignment" unicode="&#xf36f;" 
d="M341 384c24 0 43 -19 43 -43v-298c0 -24 -19 -43 -43 -43h-298c-24 0 -43 19 -43 43v298c0 24 19 43 43 43h89c9 25 32 43 60 43s51 -18 60 -43h89zM192 384c-12 0 -21 -9 -21 -21s9 -22 21 -22s21 10 21 22s-9 21 -21 21zM235 85v43h-150v-43h150zM299 171v42h-214v-42
h214zM299 256v43h-214v-43h214z" />
    <glyph glyph-name="ion-attach-file" unicode="&#xf370;" horiz-adv-x="235" 
d="M203 320h32v-245c0 -65 -53 -118 -118 -118s-117 53 -117 118v266c0 47 38 86 85 86s86 -39 86 -86v-224c0 -29 -25 -53 -54 -53s-53 24 -53 53v203h32v-203c0 -12 9 -21 21 -21s22 9 22 21v224c0 29 -25 54 -54 54s-53 -25 -53 -54v-266c0 -47 38 -86 85 -86
s86 39 86 86v245z" />
    <glyph glyph-name="ion-attach-money" unicode="&#xf2d4;" horiz-adv-x="217" 
d="M117 215c48 -13 100 -33 100 -93c0 -44 -33 -68 -74 -76v-46h-64v46c-41 9 -76 35 -79 82h47c2 -25 20 -45 64 -45c47 0 57 23 57 38c0 20 -11 39 -64 52c-59 14 -100 39 -100 88c0 41 34 68 75 77v46h64v-47c45 -11 67 -44 68 -81h-47c-1 27 -15 45 -53 45
c-36 0 -58 -17 -58 -40c0 -20 16 -33 64 -46z" />
    <glyph glyph-name="ion-attachment" unicode="&#xf374;" horiz-adv-x="427" 
d="M117 64c-65 0 -117 52 -117 117s52 118 117 118h224c47 0 86 -39 86 -86s-39 -85 -86 -85h-181c-29 0 -53 24 -53 53s24 54 53 54h160v-32h-160c-12 0 -21 -10 -21 -22s9 -21 21 -21h181c29 0 54 24 54 53s-25 54 -54 54h-224c-47 0 -85 -39 -85 -86s38 -85 85 -85h203
v-32h-203z" />
    <glyph glyph-name="ion-audiotrack" unicode="&#xf371;" horiz-adv-x="277" 
d="M128 384h149v-64h-85v-235h-1c-5 -48 -46 -85 -95 -85c-53 0 -96 43 -96 96s43 96 96 96c11 0 22 -2 32 -6v198z" />
    <glyph glyph-name="ion-av-timer" unicode="&#xf373;" 
d="M171 85c0 12 9 22 21 22s21 -10 21 -22s-9 -21 -21 -21s-21 9 -21 21zM171 384h21c106 0 192 -86 192 -192s-86 -192 -192 -192s-192 86 -192 192c0 63 30 118 77 153v1l145 -145l-30 -30l-116 115c-21 -26 -33 -58 -33 -94c0 -82 67 -149 149 -149s149 67 149 149
c0 75 -56 138 -128 148v-41h-42v85zM320 192c0 -12 -9 -21 -21 -21s-22 9 -22 21s10 21 22 21s21 -9 21 -21zM64 192c0 12 9 21 21 21s22 -9 22 -21s-10 -21 -22 -21s-21 9 -21 21z" />
    <glyph glyph-name="ion-backspace" unicode="&#xf372;" horiz-adv-x="512" 
d="M469 384c24 0 43 -19 43 -43v-298c0 -24 -19 -43 -43 -43h-320c-15 0 -26 8 -34 19l-115 173l115 173c8 11 19 19 34 19h320zM405 116l-76 76l76 76l-30 31l-76 -77l-77 77l-30 -31l76 -76l-76 -76l30 -31l77 77l76 -77z" />
    <glyph glyph-name="ion-battery-20" unicode="&#xf375;" horiz-adv-x="213" 
d="M0 85h213v-78c0 -16 -12 -28 -28 -28h-157c-16 0 -28 12 -28 28v78zM213 334v-249h-213v249c0 16 12 29 28 29h36v42h85v-42h36c16 0 28 -13 28 -29z" />
    <glyph glyph-name="ion-battery-30" unicode="&#xf376;" horiz-adv-x="213" 
d="M213 334v-206h-213v206c0 16 12 29 28 29h36v42h85v-42h36c16 0 28 -13 28 -29zM0 128h213v-121c0 -16 -12 -28 -28 -28h-157c-16 0 -28 12 -28 28v121z" />
    <glyph glyph-name="ion-battery-50" unicode="&#xf2d7;" horiz-adv-x="213" 
d="M213 334v-163h-213v163c0 16 12 29 28 29h36v42h85v-42h36c16 0 28 -13 28 -29zM0 171h213v-164c0 -16 -12 -28 -28 -28h-157c-16 0 -28 12 -28 28v164z" />
    <glyph glyph-name="ion-battery-60" unicode="&#xf37a;" horiz-adv-x="213" 
d="M213 334v-121h-213v121c0 16 12 29 28 29h36v42h85v-42h36c16 0 28 -13 28 -29zM0 213h213v-206c0 -16 -12 -28 -28 -28h-157c-16 0 -28 12 -28 28v206z" />
    <glyph glyph-name="ion-battery-80" unicode="&#xf377;" horiz-adv-x="213" 
d="M213 334v-78h-213v78c0 16 12 29 28 29h36v42h85v-42h36c16 0 28 -13 28 -29zM0 256h213v-249c0 -16 -12 -28 -28 -28h-157c-16 0 -28 12 -28 28v249z" />
    <glyph glyph-name="ion-battery-90" unicode="&#xf378;" horiz-adv-x="213" 
d="M213 334v-57h-213v57c0 16 12 29 28 29h36v42h85v-42h36c16 0 28 -13 28 -29zM0 277h213v-270c0 -16 -12 -28 -28 -28h-157c-16 0 -28 12 -28 28v270z" />
    <glyph glyph-name="ion-battery-alert" unicode="&#xf379;" horiz-adv-x="213" 
d="M185 363c16 0 28 -13 28 -29v-327c0 -16 -12 -28 -28 -28h-157c-16 0 -28 12 -28 28v327c0 16 12 29 28 29h36v42h85v-42h36zM128 64v43h-43v-43h43zM128 149v107h-43v-107h43z" />
    <glyph glyph-name="ion-battery-charging-30" unicode="&#xf138;" horiz-adv-x="213" 
d="M185 363c16 0 28 -13 28 -29v-195h-65l23 42h-43v118l-85 -160h-43v195c0 16 12 29 28 29h36v42h85v-42h36zM85 21l63 118h65v-132c0 -16 -12 -28 -28 -28h-157c-16 0 -28 12 -28 28v132h85v-118z" />
    <glyph glyph-name="ion-battery-charging-50" unicode="&#xf13b;" horiz-adv-x="213" 
d="M159 160h54v-153c0 -16 -12 -28 -28 -28h-157c-16 0 -28 12 -28 28v153h54l-11 -21h42v-118zM185 363c16 0 28 -13 28 -29v-174h-54l12 21h-43v118l-74 -139h-54v174c0 16 12 29 28 29h36v42h85v-42h36z" />
    <glyph glyph-name="ion-battery-charging-60" unicode="&#xf13c;" horiz-adv-x="213" 
d="M185 363c16 0 28 -13 28 -29v-121h-85v86l-46 -86h-82v121c0 16 12 29 28 29h36v42h85v-42h36zM128 181v0v32h85v-206c0 -16 -12 -28 -28 -28h-157c-16 0 -28 12 -28 28v206h82l-39 -74h42v-118l86 160h-43z" />
    <glyph glyph-name="ion-battery-charging-80" unicode="&#xf145;" horiz-adv-x="213" 
d="M185 363c16 0 28 -13 28 -29v-78h-85v43l-23 -43h-105v78c0 16 12 29 28 29h36v42h85v-42h36zM128 181v0v75h85v-249c0 -16 -12 -28 -28 -28h-157c-16 0 -28 12 -28 28v249h105l-62 -117h42v-118l86 160h-43z" />
    <glyph glyph-name="ion-battery-charging-90" unicode="&#xf146;" horiz-adv-x="213" 
d="M185 363c16 0 28 -13 28 -29v-57h-85v22l-11 -22h-117v57c0 16 12 29 28 29h36v42h85v-42h36zM128 181v0v96h85v-270c0 -16 -12 -28 -28 -28h-157c-16 0 -28 12 -28 28v270h117l-74 -138h42v-118l86 160h-43z" />
    <glyph glyph-name="ion-battery-charging-full" unicode="&#xf37f;" horiz-adv-x="213" 
d="M185 363c16 0 28 -13 28 -29v-327c0 -16 -12 -28 -28 -28h-157c-16 0 -28 12 -28 28v327c0 16 12 29 28 29h36v42h85v-42h36zM85 21l86 160h-43v118l-85 -160h42v-118z" />
    <glyph glyph-name="ion-battery-charging_20" unicode="&#xf37b;" horiz-adv-x="213" 
d="M85 21l35 64h93v-78c0 -16 -12 -28 -28 -28h-157c-16 0 -28 12 -28 28v78h85v-64zM185 363c16 0 28 -13 28 -29v-249h-94l52 96h-43v118l-85 -160h42v-54h-85v249c0 16 12 29 28 29h36v42h85v-42h36z" />
    <glyph glyph-name="ion-battery-full" unicode="&#xf380;" horiz-adv-x="213" 
d="M185 363c16 0 28 -13 28 -29v-327c0 -16 -12 -28 -28 -28h-157c-16 0 -28 12 -28 28v327c0 16 12 29 28 29h36v42h85v-42h36z" />
    <glyph glyph-name="ion-battery-unknown" unicode="&#xf381;" horiz-adv-x="213" 
d="M185 363c16 0 28 -13 28 -29v-327c0 -16 -12 -28 -28 -28h-157c-16 0 -28 12 -28 28v327c0 16 12 29 28 29h36v42h85v-42h36zM127 65v41h-41v-41h41zM156 177c9 9 15 22 15 36c0 35 -29 64 -64 64s-64 -29 -64 -64h32c0 18 14 32 32 32s32 -14 32 -32
c0 -9 -4 -16 -10 -22l-20 -20c-10 -10 -19 -25 -19 -43h34c0 10 7 24 17 34z" />
    <glyph glyph-name="ion-block-inverse" unicode="&#xf383;" horiz-adv-x="427" 
d="M213 405c118 0 214 -95 214 -213s-96 -213 -214 -213s-213 95 -213 213s95 213 213 213zM43 192c0 -39 14 -76 36 -105l239 240c-29 22 -66 36 -105 36c-94 0 -170 -77 -170 -171zM213 21c94 0 171 77 171 171c0 39 -14 76 -36 105l-239 -240c29 -22 65 -36 104 -36z" />
    <glyph glyph-name="ion-block" unicode="&#xf382;" horiz-adv-x="427" 
d="M213 405c118 0 214 -95 214 -213s-96 -213 -214 -213s-213 95 -213 213s95 213 213 213zM213 21c39 0 76 14 105 36l-239 240c-22 -29 -36 -66 -36 -105c0 -94 76 -171 170 -171zM348 87c22 29 36 66 36 105c0 94 -77 171 -171 171c-39 0 -75 -14 -104 -36z" />
    <glyph glyph-name="ion-bluetooth-audio" unicode="&#xf2dd;" 
d="M240 192l49 49c6 -15 10 -32 10 -49s-4 -35 -10 -50zM353 305c20 -32 31 -70 31 -111c0 -42 -12 -81 -33 -114l-25 26c13 26 21 55 21 86s-8 60 -21 86zM271 284l-91 -92l91 -92l-122 -121h-21v161l-98 -97l-30 30l119 119l-119 119l30 30l98 -97v161h21zM171 324v-80
l40 40zM211 100l-40 41v-81z" />
    <glyph glyph-name="ion-bluetooth-connected" unicode="&#xf384;" 
d="M85 192l-42 -43l-43 43l43 43zM314 284l-92 -92l92 -92l-122 -121h-21v161l-98 -97l-30 30l119 119l-119 119l30 30l98 -97v161h21zM213 324v-80l40 40zM253 100l-40 41v-81zM341 235l43 -43l-43 -43l-42 43z" />
    <glyph glyph-name="ion-bluetooth-disabled" unicode="&#xf385;" horiz-adv-x="341" 
d="M192 322v-68l-43 42v108h22l121 -122l-64 -65l-30 31l34 34zM30 361l311 -311l-30 -30l-49 48l-91 -91h-22v162l-97 -98l-31 30l119 119l-140 141zM192 59l40 40l-40 40v-80z" />
    <glyph glyph-name="ion-bluetooth-searching" unicode="&#xf386;" 
d="M240 192l49 49c6 -15 10 -32 10 -49s-4 -35 -10 -50zM353 305c20 -32 31 -70 31 -111c0 -42 -12 -81 -33 -114l-25 26c13 26 21 55 21 86s-8 60 -21 86zM271 284l-91 -92l91 -92l-122 -121h-21v161l-98 -97l-30 30l119 119l-119 119l30 30l98 -97v161h21zM171 324v-80
l40 40zM211 100l-40 41v-81z" />
    <glyph glyph-name="ion-bluetooth-settings" unicode="&#xf388;" horiz-adv-x="271" 
d="M128 -64v43h43v-43h-43zM43 -64v43h42v-43h-42zM213 -64v43h43v-43h-43zM271 326l-91 -91l91 -92l-122 -122h-21v162l-98 -98l-30 31l119 119l-119 119l30 30l98 -98v162h21zM171 366v-80l40 40zM211 143l-40 40v-80z" />
    <glyph glyph-name="ion-bluetooth" unicode="&#xf387;" horiz-adv-x="271" 
d="M271 284l-91 -92l91 -92l-122 -121h-21v161l-98 -97l-30 30l119 119l-119 119l30 30l98 -97v161h21zM171 324v-80l40 40zM211 100l-40 41v-81z" />
    <glyph glyph-name="ion-blur-circular" unicode="&#xf389;" horiz-adv-x="427" 
d="M171 256c12 0 21 -9 21 -21s-9 -22 -21 -22s-22 10 -22 22s10 21 22 21zM171 171c12 0 21 -10 21 -22s-9 -21 -21 -21s-22 9 -22 21s10 22 22 22zM107 245c6 0 10 -4 10 -10s-4 -11 -10 -11s-11 5 -11 11s5 10 11 10zM171 96c6 0 10 -5 10 -11s-4 -10 -10 -10
s-11 4 -11 10s5 11 11 11zM107 160c6 0 10 -5 10 -11s-4 -10 -10 -10s-11 4 -11 10s5 11 11 11zM171 288c-6 0 -11 5 -11 11s5 10 11 10s10 -4 10 -10s-4 -11 -10 -11zM256 256c12 0 21 -9 21 -21s-9 -22 -21 -22s-21 10 -21 22s9 21 21 21zM256 288c-6 0 -11 5 -11 11
s5 10 11 10s11 -4 11 -10s-5 -11 -11 -11zM320 160c6 0 11 -5 11 -11s-5 -10 -11 -10s-11 4 -11 10s5 11 11 11zM320 245c6 0 11 -4 11 -10s-5 -11 -11 -11s-11 5 -11 11s5 10 11 10zM213 405c118 0 214 -95 214 -213s-96 -213 -214 -213s-213 95 -213 213s95 213 213 213z
M213 21c94 0 171 77 171 171s-77 171 -171 171s-170 -77 -170 -171s76 -171 170 -171zM256 96c6 0 11 -5 11 -11s-5 -10 -11 -10s-11 4 -11 10s5 11 11 11zM256 171c12 0 21 -10 21 -22s-9 -21 -21 -21s-21 9 -21 21s9 22 21 22z" />
    <glyph glyph-name="ion-blur-linear" unicode="&#xf2e0;" 
d="M43 75c-18 0 -32 14 -32 32s14 32 32 32s32 -14 32 -32s-14 -32 -32 -32zM128 171c-12 0 -21 9 -21 21s9 21 21 21s21 -9 21 -21s-9 -21 -21 -21zM128 256c-12 0 -21 9 -21 21s9 22 21 22s21 -10 21 -22s-9 -21 -21 -21zM0 0v43h384v-43h-384zM43 245
c-18 0 -32 14 -32 32s14 32 32 32s32 -14 32 -32s-14 -32 -32 -32zM43 160c-18 0 -32 14 -32 32s14 32 32 32s32 -14 32 -32s-14 -32 -32 -32zM128 85c-12 0 -21 10 -21 22s9 21 21 21s21 -9 21 -21s-9 -22 -21 -22zM299 96c-6 0 -11 5 -11 11s5 10 11 10s10 -4 10 -10
s-4 -11 -10 -11zM0 384h384v-43h-384v43zM299 267c-6 0 -11 4 -11 10s5 11 11 11s10 -5 10 -11s-4 -10 -10 -10zM299 181c-6 0 -11 5 -11 11s5 11 11 11s10 -5 10 -11s-4 -11 -10 -11zM213 256c-12 0 -21 9 -21 21s9 22 21 22s22 -10 22 -22s-10 -21 -22 -21zM213 171
c-12 0 -21 9 -21 21s9 21 21 21s22 -9 22 -21s-10 -21 -22 -21zM213 85c-12 0 -21 10 -21 22s9 21 21 21s22 -9 22 -21s-10 -22 -22 -22z" />
    <glyph glyph-name="ion-blur-off" unicode="&#xf38a;" horiz-adv-x="405" 
d="M245 299c-12 0 -21 9 -21 21s9 21 21 21s22 -9 22 -21s-10 -21 -22 -21zM241 203c-14 2 -25 13 -27 27c0 1 -1 4 -1 5c0 18 14 32 32 32s32 -14 32 -32s-14 -32 -32 -32h-4zM245 373c-6 0 -10 5 -10 11s4 11 10 11s11 -5 11 -11s-5 -11 -11 -11zM160 373
c-6 0 -11 5 -11 11s5 11 11 11s11 -5 11 -11s-5 -11 -11 -11zM395 224c-6 0 -11 5 -11 11s5 10 11 10s10 -4 10 -10s-4 -11 -10 -11zM160 299c-12 0 -21 9 -21 21s9 21 21 21s21 -9 21 -21s-9 -21 -21 -21zM331 128c-12 0 -22 9 -22 21s10 22 22 22s21 -10 21 -22
s-9 -21 -21 -21zM331 213c-12 0 -22 10 -22 22s10 21 22 21s21 -9 21 -21s-9 -22 -21 -22zM331 299c-12 0 -22 9 -22 21s10 21 22 21s21 -9 21 -21s-9 -21 -21 -21zM245 11c6 0 11 -5 11 -11s-5 -11 -11 -11s-10 5 -10 11s4 11 10 11zM0 335l27 28l346 -346l-27 -28l-81 81
c1 -2 2 -4 2 -6c0 -12 -10 -21 -22 -21s-21 9 -21 21s9 21 21 21c2 0 4 0 6 -1l-60 60c-3 -15 -15 -27 -31 -27c-18 0 -32 14 -32 32c0 16 12 29 27 32l-60 60c1 -2 1 -4 1 -6c0 -12 -9 -22 -21 -22s-22 10 -22 22s10 21 22 21c2 0 4 0 6 -1zM160 85c12 0 21 -9 21 -21
s-9 -21 -21 -21s-21 9 -21 21s9 21 21 21zM395 160c6 0 10 -5 10 -11s-4 -10 -10 -10s-11 4 -11 10s5 11 11 11zM75 171c12 0 21 -10 21 -22s-9 -21 -21 -21s-22 9 -22 21s10 22 22 22zM11 245c6 0 10 -4 10 -10s-4 -11 -10 -11s-11 5 -11 11s5 10 11 10zM160 11
c6 0 11 -5 11 -11s-5 -11 -11 -11s-11 5 -11 11s5 11 11 11zM75 85c12 0 21 -9 21 -21s-9 -21 -21 -21s-22 9 -22 21s10 21 22 21zM11 160c6 0 10 -5 10 -11s-4 -10 -10 -10s-11 4 -11 10s5 11 11 11z" />
    <glyph glyph-name="ion-blur-on" unicode="&#xf38b;" horiz-adv-x="405" 
d="M75 171c12 0 21 -10 21 -22s-9 -21 -21 -21s-22 9 -22 21s10 22 22 22zM75 85c12 0 21 -9 21 -21s-9 -21 -21 -21s-22 9 -22 21s10 21 22 21zM75 256c12 0 21 -9 21 -21s-9 -22 -21 -22s-22 10 -22 22s10 21 22 21zM11 245c6 0 10 -4 10 -10s-4 -11 -10 -11s-11 5 -11 11
s5 10 11 10zM75 341c12 0 21 -9 21 -21s-9 -21 -21 -21s-22 9 -22 21s10 21 22 21zM395 224c-6 0 -11 5 -11 11s5 10 11 10s10 -4 10 -10s-4 -11 -10 -11zM245 299c-12 0 -21 9 -21 21s9 21 21 21s22 -9 22 -21s-10 -21 -22 -21zM245 373c-6 0 -10 5 -10 11s4 11 10 11
s11 -5 11 -11s-5 -11 -11 -11zM11 160c6 0 10 -5 10 -11s-4 -10 -10 -10s-11 4 -11 10s5 11 11 11zM160 11c6 0 11 -5 11 -11s-5 -11 -11 -11s-11 5 -11 11s5 11 11 11zM160 373c-6 0 -11 5 -11 11s5 11 11 11s11 -5 11 -11s-5 -11 -11 -11zM160 299c-12 0 -21 9 -21 21
s9 21 21 21s21 -9 21 -21s-9 -21 -21 -21zM160 181c18 0 32 -14 32 -32s-14 -32 -32 -32s-32 14 -32 32s14 32 32 32zM331 171c12 0 21 -10 21 -22s-9 -21 -21 -21s-22 9 -22 21s10 22 22 22zM331 85c12 0 21 -9 21 -21s-9 -21 -21 -21s-22 9 -22 21s10 21 22 21zM331 256
c12 0 21 -9 21 -21s-9 -22 -21 -22s-22 10 -22 22s10 21 22 21zM331 341c12 0 21 -9 21 -21s-9 -21 -21 -21s-22 9 -22 21s10 21 22 21zM395 160c6 0 10 -5 10 -11s-4 -10 -10 -10s-11 4 -11 10s5 11 11 11zM245 85c12 0 22 -9 22 -21s-10 -21 -22 -21s-21 9 -21 21
s9 21 21 21zM245 11c6 0 11 -5 11 -11s-5 -11 -11 -11s-10 5 -10 11s4 11 10 11zM160 267c18 0 32 -14 32 -32s-14 -32 -32 -32s-32 14 -32 32s14 32 32 32zM160 85c12 0 21 -9 21 -21s-9 -21 -21 -21s-21 9 -21 21s9 21 21 21zM245 181c18 0 32 -14 32 -32s-14 -32 -32 -32
s-32 14 -32 32s14 32 32 32zM245 267c18 0 32 -14 32 -32s-14 -32 -32 -32s-32 14 -32 32s14 32 32 32z" />
    <glyph glyph-name="ion-book-album" unicode="&#xf38c;" horiz-adv-x="341" 
d="M299 405c24 0 42 -18 42 -42v-342c0 -24 -18 -42 -42 -42h-256c-24 0 -43 18 -43 42v342c0 24 19 42 43 42h256zM43 363v-171l53 32l53 -32v171h-106zM43 43h256l-83 109l-64 -82l-45 55z" />
    <glyph glyph-name="ion-book" unicode="&#xf2e3;" horiz-adv-x="341" 
d="M299 405c24 0 42 -18 42 -42v-342c0 -24 -18 -42 -42 -42h-256c-24 0 -43 18 -43 42v342c0 24 19 42 43 42h256zM43 363v-171l53 32l53 -32v171h-106z" />
    <glyph glyph-name="ion-bookmark-outline" unicode="&#xf38d;" horiz-adv-x="299" 
d="M256 384c24 0 43 -19 43 -43v-341l-150 64l-149 -64v341c0 24 19 43 43 43h213zM256 64v277h-213v-277l106 46z" />
    <glyph glyph-name="ion-bookmark" unicode="&#xf38e;" horiz-adv-x="299" 
d="M256 384c24 0 43 -19 43 -43v-341l-150 64l-149 -64v341c0 24 19 43 43 43h213z" />
    <glyph glyph-name="ion-border-all" unicode="&#xf14c;" 
d="M0 384h384v-384h-384v384zM171 43v128h-128v-128h128zM171 213v128h-128v-128h128zM341 43v128h-128v-128h128zM341 213v128h-128v-128h128z" />
    <glyph glyph-name="ion-border-bottom" unicode="&#xf38f;" 
d="M128 213v-42h-43v42h43zM213 128v-43h-42v43h42zM128 384v-43h-43v43h43zM213 213v-42h-42v42h42zM43 384v-43h-43v43h43zM213 299v-43h-42v43h42zM299 213v-42h-43v42h43zM213 384v-43h-42v43h42zM299 384v-43h-43v43h43zM341 171v42h43v-42h-43zM341 85v43h43v-43h-43z
M43 299v-43h-43v43h43zM341 384h43v-43h-43v43zM341 256v43h43v-43h-43zM43 213v-42h-43v42h43zM0 0v43h384v-43h-384zM43 128v-43h-43v43h43z" />
    <glyph glyph-name="ion-border-clear" unicode="&#xf2e4;" 
d="M85 341v43h43v-43h-43zM85 171v42h43v-42h-43zM85 0v43h43v-43h-43zM171 85v43h42v-43h-42zM171 0v43h42v-43h-42zM0 0v43h43v-43h-43zM0 85v43h43v-43h-43zM0 171v42h43v-42h-43zM0 256v43h43v-43h-43zM0 341v43h43v-43h-43zM171 171v42h42v-42h-42zM341 85v43h43v-43
h-43zM341 171v42h43v-42h-43zM341 0v43h43v-43h-43zM341 256v43h43v-43h-43zM171 256v43h42v-43h-42zM341 384h43v-43h-43v43zM171 341v43h42v-43h-42zM256 0v43h43v-43h-43zM256 171v42h43v-42h-43zM256 341v43h43v-43h-43z" />
    <glyph glyph-name="ion-border-color" unicode="&#xf390;" horiz-adv-x="512" 
d="M379 299l-214 -214h-80v80l214 214zM442 362l-42 -42l-80 80l42 42c8 8 22 8 30 0l50 -50c8 -8 8 -22 0 -30zM0 21h512v-85h-512v85z" />
    <glyph glyph-name="ion-border-horizontal" unicode="&#xf391;" 
d="M0 0v43h43v-43h-43zM43 299v-43h-43v43h43zM0 85v43h43v-43h-43zM85 0v43h43v-43h-43zM43 384v-43h-43v43h43zM128 384v-43h-43v43h43zM299 384v-43h-43v43h43zM213 299v-43h-42v43h42zM213 384v-43h-42v43h42zM341 85v43h43v-43h-43zM171 0v43h42v-43h-42zM0 171v42h384
v-42h-384zM341 384h43v-43h-43v43zM341 256v43h43v-43h-43zM171 85v43h42v-43h-42zM256 0v43h43v-43h-43zM341 0v43h43v-43h-43z" />
    <glyph glyph-name="ion-border-inner" unicode="&#xf2e9;" 
d="M0 0v43h43v-43h-43zM85 0v43h43v-43h-43zM43 299v-43h-43v43h43zM0 85v43h43v-43h-43zM128 384v-43h-43v43h43zM43 384v-43h-43v43h43zM299 384v-43h-43v43h43zM341 256v43h43v-43h-43zM341 384h43v-43h-43v43zM256 0v43h43v-43h-43zM213 384v-171h171v-42h-171v-171h-42
v171h-171v42h171v171h42zM341 0v43h43v-43h-43zM341 85v43h43v-43h-43z" />
    <glyph glyph-name="ion-border-left" unicode="&#xf392;" 
d="M171 0v43h42v-43h-42zM171 85v43h42v-43h-42zM171 341v43h42v-43h-42zM171 256v43h42v-43h-42zM171 171v42h42v-42h-42zM85 0v43h43v-43h-43zM85 341v43h43v-43h-43zM85 171v42h43v-42h-43zM0 0v384h43v-384h-43zM341 256v43h43v-43h-43zM256 0v43h43v-43h-43zM341 85v43
h43v-43h-43zM341 384h43v-43h-43v43zM341 171v42h43v-42h-43zM341 0v43h43v-43h-43zM256 171v42h43v-42h-43zM256 341v43h43v-43h-43z" />
    <glyph glyph-name="ion-border-outer" unicode="&#xf2eb;" 
d="M213 299v-43h-42v43h42zM213 213v-42h-42v42h42zM299 213v-42h-43v42h43zM0 384h384v-384h-384v384zM341 43v298h-298v-298h298zM213 128v-43h-42v43h42zM128 213v-42h-43v42h43z" />
    <glyph glyph-name="ion-border-right" unicode="&#xf393;" 
d="M85 0v43h43v-43h-43zM0 341v43h43v-43h-43zM85 341v43h43v-43h-43zM85 171v42h43v-42h-43zM0 0v43h43v-43h-43zM171 0v43h42v-43h-42zM0 171v42h43v-42h-43zM0 85v43h43v-43h-43zM0 256v43h43v-43h-43zM171 85v43h42v-43h-42zM256 171v42h43v-42h-43zM341 384h43v-384
h-43v384zM256 0v43h43v-43h-43zM256 341v43h43v-43h-43zM171 171v42h42v-42h-42zM171 341v43h42v-43h-42zM171 256v43h42v-43h-42z" />
    <glyph glyph-name="ion-border-style" unicode="&#xf394;" 
d="M256 0v43h43v-43h-43zM341 0v43h43v-43h-43zM85 0v43h43v-43h-43zM171 0v43h42v-43h-42zM341 85v43h43v-43h-43zM341 171v42h43v-42h-43zM0 384h384v-43h-341v-341h-43v384zM341 256v43h43v-43h-43z" />
    <glyph glyph-name="ion-border-top" unicode="&#xf2ec;" 
d="M85 0v43h43v-43h-43zM85 171v42h43v-42h-43zM171 171v42h42v-42h-42zM171 0v43h42v-43h-42zM0 85v43h43v-43h-43zM0 0v43h43v-43h-43zM0 171v42h43v-42h-43zM0 256v43h43v-43h-43zM171 85v43h42v-43h-42zM341 256v43h43v-43h-43zM341 171v42h43v-42h-43zM0 384h384v-43
h-384v43zM341 85v43h43v-43h-43zM256 0v43h43v-43h-43zM171 256v43h42v-43h-42zM341 0v43h43v-43h-43zM256 171v42h43v-42h-43z" />
    <glyph glyph-name="ion-border-vertical" unicode="&#xf395;" 
d="M0 256v43h43v-43h-43zM0 341v43h43v-43h-43zM85 0v43h43v-43h-43zM85 171v42h43v-42h-43zM0 171v42h43v-42h-43zM0 0v43h43v-43h-43zM0 85v43h43v-43h-43zM85 341v43h43v-43h-43zM341 85v43h43v-43h-43zM171 0v384h42v-384h-42zM341 0v43h43v-43h-43zM341 171v42h43v-42
h-43zM341 384h43v-43h-43v43zM341 256v43h43v-43h-43zM256 341v43h43v-43h-43zM256 0v43h43v-43h-43zM256 171v42h43v-42h-43z" />
    <glyph glyph-name="ion-brightness-1" unicode="&#xf396;" horiz-adv-x="427" 
d="M427 192c0 -118 -96 -213 -214 -213s-213 95 -213 213s95 213 213 213s214 -95 214 -213z" />
    <glyph glyph-name="ion-brightness-2" unicode="&#xf397;" horiz-adv-x="320" 
d="M107 405c118 0 213 -95 213 -213s-95 -213 -213 -213c-39 0 -76 10 -107 28c64 37 107 106 107 185s-43 148 -107 185c31 18 68 28 107 28z" />
    <glyph glyph-name="ion-brightness-3" unicode="&#xf398;" horiz-adv-x="277" 
d="M64 405c118 0 213 -95 213 -213s-95 -213 -213 -213c-22 0 -44 3 -64 9c87 27 149 109 149 204s-62 177 -149 204c20 6 42 9 64 9z" />
    <glyph glyph-name="ion-brightness-4" unicode="&#xf39b;" horiz-adv-x="483" 
d="M412 263l71 -71l-71 -71v-100h-100l-71 -70l-70 70h-100v100l-71 71l71 71v100h100l70 70l71 -70h100v-100zM241 64c71 0 128 57 128 128s-57 128 -128 128c-19 0 -37 -5 -53 -12c44 -20 75 -64 75 -116s-31 -96 -75 -116c16 -7 34 -12 53 -12z" />
    <glyph glyph-name="ion-brightness-5" unicode="&#xf399;" horiz-adv-x="483" 
d="M412 121v-100h-100l-71 -70l-70 70h-100v100l-71 71l71 71v100h100l70 70l71 -70h100v-100l71 -71zM241 64c71 0 128 57 128 128s-57 128 -128 128s-128 -57 -128 -128s57 -128 128 -128z" />
    <glyph glyph-name="ion-brightness-6" unicode="&#xf39a;" horiz-adv-x="483" 
d="M412 121v-100h-100l-71 -70l-70 70h-100v100l-71 71l71 71v100h100l70 70l71 -70h100v-100l71 -71zM241 64c71 0 128 57 128 128s-57 128 -128 128v-256z" />
    <glyph glyph-name="ion-brightness-7" unicode="&#xf39c;" horiz-adv-x="483" 
d="M412 263l71 -71l-71 -71v-100h-100l-71 -70l-70 70h-100v100l-71 71l71 71v100h100l70 70l71 -70h100v-100zM241 64c71 0 128 57 128 128s-57 128 -128 128s-128 -57 -128 -128s57 -128 128 -128zM241 277c47 0 86 -38 86 -85s-39 -85 -86 -85s-85 38 -85 85s38 85 85 85
z" />
    <glyph glyph-name="ion-brightness-auto" unicode="&#xf39d;" horiz-adv-x="483" 
d="M217 178l24 78l25 -78h-49zM412 263l71 -71l-71 -71v-100h-100l-71 -70l-70 70h-100v100l-71 71l71 71v100h100l70 70l71 -70h100v-100zM290 107h41l-68 192h-43l-68 -192h40l15 42h69z" />
    <glyph glyph-name="ion-brush" unicode="&#xf39e;" horiz-adv-x="405" 
d="M107 149c35 0 64 -29 64 -64c0 -47 -39 -85 -86 -85c-32 0 -65 17 -85 43c18 0 43 14 43 42c0 35 29 64 64 64zM399 349c8 -8 8 -22 0 -30l-191 -191l-59 59l191 191c8 8 23 8 31 0z" />
    <glyph glyph-name="ion-bug" unicode="&#xf3a0;" horiz-adv-x="341" 
d="M341 277v-42h-44c1 -7 2 -15 2 -22v-21h42v-43h-42v-21c0 -7 -1 -14 -2 -21h44v-43h-60c-22 -38 -63 -64 -110 -64s-89 26 -111 64h-60v43h45c-1 7 -2 14 -2 21v21h-43v43h43v21c0 7 1 15 2 22h-45v42h60c10 17 23 31 39 42l-35 35l30 30l47 -46c10 2 20 3 30 3
s20 -1 30 -3l46 46l30 -30l-34 -35c16 -11 28 -25 38 -42h60zM213 107v42h-85v-42h85zM213 192v43h-85v-43h85z" />
    <glyph glyph-name="ion-cake" unicode="&#xf39f;" 
d="M192 320c-24 0 -43 19 -43 43c0 8 2 16 6 22l37 63l37 -63c4 -6 6 -14 6 -22c0 -24 -19 -43 -43 -43zM290 107c14 -14 32 -22 52 -22c16 0 30 5 42 13v-98c0 -12 -9 -21 -21 -21h-342c-12 0 -21 9 -21 21v98c12 -8 27 -13 42 -13c20 0 38 8 52 22l23 23l23 -23
c28 -28 76 -28 104 0l23 23zM320 256c35 0 64 -29 64 -64v-33c0 -23 -19 -42 -42 -42c-11 0 -21 5 -29 13l-46 45l-45 -45c-16 -16 -43 -16 -59 0l-46 45l-46 -45c-8 -8 -18 -13 -29 -13c-23 0 -42 19 -42 42v33c0 35 29 64 64 64h107v43h42v-43h107z" />
    <glyph glyph-name="ion-call-end" unicode="&#xf14d;" horiz-adv-x="512" 
d="M256 256c-34 0 -67 -5 -98 -15v-67c0 -8 -5 -15 -12 -19c-21 -10 -40 -23 -57 -39c-4 -4 -9 -6 -15 -6s-11 2 -15 6l-53 53c-4 4 -6 9 -6 15s2 11 6 15c65 62 153 100 250 100s185 -38 250 -100c4 -4 6 -9 6 -15s-2 -11 -6 -15l-53 -53c-4 -4 -9 -6 -15 -6s-11 2 -15 6
c-17 16 -36 29 -57 39c-7 4 -12 12 -12 20v66c-31 10 -64 15 -98 15z" />
    <glyph glyph-name="ion-call-made" unicode="&#xf3a2;" horiz-adv-x="320" 
d="M107 341h213v-213h-43v140l-247 -247l-30 31l247 247h-140v42z" />
    <glyph glyph-name="ion-call-merge" unicode="&#xf3a3;" horiz-adv-x="274" 
d="M244 12l-73 73l30 31l73 -73zM41 277l96 96l96 -96h-75v-137l-128 -128l-30 31l116 115v119h-75z" />
    <glyph glyph-name="ion-call-missed" unicode="&#xf3a4;" 
d="M354 299l30 -31l-192 -192l-149 150v-98h-43v171h171v-43h-98l119 -119z" />
    <glyph glyph-name="ion-call-received" unicode="&#xf2f0;" horiz-adv-x="320" 
d="M320 332l-247 -247h140v-42h-213v213h43v-140l247 247z" />
    <glyph glyph-name="ion-call-split" unicode="&#xf3a5;" horiz-adv-x="341" 
d="M213 363h128v-128l-49 49l-61 -62l-30 30l61 62zM128 363l-49 -49l113 -113v-180h-43v162l-100 101l-49 -49v128h128z" />
    <glyph glyph-name="ion-camera-mic" unicode="&#xf3a6;" horiz-adv-x="427" 
d="M384 341c24 0 43 -18 43 -42v-256c0 -24 -19 -43 -43 -43h-149v45c60 10 106 63 106 126h-42c0 -47 -39 -86 -86 -86s-85 39 -85 86h-43c0 -63 47 -116 107 -126v-45h-149c-24 0 -43 19 -43 43v256c0 24 19 42 43 42h67l39 43h128l39 -43h68zM256 171v85
c0 24 -19 43 -43 43s-42 -19 -42 -43v-85c0 -24 18 -43 42 -43s43 19 43 43z" />
    <glyph glyph-name="ion-camera-mode" unicode="&#xf3a7;" horiz-adv-x="427" 
d="M384 363c24 0 43 -19 43 -43v-256c0 -24 -19 -43 -43 -43h-341c-24 0 -43 19 -43 43v256c0 24 19 43 43 43h67l39 42h128l39 -42h68zM213 299c-59 0 -106 -48 -106 -107c0 -7 1 -14 2 -21h44c-2 7 -4 13 -4 21c0 35 29 64 64 64h85c-20 26 -50 43 -85 43zM213 85
c59 0 107 48 107 107c0 7 -1 14 -2 21h-45c2 -7 4 -14 4 -21c0 -35 -29 -64 -64 -64h-84c19 -26 49 -43 84 -43z" />
    <glyph glyph-name="ion-camera-roll" unicode="&#xf3a8;" horiz-adv-x="427" 
d="M256 341h171v-320h-171c0 -24 -19 -42 -43 -42h-170c-24 0 -43 18 -43 42v320c0 24 19 43 43 43h21v21c0 12 9 22 21 22h86c12 0 21 -10 21 -22v-21h21c24 0 43 -19 43 -43zM213 64v43h-42v-43h42zM213 256v43h-42v-43h42zM299 64v43h-43v-43h43zM299 256v43h-43v-43h43z
M384 64v43h-43v-43h43zM384 256v43h-43v-43h43z" />
    <glyph glyph-name="ion-camera" unicode="&#xf2f4;" horiz-adv-x="427" 
d="M282 192c0 -38 -31 -68 -69 -68s-68 30 -68 68s30 68 68 68s69 -30 69 -68zM149 405h128l39 -42h68c24 0 43 -19 43 -43v-256c0 -24 -19 -43 -43 -43h-341c-24 0 -43 19 -43 43v256c0 24 19 43 43 43h67zM213 85c59 0 107 48 107 107s-48 107 -107 107
s-106 -48 -106 -107s47 -107 106 -107z" />
    <glyph glyph-name="ion-cast-connected" unicode="&#xf3a9;" horiz-adv-x="469" 
d="M0 64c35 0 64 -29 64 -64h-64v64zM0 149c82 0 149 -67 149 -149h-42c0 59 -48 107 -107 107v42zM384 299v-214h-120c-27 84 -95 152 -179 179v35h299zM0 235c130 0 235 -105 235 -235h-43c0 106 -86 192 -192 192v43zM427 384c24 0 42 -19 42 -43v-298
c0 -24 -18 -43 -42 -43h-150v43h150v298h-384v-64h-43v64c0 24 19 43 43 43h384z" />
    <glyph glyph-name="ion-cast" unicode="&#xf3aa;" horiz-adv-x="469" 
d="M427 384c24 0 42 -19 42 -43v-298c0 -24 -18 -43 -42 -43h-150v43h150v298h-384v-64h-43v64c0 24 19 43 43 43h384zM0 64c35 0 64 -29 64 -64h-64v64zM0 149c82 0 149 -67 149 -149h-42c0 59 -48 107 -107 107v42zM0 235c130 0 235 -105 235 -235h-43
c0 106 -86 192 -192 192v43z" />
    <glyph glyph-name="ion-cell-android" unicode="&#xf3ab;" horiz-adv-x="299" 
d="M235 427c35 0 64 -29 64 -64v-342c0 -35 -29 -64 -64 -64h-171c-35 0 -64 29 -64 64v342c0 35 29 64 64 64h171zM192 0v21h-85v-21h85zM261 64v299h-224v-299h224z" />
    <glyph glyph-name="ion-cell-camera-front" unicode="&#xf2f5;" horiz-adv-x="299" 
d="M107 21v43l64 -64l-64 -64v43h-107v42h107zM192 21h107v-42h-107v42zM149 277c-24 0 -42 19 -42 43s18 43 42 43s43 -19 43 -43s-19 -43 -43 -43zM256 448c24 0 43 -19 43 -43v-298c0 -24 -19 -43 -43 -43h-213c-24 0 -43 19 -43 43v298c0 24 19 43 43 43h213zM43 405
v-224c0 36 70 54 106 54s107 -18 107 -54v224h-213z" />
    <glyph glyph-name="ion-cell-camera-rear" unicode="&#xf2f6;" horiz-adv-x="299" 
d="M107 21v43l64 -64l-64 -64v43h-107v42h107zM192 21h107v-42h-107v42zM256 448c24 0 43 -19 43 -43v-298c0 -24 -19 -43 -43 -43h-213c-24 0 -43 19 -43 43v298c0 24 19 43 43 43h213zM149 320c24 0 43 19 43 43s-19 42 -43 42s-42 -18 -42 -42s18 -43 42 -43z" />
    <glyph glyph-name="ion-cell-dock" unicode="&#xf2f7;" horiz-adv-x="256" 
d="M43 -43v43h170v-43h-170zM213 426c24 0 43 -18 43 -42v-299c0 -24 -19 -42 -43 -42h-170c-24 0 -43 18 -43 42v299c0 24 19 43 43 43zM213 128v213h-170v-213h170z" />
    <glyph glyph-name="ion-cell-info" unicode="&#xf2f8;" horiz-adv-x="299" 
d="M171 299v-43h-43v43h43zM171 213v-128h-43v128h43zM256 426c24 0 43 -18 43 -42v-384c0 -24 -19 -43 -43 -43h-213c-24 0 -43 19 -43 43v384c0 24 19 43 43 43zM256 43v298h-213v-298h213z" />
    <glyph glyph-name="ion-cell-landscape" unicode="&#xf3ac;" horiz-adv-x="469" 
d="M0 299c0 24 19 42 43 42h384c24 0 42 -18 42 -42v-214c0 -24 -18 -42 -42 -42h-384c-24 0 -43 18 -43 42v214zM384 299h-299v-214h299v214z" />
    <glyph glyph-name="ion-cell-lock-landscape" unicode="&#xf2fc;" horiz-adv-x="469" 
d="M427 341c24 0 42 -18 42 -42v-214c0 -24 -18 -42 -42 -42h-384c-24 0 -43 18 -43 42v214c0 24 19 42 43 42h384zM384 85v214h-299v-214h299zM192 107c-12 0 -21 9 -21 21v64c0 12 9 21 21 21v22c0 24 19 42 43 42s42 -18 42 -42v-22c12 0 22 -9 22 -21v-64
c0 -12 -10 -21 -22 -21h-85zM209 235v-22h51v22c0 14 -11 25 -25 25s-26 -11 -26 -25z" />
    <glyph glyph-name="ion-cell-lock-portrait" unicode="&#xf3ad;" horiz-adv-x="299" 
d="M107 107c-12 0 -22 9 -22 21v64c0 12 10 21 22 21v22c0 24 18 42 42 42s43 -18 43 -42v-22c12 0 21 -9 21 -21v-64c0 -12 -9 -21 -21 -21h-85zM124 235v-22h51v22c0 14 -12 25 -26 25s-25 -11 -25 -25zM256 427c24 0 43 -19 43 -43v-384c0 -24 -19 -43 -43 -43h-213
c-24 0 -43 19 -43 43v384c0 24 19 43 43 43h213zM256 43v298h-213v-298h213z" />
    <glyph glyph-name="ion-cell-lock-rotation" unicode="&#xf3ae;" horiz-adv-x="484" 
d="M475 176c12 -12 13 -34 0 -46l-136 -135c-12 -12 -33 -12 -45 0l-257 256c-12 12 -12 33 0 45l136 136c12 12 33 12 45 0l53 -52l-31 -30l-44 44l-121 -120l241 -242l121 121l-47 47l30 30zM159 11l29 28l81 -81c-5 0 -9 -1 -14 -1c-134 0 -244 104 -255 235h32
c8 -80 57 -148 127 -181zM320 256c-12 0 -21 9 -21 21v86c0 12 9 21 21 21v11c0 29 24 53 53 53s54 -24 54 -53v-11c12 0 21 -9 21 -21v-86c0 -12 -9 -21 -21 -21h-107zM337 395v-11h73v11c0 20 -17 36 -37 36s-36 -16 -36 -36z" />
    <glyph glyph-name="ion-cell-portrait" unicode="&#xf2fd;" horiz-adv-x="298" 
d="M256 426c24 0 42 -18 42 -42v-384c0 -24 -18 -43 -42 -43h-214c-24 0 -42 19 -42 43v384c0 24 18 43 42 43zM256 43v298h-214v-298h214z" />
    <glyph glyph-name="ion-cell-rotation" unicode="&#xf3af;" horiz-adv-x="510" 
d="M351 394l-29 -28l-81 81c5 0 9 1 14 1c134 0 244 -104 255 -235h-32c-8 80 -57 148 -127 181zM217 411l257 -257c12 -12 12 -33 0 -45l-136 -136c-12 -12 -33 -12 -45 0l-257 257c-12 12 -12 33 0 45l136 136c12 12 33 12 45 0zM315 -4l136 136l-256 256l-136 -136z
M159 -10l29 28l81 -81c-5 0 -9 -1 -14 -1c-134 0 -244 104 -255 235h32c8 -80 57 -148 127 -181z" />
    <glyph glyph-name="ion-cell-settings" unicode="&#xf3b0;" horiz-adv-x="256" 
d="M21 -64v43h43v-43h-43zM107 -64v43h42v-43h-42zM192 -64v43h43v-43h-43zM213 448c24 0 43 -19 43 -43v-341c0 -24 -19 -43 -43 -43h-170c-24 0 -43 19 -43 43v341c0 24 19 43 43 43h170zM213 107v256h-170v-256h170z" />
    <glyph glyph-name="ion-cell-tap" unicode="&#xf3b1;" horiz-adv-x="363" 
d="M0 107c82 0 149 -68 149 -150h-42c0 59 -48 107 -107 107v43zM0 21c35 0 64 -29 64 -64h-64v64zM0 192c130 0 235 -105 235 -235h-43c0 106 -86 192 -192 192v43zM320 426c24 0 43 -18 43 -42v-363c0 -24 -19 -42 -43 -42h-44c-2 30 -10 58 -21 85h65v277h-213v-128
c-14 6 -28 10 -43 14v157c0 24 19 43 43 43z" />
    <glyph glyph-name="ion-cell-update" unicode="&#xf3b2;" horiz-adv-x="299" 
d="M256 426c24 0 43 -18 43 -42v-384c0 -24 -19 -43 -43 -43h-213c-24 0 -43 19 -43 43v384c0 24 19 43 43 43zM256 43v298h-213v-298h213zM235 171l-86 -86l-85 86h64v106h43v-106h64z" />
    <glyph glyph-name="ion-check-box-add" unicode="&#xf3b3;" 
d="M341 384c24 0 43 -19 43 -43v-298c0 -24 -19 -43 -43 -43h-298c-24 0 -43 19 -43 43v298c0 24 19 43 43 43h298zM299 171v42h-86v86h-42v-86h-86v-42h86v-86h42v86h86z" />
    <glyph glyph-name="ion-check-box-outline" unicode="&#xf3b4;" 
d="M341 341h-298v-298h298v298zM341 384c24 0 43 -19 43 -43v-298c0 -24 -19 -43 -43 -43h-298c-24 0 -43 19 -43 43v298c0 24 19 43 43 43h298z" />
    <glyph glyph-name="ion-check-box" unicode="&#xf3b5;" 
d="M341 384c24 0 43 -19 43 -43v-298c0 -24 -19 -43 -43 -43h-298c-24 0 -43 19 -43 43v298c0 24 19 43 43 43h298zM149 85l192 192l-30 31l-162 -162l-76 76l-30 -30z" />
    <glyph glyph-name="ion-circle-account" unicode="&#xf3b6;" horiz-adv-x="427" 
d="M213 405c118 0 214 -95 214 -213s-96 -213 -214 -213s-213 95 -213 213s95 213 213 213zM213 341c-35 0 -64 -29 -64 -64s29 -64 64 -64s64 29 64 64s-29 64 -64 64zM213 38c53 0 100 28 128 69c-1 42 -85 66 -128 66s-127 -24 -128 -66c28 -41 75 -69 128 -69z" />
    <glyph glyph-name="ion-circle-add-multiple" unicode="&#xf3b7;" horiz-adv-x="512" 
d="M341 277v-64h64v-42h-64v-64h-42v64h-64v42h64v64h42zM43 192c0 -60 35 -111 85 -135v-46c-75 26 -128 97 -128 181s53 155 128 181v-46c-50 -24 -85 -75 -85 -135zM320 384c106 0 192 -86 192 -192s-86 -192 -192 -192s-192 86 -192 192s86 192 192 192zM320 43
c82 0 149 67 149 149s-67 149 -149 149s-149 -67 -149 -149s67 -149 149 -149z" />
    <glyph glyph-name="ion-circle-add-outline" unicode="&#xf3b8;" horiz-adv-x="427" 
d="M235 299v-86h85v-42h-85v-86h-43v86h-85v42h85v86h43zM213 405c118 0 214 -95 214 -213s-96 -213 -214 -213s-213 95 -213 213s95 213 213 213zM213 21c94 0 171 77 171 171s-77 171 -171 171s-170 -77 -170 -171s76 -171 170 -171z" />
    <glyph glyph-name="ion-circle-add" unicode="&#xf3b9;" horiz-adv-x="427" 
d="M213 405c118 0 214 -95 214 -213s-96 -213 -214 -213s-213 95 -213 213s95 213 213 213zM320 171v42h-85v86h-43v-86h-85v-42h85v-86h43v86h85z" />
    <glyph glyph-name="ion-circle-cancel" unicode="&#xf3ba;" horiz-adv-x="427" 
d="M268 277l31 -30l-55 -55l55 -55l-31 -30l-55 55l-55 -55l-30 30l55 55l-55 55l30 30l55 -55zM213 405c118 0 214 -95 214 -213s-96 -213 -214 -213s-213 95 -213 213s95 213 213 213zM213 21c94 0 171 77 171 171s-77 171 -171 171s-170 -77 -170 -171s76 -171 170 -171z
" />
    <glyph glyph-name="ion-circle-check" unicode="&#xf3bb;" horiz-adv-x="427" 
d="M213 405c118 0 214 -95 214 -213s-96 -213 -214 -213s-213 95 -213 213s95 213 213 213zM171 85l192 192l-31 31l-161 -162l-77 76l-30 -30z" />
    <glyph glyph-name="ion-circle-error" unicode="&#xf3bc;" horiz-adv-x="427" 
d="M213 405c118 0 214 -95 214 -213s-96 -213 -214 -213s-213 95 -213 213s95 213 213 213zM235 85v43h-43v-43h43zM235 171v128h-43v-128h43z" />
    <glyph glyph-name="ion-circle-help" unicode="&#xf3bd;" horiz-adv-x="427" 
d="M213 405c118 0 214 -95 214 -213s-96 -213 -214 -213s-213 95 -213 213s95 213 213 213zM235 43v42h-43v-42h43zM279 208c12 12 20 29 20 48c0 47 -39 85 -86 85s-85 -38 -85 -85h43c0 24 18 43 42 43s43 -19 43 -43c0 -12 -4 -22 -12 -30l-27 -27
c-15 -15 -25 -36 -25 -60v-11h43c0 32 10 45 25 60z" />
    <glyph glyph-name="ion-circle-info-outline" unicode="&#xf305;" horiz-adv-x="427" 
d="M192 85v128h43v-128h-43zM213 405c118 0 214 -95 214 -213s-96 -213 -214 -213s-213 95 -213 213s95 213 213 213zM213 21c94 0 171 77 171 171s-77 171 -171 171s-170 -77 -170 -171s76 -171 170 -171zM192 256v43h43v-43h-43z" />
    <glyph glyph-name="ion-circle-info" unicode="&#xf313;" horiz-adv-x="427" 
d="M213 405c118 0 214 -95 214 -213s-96 -213 -214 -213s-213 95 -213 213s95 213 213 213zM235 85v128h-43v-128h43zM235 256v43h-43v-43h43z" />
    <glyph glyph-name="ion-circle-pause-outline" unicode="&#xf102;" horiz-adv-x="427" 
d="M149 107v170h43v-170h-43zM213 405c118 0 214 -95 214 -213s-96 -213 -214 -213s-213 95 -213 213s95 213 213 213zM213 21c94 0 171 77 171 171s-77 171 -171 171s-170 -77 -170 -171s76 -171 170 -171zM235 107v170h42v-170h-42z" />
    <glyph glyph-name="ion-circle-pause" unicode="&#xf103;" horiz-adv-x="427" 
d="M213 405c118 0 214 -95 214 -213s-96 -213 -214 -213s-213 95 -213 213s95 213 213 213zM192 107v170h-43v-170h43zM277 107v170h-42v-170h42z" />
    <glyph glyph-name="ion-circle-play-outline" unicode="&#xf104;" horiz-adv-x="427" 
d="M171 96v192l128 -96zM213 405c118 0 214 -95 214 -213s-96 -213 -214 -213s-213 95 -213 213s95 213 213 213zM213 21c94 0 171 77 171 171s-77 171 -171 171s-170 -77 -170 -171s76 -171 170 -171z" />
    <glyph glyph-name="ion-circle-play" unicode="&#xf105;" horiz-adv-x="427" 
d="M213 405c118 0 214 -95 214 -213s-96 -213 -214 -213s-213 95 -213 213s95 213 213 213zM171 96l128 96l-128 96v-192z" />
    <glyph glyph-name="ion-circle-remove-outline" unicode="&#xf25e;" horiz-adv-x="427" 
d="M107 213h213v-42h-213v42zM213 405c118 0 214 -95 214 -213s-96 -213 -214 -213s-213 95 -213 213s95 213 213 213zM213 21c94 0 171 77 171 171s-77 171 -171 171s-170 -77 -170 -171s76 -171 170 -171z" />
    <glyph glyph-name="ion-circle-remove" unicode="&#xf25f;" horiz-adv-x="427" 
d="M213 405c118 0 214 -95 214 -213s-96 -213 -214 -213s-213 95 -213 213s95 213 213 213zM320 171v42h-213v-42h213z" />
    <glyph glyph-name="ion-circle-stars" unicode="&#xf260;" horiz-adv-x="427" 
d="M213 405c118 0 214 -95 214 -213s-96 -213 -214 -213s-213 95 -213 213s95 213 213 213zM304 64l-24 103l79 69l-105 9l-41 96l-41 -96l-105 -9l80 -69l-24 -103l90 54z" />
    <glyph glyph-name="ion-circle-swap-vert" unicode="&#xf261;" horiz-adv-x="427" 
d="M213 405c118 0 214 -95 214 -213s-96 -213 -214 -213s-213 95 -213 213s95 213 213 213zM96 256h53v-85h43v85h53l-74 75zM331 128h-54v85h-42v-85h-54l75 -75z" />
    <glyph glyph-name="ion-clear-all" unicode="&#xf262;" 
d="M43 171v42h298v-42h-298zM0 85v43h299v-43h-299zM85 299h299v-43h-299v43z" />
    <glyph glyph-name="ion-clear" unicode="&#xf106;" horiz-adv-x="299" 
d="M299 311l-119 -119l119 -119l-31 -30l-119 119l-119 -119l-30 30l119 119l-119 119l30 30l119 -119l119 119z" />
    <glyph glyph-name="ion-closed-caption" unicode="&#xf107;" 
d="M341 363c24 0 43 -19 43 -43v-256c0 -24 -19 -43 -43 -43h-298c-24 0 -43 19 -43 43v256c0 24 19 43 43 43h298zM171 213v22c0 12 -10 21 -22 21h-64c-12 0 -21 -9 -21 -21v-86c0 -12 9 -21 21 -21h64c12 0 22 9 22 21v22h-32v-11h-43v64h43v-11h32zM320 213v22
c0 12 -9 21 -21 21h-64c-12 0 -22 -9 -22 -21v-86c0 -12 10 -21 22 -21h64c12 0 21 9 21 21v22h-32v-11h-43v64h43v-11h32z" />
    <glyph glyph-name="ion-cloud-circle" unicode="&#xf108;" horiz-adv-x="427" 
d="M213 405c118 0 214 -95 214 -213s-96 -213 -214 -213s-213 95 -213 213s95 213 213 213zM309 107c29 0 54 24 54 53s-25 53 -54 53h-10c0 47 -39 86 -86 86c-40 0 -73 -28 -82 -65l-3 1c-35 0 -64 -29 -64 -64s29 -64 64 -64h181z" />
    <glyph glyph-name="ion-cloud-done" unicode="&#xf14e;" horiz-adv-x="512" 
d="M413 234c55 -4 99 -50 99 -106c0 -59 -48 -107 -107 -107h-277c-71 0 -128 57 -128 128c0 66 50 121 114 128c27 51 80 86 142 86c78 0 142 -56 157 -129zM213 85l141 141l-30 30l-111 -110l-44 44l-30 -30z" />
    <glyph glyph-name="ion-cloud-download" unicode="&#xf263;" horiz-adv-x="512" 
d="M413 234c55 -4 99 -50 99 -106c0 -59 -48 -107 -107 -107h-277c-71 0 -128 57 -128 128c0 66 50 121 114 128c27 51 80 86 142 86c78 0 142 -56 157 -129zM363 171h-64v85h-86v-85h-64l107 -107z" />
    <glyph glyph-name="ion-cloud-off" unicode="&#xf264;" horiz-adv-x="512" 
d="M413 234c55 -4 99 -50 99 -106c0 -36 -18 -68 -45 -87l-31 31c20 11 33 32 33 56c0 35 -29 64 -64 64h-32v11c0 65 -52 117 -117 117c-20 0 -38 -5 -54 -13l-32 31c25 16 55 25 86 25c78 0 142 -56 157 -129zM64 335l27 28l357 -357l-27 -27l-43 42h-250
c-71 0 -128 57 -128 128c0 69 55 125 123 128zM165 235h-37c-47 0 -85 -39 -85 -86s38 -85 85 -85h207z" />
    <glyph glyph-name="ion-cloud-outline" unicode="&#xf265;" horiz-adv-x="512" 
d="M413 234c55 -4 99 -50 99 -106c0 -59 -48 -107 -107 -107h-277c-71 0 -128 57 -128 128c0 66 50 121 114 128c27 51 80 86 142 86c78 0 142 -56 157 -129zM405 64c35 0 64 29 64 64s-29 64 -64 64h-32v11c0 65 -52 117 -117 117c-54 0 -99 -36 -113 -85h-15
c-47 0 -85 -39 -85 -86s38 -85 85 -85h277z" />
    <glyph glyph-name="ion-cloud-upload" unicode="&#xf266;" horiz-adv-x="512" 
d="M413 234c55 -4 99 -50 99 -106c0 -59 -48 -107 -107 -107h-277c-71 0 -128 57 -128 128c0 66 50 121 114 128c27 51 80 86 142 86c78 0 142 -56 157 -129zM299 171h64l-107 106l-107 -106h64v-86h86v86z" />
    <glyph glyph-name="ion-cloud" unicode="&#xf10a;" horiz-adv-x="512" 
d="M413 234c55 -4 99 -50 99 -106c0 -59 -48 -107 -107 -107h-277c-71 0 -128 57 -128 128c0 66 50 121 114 128c27 51 80 86 142 86c78 0 142 -56 157 -129z" />
    <glyph glyph-name="ion-colorize" unicode="&#xf10b;" 
d="M378 328c8 -8 8 -22 0 -30l-67 -67l41 -41l-30 -30l-30 30l-191 -190h-101v101l190 191l-30 30l30 30l41 -41l67 67c8 8 22 8 30 0zM84 43l172 172l-41 41l-172 -172z" />
    <glyph glyph-name="ion-compare" unicode="&#xf267;" 
d="M149 384v43h43v-470h-43v43h-106c-24 0 -43 19 -43 43v298c0 24 19 43 43 43h106zM149 64v128l-106 -128h106zM341 384c24 0 43 -19 43 -43v-298c0 -24 -19 -43 -43 -43h-106v192l106 -128v277h-106v43h106z" />
    <glyph glyph-name="ion-contact-cal" unicode="&#xf268;" 
d="M341 384c24 0 43 -19 43 -43v-298c0 -24 -19 -43 -43 -43h-298c-24 0 -43 19 -43 43v298c0 24 19 43 43 43h21v43h43v-43h170v43h43v-43h21zM192 320c-35 0 -64 -29 -64 -64s29 -64 64 -64s64 29 64 64s-29 64 -64 64zM320 64v21c0 43 -85 66 -128 66s-128 -23 -128 -66
v-21h256z" />
    <glyph glyph-name="ion-contacts-dialer" unicode="&#xf10c;" horiz-adv-x="512" 
d="M469 384c24 0 43 -19 43 -43v-298c0 -24 -19 -43 -43 -43h-426c-24 0 -43 19 -43 43v298c0 24 19 43 43 43h426zM171 320c-35 0 -64 -29 -64 -64s29 -64 64 -64s64 29 64 64s-29 64 -64 64zM299 64v21c0 43 -85 66 -128 66s-128 -23 -128 -66v-21h256zM381 149
c-5 13 -8 28 -8 43s3 30 8 43h35l32 42l-42 43c-28 -21 -50 -50 -59 -85c-4 -14 -6 -28 -6 -43s2 -29 6 -43c10 -35 30 -64 58 -85l43 43l-32 42h-35z" />
    <glyph glyph-name="ion-contacts-mail" unicode="&#xf10d;" horiz-adv-x="512" 
d="M448 277l-64 -42l-64 42v22l64 -43l64 43v-22zM469 384c24 0 43 -19 43 -43v-298c0 -24 -19 -43 -43 -43h-426c-24 0 -43 19 -43 43v298c0 24 19 43 43 43h426zM171 320c-35 0 -64 -29 -64 -64s29 -64 64 -64s64 29 64 64s-29 64 -64 64zM299 64v21c0 43 -85 66 -128 66
s-128 -23 -128 -66v-21h256zM469 192v128h-170v-128h170z" />
    <glyph glyph-name="ion-contacts" unicode="&#xf10e;" horiz-adv-x="427" 
d="M384 448v-43h-341v43h341zM43 -64v43h341v-43h-341zM384 363c24 0 43 -19 43 -43v-256c0 -24 -19 -43 -43 -43h-341c-24 0 -43 19 -43 43v256c0 24 19 43 43 43h341zM213 304c-26 0 -48 -22 -48 -48c0 -27 22 -48 48 -48s48 21 48 48c0 26 -22 48 -48 48zM320 85v32
c0 36 -71 54 -107 54s-106 -18 -106 -54v-32h213z" />
    <glyph glyph-name="ion-copy" unicode="&#xf314;" horiz-adv-x="405" 
d="M299 427v-43h-256v-299h-43v299c0 24 19 43 43 43h256zM363 341c24 0 42 -18 42 -42v-299c0 -24 -18 -43 -42 -43h-235c-24 0 -43 19 -43 43v299c0 24 19 42 43 42h235zM363 0v299h-235v-299h235z" />
    <glyph glyph-name="ion-credit-card" unicode="&#xf10f;" horiz-adv-x="427" 
d="M384 363c24 0 43 -19 43 -43v-256c0 -24 -19 -43 -43 -43h-341c-24 0 -43 19 -43 43v256c0 24 19 43 43 43h341zM384 64v128h-341v-128h341zM384 277v43h-341v-43h341z" />
    <glyph glyph-name="ion-crop-16-9" unicode="&#xf111;" 
d="M341 320c24 0 43 -19 43 -43v-170c0 -24 -19 -43 -43 -43h-298c-24 0 -43 19 -43 43v170c0 24 19 43 43 43h298zM341 107v170h-298v-170h298z" />
    <glyph glyph-name="ion-crop-3-2" unicode="&#xf3bf;" 
d="M341 363c24 0 43 -19 43 -43v-256c0 -24 -19 -43 -43 -43h-298c-24 0 -43 19 -43 43v256c0 24 19 43 43 43h298zM341 64v256h-298v-256h298z" />
    <glyph glyph-name="ion-crop-5-4" unicode="&#xf3be;" 
d="M341 341c24 0 43 -18 43 -42v-214c0 -24 -19 -42 -43 -42h-298c-24 0 -43 18 -43 42v214c0 24 19 42 43 42h298zM341 85v214h-298v-214h298z" />
    <glyph glyph-name="ion-crop-7-5" unicode="&#xf110;" 
d="M341 299c24 0 43 -19 43 -43v-128c0 -24 -19 -43 -43 -43h-298c-24 0 -43 19 -43 43v128c0 24 19 43 43 43h298zM341 128v128h-298v-128h298z" />
    <glyph glyph-name="ion-crop-din" unicode="&#xf112;" 
d="M341 384c24 0 43 -19 43 -43v-298c0 -24 -19 -43 -43 -43h-298c-24 0 -43 19 -43 43v298c0 24 19 43 43 43h298zM341 43v298h-298v-298h298z" />
    <glyph glyph-name="ion-crop-free" unicode="&#xf113;" 
d="M0 341c0 24 19 43 43 43h85v-43h-85v-85h-43v85zM43 128v-85h85v-43h-85c-24 0 -43 19 -43 43v85h43zM341 43v85h43v-85c0 -24 -19 -43 -43 -43h-85v43h85zM341 384c24 0 43 -19 43 -43v-85h-43v85h-85v43h85z" />
    <glyph glyph-name="ion-crop-landscape" unicode="&#xf114;" 
d="M341 341c24 0 43 -18 43 -42v-214c0 -24 -19 -42 -43 -42h-298c-24 0 -43 18 -43 42v214c0 24 19 42 43 42h298zM341 85v214h-298v-214h298z" />
    <glyph glyph-name="ion-crop-original" unicode="&#xf115;" 
d="M341 384c24 0 43 -19 43 -43v-298c0 -24 -19 -43 -43 -43h-298c-24 0 -43 19 -43 43v298c0 24 19 43 43 43h298zM341 43v298h-298v-298h298zM234 186l75 -101h-234l58 76l42 -51z" />
    <glyph glyph-name="ion-crop-portrait" unicode="&#xf269;" horiz-adv-x="299" 
d="M256 384c24 0 43 -19 43 -43v-298c0 -24 -19 -43 -43 -43h-213c-24 0 -43 19 -43 43v298c0 24 19 43 43 43h213zM256 43v298h-213v-298h213z" />
    <glyph glyph-name="ion-crop-square" unicode="&#xf26a;" horiz-adv-x="341" 
d="M299 363c24 0 42 -19 42 -43v-256c0 -24 -18 -43 -42 -43h-256c-24 0 -43 19 -43 43v256c0 24 19 43 43 43h256zM299 64v256h-256v-256h256z" />
    <glyph glyph-name="ion-crop" unicode="&#xf116;" horiz-adv-x="469" 
d="M341 128v171h-170v42h170c24 0 43 -18 43 -42v-171h-43zM128 85h341v-42h-85v-86h-43v86h-213c-24 0 -43 18 -43 42v214h-85v42h85v86h43v-342z" />
    <glyph glyph-name="ion-cut" unicode="&#xf315;" horiz-adv-x="427" 
d="M163 285l264 -264v-21h-64l-150 149l-50 -50c5 -11 8 -23 8 -35c0 -47 -39 -85 -86 -85s-85 38 -85 85s38 85 85 85c12 0 24 -2 35 -7l51 50l-51 50c-11 -5 -23 -7 -35 -7c-47 0 -85 38 -85 85s38 85 85 85s86 -38 86 -85c0 -12 -3 -24 -8 -35zM85 277c24 0 43 19 43 43
s-19 43 -43 43s-42 -19 -42 -43s18 -43 42 -43zM85 21c24 0 43 19 43 43s-19 43 -43 43s-42 -19 -42 -43s18 -43 42 -43zM213 181c6 0 11 5 11 11s-5 11 -11 11s-10 -5 -10 -11s4 -11 10 -11zM363 384h64v-21l-150 -150l-42 43z" />
    <glyph glyph-name="ion-dashboard" unicode="&#xf26b;" 
d="M0 171v213h171v-213h-171zM0 0v128h171v-128h-171zM213 0v213h171v-213h-171zM213 384h171v-128h-171v128z" />
    <glyph glyph-name="ion-data-usage" unicode="&#xf3c0;" horiz-adv-x="427" 
d="M235 404c108 -11 192 -101 192 -212c0 -31 -7 -60 -19 -87l-56 33c7 17 11 35 11 54c0 75 -56 138 -128 148v64zM213 43c47 0 90 22 117 56l55 -33c-39 -53 -101 -87 -172 -87c-118 0 -213 95 -213 213c0 111 84 201 192 212v-64c-72 -10 -128 -73 -128 -148
c0 -82 67 -149 149 -149z" />
    <glyph glyph-name="ion-dehaze" unicode="&#xf26c;" horiz-adv-x="427" 
d="M0 117h427v-42h-427v42zM0 224h427v-43h-427v43zM0 331h427v-43h-427v43z" />
    <glyph glyph-name="ion-desktop-mac" unicode="&#xf2be;" horiz-adv-x="469" 
d="M427 405c24 0 42 -18 42 -42v-256c0 -24 -18 -43 -42 -43h-150l43 -64v-21h-171v21l43 64h-149c-24 0 -43 19 -43 43v256c0 24 19 42 43 42h384zM427 149v214h-384v-214h384z" />
    <glyph glyph-name="ion-desktop-windows" unicode="&#xf26d;" horiz-adv-x="469" 
d="M427 405c24 0 42 -18 42 -42v-256c0 -24 -18 -43 -42 -43h-150v-43h43v-42h-171v42h43v43h-149c-24 0 -43 19 -43 43v256c0 24 19 42 43 42h384zM427 107v256h-384v-256h384z" />
    <glyph glyph-name="ion-details" unicode="&#xf117;" 
d="M0 363h384l-192 -342zM72 320l120 -213l120 213h-240z" />
    <glyph glyph-name="ion-developer-mode" unicode="&#xf118;" horiz-adv-x="341" 
d="M64 340v-43h-43v85c0 24 19 43 43 43h213c24 0 43 -19 43 -43v-85h-43v43h-213zM244 92l-31 30l68 68l-68 68l31 30l97 -98zM128 122l-30 -30l-98 98l98 98l30 -30l-68 -68zM277 41v43h43v-86c0 -24 -19 -42 -43 -42h-213c-24 0 -43 18 -43 42v86h43v-43h213z" />
    <glyph glyph-name="ion-devices" unicode="&#xf119;" horiz-adv-x="512" 
d="M85 320v-235h214v-64h-299v64h43v235c0 24 18 43 42 43h384v-43h-384zM491 277c12 0 21 -9 21 -21v-213c0 -12 -9 -22 -21 -22h-128c-12 0 -22 10 -22 22v213c0 12 10 21 22 21h128zM469 85v150h-85v-150h85z" />
    <glyph glyph-name="ion-dialpad" unicode="&#xf316;" horiz-adv-x="341" 
d="M171 43c24 0 42 -19 42 -43s-18 -43 -42 -43s-43 19 -43 43s19 43 43 43zM43 427c24 0 42 -19 42 -43s-18 -43 -42 -43s-43 19 -43 43s19 43 43 43zM43 299c24 0 42 -19 42 -43s-18 -43 -42 -43s-43 19 -43 43s19 43 43 43zM43 171c24 0 42 -19 42 -43s-18 -43 -42 -43
s-43 19 -43 43s19 43 43 43zM299 341c-24 0 -43 19 -43 43s19 43 43 43s42 -19 42 -43s-18 -43 -42 -43zM171 171c24 0 42 -19 42 -43s-18 -43 -42 -43s-43 19 -43 43s19 43 43 43zM299 171c24 0 42 -19 42 -43s-18 -43 -42 -43s-43 19 -43 43s19 43 43 43zM299 299
c24 0 42 -19 42 -43s-18 -43 -42 -43s-43 19 -43 43s19 43 43 43zM171 299c24 0 42 -19 42 -43s-18 -43 -42 -43s-43 19 -43 43s19 43 43 43zM171 427c24 0 42 -19 42 -43s-18 -43 -42 -43s-43 19 -43 43s19 43 43 43z" />
    <glyph glyph-name="ion-disc-full" unicode="&#xf11b;" horiz-adv-x="427" 
d="M384 107v42h43v-42h-43zM384 299h43v-107h-43v107zM171 363c94 0 170 -77 170 -171s-76 -171 -170 -171s-171 77 -171 171s77 171 171 171zM171 149c24 0 42 19 42 43s-18 43 -42 43s-43 -19 -43 -43s19 -43 43 -43z" />
    <glyph glyph-name="ion-dns" unicode="&#xf11a;" 
d="M363 171c12 0 21 -10 21 -22v-128c0 -12 -9 -21 -21 -21h-342c-12 0 -21 9 -21 21v128c0 12 9 22 21 22h342zM85 43c24 0 43 18 43 42s-19 43 -43 43s-42 -19 -42 -43s18 -42 42 -42zM363 384c12 0 21 -9 21 -21v-128c0 -12 -9 -22 -21 -22h-342c-12 0 -21 10 -21 22v128
c0 12 9 21 21 21h342zM85 256c24 0 43 19 43 43s-19 42 -43 42s-42 -18 -42 -42s18 -43 42 -43z" />
    <glyph glyph-name="ion-done-all" unicode="&#xf11c;" horiz-adv-x="496" 
d="M375 299l-135 -136l-30 30l135 136zM466 329l30 -30l-256 -256l-119 119l30 30l89 -89zM0 162l30 30l119 -119l-30 -30z" />
    <glyph glyph-name="ion-done" unicode="&#xf11e;" horiz-adv-x="375" 
d="M119 103l226 226l30 -30l-256 -256l-119 119l30 30z" />
    <glyph glyph-name="ion-dvr" unicode="&#xf11d;" horiz-adv-x="469" 
d="M427 384c24 0 42 -19 42 -43v-256c0 -24 -18 -42 -42 -42h-107v-43h-171v43h-106c-24 0 -43 18 -43 42v256c0 24 19 43 43 43h384zM427 85v256h-384v-256h384zM384 277v-42h-235v42h235zM384 192v-43h-235v43h235zM128 277v-42h-43v42h43zM128 192v-43h-43v43h43z" />
    <glyph glyph-name="ion-edit" unicode="&#xf11f;" 
d="M0 80l236 236l80 -80l-236 -236h-80v80zM378 298l-39 -39l-80 80l39 39c8 8 22 8 30 0l50 -50c8 -8 8 -22 0 -30z" />
    <glyph glyph-name="ion-education" unicode="&#xf122;" horiz-adv-x="469" 
d="M85 167l150 -82l149 82v-86l-149 -81l-150 81v86zM235 384l234 -128v-171h-42v148l-192 -105l-235 128z" />
    <glyph glyph-name="ion-email-draft" unicode="&#xf120;" horiz-adv-x="427" 
d="M426 277l1 -213c0 -24 -19 -43 -43 -43h-341c-24 0 -43 19 -43 43v213c0 15 8 29 20 37l193 113l193 -113c12 -8 20 -22 20 -37zM213 171l177 110l-177 103l-176 -103z" />
    <glyph glyph-name="ion-email-inbox" unicode="&#xf121;" 
d="M341 384c24 0 43 -19 43 -43v-298c0 -24 -19 -43 -43 -43h-299c-24 0 -42 19 -42 43v298c0 24 18 43 42 43h299zM341 128v213h-299v-213h86c0 -35 29 -64 64 -64s64 29 64 64h85zM277 235l-85 -86l-85 86h42v64h86v-64h42z" />
    <glyph glyph-name="ion-email-send" unicode="&#xf123;" horiz-adv-x="448" 
d="M0 0v149l320 43l-320 43v149l448 -192z" />
    <glyph glyph-name="ion-email" unicode="&#xf124;" horiz-adv-x="427" 
d="M384 363c24 0 43 -19 43 -43v-256c0 -24 -19 -43 -43 -43h-341c-24 0 -43 19 -43 43v256c0 24 19 43 43 43h341zM384 277v43l-171 -107l-170 107v-43l170 -106z" />
    <glyph glyph-name="ion-ethernet" unicode="&#xf125;" horiz-adv-x="477" 
d="M148 304l-93 -112l93 -112l-33 -27l-115 139l115 139zM132 171v42h43v-42h-43zM345 213v-42h-42v42h42zM217 171v42h43v-42h-43zM362 331l115 -139l-115 -139l-33 27l93 112l-93 112z" />
    <glyph glyph-name="ion-event-available" unicode="&#xf126;" 
d="M289 212l-127 -127l-68 68l23 23l45 -45l104 104zM341 384c24 0 43 -19 43 -43v-298c0 -24 -19 -43 -43 -43h-298c-24 0 -43 19 -43 43v298c0 24 19 43 43 43h21v43h43v-43h170v43h43v-43h21zM341 43v234h-298v-234h298z" />
    <glyph glyph-name="ion-event-busy" unicode="&#xf127;" 
d="M135 85l-23 23l52 52l-52 52l23 23l52 -52l52 52l22 -23l-52 -52l52 -52l-22 -23l-52 52zM341 384c24 0 43 -19 43 -43v-298c0 -24 -19 -43 -43 -43h-298c-24 0 -43 19 -43 43v298c0 24 19 43 43 43h21v43h43v-43h170v43h43v-43h21zM341 43v234h-298v-234h298z" />
    <glyph glyph-name="ion-event-note" unicode="&#xf26e;" 
d="M299 235v-43h-214v43h214zM341 384c24 0 43 -19 43 -43v-298c0 -24 -19 -43 -43 -43h-298c-24 0 -43 19 -43 43v298c0 24 19 43 43 43h21v43h43v-43h170v43h43v-43h21zM341 43v234h-298v-234h298zM235 149v-42h-150v42h150z" />
    <glyph glyph-name="ion-event-today" unicode="&#xf12a;" 
d="M341 384c24 0 43 -19 43 -43v-298c0 -24 -19 -43 -43 -43h-298c-24 0 -43 19 -43 43v298c0 24 19 43 43 43h21v43h43v-43h170v43h43v-43h21zM341 43v234h-298v-234h298zM85 235h107v-107h-107v107z" />
    <glyph glyph-name="ion-event" unicode="&#xf128;" 
d="M299 192v-107h-107v107h107zM277 427h43v-43h21c24 0 43 -19 43 -43v-298c0 -24 -19 -43 -43 -43h-298c-24 0 -43 19 -43 43v298c0 24 19 43 43 43h21v43h43v-43h170v43zM341 43v234h-298v-234h298z" />
    <glyph glyph-name="ion-exit-to-app" unicode="&#xf129;" 
d="M151 116l55 55h-206v42h206l-55 55l30 31l107 -107l-107 -107zM341 384c24 0 43 -19 43 -43v-298c0 -24 -19 -43 -43 -43h-298c-24 0 -43 19 -43 43v85h43v-85h298v298h-298v-85h-43v85c0 24 19 43 43 43h298z" />
    <glyph glyph-name="ion-explicit" unicode="&#xf317;" 
d="M341 384c24 0 43 -19 43 -43v-298c0 -24 -19 -43 -43 -43h-298c-24 0 -43 19 -43 43v298c0 24 19 43 43 43h298zM256 256v43h-128v-214h128v43h-85v43h85v42h-85v43h85z" />
    <glyph glyph-name="ion-explore" unicode="&#xf12b;" horiz-adv-x="427" 
d="M213 215c13 0 24 -10 24 -23s-11 -23 -24 -23s-23 10 -23 23s10 23 23 23zM213 405c118 0 214 -95 214 -213s-96 -213 -214 -213s-213 95 -213 213s95 213 213 213zM260 145l81 175l-174 -81l-82 -175z" />
    <glyph glyph-name="ion-exposure-minus-1" unicode="&#xf271;" horiz-adv-x="320" 
d="M0 213h171v-42h-171v42zM320 64h-43v227l-64 -22v36l101 36h6v-277z" />
    <glyph glyph-name="ion-exposure-minus-2" unicode="&#xf26f;" horiz-adv-x="405" 
d="M278 100h127v-36h-184v31l89 98c7 8 14 16 19 22c5 7 9 12 12 17s5 10 6 15s2 9 2 14c0 6 -1 13 -3 18s-5 9 -8 13s-7 7 -12 9s-11 4 -18 4c-8 0 -14 -2 -20 -4c-6 -3 -11 -6 -15 -10s-6 -10 -8 -16s-3 -12 -3 -19h-46c0 11 2 22 6 32c4 11 10 20 18 28s17 14 29 19
s25 6 40 6c14 0 25 -1 36 -5s20 -8 27 -15s13 -15 17 -24s6 -20 6 -31c0 -9 -1 -17 -4 -25s-7 -17 -12 -25s-10 -17 -17 -25s-15 -17 -23 -25zM0 213h171v-42h-171v42z" />
    <glyph glyph-name="ion-exposure-plus-1" unicode="&#xf270;" horiz-adv-x="341" 
d="M128 299v-86h85v-42h-85v-86h-43v86h-85v42h85v86h43zM341 64h-42v227l-64 -22v36l100 36h6v-277z" />
    <glyph glyph-name="ion-exposure-plus-2" unicode="&#xf272;" horiz-adv-x="427" 
d="M300 100h127v-36h-184v31l89 98c7 8 13 16 18 22c5 7 9 12 12 17s5 10 6 15s2 9 2 14c0 6 -1 13 -3 18s-4 9 -7 13s-8 7 -13 9s-10 4 -17 4c-8 0 -15 -2 -21 -4c-6 -3 -10 -6 -14 -10s-7 -10 -9 -16s-3 -12 -3 -19h-45c0 11 2 22 6 32c4 11 9 20 17 28s18 14 30 19
s24 6 39 6c14 0 26 -1 37 -5s19 -8 26 -15s13 -15 17 -24s6 -20 6 -31c0 -9 -1 -17 -4 -25s-7 -17 -12 -25s-10 -17 -17 -25s-14 -17 -22 -25zM128 299v-86h85v-42h-85v-86h-43v86h-85v42h85v86h43z" />
    <glyph glyph-name="ion-exposure-zero" unicode="&#xf273;" horiz-adv-x="177" 
d="M177 181c0 -21 -3 -39 -7 -54s-10 -27 -18 -36s-16 -17 -27 -21s-23 -6 -36 -6s-26 2 -37 6s-20 12 -28 21s-14 21 -18 36s-6 33 -6 54v44c0 21 2 39 6 54s10 27 18 36s17 16 28 20s23 6 36 6s26 -2 37 -6s20 -11 28 -20s13 -21 17 -36s7 -33 7 -54v-44v0zM132 232
c0 14 -1 25 -3 34s-5 17 -9 23s-8 10 -13 12c-5 3 -12 4 -19 4s-13 -1 -18 -4s-10 -6 -14 -12s-6 -14 -8 -23s-3 -20 -3 -34v-57c0 -14 1 -26 3 -35s4 -17 8 -23s9 -10 14 -13s12 -4 19 -4s13 1 18 4s10 7 14 13s6 14 8 23s3 21 3 35v57z" />
    <glyph glyph-name="ion-exposure" unicode="&#xf12c;" horiz-adv-x="427" 
d="M277 85h-42v43h42v43h43v-43h43v-43h-43v-42h-43v42zM384 405c24 0 43 -18 43 -42v-342c0 -24 -19 -42 -43 -42h-341c-24 0 -43 18 -43 42v342c0 24 19 42 43 42h341zM64 341v-42h128v42h-128zM384 21v342l-341 -342h341z" />
    <glyph glyph-name="ion-extension" unicode="&#xf274;" horiz-adv-x="448" 
d="M395 213c29 0 53 -24 53 -53s-24 -53 -53 -53h-32v-86c0 -24 -19 -42 -43 -42h-81v32c0 32 -26 57 -58 57s-57 -25 -57 -57v-32h-81c-24 0 -43 18 -43 42v81h32c32 0 58 26 58 58s-26 58 -58 58h-32v81c0 24 19 42 43 42h85v32c0 29 24 54 53 54s54 -25 54 -54v-32h85
c24 0 43 -18 43 -42v-86h32z" />
    <glyph glyph-name="ion-face" unicode="&#xf275;" horiz-adv-x="512" 
d="M313 83c5 4 11 3 15 -2s4 -11 -1 -15c-20 -15 -45 -23 -71 -23s-51 8 -71 23c-5 4 -5 10 -1 15s10 6 15 2c16 -12 36 -19 57 -19s41 7 57 19zM203 181c0 -12 -10 -21 -22 -21s-21 9 -21 21s9 22 21 22s22 -10 22 -22zM256 448c141 0 256 -115 256 -256
s-115 -256 -256 -256s-256 115 -256 256s115 256 256 256zM426 132c27 0 49 24 49 54s-23 54 -50 54c-2 0 -4 -1 -6 -1c-118 -3 -223 52 -252 108v0v0c-6 -33 -43 -77 -88 -108v0c-24 -4 -42 -26 -42 -53c0 -28 21 -52 46 -54c23 -80 90 -138 171 -138c80 0 149 58 172 138z
M352 181c0 -12 -9 -21 -21 -21s-22 9 -22 21s10 22 22 22s21 -10 21 -22z" />
    <glyph glyph-name="ion-favorite-outline" unicode="&#xf3c1;" horiz-adv-x="427" 
d="M309 384c66 0 118 -51 118 -117c0 -81 -73 -146 -183 -246l-31 -28l-31 28c-110 100 -182 165 -182 246c0 66 51 117 117 117c37 0 73 -17 96 -44c23 27 59 44 96 44zM216 52c101 92 168 153 168 215c0 43 -32 74 -75 74c-33 0 -65 -21 -76 -50h-40c-11 29 -43 50 -76 50
c-43 0 -74 -31 -74 -74c0 -62 67 -123 168 -215l2 -2z" />
    <glyph glyph-name="ion-favorite" unicode="&#xf318;" horiz-adv-x="427" 
d="M213 -7l-31 28c-110 100 -182 165 -182 246c0 66 51 117 117 117c37 0 73 -17 96 -44c23 27 59 44 96 44c66 0 118 -51 118 -117c0 -81 -73 -146 -183 -246z" />
    <glyph glyph-name="ion-file-add" unicode="&#xf12d;" horiz-adv-x="341" 
d="M213 405l128 -128v-256c0 -24 -18 -42 -42 -42h-257c-24 0 -42 18 -42 42v342c0 24 19 42 43 42h170zM256 107v42h-64v64h-43v-64h-64v-42h64v-64h43v64h64zM192 256h117l-117 117v-117z" />
    <glyph glyph-name="ion-file-description" unicode="&#xf12f;" horiz-adv-x="341" 
d="M213 405l128 -128v-256c0 -24 -18 -42 -42 -42h-257c-24 0 -42 18 -42 42v342c0 24 19 42 43 42h170zM256 64v43h-171v-43h171zM256 149v43h-171v-43h171zM192 256h117l-117 117v-117z" />
    <glyph glyph-name="ion-file-download" unicode="&#xf12e;" horiz-adv-x="299" 
d="M299 256l-150 -149l-149 149h85v128h128v-128h86zM0 64h299v-43h-299v43z" />
    <glyph glyph-name="ion-file-upload" unicode="&#xf130;" horiz-adv-x="299" 
d="M85 107v128h-85l149 149l150 -149h-86v-128h-128zM0 64h299v-43h-299v43z" />
    <glyph glyph-name="ion-file" unicode="&#xf276;" horiz-adv-x="341" 
d="M43 405h170l128 -128v-256c0 -24 -18 -42 -42 -42h-257c-24 0 -42 18 -42 42v342c0 24 19 42 43 42zM192 256h117l-117 117v-117z" />
    <glyph glyph-name="ion-filter-1" unicode="&#xf3c2;" horiz-adv-x="469" 
d="M43 341v-341h341v-43h-341c-24 0 -43 19 -43 43v341h43zM277 128v171h-42v42h85v-213h-43zM427 427c24 0 42 -19 42 -43v-299c0 -24 -18 -42 -42 -42h-299c-24 0 -43 18 -43 42v299c0 24 19 43 43 43h299zM427 85v299h-299v-299h299z" />
    <glyph glyph-name="ion-filter-2" unicode="&#xf2bf;" horiz-adv-x="469" 
d="M43 341v-341h341v-43h-341c-24 0 -43 19 -43 43v341h43zM427 427c24 0 42 -19 42 -43v-299c0 -24 -18 -42 -42 -42h-299c-24 0 -43 18 -43 42v299c0 24 19 43 43 43h299zM427 85v299h-299v-299h299zM341 171v-43h-128v85c0 24 19 43 43 43h43v43h-86v42h86
c24 0 42 -18 42 -42v-43c0 -24 -18 -43 -42 -43h-43v-42h85z" />
    <glyph glyph-name="ion-filter-3" unicode="&#xf277;" horiz-adv-x="469" 
d="M427 427c24 0 42 -19 42 -43v-299c0 -24 -18 -42 -42 -42h-299c-24 0 -43 18 -43 42v299c0 24 19 43 43 43h299zM427 85v299h-299v-299h299zM43 341v-341h341v-43h-341c-24 0 -43 19 -43 43v341h43zM341 171c0 -24 -18 -43 -42 -43h-86v43h86v42h-43v43h43v43h-86v42h86
c24 0 42 -18 42 -42v-32c0 -18 -14 -32 -32 -32c18 0 32 -14 32 -32v-32z" />
    <glyph glyph-name="ion-filter-4" unicode="&#xf131;" horiz-adv-x="469" 
d="M43 341v-341h341v-43h-341c-24 0 -43 19 -43 43v341h43zM299 128v85h-86v128h43v-85h43v85h42v-213h-42zM427 427c24 0 42 -19 42 -43v-299c0 -24 -18 -42 -42 -42h-299c-24 0 -43 18 -43 42v299c0 24 19 43 43 43h299zM427 85v299h-299v-299h299z" />
    <glyph glyph-name="ion-filter-5" unicode="&#xf132;" horiz-adv-x="469" 
d="M427 427c24 0 42 -19 42 -43v-299c0 -24 -18 -42 -42 -42h-299c-24 0 -43 18 -43 42v299c0 24 19 43 43 43h299zM427 85v299h-299v-299h299zM43 341v-341h341v-43h-341c-24 0 -43 19 -43 43v341h43zM341 171c0 -24 -18 -43 -42 -43h-86v43h86v42h-86v128h128v-42h-85v-43
h43c24 0 42 -19 42 -43v-42z" />
    <glyph glyph-name="ion-filter-6" unicode="&#xf3c3;" horiz-adv-x="469" 
d="M43 341v-341h341v-43h-341c-24 0 -43 19 -43 43v341h43zM427 427c24 0 42 -19 42 -43v-299c0 -24 -18 -42 -42 -42h-299c-24 0 -43 18 -43 42v299c0 24 19 43 43 43h299zM427 85v299h-299v-299h299zM256 128c-24 0 -43 19 -43 43v128c0 24 19 42 43 42h85v-42h-85v-43h43
c24 0 42 -19 42 -43v-42c0 -24 -18 -43 -42 -43h-43zM256 213v-42h43v42h-43z" />
    <glyph glyph-name="ion-filter-7" unicode="&#xf3c5;" horiz-adv-x="469" 
d="M43 341v-341h341v-43h-341c-24 0 -43 19 -43 43v341h43zM427 427c24 0 42 -19 42 -43v-299c0 -24 -18 -42 -42 -42h-299c-24 0 -43 18 -43 42v299c0 24 19 43 43 43h299zM427 85v299h-299v-299h299zM256 128h-43l86 171h-86v42h128v-42z" />
    <glyph glyph-name="ion-filter-8" unicode="&#xf3c4;" horiz-adv-x="469" 
d="M43 341v-341h341v-43h-341c-24 0 -43 19 -43 43v341h43zM427 427c24 0 42 -19 42 -43v-299c0 -24 -18 -42 -42 -42h-299c-24 0 -43 18 -43 42v299c0 24 19 43 43 43h299zM427 85v299h-299v-299h299zM256 128c-24 0 -43 19 -43 43v32c0 18 14 32 32 32
c-18 0 -32 14 -32 32v32c0 24 19 42 43 42h43c24 0 42 -18 42 -42v-32c0 -18 -14 -32 -32 -32c18 0 32 -14 32 -32v-32c0 -24 -18 -43 -42 -43h-43zM256 299v-43h43v43h-43zM256 213v-42h43v42h-43z" />
    <glyph glyph-name="ion-filter-9-plus" unicode="&#xf306;" horiz-adv-x="469" 
d="M43 341v-341h341v-43h-341c-24 0 -43 19 -43 43v341h43zM277 192c0 -24 -18 -43 -42 -43h-64v43h64v21h-22c-24 0 -42 19 -42 43v21c0 24 18 43 42 43h22c24 0 42 -19 42 -43v-85zM213 256h22v21h-22v-21zM427 427c24 0 42 -19 42 -43v-299c0 -24 -18 -42 -42 -42h-299
c-24 0 -43 18 -43 42v299c0 24 19 43 43 43h299zM427 256v128h-299v-299h299v128h-43v-42h-43v42h-42v43h42v43h43v-43h43z" />
    <glyph glyph-name="ion-filter-9" unicode="&#xf133;" horiz-adv-x="469" 
d="M43 341v-341h341v-43h-341c-24 0 -43 19 -43 43v341h43zM427 427c24 0 42 -19 42 -43v-299c0 -24 -18 -42 -42 -42h-299c-24 0 -43 18 -43 42v299c0 24 19 43 43 43h299zM427 85v299h-299v-299h299zM299 341c24 0 42 -18 42 -42v-128c0 -24 -18 -43 -42 -43h-86v43h86v42
h-43c-24 0 -43 19 -43 43v43c0 24 19 42 43 42h43zM299 256v43h-43v-43h43z" />
    <glyph glyph-name="ion-filter-b-w" unicode="&#xf278;" 
d="M341 384c24 0 43 -19 43 -43v-298c0 -24 -19 -43 -43 -43h-298c-24 0 -43 19 -43 43v298c0 24 19 43 43 43h298zM341 43v298h-149v-128l-149 -170h149v170z" />
    <glyph glyph-name="ion-filter-center-focus" unicode="&#xf134;" 
d="M43 128v-85h85v-43h-85c-24 0 -43 19 -43 43v85h43zM43 341v-85h-43v85c0 24 19 43 43 43h85v-43h-85zM341 384c24 0 43 -19 43 -43v-85h-43v85h-85v43h85zM341 43v85h43v-85c0 -24 -19 -43 -43 -43h-85v43h85zM192 256c35 0 64 -29 64 -64s-29 -64 -64 -64
s-64 29 -64 64s29 64 64 64z" />
    <glyph glyph-name="ion-filter-drama" unicode="&#xf135;" horiz-adv-x="512" 
d="M413 234c55 -4 99 -50 99 -106c0 -59 -48 -107 -107 -107h-277c-71 0 -128 57 -128 128c0 66 50 121 114 128c27 51 80 86 142 86c78 0 142 -56 157 -129zM405 64c35 0 64 29 64 64s-29 64 -64 64h-32v11c0 65 -52 117 -117 117c-38 0 -73 -18 -94 -47
c54 -15 94 -65 94 -124h-43c0 47 -38 86 -85 86s-85 -39 -85 -86s38 -85 85 -85h277z" />
    <glyph glyph-name="ion-filter-frames" unicode="&#xf319;" horiz-adv-x="427" 
d="M384 363c24 0 43 -19 43 -43v-299c0 -24 -19 -42 -43 -42h-341c-24 0 -43 18 -43 42v299c0 24 19 43 43 43h85l85 85l86 -85h85zM384 21v299h-96l-74 75l-75 -75h-96v-299h341zM341 277h-256v-213h256z" />
    <glyph glyph-name="ion-filter-list" unicode="&#xf279;" 
d="M149 64v43h86v-43h-86zM0 320h384v-43h-384v43zM64 171v42h256v-42h-256z" />
    <glyph glyph-name="ion-filter-none" unicode="&#xf31a;" horiz-adv-x="469" 
d="M43 341v-341h341v-43h-341c-24 0 -43 19 -43 43v341h43zM427 427c24 0 42 -19 42 -43v-299c0 -24 -18 -42 -42 -42h-299c-24 0 -43 18 -43 42v299c0 24 19 43 43 43h299zM427 85v299h-299v-299h299z" />
    <glyph glyph-name="ion-filter-tilt-shift" unicode="&#xf137;" horiz-adv-x="425" 
d="M191 361c-31 -4 -59 -16 -83 -34l-31 30c32 26 71 43 114 47v-43zM347 357l-30 -30c-24 18 -52 30 -83 34v43c43 -4 81 -21 113 -47zM381 213c-4 31 -16 60 -34 84l30 30c26 -32 44 -71 48 -114h-44zM78 297c-18 -24 -31 -53 -35 -84h-43c4 43 21 82 47 114zM43 171
c4 -31 17 -60 35 -84l-31 -30c-26 32 -43 71 -47 114h43zM276 192c0 -35 -29 -64 -64 -64s-64 29 -64 64s29 64 64 64s64 -29 64 -64zM347 88c18 24 30 52 34 83h44c-4 -43 -22 -82 -48 -114zM234 23c31 4 59 16 83 34l30 -30c-32 -26 -70 -43 -113 -47v43zM77 27l31 30
c24 -18 52 -30 83 -34v-43c-43 4 -82 21 -114 47z" />
    <glyph glyph-name="ion-filter-vintage" unicode="&#xf136;" horiz-adv-x="414" 
d="M350 183c41 -24 64 -66 64 -110c-38 -22 -87 -24 -128 0c-6 4 -12 7 -17 11c1 -7 2 -13 2 -20c0 -47 -26 -89 -64 -111c-38 22 -64 64 -64 111c0 7 1 13 2 20c-5 -4 -11 -8 -17 -11c-41 -24 -90 -22 -128 0c0 44 23 87 64 111c6 3 12 6 18 8c-6 2 -12 6 -18 9
c-41 24 -64 66 -64 110c38 22 87 24 128 0c6 -4 12 -7 17 -11c-1 7 -2 13 -2 20c0 47 26 89 64 111c38 -22 64 -64 64 -111c0 -7 -1 -13 -2 -20c5 4 11 8 17 11c41 24 90 22 128 0c0 -44 -23 -86 -64 -110c-6 -3 -13 -7 -19 -9c6 -2 13 -6 19 -9zM207 107c47 0 85 38 85 85
s-38 85 -85 85s-86 -38 -86 -85s39 -85 86 -85z" />
    <glyph glyph-name="ion-filter" unicode="&#xf139;" horiz-adv-x="469" 
d="M319 229l76 -101h-235l59 75l42 -50zM43 341v-341h341v-43h-341c-24 0 -43 19 -43 43v341h43zM427 427c24 0 42 -19 42 -43v-299c0 -24 -18 -42 -42 -42h-299c-24 0 -43 18 -43 42v299c0 24 19 43 43 43h299zM427 85v299h-299v-299h299z" />
    <glyph glyph-name="ion-find-in-page" unicode="&#xf27a;" horiz-adv-x="341" 
d="M341 30l-81 82c11 17 17 37 17 59c0 59 -47 106 -106 106s-107 -47 -107 -106s48 -107 107 -107c22 0 41 7 58 18l95 -95c-7 -5 -16 -8 -25 -8h-257c-24 0 -42 18 -42 42v342c0 24 19 42 43 42h170l128 -128v-247zM107 171c0 35 29 64 64 64s64 -29 64 -64
s-29 -64 -64 -64s-64 29 -64 64z" />
    <glyph glyph-name="ion-find-replace" unicode="&#xf2c0;" horiz-adv-x="373" 
d="M149 320c-52 0 -94 -36 -104 -85h-43c10 72 72 128 147 128c41 0 79 -17 106 -44l44 44v-128h-128l54 54c-19 19 -47 31 -76 31zM270 125l103 -104l-32 -31l-103 103c-25 -18 -56 -29 -89 -29c-41 0 -78 17 -105 44l-44 -44v128h128l-54 -54c19 -19 46 -31 75 -31
c52 0 95 36 105 85h43c-4 -25 -13 -48 -27 -67z" />
    <glyph glyph-name="ion-flag" unicode="&#xf13a;" horiz-adv-x="320" 
d="M201 320h119v-213h-149l-9 42h-119v-149h-43v363h192z" />
    <glyph glyph-name="ion-flare" unicode="&#xf31b;" horiz-adv-x="469" 
d="M128 213v-42h-128v42h128zM174 283l-30 -31l-45 46l30 30zM256 427v-128h-43v128h43zM370 298l-45 -46l-30 31l45 45zM341 213h128v-42h-128v42zM235 256c35 0 64 -29 64 -64s-29 -64 -64 -64s-64 29 -64 64s29 64 64 64zM295 101l30 31l45 -46l-30 -30zM99 86l45 46
l30 -31l-45 -45zM213 -43v128h43v-128h-43z" />
    <glyph glyph-name="ion-flash-auto" unicode="&#xf13d;" horiz-adv-x="410" 
d="M0 405h213l-85 -192h85l-149 -256v192h-64v256zM341 405l69 -192h-41l-15 43h-68l-15 -43h-41l69 192h42zM295 285h50l-25 78z" />
    <glyph glyph-name="ion-flash-off" unicode="&#xf13e;" horiz-adv-x="363" 
d="M27 384l336 -336l-28 -27l-88 89l-76 -131v192h-64v79l-107 107zM320 235l-33 -57l-180 181v46h213l-85 -170h85z" />
    <glyph glyph-name="ion-flash-on" unicode="&#xf13f;" horiz-adv-x="213" 
d="M0 405h213l-85 -170h85l-149 -256v192h-64v234z" />
    <glyph glyph-name="ion-flip-to-back" unicode="&#xf27b;" 
d="M128 299v-43h-43v43h43zM128 213v-42h-43v42h43zM128 384v-43h-43c0 24 19 43 43 43zM213 128v-43h-42v43h42zM341 384c24 0 43 -19 43 -43h-43v43zM213 384v-43h-42v43h42zM128 85c-24 0 -43 19 -43 43h43v-43zM341 171v42h43v-42h-43zM341 256v43h43v-43h-43zM341 85
v43h43c0 -24 -19 -43 -43 -43zM43 299v-256h256v-43h-256c-24 0 -43 19 -43 43v256h43zM256 341v43h43v-43h-43zM256 85v43h43v-43h-43z" />
    <glyph glyph-name="ion-flip-to-front" unicode="&#xf31c;" 
d="M0 171v42h43v-42h-43zM0 85v43h43v-43h-43zM43 0c-24 0 -43 19 -43 43h43v-43zM0 256v43h43v-43h-43zM256 0v43h43v-43h-43zM341 384c24 0 43 -19 43 -43v-213c0 -24 -19 -43 -43 -43h-213c-24 0 -43 19 -43 43v213c0 24 19 43 43 43h213zM341 128v213h-213v-213h213z
M171 0v43h42v-43h-42zM85 0v43h43v-43h-43z" />
    <glyph glyph-name="ion-flip" unicode="&#xf14f;" 
d="M256 0v43h43v-43h-43zM341 256v43h43v-43h-43zM0 341c0 24 19 43 43 43h85v-43h-85v-298h85v-43h-85c-24 0 -43 19 -43 43v298zM341 384c24 0 43 -19 43 -43h-43v43zM171 -43v470h42v-470h-42zM341 85v43h43v-43h-43zM256 341v43h43v-43h-43zM341 171v42h43v-42h-43z
M341 0v43h43c0 -24 -19 -43 -43 -43z" />
    <glyph glyph-name="ion-focus-strong" unicode="&#xf3c6;" 
d="M192 277c47 0 85 -38 85 -85s-38 -85 -85 -85s-85 38 -85 85s38 85 85 85zM43 128v-85h85v-43h-85c-24 0 -43 19 -43 43v85h43zM43 341v-85h-43v85c0 24 19 43 43 43h85v-43h-85zM341 384c24 0 43 -19 43 -43v-85h-43v85h-85v43h85zM341 43v85h43v-85
c0 -24 -19 -43 -43 -43h-85v43h85z" />
    <glyph glyph-name="ion-focus-weak" unicode="&#xf140;" 
d="M43 128v-85h85v-43h-85c-24 0 -43 19 -43 43v85h43zM43 341v-85h-43v85c0 24 19 43 43 43h85v-43h-85zM341 384c24 0 43 -19 43 -43v-85h-43v85h-85v43h85zM341 43v85h43v-85c0 -24 -19 -43 -43 -43h-85v43h85zM192 277c47 0 85 -38 85 -85s-38 -85 -85 -85
s-85 38 -85 85s38 85 85 85zM192 149c24 0 43 19 43 43s-19 43 -43 43s-43 -19 -43 -43s19 -43 43 -43z" />
    <glyph glyph-name="ion-folder-open" unicode="&#xf141;" horiz-adv-x="427" 
d="M384 320c24 0 43 -19 43 -43v-213c0 -24 -19 -43 -43 -43h-341c-24 0 -43 19 -43 43v256c0 24 19 43 43 43h128l42 -43h171zM384 64v213h-341v-213h341z" />
    <glyph glyph-name="ion-folder-shared" unicode="&#xf31d;" horiz-adv-x="427" 
d="M384 320c24 0 43 -19 43 -43v-213c0 -24 -19 -43 -43 -43h-341c-24 0 -43 19 -43 43v256c0 24 19 43 43 43h128l42 -43h171zM277 256c-24 0 -42 -19 -42 -43s18 -42 42 -42s43 18 43 42s-19 43 -43 43zM363 85v22c0 28 -58 42 -86 42s-85 -14 -85 -42v-22h171z" />
    <glyph glyph-name="ion-folder-special" unicode="&#xf143;" horiz-adv-x="427" 
d="M384 320c24 0 43 -19 43 -43v-213c0 -24 -19 -43 -43 -43h-341c-24 0 -43 19 -43 43v256c0 24 19 43 43 43h128l42 -43h171zM247 64l-20 87l67 58l-89 8l-34 82l-35 -82l-89 -8l67 -58l-20 -87l77 45z" />
    <glyph glyph-name="ion-folder" unicode="&#xf27c;" horiz-adv-x="427" 
d="M171 363l42 -43h171c24 0 43 -19 43 -43v-213c0 -24 -19 -43 -43 -43h-341c-24 0 -43 19 -43 43v256c0 24 19 43 43 43h128z" />
    <glyph glyph-name="ion-format-align-center" unicode="&#xf142;" 
d="M85 128h214v-43h-214v43zM0 0v43h384v-43h-384zM0 171v42h384v-42h-384zM85 299h214v-43h-214v43zM0 384h384v-43h-384v43z" />
    <glyph glyph-name="ion-format-align-justify" unicode="&#xf144;" 
d="M0 0v43h384v-43h-384zM0 85v43h384v-43h-384zM0 171v42h384v-42h-384zM0 256v43h384v-43h-384zM0 384h384v-43h-384v43z" />
    <glyph glyph-name="ion-format-align-left" unicode="&#xf27d;" 
d="M256 128v-43h-256v43h256zM256 299v-43h-256v43h256zM0 171v42h384v-42h-384zM0 0v43h384v-43h-384zM0 384h384v-43h-384v43z" />
    <glyph glyph-name="ion-format-align-right" unicode="&#xf147;" 
d="M0 0v43h384v-43h-384zM128 85v43h256v-43h-256zM0 171v42h384v-42h-384zM128 256v43h256v-43h-256zM0 384h384v-43h-384v43z" />
    <glyph glyph-name="ion-format-bold" unicode="&#xf148;" horiz-adv-x="229" 
d="M183 218c27 -13 46 -41 46 -73c0 -45 -34 -81 -79 -81h-150v299h133c48 0 86 -38 86 -86c0 -22 -15 -45 -36 -59zM64 309v-64h64c18 0 32 14 32 32s-14 32 -32 32h-64zM139 117c18 0 32 14 32 32s-14 32 -32 32h-75v-64h75z" />
    <glyph glyph-name="ion-format-clear" unicode="&#xf14a;" 
d="M27 341l6 -6l308 -308l-27 -27l-121 121l-33 -78h-64l53 122l-149 149zM85 341h299v-64h-123l-35 -80l-45 45l16 35h-52l-60 60v4z" />
    <glyph glyph-name="ion-format-color-fill" unicode="&#xf149;" horiz-adv-x="512" 
d="M353 257c12 -12 12 -33 0 -45l-117 -117c-6 -6 -15 -10 -23 -10s-16 4 -22 10l-118 117c-12 12 -12 33 0 45l110 110l-51 51l31 30zM111 235h205l-103 102zM405 203c0 0 43 -47 43 -75c0 -24 -19 -43 -43 -43s-42 19 -42 43c0 28 42 75 42 75zM0 21h512v-85h-512v85z" />
    <glyph glyph-name="ion-format-color-reset" unicode="&#xf14b;" horiz-adv-x="338" 
d="M299 149c0 -10 -2 -19 -4 -28l-183 184c30 43 59 75 59 75s128 -146 128 -231zM280 83l58 -59l-27 -27l-56 56c-23 -20 -52 -32 -84 -32c-71 0 -128 57 -128 128c0 26 12 58 28 89l-71 70l27 28l154 -155z" />
    <glyph glyph-name="ion-format-color-text" unicode="&#xf3c8;" horiz-adv-x="512" 
d="M0 21h512v-85h-512v85zM235 384h42l118 -299h-48l-24 64h-134l-24 -64h-48zM205 192h102l-51 135z" />
    <glyph glyph-name="ion-format-indent-decrease" unicode="&#xf3c7;" 
d="M171 85v43h213v-43h-213zM0 192l85 85v-170zM0 0v43h384v-43h-384zM0 384h384v-43h-384v43zM171 256v43h213v-43h-213zM171 171v42h213v-42h-213z" />
    <glyph glyph-name="ion-format-indent-increase" unicode="&#xf3ca;" 
d="M0 0v43h384v-43h-384zM0 277l85 -85l-85 -85v170zM171 85v43h213v-43h-213zM0 384h384v-43h-384v43zM171 256v43h213v-43h-213zM171 171v42h213v-42h-213z" />
    <glyph glyph-name="ion-format-italic" unicode="&#xf3c9;" horiz-adv-x="256" 
d="M85 363h171v-64h-59l-74 -171h48v-64h-171v64h59l74 171h-48v64z" />
    <glyph glyph-name="ion-format-line-spacing" unicode="&#xf3cc;" horiz-adv-x="437" 
d="M96 299v-214h53l-74 -74l-75 74h53v214h-53l75 74l74 -74h-53zM181 341h256v-42h-256v42zM181 43v42h256v-42h-256zM181 171v42h256v-42h-256z" />
    <glyph glyph-name="ion-format-list-bulleted" unicode="&#xf3cb;" horiz-adv-x="395" 
d="M32 224c18 0 32 -14 32 -32s-14 -32 -32 -32s-32 14 -32 32s14 32 32 32zM32 352c18 0 32 -14 32 -32s-14 -32 -32 -32s-32 14 -32 32s14 32 32 32zM32 92c16 0 28 -12 28 -28s-12 -28 -28 -28s-28 12 -28 28s12 28 28 28zM96 43v42h299v-42h-299zM96 171v42h299v-42
h-299zM96 341h299v-42h-299v42z" />
    <glyph glyph-name="ion-format-list-numbered" unicode="&#xf3ce;" horiz-adv-x="405" 
d="M0 85v22h64v-86h-64v22h43v10h-22v22h22v10h-43zM21 277v64h-21v22h43v-86h-22zM0 213v22h64v-20l-38 -44h38v-22h-64v20l38 44h-38zM107 341h298v-42h-298v42zM107 43v42h298v-42h-298zM107 171v42h298v-42h-298z" />
    <glyph glyph-name="ion-format-paint" unicode="&#xf3cd;" horiz-adv-x="363" 
d="M299 363h64v-171h-171v-192c0 -12 -9 -21 -21 -21h-43c-12 0 -21 9 -21 21v235h213v85h-21v-21c0 -12 -10 -22 -22 -22h-256c-12 0 -21 10 -21 22v85c0 12 9 21 21 21h256c12 0 22 -9 22 -21v-21z" />
    <glyph glyph-name="ion-format-quote" unicode="&#xf3cf;" horiz-adv-x="299" 
d="M21 85l43 86h-64v128h128v-128l-43 -86h-64zM192 85l43 86h-64v128h128v-128l-43 -86h-64z" />
    <glyph glyph-name="ion-format-size" unicode="&#xf3d0;" horiz-adv-x="405" 
d="M128 363h277v-64h-106v-256h-64v256h-107v64zM0 192v64h192v-64h-64v-149h-64v149h-64z" />
    <glyph glyph-name="ion-format-strikethrough" unicode="&#xf3d1;" 
d="M149 43v64h86v-64h-86zM43 363h298v-64h-106v-64h-86v64h-106v64zM0 149v43h384v-43h-384z" />
    <glyph glyph-name="ion-format-textdirection-lr" unicode="&#xf3d2;" horiz-adv-x="341" 
d="M85 235c-47 0 -85 38 -85 85s38 85 85 85h171v-42h-43v-235h-42v235h-43v-235h-43v107zM341 64l-85 -85v64h-256v42h256v64z" />
    <glyph glyph-name="ion-format-textdirection-rl" unicode="&#xf3d3;" horiz-adv-x="341" 
d="M128 235c-47 0 -85 38 -85 85s38 85 85 85h171v-42h-43v-235h-43v235h-42v-235h-43v107zM85 85h256v-42h-256v-64l-85 85l85 85v-64z" />
    <glyph glyph-name="ion-format-underline" unicode="&#xf3d4;" horiz-adv-x="299" 
d="M149 85c-71 0 -128 57 -128 128v171h54v-171c0 -41 33 -74 74 -74s75 33 75 74v171h53v-171c0 -71 -57 -128 -128 -128zM0 43h299v-43h-299v43z" />
    <glyph glyph-name="ion-forward" unicode="&#xf150;" horiz-adv-x="341" 
d="M171 277v86l170 -171l-170 -171v86h-171v170h171z" />
    <glyph glyph-name="ion-functions" unicode="&#xf151;" horiz-adv-x="256" 
d="M256 363v-64h-149l106 -107l-106 -107h149v-64h-256v43l139 128l-139 128v43h256z" />
    <glyph glyph-name="ion-games" unicode="&#xf152;" horiz-adv-x="427" 
d="M277 288l-64 -64l-64 64v117h128v-117zM117 256l64 -64l-64 -64h-117v128h117zM149 96l64 64l64 -64v-117h-128v117zM309 256h118v-128h-118l-64 64z" />
    <glyph glyph-name="ion-gesture" unicode="&#xf153;" horiz-adv-x="388" 
d="M38 301l-38 36c5 6 11 12 19 20c5 5 30 27 58 27c19 0 53 -15 53 -62c0 -29 -10 -46 -27 -70c-10 -14 -33 -52 -40 -75s-1 -41 8 -41s19 12 24 18c5 5 37 43 49 58c16 20 57 61 105 61c63 0 83 -55 86 -90h53v-53h-53c-8 -102 -65 -130 -100 -130c-38 0 -68 30 -68 66
s34 101 115 115c-2 17 -3 38 -38 38c-27 0 -61 -41 -87 -73c-24 -29 -42 -52 -65 -59c-19 -6 -41 -2 -57 10c-19 14 -28 36 -28 63c0 52 56 126 61 135c6 10 17 28 6 32c-7 3 -21 -11 -36 -26zM236 52c15 0 38 18 45 75c-46 -12 -61 -46 -61 -59c0 -10 9 -16 16 -16z" />
    <glyph glyph-name="ion-gps-fixed" unicode="&#xf154;" horiz-adv-x="469" 
d="M235 277c47 0 85 -38 85 -85s-38 -85 -85 -85s-86 38 -86 85s39 85 86 85zM425 213h44v-42h-44c-10 -89 -80 -160 -169 -170v-44h-43v44c-89 10 -159 81 -169 170h-44v42h44c10 89 80 160 169 170v44h43v-44c89 -10 159 -81 169 -170zM235 43c82 0 149 67 149 149
s-67 149 -149 149s-150 -67 -150 -149s68 -149 150 -149z" />
    <glyph glyph-name="ion-gps-not-fixed" unicode="&#xf155;" horiz-adv-x="469" 
d="M425 213h44v-42h-44c-10 -89 -80 -160 -169 -170v-44h-43v44c-89 10 -159 81 -169 170h-44v42h44c10 89 80 160 169 170v44h43v-44c89 -10 159 -81 169 -170zM235 43c82 0 149 67 149 149s-67 149 -149 149s-150 -67 -150 -149s68 -149 150 -149z" />
    <glyph glyph-name="ion-gps-off" unicode="&#xf156;" horiz-adv-x="469" 
d="M425 213h44v-42h-44c-3 -24 -9 -47 -20 -68l-32 32c7 17 11 37 11 57c0 82 -67 149 -149 149c-20 0 -40 -4 -57 -11l-32 32c21 11 43 18 67 21v44h43v-44c89 -10 159 -81 169 -170zM43 357l27 27l357 -357l-28 -27l-43 44c-28 -23 -62 -39 -100 -43v-44h-43v44
c-89 10 -159 81 -169 170h-44v42h44c4 38 19 72 42 100zM326 74l-210 209c-19 -25 -31 -57 -31 -91c0 -82 68 -149 150 -149c34 0 66 12 91 31z" />
    <glyph glyph-name="ion-gradient" unicode="&#xf157;" 
d="M171 256h42v-43h-42v43zM128 213h43v-42h-43v42zM213 213h43v-42h-43v42zM256 256h43v-43h-43v43zM85 256h43v-43h-43v43zM341 384c23 0 43 -20 43 -43v-298c0 -23 -20 -43 -43 -43h-298c-23 0 -43 20 -43 43v298c0 23 20 43 43 43h298zM128 64v43h-43v-43h43zM213 64v43
h-42v-43h42zM299 64v43h-43v-43h43zM341 213v128h-298v-128h42v-42h-42v-43h42v43h43v-43h43v43h42v-43h43v43h43v-43h42v43h-42v42h42z" />
    <glyph glyph-name="ion-grain" unicode="&#xf158;" horiz-adv-x="341" 
d="M128 192c24 0 43 -19 43 -43s-19 -42 -43 -42s-43 18 -43 42s19 43 43 43zM43 277c24 0 42 -18 42 -42s-18 -43 -42 -43s-43 19 -43 43s19 42 43 42zM43 107c24 0 42 -19 42 -43s-18 -43 -42 -43s-43 19 -43 43s19 43 43 43zM299 277c-24 0 -43 19 -43 43s19 43 43 43
s42 -19 42 -43s-18 -43 -42 -43zM213 107c24 0 43 -19 43 -43s-19 -43 -43 -43s-42 19 -42 43s18 43 42 43zM299 192c24 0 42 -19 42 -43s-18 -42 -42 -42s-43 18 -43 42s19 43 43 43zM213 277c24 0 43 -18 43 -42s-19 -43 -43 -43s-42 19 -42 43s18 42 42 42zM128 363
c24 0 43 -19 43 -43s-19 -43 -43 -43s-43 19 -43 43s19 43 43 43z" />
    <glyph glyph-name="ion-graph" unicode="&#xf159;" horiz-adv-x="341" 
d="M128 21v342h85v-342h-85zM0 21v171h85v-171h-85zM256 256h85v-235h-85v235z" />
    <glyph glyph-name="ion-grid-off" unicode="&#xf15a;" horiz-adv-x="485" 
d="M171 363h-31l-43 42h330c24 0 42 -18 42 -42v-330l-42 43v31h-31l-43 42h74v86h-86v-74l-42 43v31h-31l-43 42h74v86h-86v-74l-42 43v31zM341 363v-86h86v86h-86zM27 421l458 -458l-27 -27l-43 43h-330c-24 0 -42 18 -42 42v330l-43 43zM213 180v-31h31zM85 308v-31h31z
M171 21v86h-86v-86h86zM171 149v74l-12 12h-74v-86h86zM299 21v74l-12 12h-74v-86h86zM341 21h31l-31 31v-31z" />
    <glyph glyph-name="ion-grid-on" unicode="&#xf15b;" horiz-adv-x="427" 
d="M384 405c24 0 43 -18 43 -42v-342c0 -24 -19 -42 -43 -42h-341c-24 0 -43 18 -43 42v342c0 24 19 42 43 42h341zM128 21v86h-85v-86h85zM128 149v86h-85v-86h85zM128 277v86h-85v-86h85zM256 21v86h-85v-86h85zM256 149v86h-85v-86h85zM256 277v86h-85v-86h85zM384 21v86
h-85v-86h85zM384 149v86h-85v-86h85zM384 277v86h-85v-86h85z" />
    <glyph glyph-name="ion-group-work" unicode="&#xf15c;" horiz-adv-x="427" 
d="M213 405c118 0 214 -95 214 -213s-96 -213 -214 -213s-213 95 -213 213s95 213 213 213zM128 75c29 0 53 24 53 53s-24 53 -53 53s-53 -24 -53 -53s24 -53 53 -53zM160 277c0 -29 24 -53 53 -53s54 24 54 53s-25 54 -54 54s-53 -25 -53 -54zM299 75c29 0 53 24 53 53
s-24 53 -53 53s-54 -24 -54 -53s25 -53 54 -53z" />
    <glyph glyph-name="ion-hdr-off" unicode="&#xf15d;" horiz-adv-x="431" 
d="M341 85l90 -90l-27 -27l-135 135c-8 -11 -20 -18 -34 -18h-86v138l-21 21v-159h-43v86h-42v-86h-43v214h43v-86h42v74l-85 85l27 27zM235 128v10l-43 42v-52h43zM341 171v-31l-42 42v117h85c24 0 43 -19 43 -43v-43c0 -17 -11 -32 -26 -39l26 -89h-31l-16 16l-17 70h-22z
M341 256v-43h43v43h-43zM277 204l-95 95h53c24 0 42 -19 42 -43v-52z" />
    <glyph glyph-name="ion-hdr-on" unicode="&#xf15e;" horiz-adv-x="427" 
d="M85 213v86h43v-214h-43v86h-42v-86h-43v214h43v-86h42zM235 299c24 0 42 -19 42 -43v-128c0 -24 -18 -43 -42 -43h-86v214h86zM235 128v128h-43v-128h43zM427 213c0 -17 -11 -32 -26 -39l26 -89h-43l-21 86h-22v-86h-42v214h85c24 0 43 -19 43 -43v-43zM384 213v43h-43
v-43h43z" />
    <glyph glyph-name="ion-hdr-strong" unicode="&#xf15f;" horiz-adv-x="469" 
d="M341 320c71 0 128 -57 128 -128s-57 -128 -128 -128s-128 57 -128 128s57 128 128 128zM85 277c47 0 86 -38 86 -85s-39 -85 -86 -85s-85 38 -85 85s38 85 85 85zM85 149c24 0 43 19 43 43s-19 43 -43 43s-42 -19 -42 -43s18 -43 42 -43z" />
    <glyph glyph-name="ion-hdr-weak" unicode="&#xf160;" horiz-adv-x="469" 
d="M85 277c47 0 86 -38 86 -85s-39 -85 -86 -85s-85 38 -85 85s38 85 85 85zM341 320c71 0 128 -57 128 -128s-57 -128 -128 -128s-128 57 -128 128s57 128 128 128zM341 107c47 0 86 38 86 85s-39 85 -86 85s-85 -38 -85 -85s38 -85 85 -85z" />
    <glyph glyph-name="ion-headset-mic" unicode="&#xf161;" 
d="M192 427c106 0 192 -86 192 -192v-214c0 -35 -29 -64 -64 -64h-128v43h149v21h-85v171h85v43c0 82 -67 149 -149 149s-149 -67 -149 -149v-43h85v-171h-64c-35 0 -64 29 -64 64v150c0 106 86 192 192 192z" />
    <glyph glyph-name="ion-headset" unicode="&#xf162;" 
d="M192 427c106 0 192 -86 192 -192v-150c0 -35 -29 -64 -64 -64h-64v171h85v43c0 82 -67 149 -149 149s-149 -67 -149 -149v-43h85v-171h-64c-35 0 -64 29 -64 64v150c0 106 86 192 192 192z" />
    <glyph glyph-name="ion-healing" unicode="&#xf163;" horiz-adv-x="428" 
d="M336 192l85 -85c8 -8 8 -23 0 -31l-92 -92c-4 -4 -10 -6 -15 -6s-11 2 -15 6l-85 85l-85 -85c-8 -8 -22 -8 -30 0l-93 92c-8 8 -8 23 0 31l85 84l-85 85c-8 8 -8 23 0 31l93 92c4 4 10 6 15 6s11 -2 15 -6l85 -85l85 85c8 8 22 8 30 0l92 -92c8 -8 8 -23 0 -31zM214 256
c-12 0 -21 -9 -21 -21s9 -22 21 -22s22 10 22 22s-10 21 -22 21zM114 214l77 78l-77 77l-78 -77zM172 171c12 0 21 9 21 21s-9 21 -21 21s-22 -9 -22 -21s10 -21 22 -21zM214 128c12 0 22 9 22 21s-10 22 -22 22s-21 -10 -21 -22s9 -21 21 -21zM257 213
c-12 0 -21 -9 -21 -21s9 -21 21 -21s21 9 21 21s-9 21 -21 21zM314 14l77 78l-77 77l-78 -77z" />
    <glyph glyph-name="ion-hearing" unicode="&#xf164;" 
d="M299 21c24 0 42 19 42 43h43c0 -47 -38 -85 -85 -85c-12 0 -24 2 -35 7c-29 15 -46 37 -59 76c-7 21 -19 31 -36 44c-18 14 -42 32 -61 67c-15 27 -23 56 -23 83c0 84 66 149 150 149s149 -65 149 -149h-43c0 60 -46 107 -106 107s-107 -47 -107 -107c0 -20 6 -43 17 -63
c15 -27 33 -40 50 -53c20 -15 40 -32 51 -65c11 -32 21 -42 36 -50c4 -2 11 -4 17 -4zM99 392c-35 -35 -56 -83 -56 -136s21 -101 56 -136l-30 -30c-42 42 -69 101 -69 166s27 124 69 166zM181 256c0 29 25 53 54 53s53 -24 53 -53s-24 -53 -53 -53s-54 24 -54 53z" />
    <glyph glyph-name="ion-high-quality" unicode="&#xf165;" 
d="M341 363c24 0 43 -19 43 -43v-256c0 -24 -19 -43 -43 -43h-298c-24 0 -43 19 -43 43v256c0 24 19 43 43 43h298zM171 128v128h-32v-53h-43v53h-32v-128h32v43h43v-43h32zM320 149v86c0 12 -9 21 -21 21h-64c-12 0 -22 -9 -22 -21v-86c0 -12 10 -21 22 -21h16v-32h32v32
h16c12 0 21 9 21 21zM245 160v64h43v-64h-43z" />
    <glyph glyph-name="ion-history" unicode="&#xf166;" horiz-adv-x="448" 
d="M256 384c106 0 192 -86 192 -192s-86 -192 -192 -192c-53 0 -101 21 -136 56l31 31c27 -27 64 -44 105 -44c82 0 149 67 149 149s-67 149 -149 149s-149 -67 -149 -149h64l-86 -86l-2 3l-83 83h64c0 106 86 192 192 192zM235 277h32v-90l74 -45l-15 -26l-91 55v106z" />
    <glyph glyph-name="ion-home" unicode="&#xf167;" horiz-adv-x="427" 
d="M171 21h-107v171h-64l213 192l214 -192h-64v-171h-107v128h-85v-128z" />
    <glyph glyph-name="ion-hospital" unicode="&#xf168;" 
d="M341 384c24 0 43 -19 43 -43v-298c0 -24 -19 -43 -43 -43h-298c-24 0 -43 19 -43 43v298c0 24 19 43 43 43h298zM320 149v86h-85v85h-86v-85h-85v-86h85v-85h86v85h85z" />
    <glyph glyph-name="ion-image-aspect-ratio" unicode="&#xf169;" horiz-adv-x="427" 
d="M299 235v-43h-43v43h43zM299 149v-42h-43v42h43zM128 235v-43h-43v43h43zM213 235v-43h-42v43h42zM384 363c24 0 43 -19 43 -43v-256c0 -24 -19 -43 -43 -43h-341c-24 0 -43 19 -43 43v256c0 24 19 43 43 43h341zM384 64v256h-341v-256h341z" />
    <glyph glyph-name="ion-image" unicode="&#xf16a;" 
d="M384 43c0 -24 -19 -43 -43 -43h-298c-24 0 -43 19 -43 43v298c0 24 19 43 43 43h298c24 0 43 -19 43 -43v-298zM117 160l-74 -96h298l-96 128l-74 -96z" />
    <glyph glyph-name="ion-import-export" unicode="&#xf16b;" horiz-adv-x="299" 
d="M85 384l86 -85h-64v-150h-43v150h-64zM235 85h64l-86 -85l-85 85h64v150h43v-150z" />
    <glyph glyph-name="ion-input-antenna" unicode="&#xf16c;" horiz-adv-x="469" 
d="M235 341c82 0 149 -67 149 -149h-43c0 59 -47 107 -106 107s-107 -48 -107 -107h-43c0 82 68 149 150 149zM256 143v-70l73 -73l-30 -30l-64 64l-64 -64l-31 30l73 73v70c-19 8 -32 27 -32 49c0 29 25 53 54 53s53 -24 53 -53c0 -22 -13 -41 -32 -49zM235 427
c130 0 234 -105 234 -235h-42c0 106 -86 192 -192 192s-192 -86 -192 -192h-43c0 130 105 235 235 235z" />
    <glyph glyph-name="ion-input-component" unicode="&#xf16d;" horiz-adv-x="469" 
d="M85 405v-85h43v-128h-128v128h43v85c0 12 9 22 21 22s21 -10 21 -22zM171 107v42h128v-42c0 -28 -18 -51 -43 -60v-90h-43v90c-25 9 -42 32 -42 60zM0 107v42h128v-42c0 -28 -18 -51 -43 -60v-90h-42v90c-25 9 -43 32 -43 60zM427 320h42v-128h-128v128h43v85
c0 12 9 22 21 22s22 -10 22 -22v-85zM256 405v-85h43v-128h-128v128h42v85c0 12 10 22 22 22s21 -10 21 -22zM341 107v42h128v-42c0 -28 -17 -51 -42 -60v-90h-43v90c-25 9 -43 32 -43 60z" />
    <glyph glyph-name="ion-input-hdmi" unicode="&#xf16e;" horiz-adv-x="299" 
d="M277 299h22v-128l-64 -128v-64h-171v64l-64 128v128h21v64c0 24 19 42 43 42h171c24 0 42 -18 42 -42v-64zM64 363v-64h43v42h21v-42h43v42h21v-42h43v64h-171z" />
    <glyph glyph-name="ion-input-svideo" unicode="&#xf16f;" horiz-adv-x="469" 
d="M149 203c0 -18 -14 -32 -32 -32s-32 14 -32 32s14 32 32 32s32 -14 32 -32zM299 309c0 -18 -14 -32 -32 -32h-64c-18 0 -32 14 -32 32s14 32 32 32h64c18 0 32 -14 32 -32zM160 128c18 0 32 -14 32 -32s-14 -32 -32 -32s-32 14 -32 32s14 32 32 32zM235 427
c129 0 234 -106 234 -235s-105 -235 -234 -235s-235 106 -235 235s106 235 235 235zM235 0c106 0 192 86 192 192s-86 192 -192 192s-192 -86 -192 -192s86 -192 192 -192zM352 235c18 0 32 -14 32 -32s-14 -32 -32 -32s-32 14 -32 32s14 32 32 32zM309 128
c18 0 32 -14 32 -32s-14 -32 -32 -32s-32 14 -32 32s14 32 32 32z" />
    <glyph glyph-name="ion-input" unicode="&#xf170;" horiz-adv-x="469" 
d="M427 384c24 0 42 -19 42 -43v-299c0 -23 -18 -42 -42 -42h-384c-24 0 -43 18 -43 42v86h43v-86h384v300h-384v-86h-43v85c0 24 19 43 43 43h384zM213 107v64h-213v42h213v64l86 -85z" />
    <glyph glyph-name="ion-insert-link" unicode="&#xf171;" horiz-adv-x="427" 
d="M41 192c0 -36 30 -66 66 -66h85v-41h-85c-59 0 -107 48 -107 107s48 107 107 107h85v-41h-85c-36 0 -66 -30 -66 -66zM128 171v42h171v-42h-171zM320 299c59 0 107 -48 107 -107s-48 -107 -107 -107h-85v41h85c36 0 66 30 66 66s-30 66 -66 66h-85v41h85z" />
    <glyph glyph-name="ion-invert-colors-off" unicode="&#xf172;" 
d="M376 3l8 -8l-27 -27l-58 57c-31 -25 -69 -38 -107 -38c-44 0 -88 17 -121 50c-62 62 -66 161 -12 228l-59 60l27 27l59 -59l30 -30l76 -76l134 -134zM192 30v103l-102 102c-17 -22 -26 -49 -26 -77c0 -34 14 -66 38 -90s56 -38 90 -38zM192 339l-49 -49l-30 31l79 79
l121 -121c52 -52 63 -129 34 -192l-155 154v98z" />
    <glyph glyph-name="ion-invert-colors" unicode="&#xf173;" horiz-adv-x="341" 
d="M291 279c67 -67 67 -175 0 -242c-33 -33 -76 -50 -120 -50s-88 17 -121 50c-67 67 -67 175 0 242l121 121zM171 30v309l-91 -90c-24 -24 -37 -57 -37 -91s13 -66 37 -90s57 -38 91 -38z" />
    <glyph glyph-name="ion-keyboard-backspace" unicode="&#xf174;" 
d="M384 213v-42h-302l76 -77l-30 -30l-128 128l128 128l30 -30l-76 -77h302z" />
    <glyph glyph-name="ion-keyboard-capslock" unicode="&#xf175;" horiz-adv-x="256" 
d="M128 268l-98 -97l-30 30l128 128l128 -128l-30 -30zM0 64v43h256v-43h-256z" />
    <glyph glyph-name="ion-keyboard-hide" unicode="&#xf176;" horiz-adv-x="427" 
d="M384 384c24 0 43 -19 43 -43v-213c0 -24 -19 -43 -43 -43h-341c-24 0 -43 19 -43 43v213c0 24 19 43 43 43h341zM192 320v-43h43v43h-43zM192 256v-43h43v43h-43zM128 320v-43h43v43h-43zM128 256v-43h43v43h-43zM107 213v43h-43v-43h43zM107 277v43h-43v-43h43zM299 128
v43h-171v-43h171zM299 213v43h-43v-43h43zM299 277v43h-43v-43h43zM363 213v43h-43v-43h43zM363 277v43h-43v-43h43zM213 -43l-85 86h171z" />
    <glyph glyph-name="ion-keyboard-return" unicode="&#xf177;" horiz-adv-x="405" 
d="M363 299h42v-128h-323l76 -77l-30 -30l-128 128l128 128l30 -30l-76 -77h281v86z" />
    <glyph glyph-name="ion-keyboard-tab" unicode="&#xf178;" horiz-adv-x="448" 
d="M226 290l30 30l128 -128l-128 -128l-30 30l76 77h-302v42h302zM405 320h43v-256h-43v256z" />
    <glyph glyph-name="ion-keyboard" unicode="&#xf179;" horiz-adv-x="427" 
d="M384 341c24 0 43 -18 43 -42v-214c0 -24 -19 -42 -43 -42h-341c-24 0 -43 18 -43 42v214c0 24 19 42 43 42h341zM192 277v-42h43v42h-43zM192 213v-42h43v42h-43zM128 277v-42h43v42h-43zM128 213v-42h43v42h-43zM107 171v42h-43v-42h43zM107 235v42h-43v-42h43zM299 85
v43h-171v-43h171zM299 171v42h-43v-42h43zM299 235v42h-43v-42h43zM363 171v42h-43v-42h43zM363 235v42h-43v-42h43z" />
    <glyph glyph-name="ion-label-outline" unicode="&#xf17a;" horiz-adv-x="405" 
d="M312 323l93 -131l-93 -131c-8 -11 -21 -18 -35 -18h-234c-24 0 -43 18 -43 42v214c0 24 19 42 43 42h234c14 0 27 -7 35 -18zM277 85l76 107l-76 107h-234v-214h234z" />
    <glyph glyph-name="ion-label" unicode="&#xf17b;" horiz-adv-x="405" 
d="M312 323l93 -131l-93 -131c-8 -11 -21 -18 -35 -18h-234c-24 0 -43 18 -43 42v214c0 24 19 42 43 42h234c14 0 27 -7 35 -18z" />
    <glyph glyph-name="ion-landscape" unicode="&#xf17c;" horiz-adv-x="469" 
d="M277 320l192 -256h-469l128 171l96 -128l34 25l-61 81z" />
    <glyph glyph-name="ion-language" unicode="&#xf17d;" horiz-adv-x="427" 
d="M213 405c118 0 214 -95 214 -213s-96 -213 -214 -213s-213 95 -213 213s95 213 213 213zM361 277c-20 35 -53 63 -92 76c13 -24 22 -49 29 -76h63zM213 362c-18 -26 -31 -54 -40 -85h81c-9 31 -23 59 -41 85zM48 149h72c-2 14 -3 28 -3 43s1 29 3 43h-72
c-4 -14 -5 -28 -5 -43s1 -29 5 -43zM66 107c20 -35 53 -63 92 -76c-13 24 -22 49 -29 76h-63zM129 277c7 27 16 52 29 76c-39 -13 -72 -41 -92 -76h63zM213 22c18 26 32 54 41 85h-81c9 -31 22 -59 40 -85zM263 149c2 14 4 28 4 43s-2 29 -4 43h-100c-2 -14 -3 -28 -3 -43
s1 -29 3 -43h100zM269 31c39 13 71 41 92 76h-63c-7 -27 -16 -52 -29 -76zM306 149h72c4 14 6 28 6 43s-2 29 -6 43h-72c2 -14 3 -28 3 -43s-1 -29 -3 -43z" />
    <glyph glyph-name="ion-laptop-chromebook" unicode="&#xf17e;" horiz-adv-x="512" 
d="M469 64h43v-43h-512v43h43v320h426v-320zM299 64v21h-86v-21h86zM427 128v213h-342v-213h342z" />
    </font>
</defs>
</svg>
