<?xml version="1.0" encoding="UTF-8"?>
<!DOCTYPE svg PUBLIC "-//W3C//DTD SVG 1.1//EN" "http://www.w3.org/Graphics/SVG/1.1/DTD/svg11.dtd">
<svg version="1.1" xmlns="http://www.w3.org/2000/svg" xmlns:xlink="http://www.w3.org/1999/xlink" x="0" y="0" width="528" height="528" viewBox="0, 0, 48, 48">
  <g id="Layer_1">
    <path d="M15.03,42.97 C8.5,39.87 3.81,33.52 3.1,26 L0.1,26 C1.12,38.32 11.42,48 24,48 C24.45,48 24.88,47.96 25.32,47.93 L17.7,40.3 L15.03,42.97 z M16.81,29.92 C16.43,29.92 16.08,29.87 15.76,29.75 C15.45,29.64 15.18,29.48 14.96,29.28 C14.74,29.08 14.57,28.83 14.45,28.55 C14.33,28.26 14.27,27.95 14.27,27.61 L11.67,27.61 C11.67,28.33 11.81,28.96 12.09,29.51 C12.37,30.06 12.74,30.52 13.21,30.88 C13.68,31.25 14.22,31.52 14.84,31.71 C15.46,31.91 16.1,32 16.78,32 C17.52,32 18.21,31.9 18.85,31.7 C19.49,31.5 20.04,31.2 20.51,30.81 C20.98,30.42 21.34,29.94 21.61,29.37 C21.87,28.8 22.01,28.15 22.01,27.42 C22.01,27.03 21.96,26.66 21.87,26.3 C21.77,25.94 21.62,25.6 21.42,25.28 C21.21,24.96 20.94,24.68 20.61,24.42 C20.28,24.17 19.87,23.96 19.4,23.79 C19.8,23.61 20.15,23.39 20.45,23.13 C20.75,22.87 21,22.59 21.2,22.3 C21.4,22 21.55,21.7 21.65,21.38 C21.75,21.06 21.8,20.74 21.8,20.43 C21.8,19.7 21.68,19.06 21.44,18.51 C21.2,17.96 20.86,17.5 20.42,17.13 C19.98,16.76 19.46,16.48 18.84,16.29 C18.2,16.09 17.52,16 16.78,16 C16.06,16 15.39,16.11 14.78,16.32 C14.17,16.53 13.65,16.83 13.21,17.21 C12.77,17.59 12.43,18.04 12.18,18.56 C11.93,19.08 11.81,19.65 11.81,20.26 L14.41,20.26 C14.41,19.92 14.47,19.62 14.59,19.36 C14.71,19.09 14.88,18.86 15.09,18.68 C15.3,18.49 15.56,18.34 15.85,18.24 C16.14,18.14 16.46,18.08 16.8,18.08 C17.6,18.08 18.19,18.29 18.58,18.7 C18.97,19.11 19.16,19.69 19.16,20.43 C19.16,20.79 19.11,21.11 19,21.4 C18.89,21.69 18.73,21.94 18.51,22.15 C18.29,22.36 18.01,22.52 17.69,22.64 C17.36,22.76 16.97,22.82 16.53,22.82 L14.99,22.82 L14.99,24.87 L16.53,24.87 C16.97,24.87 17.37,24.92 17.72,25.02 C18.07,25.12 18.37,25.27 18.62,25.49 C18.87,25.7 19.06,25.97 19.2,26.29 C19.33,26.61 19.4,26.99 19.4,27.43 C19.4,28.24 19.17,28.86 18.7,29.29 C18.25,29.71 17.62,29.92 16.81,29.92 z M33.93,18.07 C33.3,17.41 32.54,16.9 31.66,16.54 C30.77,16.18 29.8,16 28.73,16 L24,16 L24,32 L28.59,32 C29.7,32 30.7,31.82 31.61,31.46 C32.52,31.1 33.29,30.59 33.93,29.93 C34.57,29.27 35.07,28.47 35.41,27.54 C35.76,26.61 35.93,25.56 35.93,24.4 L35.93,23.61 C35.93,22.45 35.75,21.41 35.4,20.47 C35.05,19.53 34.56,18.73 33.93,18.07 z M33.14,24.41 C33.14,25.24 33.05,26 32.85,26.66 C32.66,27.33 32.38,27.89 32,28.35 C31.62,28.81 31.15,29.16 30.58,29.41 C30.01,29.65 29.35,29.78 28.59,29.78 L26.78,29.78 L26.78,18.24 L28.73,18.24 C30.17,18.24 31.26,18.7 32.02,19.61 C32.77,20.53 33.15,21.85 33.15,23.59 L33.15,24.41 z M24,0 C23.55,0 23.12,0.04 22.68,0.07 L30.3,7.7 L32.96,5.04 C39.5,8.13 44.19,14.48 44.9,22 L47.9,22 C46.88,9.68 36.58,0 24,0 z" fill="#000000"/>
  </g>
</svg>
