<?xml version="1.0" encoding="UTF-8"?>
<!DOCTYPE svg PUBLIC "-//W3C//DTD SVG 1.1//EN" "http://www.w3.org/Graphics/SVG/1.1/DTD/svg11.dtd">
<svg version="1.1" xmlns="http://www.w3.org/2000/svg" xmlns:xlink="http://www.w3.org/1999/xlink" x="0" y="0" width="528" height="528" viewBox="0, 0, 48, 48">
  <g id="Layer_1">
    <path d="M6,10 L6,38 C6,40.21 7.79,42 10,42 L38,42 C40.21,42 42,40.21 42,38 L42,10 C42,7.79 40.21,6 38,6 L10,6 C7.79,6 6,7.79 6,10 z M30,18 C30,21.32 27.31,24 24,24 C20.69,24 18,21.32 18,18 C18,14.69 20.69,12 24,12 C27.31,12 30,14.69 30,18 z M12,34 C12,30 20,27.8 24,27.8 C28,27.8 36,30 36,34 L36,36 L12,36 L12,34 z" fill="#000000"/>
  </g>
</svg>
