<?xml version="1.0" encoding="UTF-8"?>
<!DOCTYPE svg PUBLIC "-//W3C//DTD SVG 1.1//EN" "http://www.w3.org/Graphics/SVG/1.1/DTD/svg11.dtd">
<svg version="1.1" xmlns="http://www.w3.org/2000/svg" xmlns:xlink="http://www.w3.org/1999/xlink" x="0" y="0" width="528" height="528" viewBox="0, 0, 48, 48">
  <g id="Layer_1">
    <path d="M33,24 C35.76,24 37.98,21.76 37.98,19 C37.98,16.24 35.76,14 33,14 C30.24,14 28,16.24 28,19 C28,21.76 30.24,24 33,24 z M18,22 C21.31,22 23.98,19.31 23.98,16 C23.98,12.69 21.31,10 18,10 C14.69,10 12,12.69 12,16 C12,19.31 14.69,22 18,22 z M33,28 C29.33,28 22,29.84 22,33.5 L22,38 L44,38 L44,33.5 C44,29.84 36.67,28 33,28 z M18,26 C13.33,26 4,28.34 4,33 L4,38 L18,38 L18,33.5 C18,31.8 18.67,28.83 22.74,26.56 C21,26.19 19.31,26 18,26 z" fill="#000000"/>
  </g>
</svg>
