<?xml version="1.0" encoding="UTF-8"?>
<!DOCTYPE svg PUBLIC "-//W3C//DTD SVG 1.1//EN" "http://www.w3.org/Graphics/SVG/1.1/DTD/svg11.dtd">
<svg version="1.1" xmlns="http://www.w3.org/2000/svg" xmlns:xlink="http://www.w3.org/1999/xlink" x="0" y="0" width="528" height="528" viewBox="0, 0, 48, 48">
  <g id="Layer_1">
    <path d="M42,36 L42,38 C42,40.21 40.21,42 38,42 L10,42 C7.79,42 6,40.21 6,38 L6,10 C6,7.79 7.79,6 10,6 L38,6 C40.21,6 42,7.79 42,10 L42,12 L24,12 C21.79,12 20,13.79 20,16 L20,32 C20,34.21 21.79,36 24,36 L42,36 z M24,32 L44,32 L44,16 L24,16 L24,32 z M32,27 C30.34,27 29,25.66 29,24 C29,22.34 30.34,21 32,21 C33.66,21 35,22.34 35,24 C35,25.66 33.66,27 32,27 z" fill="#000000"/>
  </g>
</svg>
