<?xml version="1.0" encoding="UTF-8"?>
<!DOCTYPE svg PUBLIC "-//W3C//DTD SVG 1.1//EN" "http://www.w3.org/Graphics/SVG/1.1/DTD/svg11.dtd">
<svg version="1.1" xmlns="http://www.w3.org/2000/svg" xmlns:xlink="http://www.w3.org/1999/xlink" x="0" y="0" width="528" height="528" viewBox="0, 0, 48, 48">
  <g id="Layer_1">
    <path d="M10,32 C10,39.73 16.27,46 24,46 C31.73,46 38,39.73 38,32 L38,24 L10,24 L10,32 z M32.25,8.74 L36.45,4.54 L34.8,2.89 L30.19,7.5 C28.31,6.57 26.23,6 24,6 C21.77,6 19.69,6.57 17.81,7.5 L13.2,2.89 L11.55,4.54 L15.75,8.74 C12.28,11.28 10,15.36 10,20 L10,22 L38,22 L38,20 C38,15.36 35.72,11.28 32.25,8.74 z M18,18 C16.89,18 16,17.1 16,16 C16,14.9 16.89,14 18,14 C19.11,14 20,14.9 20,16 C20,17.1 19.11,18 18,18 z M30,18 C28.89,18 28,17.1 28,16 C28,14.9 28.89,14 30,14 C31.11,14 32,14.9 32,16 C32,17.1 31.11,18 30,18 z" fill="#000000"/>
  </g>
</svg>
