<?xml version="1.0" encoding="UTF-8"?>
<!DOCTYPE svg PUBLIC "-//W3C//DTD SVG 1.1//EN" "http://www.w3.org/Graphics/SVG/1.1/DTD/svg11.dtd">
<svg version="1.1" xmlns="http://www.w3.org/2000/svg" xmlns:xlink="http://www.w3.org/1999/xlink" x="0" y="0" width="528" height="528" viewBox="0, 0, 48, 48">
  <g id="Layer_1">
    <path d="M24,4 C12.97,4 4,12.97 4,24 C4,35.03 12.97,44 24,44 C35.03,44 44,35.03 44,24 C44,12.97 35.03,4 24,4 z M24,40 C15.18,40 8,32.82 8,24 C8,15.18 15.18,8 24,8 C32.82,8 40,15.18 40,24 C40,32.82 32.82,40 24,40 z M30,24 C30,27.31 27.31,30 24,30 C20.69,30 18,27.31 18,24 C18,20.69 20.69,18 24,18 C27.31,18 30,20.69 30,24 z" fill="#000000"/>
  </g>
</svg>
