<?xml version="1.0" encoding="UTF-8"?>
<!DOCTYPE svg PUBLIC "-//W3C//DTD SVG 1.1//EN" "http://www.w3.org/Graphics/SVG/1.1/DTD/svg11.dtd">
<svg version="1.1" xmlns="http://www.w3.org/2000/svg" xmlns:xlink="http://www.w3.org/1999/xlink" x="0" y="0" width="528" height="528" viewBox="0, 0, 48, 48">
  <g id="Layer_1">
    <path d="M15.76,6.78 L13.19,3.72 L4,11.43 L6.57,14.49 L15.76,6.78 z M44,11.44 L34.81,3.73 L32.24,6.79 L41.43,14.5 L44,11.44 z M23.99,8 C14.04,8 6,16.06 6,26 C6,35.94 14.04,44 23.99,44 C33.94,44 42,35.94 42,26 C42,16.06 33.94,8 23.99,8 z M24,40 C16.27,40 10,33.73 10,26 C10,18.27 16.27,12 24,12 C31.73,12 38,18.27 38,26 C38,33.73 31.74,40 24,40 z M26,18 L22,18 L22,24 L16,24 L16,28 L22,28 L22,34 L26,34 L26,28 L32,28 L32,24 L26,24 L26,18 z" fill="#000000"/>
  </g>
</svg>
