<?xml version="1.0" encoding="UTF-8"?>
<!DOCTYPE svg PUBLIC "-//W3C//DTD SVG 1.1//EN" "http://www.w3.org/Graphics/SVG/1.1/DTD/svg11.dtd">
<svg version="1.1" xmlns="http://www.w3.org/2000/svg" xmlns:xlink="http://www.w3.org/1999/xlink" x="0" y="0" width="528" height="528" viewBox="0, 0, 48, 48">
  <g id="Layer_1">
    <path d="M24,12 C31.73,12 38,18.27 38,26 C38,27.69 37.69,29.3 37.14,30.8 L40.18,33.84 C41.34,31.47 42,28.81 42,26 C42,16.06 33.94,8 23.99,8 C21.18,8 18.53,8.66 16.15,9.81 L19.2,12.86 C20.7,12.31 22.31,12 24,12 z M44,11.44 L34.81,3.73 L32.24,6.79 L41.43,14.5 L44,11.44 z M5.84,4.59 L3.29,7.13 L5.95,9.79 L3.73,11.65 L6.57,14.49 L8.79,12.63 L10.39,14.23 C7.66,17.39 6,21.5 6,26 C6,35.94 14.04,44 23.99,44 C28.5,44 32.61,42.33 35.76,39.6 L40.16,44 L42.7,41.45 L7.79,6.54 L5.84,4.59 z M32.94,36.78 C30.51,38.79 27.4,40 24,40 C16.27,40 10,33.73 10,26 C10,22.6 11.21,19.49 13.22,17.06 L32.94,36.78 z M16.03,6.55 L13.19,3.71 L11.49,5.14 L14.33,7.98 L16.03,6.55 z" fill="#000000"/>
  </g>
</svg>
