<?xml version="1.0" encoding="UTF-8"?>
<!DOCTYPE svg PUBLIC "-//W3C//DTD SVG 1.1//EN" "http://www.w3.org/Graphics/SVG/1.1/DTD/svg11.dtd">
<svg version="1.1" xmlns="http://www.w3.org/2000/svg" xmlns:xlink="http://www.w3.org/1999/xlink" x="0" y="0" width="528" height="528" viewBox="0, 0, 48, 48">
  <g id="Layer_1">
    <path d="M12,36 C12,37.1 12.9,38 14,38 L16,38 L16,45 C16,46.66 17.34,48 19,48 C20.66,48 22,46.66 22,45 L22,38 L26,38 L26,45 C26,46.66 27.34,48 29,48 C30.66,48 32,46.66 32,45 L32,38 L34,38 C35.1,38 36,37.1 36,36 L36,16 L12,16 L12,36 z M7,16 C5.34,16 4,17.34 4,19 L4,33 C4,34.66 5.34,36 7,36 C8.66,36 10,34.66 10,33 L10,19 C10,17.34 8.66,16 7,16 z M41,16 C39.34,16 38,17.34 38,19 L38,33 C38,34.66 39.34,36 41,36 C42.66,36 44,34.66 44,33 L44,19 C44,17.34 42.66,16 41,16 z M31.06,4.32 L33.67,1.71 C34.06,1.32 34.06,0.69 33.67,0.3 C33.28,-0.09 32.65,-0.09 32.26,0.3 L29.3,3.25 C27.7,2.46 25.91,2 24,2 C22.08,2 20.28,2.46 18.67,3.26 L15.7,0.29 C15.31,-0.1 14.68,-0.1 14.29,0.29 C13.9,0.68 13.9,1.31 14.29,1.7 L16.91,4.32 C13.94,6.51 12,10.03 12,14 L36,14 C36,10.02 34.05,6.5 31.06,4.32 z M20,10 L18,10 L18,8 L20,8 L20,10 z M30,10 L28,10 L28,8 L30,8 L30,10 z" fill="#000000"/>
  </g>
</svg>
