<?xml version="1.0" encoding="UTF-8"?>
<!DOCTYPE svg PUBLIC "-//W3C//DTD SVG 1.1//EN" "http://www.w3.org/Graphics/SVG/1.1/DTD/svg11.dtd">
<svg version="1.1" xmlns="http://www.w3.org/2000/svg" xmlns:xlink="http://www.w3.org/1999/xlink" x="0" y="0" width="528" height="528" viewBox="0, 0, 48, 48">
  <g id="Layer_1">
    <path d="M41.09,10.45 L38.32,7.09 C37.76,6.43 36.93,6 36,6 L12,6 C11.07,6 10.24,6.43 9.69,7.09 L6.92,10.45 C6.34,11.15 6,12.03 6,13 L6,38 C6,40.21 7.79,42 10,42 L38,42 C40.21,42 42,40.21 42,38 L42,13 C42,12.03 41.66,11.15 41.09,10.45 z M24,35 L13,24 L20,24 L20,20 L28,20 L28,24 L35,24 L24,35 z M10.25,10 L11.88,8 L35.88,8 L37.75,10 L10.25,10 z" fill="#000000"/>
  </g>
</svg>
