<?xml version="1.0" encoding="UTF-8"?>
<!DOCTYPE svg PUBLIC "-//W3C//DTD SVG 1.1//EN" "http://www.w3.org/Graphics/SVG/1.1/DTD/svg11.dtd">
<svg version="1.1" xmlns="http://www.w3.org/2000/svg" xmlns:xlink="http://www.w3.org/1999/xlink" x="0" y="0" width="528" height="528" viewBox="0, 0, 48, 48">
  <g id="Layer_1">
    <path d="M38,6 L29.63,6 C28.81,3.68 26.61,2 24,2 C21.39,2 19.19,3.68 18.37,6 L10,6 C7.79,6 6,7.79 6,10 L6,38 C6,40.21 7.79,42 10,42 L38,42 C40.21,42 42,40.21 42,38 L42,10 C42,7.79 40.21,6 38,6 z M24,6 C25.1,6 26,6.89 26,8 C26,9.11 25.1,10 24,10 C22.9,10 22,9.11 22,8 C22,6.89 22.9,6 24,6 z M24,14 C27.31,14 30,16.69 30,20 C30,23.32 27.31,26 24,26 C20.69,26 18,23.32 18,20 C18,16.69 20.69,14 24,14 z M36,38 L12,38 L12,35.2 C12,31.2 20,29 24,29 C28,29 36,31.2 36,35.2 L36,38 z" fill="#000000"/>
  </g>
</svg>
