<?xml version="1.0" encoding="UTF-8"?>
<!DOCTYPE svg PUBLIC "-//W3C//DTD SVG 1.1//EN" "http://www.w3.org/Graphics/SVG/1.1/DTD/svg11.dtd">
<svg version="1.1" xmlns="http://www.w3.org/2000/svg" xmlns:xlink="http://www.w3.org/1999/xlink" x="0" y="0" width="528" height="528" viewBox="0, 0, 48, 48">
  <g id="Layer_1">
    <path d="M23.6,21.8 C19.06,20.62 17.6,19.41 17.6,17.51 C17.6,15.33 19.61,13.8 23,13.8 C26.56,13.8 27.88,15.5 28,18 L32.42,18 C32.29,14.55 30.18,11.41 26,10.38 L26,6 L20,6 L20,10.32 C16.12,11.17 13,13.67 13,17.54 C13,22.16 16.83,24.46 22.4,25.8 C27.41,27 28.4,28.75 28.4,30.63 C28.4,32 27.43,34.2 23,34.2 C18.88,34.2 17.25,32.35 17.04,30 L12.63,30 C12.88,34.38 16.15,36.83 20,37.66 L20,42 L26,42 L26,37.7 C29.89,36.95 33,34.7 33,30.59 C33,24.93 28.14,22.99 23.6,21.8 z" fill="#000000"/>
  </g>
</svg>
