<?xml version="1.0" encoding="UTF-8"?>
<!DOCTYPE svg PUBLIC "-//W3C//DTD SVG 1.1//EN" "http://www.w3.org/Graphics/SVG/1.1/DTD/svg11.dtd">
<svg version="1.1" xmlns="http://www.w3.org/2000/svg" xmlns:xlink="http://www.w3.org/1999/xlink" x="0" y="0" width="528" height="528" viewBox="0, 0, 48, 48">
  <g id="Layer_1">
    <path d="M33,12 L33,35 C33,39.42 29.42,43 25,43 C20.58,43 17,39.42 17,35 L17,10 C17,7.24 19.24,5 22,5 C24.76,5 27,7.24 27,10 L27,31 C27,32.1 26.11,33 25,33 C23.89,33 23,32.1 23,31 L23,12 L20,12 L20,31 C20,33.76 22.24,36 25,36 C27.76,36 30,33.76 30,31 L30,10 C30,5.58 26.42,2 22,2 C17.58,2 14,5.58 14,10 L14,35 C14,41.08 18.93,46 25,46 C31.07,46 36,41.08 36,35 L36,12 L33,12 z" fill="#000000"/>
  </g>
</svg>
