<?xml version="1.0" encoding="UTF-8"?>
<!DOCTYPE svg PUBLIC "-//W3C//DTD SVG 1.1//EN" "http://www.w3.org/Graphics/SVG/1.1/DTD/svg11.dtd">
<svg version="1.1" xmlns="http://www.w3.org/2000/svg" xmlns:xlink="http://www.w3.org/1999/xlink" x="0" y="0" width="528" height="528" viewBox="0, 0, 48, 48">
  <g id="Layer_1">
    <path d="M15,36 C8.92,36 4,31.07 4,25 C4,18.93 8.92,14 15,14 L36,14 C40.42,14 44,17.58 44,22 C44,26.42 40.42,30 36,30 L19,30 C16.24,30 14,27.76 14,25 C14,22.24 16.24,20 19,20 L34,20 L34,23 L19,23 C17.9,23 17,23.89 17,25 C17,26.11 17.9,27 19,27 L36,27 C38.76,27 41,24.76 41,22 C41,19.24 38.76,17 36,17 L15,17 C10.58,17 7,20.58 7,25 C7,29.42 10.58,33 15,33 L34,33 L34,36 L15,36 z" fill="#000000"/>
  </g>
</svg>
