<?xml version="1.0" encoding="UTF-8"?>
<!DOCTYPE svg PUBLIC "-//W3C//DTD SVG 1.1//EN" "http://www.w3.org/Graphics/SVG/1.1/DTD/svg11.dtd">
<svg version="1.1" xmlns="http://www.w3.org/2000/svg" xmlns:xlink="http://www.w3.org/1999/xlink" x="0" y="0" width="528" height="528" viewBox="0, 0, 48, 48">
  <g id="Layer_1">
    <path d="M22,34 C22,35.1 22.9,36 24,36 C25.1,36 26,35.1 26,34 C26,32.9 25.1,32 24,32 C22.9,32 22,32.9 22,34 z M22,6 L22,14 L26,14 L26,10.16 C32.78,11.13 38,16.95 38,24 C38,31.73 31.73,38 24,38 C16.27,38 10,31.73 10,24 C10,20.64 11.18,17.57 13.15,15.15 L24,26 L26.83,23.17 L13.23,9.57 L13.21,9.61 C8.84,12.89 6,18.11 6,24 C6,33.94 14.04,42 23.99,42 C33.94,42 42,33.94 42,24 C42,14.06 33.94,6 23.99,6 L22,6 z M36,24 C36,22.9 35.1,22 34,22 C32.9,22 32,22.9 32,24 C32,25.1 32.9,26 34,26 C35.1,26 36,25.1 36,24 z M12,24 C12,25.1 12.9,26 14,26 C15.1,26 16,25.1 16,24 C16,22.9 15.1,22 14,22 C12.9,22 12,22.9 12,24 z" fill="#000000"/>
  </g>
</svg>
