<?xml version="1.0" encoding="UTF-8"?>
<!DOCTYPE svg PUBLIC "-//W3C//DTD SVG 1.1//EN" "http://www.w3.org/Graphics/SVG/1.1/DTD/svg11.dtd">
<svg version="1.1" xmlns="http://www.w3.org/2000/svg" xmlns:xlink="http://www.w3.org/1999/xlink" x="0" y="0" width="528" height="528" viewBox="0, 0, 48, 48">
  <g id="Layer_1">
    <path d="M44,6 L14,6 C12.62,6 11.53,6.7 10.81,7.76 L0,23.99 L10.81,40.22 C11.53,41.28 12.62,42 14,42 L44,42 C46.21,42 48,40.21 48,38 L48,10 C48,7.79 46.21,6 44,6 z M38,31.17 L35.17,34 L28,26.83 L20.83,34 L18,31.17 L25.17,24 L18,16.83 L20.83,14 L28,21.17 L35.17,14 L38,16.83 L30.83,24 L38,31.17 z" fill="#000000"/>
  </g>
</svg>
