<?xml version="1.0" encoding="UTF-8"?>
<!DOCTYPE svg PUBLIC "-//W3C//DTD SVG 1.1//EN" "http://www.w3.org/Graphics/SVG/1.1/DTD/svg11.dtd">
<svg version="1.1" xmlns="http://www.w3.org/2000/svg" xmlns:xlink="http://www.w3.org/1999/xlink" x="0" y="0" width="528" height="528" viewBox="0, 0, 48, 48">
  <g id="Layer_1">
    <path d="M28.93,27 L22,40 L22,29 L18,29 L19.07,27 L14,27 L14,41.33 C14,42.8 15.19,44 16.67,44 L31.34,44 C32.81,44 34.01,42.81 34.01,41.33 L34.01,27 L28.93,27 z" fill="#000000"/>
    <path d="M31.33,8 L28,8 L28,4 L20,4 L20,8 L16.67,8 C15.19,8 14,9.19 14,10.67 L14,27 L19.07,27 L26,14 L26,25 L30,25 L28.93,27 L34,27 L34,10.67 C34,9.19 32.81,8 31.33,8 z" fill="#000000" fill-opacity="0.3"/>
  </g>
</svg>
