<?xml version="1.0" encoding="UTF-8"?>
<!DOCTYPE svg PUBLIC "-//W3C//DTD SVG 1.1//EN" "http://www.w3.org/Graphics/SVG/1.1/DTD/svg11.dtd">
<svg version="1.1" xmlns="http://www.w3.org/2000/svg" xmlns:xlink="http://www.w3.org/1999/xlink" x="0" y="0" width="528" height="528" viewBox="0, 0, 48, 48">
  <g id="Layer_1">
    <path d="M31.33,8 L28,8 L28,4 L20,4 L20,8 L16.67,8 C15.19,8 14,9.19 14,10.67 L14,41.34 C14,42.81 15.19,44.01 16.67,44.01 L31.34,44.01 C32.81,44.01 34.01,42.82 34.01,41.34 L34.01,10.67 C34,9.19 32.81,8 31.33,8 z M25.9,35.9 L22.1,35.9 L22.1,32.1 L25.9,32.1 L25.9,35.9 z M28.6,25.38 C28.6,25.38 27.84,26.22 27.26,26.8 C26.29,27.77 25.6,29.09 25.6,30 L22.4,30 C22.4,28.34 23.32,26.95 24.26,26.01 L26.12,24.12 C26.66,23.58 27,22.83 27,22 C27,20.34 25.66,19 24,19 C22.34,19 21,20.34 21,22 L18,22 C18,18.69 20.69,16 24,16 C27.31,16 30,18.69 30,22 C30,23.32 29.47,24.52 28.6,25.38 z" fill="#000000"/>
  </g>
</svg>
