<?xml version="1.0" encoding="UTF-8"?>
<!DOCTYPE svg PUBLIC "-//W3C//DTD SVG 1.1//EN" "http://www.w3.org/Graphics/SVG/1.1/DTD/svg11.dtd">
<svg version="1.1" xmlns="http://www.w3.org/2000/svg" xmlns:xlink="http://www.w3.org/1999/xlink" x="0" y="0" width="528" height="528" viewBox="0, 0, 48, 48">
  <g id="Layer_1">
    <path d="M24,4 C12.95,4 4,12.95 4,24 C4,35.05 12.95,44 24,44 C35.05,44 44,35.05 44,24 C44,12.95 35.05,4 24,4 z M8,24 C8,15.16 15.16,8 24,8 C27.7,8 31.09,9.27 33.8,11.37 L11.37,33.8 C9.27,31.09 8,27.7 8,24 z M24,40 C20.3,40 16.91,38.73 14.2,36.63 L36.63,14.2 C38.73,16.91 40,20.3 40,24 C40,32.84 32.84,40 24,40 z" fill="#000000"/>
  </g>
</svg>
