<?xml version="1.0" encoding="UTF-8"?>
<!DOCTYPE svg PUBLIC "-//W3C//DTD SVG 1.1//EN" "http://www.w3.org/Graphics/SVG/1.1/DTD/svg11.dtd">
<svg version="1.1" xmlns="http://www.w3.org/2000/svg" xmlns:xlink="http://www.w3.org/1999/xlink" x="0" y="0" width="528" height="528" viewBox="0, 0, 48, 48">
  <g id="Layer_1">
    <path d="M28.48,24.02 L33.12,28.66 C33.68,27.21 34,25.64 34,24 C34,22.37 33.69,20.81 33.14,19.37 L28.48,24.02 z M39.06,13.43 L36.53,15.96 C37.78,18.37 38.5,21.1 38.5,24.01 C38.5,26.92 37.78,29.64 36.53,32.06 L38.93,34.46 C40.86,31.36 42,27.73 42,23.83 C42,20.01 40.91,16.46 39.06,13.43 z M31.41,15.41 L20,4 L18,4 L18,19.17 L8.83,10 L6,12.83 L17.17,24 L6,35.17 L8.83,38 L18,28.83 L18,44 L20,44 L31.41,32.59 L22.83,24 L31.41,15.41 z M22,11.66 L25.76,15.42 L22,19.17 L22,11.66 z M25.76,32.59 L22,36.34 L22,28.82 L25.76,32.59 z" fill="#000000"/>
  </g>
</svg>
