<?xml version="1.0" encoding="UTF-8"?>
<!DOCTYPE svg PUBLIC "-//W3C//DTD SVG 1.1//EN" "http://www.w3.org/Graphics/SVG/1.1/DTD/svg11.dtd">
<svg version="1.1" xmlns="http://www.w3.org/2000/svg" xmlns:xlink="http://www.w3.org/1999/xlink" x="0" y="0" width="528" height="528" viewBox="0, 0, 48, 48">
  <g id="Layer_1">
    <path d="M22,48 L26,48 L26,44 L22,44 L22,48 z M14,48 L18,48 L18,44 L14,44 L14,48 z M30,48 L34,48 L34,44 L30,44 L30,48 z M35.41,11.41 L24,-0 L22,-0 L22,15.17 L12.83,6 L10,8.83 L21.17,20 L10,31.17 L12.83,34 L22,24.83 L22,40 L24,40 L35.41,28.59 L26.83,20 L35.41,11.41 z M26,7.66 L29.76,11.42 L26,15.17 L26,7.66 z M29.76,28.59 L26,32.34 L26,24.83 L29.76,28.59 z" fill="#000000"/>
  </g>
</svg>
