<?xml version="1.0" encoding="UTF-8"?>
<!DOCTYPE svg PUBLIC "-//W3C//DTD SVG 1.1//EN" "http://www.w3.org/Graphics/SVG/1.1/DTD/svg11.dtd">
<svg version="1.1" xmlns="http://www.w3.org/2000/svg" xmlns:xlink="http://www.w3.org/1999/xlink" x="0" y="0" width="528" height="528" viewBox="0, 0, 48, 48">
  <g id="Layer_1">
    <path d="M14,24 L10,20 L6,24 L10,28 L14,24 z M35.41,15.41 L24,4 L22,4 L22,19.17 L12.83,10 L10,12.83 L21.17,24 L10,35.17 L12.83,38 L22,28.83 L22,44 L24,44 L35.41,32.59 L26.83,24 L35.41,15.41 z M26,11.66 L29.76,15.42 L26,19.17 L26,11.66 z M29.76,32.59 L26,36.34 L26,28.82 L29.76,32.59 z M38,20 L34,24 L38,28 L42,24 L38,20 z" fill="#000000"/>
  </g>
</svg>
