<?xml version="1.0" encoding="UTF-8"?>
<!DOCTYPE svg PUBLIC "-//W3C//DTD SVG 1.1//EN" "http://www.w3.org/Graphics/SVG/1.1/DTD/svg11.dtd">
<svg version="1.1" xmlns="http://www.w3.org/2000/svg" xmlns:xlink="http://www.w3.org/1999/xlink" x="0" y="0" width="528" height="528" viewBox="0, 0, 48, 48">
  <g id="Layer_1">
    <path d="M12,26 C10.9,26 10,26.9 10,28 C10,29.1 10.9,30 12,30 C13.1,30 14,29.1 14,28 C14,26.9 13.1,26 12,26 z M12,34 C10.9,34 10,34.9 10,36 C10,37.1 10.9,38 12,38 C13.1,38 14,37.1 14,36 C14,34.9 13.1,34 12,34 z M12,18 C10.9,18 10,18.9 10,20 C10,21.1 10.9,22 12,22 C13.1,22 14,21.1 14,20 C14,18.9 13.1,18 12,18 z M6,19 C5.45,19 5,19.45 5,20 C5,20.55 5.45,21 6,21 C6.55,21 7,20.55 7,20 C7,19.45 6.55,19 6,19 z M12,10 C10.9,10 10,10.9 10,12 C10,13.1 10.9,14 12,14 C13.1,14 14,13.1 14,12 C14,10.9 13.1,10 12,10 z M42,21 C42.55,21 43,20.55 43,20 C43,19.45 42.55,19 42,19 C41.45,19 41,19.45 41,20 C41,20.55 41.45,21 42,21 z M28,14 C29.1,14 30,13.1 30,12 C30,10.9 29.1,10 28,10 C26.9,10 26,10.9 26,12 C26,13.1 26.9,14 28,14 z M28,7 C28.55,7 29,6.55 29,6 C29,5.45 28.55,5 28,5 C27.45,5 27,5.45 27,6 C27,6.55 27.45,7 28,7 z M6,27 C5.45,27 5,27.45 5,28 C5,28.55 5.45,29 6,29 C6.55,29 7,28.55 7,28 C7,27.45 6.55,27 6,27 z M20,41 C19.45,41 19,41.45 19,42 C19,42.55 19.45,43 20,43 C20.55,43 21,42.55 21,42 C21,41.45 20.55,41 20,41 z M20,7 C20.55,7 21,6.55 21,6 C21,5.45 20.55,5 20,5 C19.45,5 19,5.45 19,6 C19,6.55 19.45,7 20,7 z M20,14 C21.1,14 22,13.1 22,12 C22,10.9 21.1,10 20,10 C18.9,10 18,10.9 18,12 C18,13.1 18.9,14 20,14 z M20,25 C18.34,25 17,26.34 17,28 C17,29.66 18.34,31 20,31 C21.66,31 23,29.66 23,28 C23,26.34 21.66,25 20,25 z M36,26 C34.9,26 34,26.9 34,28 C34,29.1 34.9,30 36,30 C37.1,30 38,29.1 38,28 C38,26.9 37.1,26 36,26 z M36,34 C34.9,34 34,34.9 34,36 C34,37.1 34.9,38 36,38 C37.1,38 38,37.1 38,36 C38,34.9 37.1,34 36,34 z M36,18 C34.9,18 34,18.9 34,20 C34,21.1 34.9,22 36,22 C37.1,22 38,21.1 38,20 C38,18.9 37.1,18 36,18 z M36,10 C34.9,10 34,10.9 34,12 C34,13.1 34.9,14 36,14 C37.1,14 38,13.1 38,12 C38,10.9 37.1,10 36,10 z M42,27 C41.45,27 41,27.45 41,28 C41,28.55 41.45,29 42,29 C42.55,29 43,28.55 43,28 C43,27.45 42.55,27 42,27 z M28,34 C26.9,34 26,34.9 26,36 C26,37.1 26.9,38 28,38 C29.1,38 30,37.1 30,36 C30,34.9 29.1,34 28,34 z M28,41 C27.45,41 27,41.45 27,42 C27,42.55 27.45,43 28,43 C28.55,43 29,42.55 29,42 C29,41.45 28.55,41 28,41 z M20,17 C18.34,17 17,18.34 17,20 C17,21.66 18.34,23 20,23 C21.66,23 23,21.66 23,20 C23,18.34 21.66,17 20,17 z M20,34 C18.9,34 18,34.9 18,36 C18,37.1 18.9,38 20,38 C21.1,38 22,37.1 22,36 C22,34.9 21.1,34 20,34 z M28,25 C26.34,25 25,26.34 25,28 C25,29.66 26.34,31 28,31 C29.66,31 31,29.66 31,28 C31,26.34 29.66,25 28,25 z M28,17 C26.34,17 25,18.34 25,20 C25,21.66 26.34,23 28,23 C29.66,23 31,21.66 31,20 C31,18.34 29.66,17 28,17 z" fill="#000000"/>
  </g>
</svg>
