<?xml version="1.0" encoding="UTF-8"?>
<!DOCTYPE svg PUBLIC "-//W3C//DTD SVG 1.1//EN" "http://www.w3.org/Graphics/SVG/1.1/DTD/svg11.dtd">
<svg version="1.1" xmlns="http://www.w3.org/2000/svg" xmlns:xlink="http://www.w3.org/1999/xlink" x="0" y="0" width="528" height="528" viewBox="0, 0, 48, 48">
  <g id="Layer_1">
    <path d="M10,35 C11.66,35 13,33.66 13,32 C13,30.34 11.66,29 10,29 C8.34,29 7,30.34 7,32 C7,33.66 8.34,35 10,35 z M18,26 C19.1,26 20,25.1 20,24 C20,22.9 19.1,22 18,22 C16.9,22 16,22.9 16,24 C16,25.1 16.9,26 18,26 z M18,18 C19.1,18 20,17.1 20,16 C20,14.9 19.1,14 18,14 C16.9,14 16,14.9 16,16 C16,17.1 16.9,18 18,18 z M6,42 L42,42 L42,38 L6,38 L6,42 z M10,19 C11.66,19 13,17.66 13,16 C13,14.34 11.66,13 10,13 C8.34,13 7,14.34 7,16 C7,17.66 8.34,19 10,19 z M10,27 C11.66,27 13,25.66 13,24 C13,22.34 11.66,21 10,21 C8.34,21 7,22.34 7,24 C7,25.66 8.34,27 10,27 z M18,34 C19.1,34 20,33.1 20,32 C20,30.9 19.1,30 18,30 C16.9,30 16,30.9 16,32 C16,33.1 16.9,34 18,34 z M34,33 C34.55,33 35,32.55 35,32 C35,31.45 34.55,31 34,31 C33.45,31 33,31.45 33,32 C33,32.55 33.45,33 34,33 z M6,6 L6,10 L42,10 L42,6 L6,6 z M34,17 C34.55,17 35,16.55 35,16 C35,15.45 34.55,15 34,15 C33.45,15 33,15.45 33,16 C33,16.55 33.45,17 34,17 z M34,25 C34.55,25 35,24.55 35,24 C35,23.45 34.55,23 34,23 C33.45,23 33,23.45 33,24 C33,24.55 33.45,25 34,25 z M26,18 C27.1,18 28,17.1 28,16 C28,14.9 27.1,14 26,14 C24.9,14 24,14.9 24,16 C24,17.1 24.9,18 26,18 z M26,26 C27.1,26 28,25.1 28,24 C28,22.9 27.1,22 26,22 C24.9,22 24,22.9 24,24 C24,25.1 24.9,26 26,26 z M26,34 C27.1,34 28,33.1 28,32 C28,30.9 27.1,30 26,30 C24.9,30 24,30.9 24,32 C24,33.1 24.9,34 26,34 z" fill="#000000"/>
  </g>
</svg>
