<?xml version="1.0" encoding="UTF-8"?>
<!DOCTYPE svg PUBLIC "-//W3C//DTD SVG 1.1//EN" "http://www.w3.org/Graphics/SVG/1.1/DTD/svg11.dtd">
<svg version="1.1" xmlns="http://www.w3.org/2000/svg" xmlns:xlink="http://www.w3.org/1999/xlink" x="0" y="0" width="528" height="528" viewBox="0, 0, 48, 48">
  <g id="Layer_1">
    <path d="M20,18 C18.9,18 18,18.9 18,20 C18,21.1 18.9,22 20,22 C21.1,22 22,21.1 22,20 C22,18.9 21.1,18 20,18 z M20,26 C18.9,26 18,26.9 18,28 C18,29.1 18.9,30 20,30 C21.1,30 22,29.1 22,28 C22,26.9 21.1,26 20,26 z M14,19 C13.45,19 13,19.45 13,20 C13,20.55 13.45,21 14,21 C14.55,21 15,20.55 15,20 C15,19.45 14.55,19 14,19 z M20,33 C19.45,33 19,33.45 19,34 C19,34.55 19.45,35 20,35 C20.55,35 21,34.55 21,34 C21,33.45 20.55,33 20,33 z M14,27 C13.45,27 13,27.45 13,28 C13,28.55 13.45,29 14,29 C14.55,29 15,28.55 15,28 C15,27.45 14.55,27 14,27 z M20,15 C20.55,15 21,14.55 21,14 C21,13.45 20.55,13 20,13 C19.45,13 19,13.45 19,14 C19,14.55 19.45,15 20,15 z M28,18 C26.9,18 26,18.9 26,20 C26,21.1 26.9,22 28,22 C29.1,22 30,21.1 30,20 C30,18.9 29.1,18 28,18 z M28,15 C28.55,15 29,14.55 29,14 C29,13.45 28.55,13 28,13 C27.45,13 27,13.45 27,14 C27,14.55 27.45,15 28,15 z M34,27 C33.45,27 33,27.45 33,28 C33,28.55 33.45,29 34,29 C34.55,29 35,28.55 35,28 C35,27.45 34.55,27 34,27 z M34,19 C33.45,19 33,19.45 33,20 C33,20.55 33.45,21 34,21 C34.55,21 35,20.55 35,20 C35,19.45 34.55,19 34,19 z M24,4 C12.95,4 4,12.95 4,24 C4,35.05 12.95,44 24,44 C35.05,44 44,35.05 44,24 C44,12.95 35.05,4 24,4 z M24,40 C15.16,40 8,32.84 8,24 C8,15.16 15.16,8 24,8 C32.84,8 40,15.16 40,24 C40,32.84 32.84,40 24,40 z M28,33 C27.45,33 27,33.45 27,34 C27,34.55 27.45,35 28,35 C28.55,35 29,34.55 29,34 C29,33.45 28.55,33 28,33 z M28,26 C26.9,26 26,26.9 26,28 C26,29.1 26.9,30 28,30 C29.1,30 30,29.1 30,28 C30,26.9 29.1,26 28,26 z" fill="#000000"/>
  </g>
</svg>
