<?xml version="1.0" encoding="UTF-8"?>
<!DOCTYPE svg PUBLIC "-//W3C//DTD SVG 1.1//EN" "http://www.w3.org/Graphics/SVG/1.1/DTD/svg11.dtd">
<svg version="1.1" xmlns="http://www.w3.org/2000/svg" xmlns:xlink="http://www.w3.org/1999/xlink" x="0" y="0" width="528" height="528" viewBox="0, 0, 48, 48">
  <g id="Layer_1">
    <path d="M28,14 C29.1,14 30,13.1 30,12 C30,10.9 29.1,10 28,10 C26.9,10 26,10.9 26,12 C26,13.1 26.9,14 28,14 z M27.6,22.96 C27.73,22.98 27.86,23 28,23 C29.66,23 31,21.66 31,20 C31,18.34 29.66,17 28,17 C26.34,17 25,18.34 25,20 C25,20.14 25.02,20.27 25.04,20.41 C25.22,21.73 26.27,22.78 27.6,22.96 z M28,7 C28.55,7 29,6.55 29,6 C29,5.45 28.55,5 28,5 C27.45,5 27,5.45 27,6 C27,6.55 27.45,7 28,7 z M20,7 C20.55,7 21,6.55 21,6 C21,5.45 20.55,5 20,5 C19.45,5 19,5.45 19,6 C19,6.55 19.45,7 20,7 z M42,21 C42.55,21 43,20.55 43,20 C43,19.45 42.55,19 42,19 C41.45,19 41,19.45 41,20 C41,20.55 41.45,21 42,21 z M20,14 C21.1,14 22,13.1 22,12 C22,10.9 21.1,10 20,10 C18.9,10 18,10.9 18,12 C18,13.1 18.9,14 20,14 z M36,30 C37.1,30 38,29.1 38,28 C38,26.9 37.1,26 36,26 C34.9,26 34,26.9 34,28 C34,29.1 34.9,30 36,30 z M36,22 C37.1,22 38,21.1 38,20 C38,18.9 37.1,18 36,18 C34.9,18 34,18.9 34,20 C34,21.1 34.9,22 36,22 z M36,14 C37.1,14 38,13.1 38,12 C38,10.9 37.1,10 36,10 C34.9,10 34,10.9 34,12 C34,13.1 34.9,14 36,14 z M28,41 C27.45,41 27,41.45 27,42 C27,42.55 27.45,43 28,43 C28.55,43 29,42.55 29,42 C29,41.45 28.55,41 28,41 z M5,10.55 L12.57,18.12 C12.38,18.06 12.2,18 12,18 C10.9,18 10,18.9 10,20 C10,21.1 10.9,22 12,22 C13.1,22 14,21.1 14,20 C14,19.8 13.94,19.62 13.89,19.43 L19.51,25.05 C18.08,25.29 17,26.51 17,28 C17,29.66 18.34,31 20,31 C21.49,31 22.71,29.92 22.95,28.5 L28.57,34.12 C28.39,34.06 28.2,34 28,34 C26.9,34 26,34.9 26,36 C26,37.1 26.9,38 28,38 C29.1,38 30,37.1 30,36 C30,35.8 29.94,35.62 29.89,35.43 L37.45,43 L40,40.45 L7.55,8 L5,10.55 z M20,34 C18.9,34 18,34.9 18,36 C18,37.1 18.9,38 20,38 C21.1,38 22,37.1 22,36 C22,34.9 21.1,34 20,34 z M42,27 C41.45,27 41,27.45 41,28 C41,28.55 41.45,29 42,29 C42.55,29 43,28.55 43,28 C43,27.45 42.55,27 42,27 z M12,26 C10.9,26 10,26.9 10,28 C10,29.1 10.9,30 12,30 C13.1,30 14,29.1 14,28 C14,26.9 13.1,26 12,26 z M6,19 C5.45,19 5,19.45 5,20 C5,20.55 5.45,21 6,21 C6.55,21 7,20.55 7,20 C7,19.45 6.55,19 6,19 z M20,41 C19.45,41 19,41.45 19,42 C19,42.55 19.45,43 20,43 C20.55,43 21,42.55 21,42 C21,41.45 20.55,41 20,41 z M12,34 C10.9,34 10,34.9 10,36 C10,37.1 10.9,38 12,38 C13.1,38 14,37.1 14,36 C14,34.9 13.1,34 12,34 z M6,27 C5.45,27 5,27.45 5,28 C5,28.55 5.45,29 6,29 C6.55,29 7,28.55 7,28 C7,27.45 6.55,27 6,27 z" fill="#000000"/>
  </g>
</svg>
