<?xml version="1.0" encoding="UTF-8"?>
<!DOCTYPE svg PUBLIC "-//W3C//DTD SVG 1.1//EN" "http://www.w3.org/Graphics/SVG/1.1/DTD/svg11.dtd">
<svg version="1.1" xmlns="http://www.w3.org/2000/svg" xmlns:xlink="http://www.w3.org/1999/xlink" x="0" y="0" width="528" height="528" viewBox="0, 0, 48, 48">
  <g id="Layer_1">
    <path d="M14,42 L18,42 L18,38 L14,38 L14,42 z M14,26 L18,26 L18,22 L14,22 L14,26 z M22,26 L26,26 L26,22 L22,22 L22,26 z M22,42 L26,42 L26,38 L22,38 L22,42 z M6,34 L10,34 L10,30 L6,30 L6,34 z M6,42 L10,42 L10,38 L6,38 L6,42 z M6,26 L10,26 L10,22 L6,22 L6,26 z M6,18 L10,18 L10,14 L6,14 L6,18 z M22,34 L26,34 L26,30 L22,30 L22,34 z M38,18 L42,18 L42,14 L38,14 L38,18 z M38,26 L42,26 L42,22 L38,22 L38,26 z M6,6 L6,10 L42,10 L42,6 L6,6 z M38,34 L42,34 L42,30 L38,30 L38,34 z M30,42 L34,42 L34,38 L30,38 L30,42 z M22,18 L26,18 L26,14 L22,14 L22,18 z M38,42 L42,42 L42,38 L38,38 L38,42 z M30,26 L34,26 L34,22 L30,22 L30,26 z" fill="#000000"/>
  </g>
</svg>
