<?xml version="1.0" encoding="UTF-8"?>
<!DOCTYPE svg PUBLIC "-//W3C//DTD SVG 1.1//EN" "http://www.w3.org/Graphics/SVG/1.1/DTD/svg11.dtd">
<svg version="1.1" xmlns="http://www.w3.org/2000/svg" xmlns:xlink="http://www.w3.org/1999/xlink" x="0" y="0" width="528" height="528" viewBox="0, 0, 48, 48">
  <g id="Layer_1">
    <path d="M26,14 L22,14 L22,18 L26,18 L26,14 z M26,22 L22,22 L22,26 L26,26 L26,22 z M34,22 L30,22 L30,26 L34,26 L34,22 z M6,6 L6,42 L42,42 L42,6 L6,6 z M38,38 L10,38 L10,10 L38,10 L38,38 z M26,30 L22,30 L22,34 L26,34 L26,30 z M18,22 L14,22 L14,26 L18,26 L18,22 z" fill="#000000"/>
  </g>
</svg>
