<?xml version="1.0" encoding="UTF-8"?>
<!DOCTYPE svg PUBLIC "-//W3C//DTD SVG 1.1//EN" "http://www.w3.org/Graphics/SVG/1.1/DTD/svg11.dtd">
<svg version="1.1" xmlns="http://www.w3.org/2000/svg" xmlns:xlink="http://www.w3.org/1999/xlink" x="0" y="0" width="528" height="528" viewBox="0, 0, 48, 48">
  <g id="Layer_1">
    <path d="M40,16 L34.38,16 C33.48,14.44 32.24,13.09 30.75,12.08 L34,8.83 L31.17,6 L26.82,10.35 C25.92,10.13 24.97,10 24,10 C23.03,10 22.08,10.13 21.18,10.35 L16.83,6 L14,8.83 L17.25,12.08 C15.76,13.09 14.52,14.44 13.62,16 L8,16 L8,20 L12.18,20 C12.07,20.65 12,21.32 12,22 L12,24 L8,24 L8,28 L12,28 L12,30 C12,30.68 12.07,31.35 12.18,32 L8,32 L8,36 L13.62,36 C15.69,39.58 19.56,42 24,42 C28.44,42 32.31,39.58 34.38,36 L40,36 L40,32 L35.82,32 C35.93,31.35 36,30.68 36,30 L36,28 L40,28 L40,24 L36,24 L36,22 C36,21.32 35.93,20.65 35.82,20 L40,20 L40,16 z M28,32 L20,32 L20,28 L28,28 L28,32 z M28,24 L20,24 L20,20 L28,20 L28,24 z" fill="#000000"/>
  </g>
</svg>
