<?xml version="1.0" encoding="UTF-8"?>
<!DOCTYPE svg PUBLIC "-//W3C//DTD SVG 1.1//EN" "http://www.w3.org/Graphics/SVG/1.1/DTD/svg11.dtd">
<svg version="1.1" xmlns="http://www.w3.org/2000/svg" xmlns:xlink="http://www.w3.org/1999/xlink" x="0" y="0" width="528" height="528" viewBox="0, 0, 48, 48">
  <g id="Layer_1">
    <path d="M24,12 C26.21,12 28,10.21 28,8 C28,7.25 27.79,6.54 27.43,5.94 L24,0 L20.57,5.94 C20.21,6.54 20,7.25 20,8 C20,10.21 21.79,12 24,12 z M33.19,31.97 L31.04,29.82 L28.88,31.97 C26.27,34.58 21.71,34.58 19.1,31.97 L16.95,29.82 L14.79,31.97 C13.5,33.28 11.77,34 9.92,34 C8.47,34 7.12,33.54 6,32.77 L6,42 C6,43.1 6.9,44 8,44 L40,44 C41.1,44 42,43.1 42,42 L42,32.77 C40.88,33.54 39.54,34 38.08,34 C36.23,34 34.5,33.28 33.19,31.97 z M36,18 L26,18 L26,14 L22,14 L22,18 L12,18 C8.69,18 6,20.69 6,24 L6,27.08 C6,29.24 7.76,31 9.92,31 C10.97,31 11.95,30.59 12.69,29.85 L16.97,25.58 L21.24,29.84 C22.72,31.32 25.3,31.32 26.78,29.84 L31.06,25.58 L35.33,29.84 C36.07,30.58 37.05,30.99 38.1,30.99 C40.26,30.99 42.02,29.23 42.02,27.07 L42.02,24 C42,20.69 39.31,18 36,18 z" fill="#000000"/>
  </g>
</svg>
