<?xml version="1.0" encoding="UTF-8"?>
<!DOCTYPE svg PUBLIC "-//W3C//DTD SVG 1.1//EN" "http://www.w3.org/Graphics/SVG/1.1/DTD/svg11.dtd">
<svg version="1.1" xmlns="http://www.w3.org/2000/svg" xmlns:xlink="http://www.w3.org/1999/xlink" x="0" y="0" width="528" height="528" viewBox="0, 0, 48, 48">
  <g id="Layer_1">
    <path d="M40,8 L33.66,8 L30,4 L18,4 L14.34,8 L8,8 C5.79,8 4,9.79 4,12 L4,36 C4,38.21 5.79,40 8,40 L40,40 C42.21,40 44,38.21 44,36 L44,12 C44,9.79 42.21,8 40,8 z M24,14 C27.26,14 30.13,15.59 31.96,18 L24,18 C20.69,18 18,20.69 18,24 C18,24.71 18.14,25.37 18.37,26 L14.2,26 C14.07,25.35 14,24.69 14,24 C14,18.48 18.48,14 24,14 z M24,34 C20.74,34 17.87,32.42 16.05,30 L24,30 C27.31,30 30,27.31 30,24 C30,23.3 29.86,22.63 29.63,22 L33.8,22 C33.93,22.65 34,23.31 34,24 C34,29.52 29.52,34 24,34 z" fill="#000000"/>
  </g>
</svg>
