<?xml version="1.0" encoding="UTF-8"?>
<!DOCTYPE svg PUBLIC "-//W3C//DTD SVG 1.1//EN" "http://www.w3.org/Graphics/SVG/1.1/DTD/svg11.dtd">
<svg version="1.1" xmlns="http://www.w3.org/2000/svg" xmlns:xlink="http://www.w3.org/1999/xlink" x="0" y="0" width="528" height="528" viewBox="0, 0, 48, 48">
  <g id="Layer_1">
    <path d="M30.4,24 C30.4,27.535 27.535,30.4 24,30.4 C20.465,30.4 17.6,27.535 17.6,24 C17.6,20.465 20.465,17.6 24,17.6 C27.535,17.6 30.4,20.465 30.4,24 z" fill="#000000"/>
    <path d="M18,4 L14.34,8 L8,8 C5.79,8 4,9.79 4,12 L4,36 C4,38.21 5.79,40 8,40 L40,40 C42.21,40 44,38.21 44,36 L44,12 C44,9.79 42.21,8 40,8 L33.66,8 L30,4 L18,4 z M24,34 C18.48,34 14,29.52 14,24 C14,18.48 18.48,14 24,14 C29.52,14 34,18.48 34,24 C34,29.52 29.52,34 24,34 z" fill="#000000"/>
  </g>
</svg>
