<?xml version="1.0" encoding="UTF-8"?>
<!DOCTYPE svg PUBLIC "-//W3C//DTD SVG 1.1//EN" "http://www.w3.org/Graphics/SVG/1.1/DTD/svg11.dtd">
<svg version="1.1" xmlns="http://www.w3.org/2000/svg" xmlns:xlink="http://www.w3.org/1999/xlink" x="0" y="0" width="528" height="528" viewBox="0, 0, 48, 48">
  <g id="Layer_1">
    <path d="M28,10 C28,7.79 26.21,6 24,6 L22,6 L22,4 C22,2.9 21.1,2 20,2 L12,2 C10.9,2 10,2.9 10,4 L10,6 L8,6 C5.79,6 4,7.79 4,10 L4,40 C4,42.21 5.79,44 8,44 L24,44 C26.21,44 28,42.21 28,40 L44,40 L44,10 L28,10 z M24,36 L20,36 L20,32 L24,32 L24,36 z M24,18 L20,18 L20,14 L24,14 L24,18 z M32,36 L28,36 L28,32 L32,32 L32,36 z M32,18 L28,18 L28,14 L32,14 L32,18 z M40,36 L36,36 L36,32 L40,32 L40,36 z M40,18 L36,18 L36,14 L40,14 L40,18 z" fill="#000000"/>
  </g>
</svg>
