<?xml version="1.0" encoding="UTF-8"?>
<!DOCTYPE svg PUBLIC "-//W3C//DTD SVG 1.1//EN" "http://www.w3.org/Graphics/SVG/1.1/DTD/svg11.dtd">
<svg version="1.1" xmlns="http://www.w3.org/2000/svg" xmlns:xlink="http://www.w3.org/1999/xlink" x="0" y="0" width="528" height="528" viewBox="0, 0, 48, 48">
  <g id="Layer_1">
    <path d="M40,10 L33.66,10 L30,6 L18,6 L14.34,10 L8,10 C5.79,10 4,11.79 4,14 L4,38 C4,40.21 5.79,42 8,42 L22,42 L22,37.82 C16.33,36.86 12,31.93 12,26 L16,26 C16,30.41 19.59,34 24,34 C28.41,34 32,30.41 32,26 L36,26 C36,31.93 31.67,36.86 26,37.82 L26,42 L40,42 C42.21,42 44,40.21 44,38 L44,14 C44,11.79 42.21,10 40,10 z M28,26 C28,28.21 26.21,30 24,30 C21.79,30 20,28.21 20,26 L20,18 C20,15.79 21.79,14 24,14 C26.21,14 28,15.79 28,18 L28,26 z" fill="#000000"/>
  </g>
</svg>
