<?xml version="1.0" encoding="UTF-8"?>
<!DOCTYPE svg PUBLIC "-//W3C//DTD SVG 1.1//EN" "http://www.w3.org/Graphics/SVG/1.1/DTD/svg11.dtd">
<svg version="1.1" xmlns="http://www.w3.org/2000/svg" xmlns:xlink="http://www.w3.org/1999/xlink" x="0" y="0" width="528" height="528" viewBox="0, 0, 48, 48">
  <g id="Layer_1">
    <path d="M14,48 L18,48 L18,44 L14,44 L14,48 z M22,48 L26,48 L26,44 L22,44 L22,48 z M30,48 L34,48 L34,44 L30,44 L30,48 z M32,0.02 L16,0 C13.79,0 12,1.79 12,4 L12,36 C12,38.21 13.79,40 16,40 L32,40 C34.21,40 36,38.21 36,36 L36,4 C36,1.79 34.21,0.02 32,0.02 z M32,32 L16,32 L16,8 L32,8 L32,32 z" fill="#000000"/>
  </g>
</svg>
