<?xml version="1.0" encoding="UTF-8"?>
<!DOCTYPE svg PUBLIC "-//W3C//DTD SVG 1.1//EN" "http://www.w3.org/Graphics/SVG/1.1/DTD/svg11.dtd">
<svg version="1.1" xmlns="http://www.w3.org/2000/svg" xmlns:xlink="http://www.w3.org/1999/xlink" x="0" y="0" width="528" height="528" viewBox="0, 0, 48, 48">
  <g id="Layer_1">
    <path d="M26,14 L22,14 L22,18 L26,18 L26,14 z M26,22 L22,22 L22,34 L26,34 L26,22 z M34,2.02 L14,2 C11.79,2 10,3.79 10,6 L10,42 C10,44.21 11.79,46 14,46 L34,46 C36.21,46 38,44.21 38,42 L38,6 C38,3.79 36.21,2.02 34,2.02 z M34,38 L14,38 L14,10 L34,10 L34,38 z" fill="#000000"/>
  </g>
</svg>
