<?xml version="1.0" encoding="UTF-8"?>
<!DOCTYPE svg PUBLIC "-//W3C//DTD SVG 1.1//EN" "http://www.w3.org/Graphics/SVG/1.1/DTD/svg11.dtd">
<svg version="1.1" xmlns="http://www.w3.org/2000/svg" xmlns:xlink="http://www.w3.org/1999/xlink" x="0" y="0" width="528" height="528" viewBox="0, 0, 48, 48">
  <g id="Layer_1">
    <path d="M32.97,5.03 C39.5,8.13 44.19,14.48 44.9,22 L47.9,22 C46.88,9.68 36.58,0 24,0 C23.55,0 23.12,0.04 22.67,0.07 L30.3,7.7 L32.97,5.03 z M20.46,3.49 C19.29,2.32 17.39,2.32 16.22,3.49 L3.49,16.22 C2.32,17.39 2.32,19.29 3.49,20.46 L27.53,44.5 C28.7,45.67 30.6,45.67 31.77,44.5 L44.5,31.77 C45.67,30.6 45.67,28.7 44.5,27.53 L20.46,3.49 z M29.66,42.38 L5.61,18.34 L18.34,5.61 L42.38,29.65 L29.66,42.38 z M15.03,42.97 C8.5,39.87 3.81,33.52 3.1,26 L0.1,26 C1.12,38.32 11.42,48 24,48 C24.45,48 24.88,47.96 25.33,47.93 L17.7,40.3 L15.03,42.97 z" fill="#000000"/>
  </g>
</svg>
