<?xml version="1.0" encoding="UTF-8"?>
<!DOCTYPE svg PUBLIC "-//W3C//DTD SVG 1.1//EN" "http://www.w3.org/Graphics/SVG/1.1/DTD/svg11.dtd">
<svg version="1.1" xmlns="http://www.w3.org/2000/svg" xmlns:xlink="http://www.w3.org/1999/xlink" x="0" y="0" width="528" height="528" viewBox="0, 0, 48, 48">
  <g id="Layer_1">
    <path d="M46.51,25.54 L41.37,20.4 L38.54,23.23 L42.97,27.66 L31.66,38.97 L9.03,16.34 L20.34,5.03 L24.53,9.22 L27.36,6.39 L22.46,1.49 C21.29,0.32 19.39,0.32 18.22,1.49 L5.49,14.22 C4.32,15.39 4.32,17.29 5.49,18.46 L29.53,42.5 C30.7,43.67 32.6,43.67 33.77,42.5 L46.5,29.77 C47.68,28.61 47.68,26.71 46.51,25.54 z M16.93,40.97 C10.4,37.87 5.71,31.52 5,24 L2,24 C3.02,36.32 13.32,46 25.9,46 C26.35,46 26.78,45.96 27.23,45.93 L19.6,38.3 L16.93,40.97 z M32,18 L42,18 C43.11,18 44,17.1 44,16 L44,8 C44,6.9 43.11,6 42,6 L42,5 C42,2.24 39.76,0 37,0 C34.24,0 32,2.24 32,5 L32,6 C30.89,6 30,6.9 30,8 L30,16 C30,17.1 30.89,18 32,18 z M33.6,5 C33.6,3.12 35.12,1.6 37,1.6 C38.88,1.6 40.4,3.12 40.4,5 L40.4,6 L33.6,6 L33.6,5 z" fill="#000000"/>
  </g>
</svg>
