<?xml version="1.0" encoding="UTF-8"?>
<!DOCTYPE svg PUBLIC "-//W3C//DTD SVG 1.1//EN" "http://www.w3.org/Graphics/SVG/1.1/DTD/svg11.dtd">
<svg version="1.1" xmlns="http://www.w3.org/2000/svg" xmlns:xlink="http://www.w3.org/1999/xlink" x="0" y="0" width="528" height="528" viewBox="0, 0, 48, 48">
  <g id="Layer_1">
    <path d="M4,32 L4,36 C9.52,36 14,40.48 14,46 L18,46 C18,38.27 11.73,32 4,32 z M4,40 L4,46 L10,46 C10,42.69 7.31,40 4,40 z M4,24 L4,28 C13.94,28 22,36.06 22,46 L26,46 C26,33.85 16.15,24 4,24 z M34,2.02 L14,2 C11.79,2 10,3.79 10,6 L10,20.74 C11.38,21.07 12.72,21.48 14,22.02 L14,10 L34,10 L34,36 L27.94,36 C28.98,38.49 29.62,41.19 29.84,44 L34,44 C36.21,44 38,42.21 38,40 L38,6 C38,3.79 36.21,2.02 34,2.02 z" fill="#000000"/>
  </g>
</svg>
