<?xml version="1.0" encoding="UTF-8"?>
<!DOCTYPE svg PUBLIC "-//W3C//DTD SVG 1.1//EN" "http://www.w3.org/Graphics/SVG/1.1/DTD/svg11.dtd">
<svg version="1.1" xmlns="http://www.w3.org/2000/svg" xmlns:xlink="http://www.w3.org/1999/xlink" x="0" y="0" width="528" height="528" viewBox="0, 0, 48, 48">
  <g id="Layer_1">
    <path d="M20,32 L28,32 C29.11,32 30,31.1 30,30 L30,24 C30,22.9 29.11,22 28,22 L28,20 C28,17.79 26.21,16 24,16 C21.79,16 20,17.79 20,20 L20,22 C18.89,22 18,22.9 18,24 L18,30 C18,31.1 18.89,32 20,32 z M21.6,20 C21.6,18.67 22.67,17.6 24,17.6 C25.33,17.6 26.4,18.68 26.4,20 L26.4,22 L21.6,22 L21.6,20 z M34,2 L14,2 C11.79,2 10,3.79 10,6 L10,42 C10,44.21 11.79,46 14,46 L34,46 C36.21,46 38,44.21 38,42 L38,6 C38,3.79 36.21,2 34,2 z M34,38 L14,38 L14,10 L34,10 L34,38 z" fill="#000000"/>
  </g>
</svg>
