<?xml version="1.0" encoding="UTF-8"?>
<!DOCTYPE svg PUBLIC "-//W3C//DTD SVG 1.1//EN" "http://www.w3.org/Graphics/SVG/1.1/DTD/svg11.dtd">
<svg version="1.1" xmlns="http://www.w3.org/2000/svg" xmlns:xlink="http://www.w3.org/1999/xlink" x="0" y="0" width="528" height="528" viewBox="0, 0, 48, 48">
  <g id="Layer_1">
    <path d="M24,4 C12.95,4 4,12.95 4,24 C4,35.05 12.95,44 24,44 C35.05,44 44,35.05 44,24 C44,12.95 35.05,4 24,4 z M13,18 L20,11 L27,18 L22,18 L22,26 L18,26 L18,18 L13,18 z M35,30 L28,37 L21,30 L26,30 L26,22 L30,22 L30,30 L35,30 z" fill="#000000"/>
  </g>
</svg>
