<?xml version="1.0" encoding="UTF-8"?>
<!DOCTYPE svg PUBLIC "-//W3C//DTD SVG 1.1//EN" "http://www.w3.org/Graphics/SVG/1.1/DTD/svg11.dtd">
<svg version="1.1" xmlns="http://www.w3.org/2000/svg" xmlns:xlink="http://www.w3.org/1999/xlink" x="0" y="0" width="528" height="528" viewBox="0, 0, 48, 48">
  <g id="Layer_1">
    <path d="M32,16 L28,16 L28,22 L22,22 L22,26 L28,26 L28,32 L32,32 L32,26 L38,26 L38,22 L32,22 z M4,24 C4,18.42 7.29,13.61 12.02,11.36 L12.02,7.05 C5.03,9.51 0,16.17 0,24 C0,31.83 5.03,38.49 12.02,40.95 L12.02,36.64 C7.29,34.39 4,29.58 4,24 z M30,6 C20.07,6 12,14.07 12,24 C12,33.93 20.07,42 30,42 C39.93,42 48,33.93 48,24 C48,14.07 39.93,6 30,6 z M30,38 C22.28,38 16,31.72 16,24 C16,16.28 22.28,10 30,10 C37.72,10 44,16.28 44,24 C44,31.72 37.72,38 30,38 z" fill="#000000"/>
  </g>
</svg>
