<?xml version="1.0" encoding="UTF-8"?>
<!DOCTYPE svg PUBLIC "-//W3C//DTD SVG 1.1//EN" "http://www.w3.org/Graphics/SVG/1.1/DTD/svg11.dtd">
<svg version="1.1" xmlns="http://www.w3.org/2000/svg" xmlns:xlink="http://www.w3.org/1999/xlink" x="0" y="0" width="528" height="528" viewBox="0, 0, 48, 48">
  <g id="Layer_1">
    <path d="M24,4 C12.95,4 4,12.95 4,24 C4,35.05 12.95,44 24,44 C35.05,44 44,35.05 44,24 C44,12.95 35.05,4 24,4 z M26,38 L22,38 L22,34 L26,34 L26,38 z M30.13,22.51 L28.34,24.35 C26.9,25.79 26,27 26,30 L22,30 L22,29 C22,26.79 22.9,24.79 24.34,23.34 L26.83,20.82 C27.55,20.1 28,19.1 28,18 C28,15.79 26.21,14 24,14 C21.79,14 20,15.79 20,18 L16,18 C16,13.58 19.58,10 24,10 C28.42,10 32,13.58 32,18 C32,19.76 31.29,21.35 30.13,22.51 z" fill="#000000"/>
  </g>
</svg>
