<?xml version="1.0" encoding="UTF-8"?>
<!DOCTYPE svg PUBLIC "-//W3C//DTD SVG 1.1//EN" "http://www.w3.org/Graphics/SVG/1.1/DTD/svg11.dtd">
<svg version="1.1" xmlns="http://www.w3.org/2000/svg" xmlns:xlink="http://www.w3.org/1999/xlink" x="0" y="0" width="528" height="528" viewBox="0, 0, 48, 48">
  <g id="Layer_1">
    <path d="M38,8 L10,8 C7.79,8 6,9.79 6,12 L6,36 C6,38.21 7.79,40 10,40 L38,40 C40.21,40 42,38.21 42,36 L42,12 C42,9.79 40.21,8 38,8 z M22,22 L19,22 L19,21 L15,21 L15,27 L19,27 L19,26 L22,26 L22,28 C22,29.1 21.11,30 20,30 L14,30 C12.89,30 12,29.1 12,28 L12,20 C12,18.9 12.89,18 14,18 L20,18 C21.11,18 22,18.9 22,20 L22,22 z M36,22 L33,22 L33,21 L29,21 L29,27 L33,27 L33,26 L36,26 L36,28 C36,29.1 35.11,30 34,30 L28,30 C26.89,30 26,29.1 26,28 L26,20 C26,18.9 26.89,18 28,18 L34,18 C35.11,18 36,18.9 36,20 L36,22 z" fill="#000000"/>
  </g>
</svg>
