<?xml version="1.0" encoding="UTF-8"?>
<!DOCTYPE svg PUBLIC "-//W3C//DTD SVG 1.1//EN" "http://www.w3.org/Graphics/SVG/1.1/DTD/svg11.dtd">
<svg version="1.1" xmlns="http://www.w3.org/2000/svg" xmlns:xlink="http://www.w3.org/1999/xlink" x="0" y="0" width="528" height="528" viewBox="0, 0, 48, 48">
  <g id="Layer_1">
    <path d="M24,4 C12.95,4 4,12.95 4,24 C4,35.05 12.95,44 24,44 C35.05,44 44,35.05 44,24 C44,12.95 35.05,4 24,4 z M33,32 L16,32 C12.69,32 10,29.31 10,26 C10,22.69 12.69,20 16,20 L16.27,20.03 C17.16,16.57 20.27,14 24,14 C28.42,14 32,17.58 32,22 L33,22 C35.76,22 38,24.24 38,27 C38,29.76 35.76,32 33,32 z" fill="#000000"/>
  </g>
</svg>
