<?xml version="1.0" encoding="UTF-8"?>
<!DOCTYPE svg PUBLIC "-//W3C//DTD SVG 1.1//EN" "http://www.w3.org/Graphics/SVG/1.1/DTD/svg11.dtd">
<svg version="1.1" xmlns="http://www.w3.org/2000/svg" xmlns:xlink="http://www.w3.org/1999/xlink" x="0" y="0" width="528" height="528" viewBox="0, 0, 48, 48">
  <g id="Layer_1">
    <path d="M38.71,20.07 C37.35,13.19 31.28,8 24,8 C21.05,8 18.3,8.87 15.98,10.34 L18.9,13.26 C20.43,12.47 22.16,12 24,12 C30.08,12 35,16.92 35,23 L35,24 L38,24 C41.31,24 44,26.69 44,30 C44,32.27 42.73,34.22 40.87,35.24 L43.77,38.14 C46.32,36.33 48,33.37 48,30 C48,24.72 43.89,20.44 38.71,20.07 z M6,10.55 L11.5,16.03 C5.12,16.3 0,21.55 0,28 C0,34.63 5.37,40 12,40 L35.45,40 L39.45,44 L42,41.46 L8.55,8 L6,10.55 z M15.45,20 L31.45,36 L12,36 C7.58,36 4,32.42 4,28 C4,23.58 7.58,20 12,20 L15.45,20 z" fill="#000000"/>
  </g>
</svg>
