<?xml version="1.0" encoding="UTF-8"?>
<!DOCTYPE svg PUBLIC "-//W3C//DTD SVG 1.1//EN" "http://www.w3.org/Graphics/SVG/1.1/DTD/svg11.dtd">
<svg version="1.1" xmlns="http://www.w3.org/2000/svg" xmlns:xlink="http://www.w3.org/1999/xlink" x="0" y="0" width="528" height="528" viewBox="0, 0, 48, 48">
  <g id="Layer_1">
    <path d="M44,6 L4,6 C1.79,6 0,7.79 0,10 L0,38 C0,40.21 1.79,42 4,42 L44,42 C46.21,42 47.98,40.21 47.98,38 L48,10 C48,7.79 46.21,6 44,6 z M16,12 C19.31,12 22,14.69 22,18 C22,21.32 19.31,24 16,24 C12.69,24 10,21.32 10,18 C10,14.69 12.69,12 16,12 z M28,36 L4,36 L4,34 C4,30 12,27.8 16,27.8 C20,27.8 28,30 28,34 L28,36 z M35.7,28 L38.98,28 L42,32 L38.01,35.99 C35.4,34.03 33.45,31.24 32.55,28 C32.2,26.72 32,25.39 32,24 C32,22.61 32.2,21.28 32.56,20 C33.45,16.76 35.4,13.97 38.02,12.01 L42,16 L38.98,20 L35.7,20 C35.26,21.25 35,22.6 35,24 C35,25.4 35.25,26.75 35.7,28 z" fill="#000000"/>
  </g>
</svg>
