<?xml version="1.0" encoding="UTF-8"?>
<!DOCTYPE svg PUBLIC "-//W3C//DTD SVG 1.1//EN" "http://www.w3.org/Graphics/SVG/1.1/DTD/svg11.dtd">
<svg version="1.1" xmlns="http://www.w3.org/2000/svg" xmlns:xlink="http://www.w3.org/1999/xlink" x="0" y="0" width="528" height="528" viewBox="0, 0, 48, 48">
  <g id="Layer_1">
    <path d="M40,0 L8,0 L8,4 L40,4 L40,0 z M8,48 L40,48 L40,44 L8,44 L8,48 z M40,8 L8,8 C5.79,8 4,9.79 4,12 L4,36 C4,38.21 5.79,40 8,40 L40,40 C42.21,40 44,38.21 44,36 L44,12 C44,9.79 42.21,8 40,8 z M24,13.5 C26.48,13.5 28.5,15.52 28.5,18 C28.5,20.49 26.48,22.5 24,22.5 C21.52,22.5 19.5,20.49 19.5,18 C19.5,15.52 21.52,13.5 24,13.5 z M34,34 L14,34 L14,31 C14,27.67 20.67,26 24,26 C27.33,26 34,27.67 34,31 L34,34 z" fill="#000000"/>
  </g>
</svg>
