<?xml version="1.0" encoding="UTF-8"?>
<!DOCTYPE svg PUBLIC "-//W3C//DTD SVG 1.1//EN" "http://www.w3.org/Graphics/SVG/1.1/DTD/svg11.dtd">
<svg version="1.1" xmlns="http://www.w3.org/2000/svg" xmlns:xlink="http://www.w3.org/1999/xlink" x="0" y="0" width="528" height="528" viewBox="0, 0, 48, 48">
  <g id="Layer_1">
    <path d="M32,2 L8,2 C5.79,2 4,3.79 4,6 L4,34 L8,34 L8,6 L32,6 L32,2 z M38,10 L16,10 C13.79,10 12,11.79 12,14 L12,42 C12,44.21 13.79,46 16,46 L38,46 C40.21,46 42,44.21 42,42 L42,14 C42,11.79 40.21,10 38,10 z M38,42 L16,42 L16,14 L38,14 L38,42 z" fill="#000000"/>
  </g>
</svg>
