<?xml version="1.0" encoding="UTF-8"?>
<!DOCTYPE svg PUBLIC "-//W3C//DTD SVG 1.1//EN" "http://www.w3.org/Graphics/SVG/1.1/DTD/svg11.dtd">
<svg version="1.1" xmlns="http://www.w3.org/2000/svg" xmlns:xlink="http://www.w3.org/1999/xlink" x="0" y="0" width="528" height="528" viewBox="0, 0, 48, 48">
  <g id="Layer_1">
    <path d="M34,30 L38,30 L38,14 C38,11.79 36.21,10 34,10 L18,10 L18,14 L34,14 L34,30 z M14,34 L14,2 L10,2 L10,10 L2,10 L2,14 L10,14 L10,34 C10,36.21 11.79,38 14,38 L34,38 L34,46 L38,46 L38,38 L46,38 L46,34 L14,34 z" fill="#000000"/>
  </g>
</svg>
