<?xml version="1.0" encoding="UTF-8"?>
<!DOCTYPE svg PUBLIC "-//W3C//DTD SVG 1.1//EN" "http://www.w3.org/Graphics/SVG/1.1/DTD/svg11.dtd">
<svg version="1.1" xmlns="http://www.w3.org/2000/svg" xmlns:xlink="http://www.w3.org/1999/xlink" x="0" y="0" width="528" height="528" viewBox="0, 0, 48, 48">
  <g id="Layer_1">
    <path d="M19.28,15.28 C19.73,14.28 20,13.17 20,12 C20,7.58 16.42,4 12,4 C7.58,4 4,7.58 4,12 C4,16.42 7.58,20 12,20 C13.17,20 14.28,19.73 15.28,19.28 L20,24 L15.28,28.72 C14.28,28.27 13.17,28 12,28 C7.58,28 4,31.58 4,36 C4,40.42 7.58,44 12,44 C16.42,44 20,40.42 20,36 C20,34.83 19.73,33.72 19.28,32.72 L24,28 L38,42 L44,42 L44,40 L19.28,15.28 z M12,16 C9.79,16 8,14.21 8,12 C8,9.79 9.79,8 12,8 C14.21,8 16,9.79 16,12 C16,14.21 14.21,16 12,16 z M12,40 C9.79,40 8,38.21 8,36 C8,33.79 9.79,32 12,32 C14.21,32 16,33.79 16,36 C16,38.21 14.21,40 12,40 z M24,25 C23.45,25 23,24.55 23,24 C23,23.45 23.45,23 24,23 C24.55,23 25,23.45 25,24 C25,24.55 24.55,25 24,25 z M38,6 L26,18 L30,22 L44,8 L44,6 z" fill="#000000"/>
  </g>
</svg>
