<?xml version="1.0" encoding="UTF-8"?>
<!DOCTYPE svg PUBLIC "-//W3C//DTD SVG 1.1//EN" "http://www.w3.org/Graphics/SVG/1.1/DTD/svg11.dtd">
<svg version="1.1" xmlns="http://www.w3.org/2000/svg" xmlns:xlink="http://www.w3.org/1999/xlink" x="0" y="0" width="528" height="528" viewBox="0, 0, 48, 48">
  <g id="Layer_1">
    <path d="M26,4.1 L26,10.16 C32.78,11.13 38,16.95 38,24 C38,25.79 37.65,27.5 37.04,29.07 L42.24,32.14 C43.35,29.65 44,26.91 44,24 C44,13.63 36.11,5.11 26,4.1 z M24,38 C16.27,38 10,31.73 10,24 C10,16.95 15.22,11.13 22,10.16 L22,4.1 C11.88,5.1 4,13.63 4,24 C4,35.05 12.94,44 23.99,44 C30.61,44 36.46,40.77 40.1,35.82 L34.91,32.76 C32.35,35.95 28.42,38 24,38 z" fill="#000000"/>
  </g>
</svg>
