<?xml version="1.0" encoding="UTF-8"?>
<!DOCTYPE svg PUBLIC "-//W3C//DTD SVG 1.1//EN" "http://www.w3.org/Graphics/SVG/1.1/DTD/svg11.dtd">
<svg version="1.1" xmlns="http://www.w3.org/2000/svg" xmlns:xlink="http://www.w3.org/1999/xlink" x="0" y="0" width="528" height="528" viewBox="0, 0, 48, 48">
  <g id="Layer_1">
    <path d="M42,4 L6,4 C3.79,4 2,5.79 2,8 L2,32 C2,34.21 3.79,36 6,36 L20,36 L16,42 L16,44 L32,44 L32,42 L28,36 L42,36 C44.21,36 46,34.21 46,32 L46,8 C46,5.79 44.21,4 42,4 z M42,28 L6,28 L6,8 L42,8 L42,28 z" fill="#000000"/>
  </g>
</svg>
