<?xml version="1.0" encoding="UTF-8"?>
<!DOCTYPE svg PUBLIC "-//W3C//DTD SVG 1.1//EN" "http://www.w3.org/Graphics/SVG/1.1/DTD/svg11.dtd">
<svg version="1.1" xmlns="http://www.w3.org/2000/svg" xmlns:xlink="http://www.w3.org/1999/xlink" x="0" y="0" width="528" height="528" viewBox="0, 0, 48, 48">
  <g id="Layer_1">
    <path d="M14,10.17 L34,10.17 L34,14.17 L38,14.17 L38,6.17 C38,3.96 36.21,2.19 34,2.19 L14,2.17 C11.79,2.17 10,3.96 10,6.17 L10,14.17 L14,14.17 L14,10.17 z M30.83,33.34 L40,24.17 L30.83,15 L28,17.83 L34.34,24.17 L28,30.52 L30.83,33.34 z M20,30.52 L13.66,24.18 L20,17.83 L17.17,15 L8,24.17 L17.17,33.34 L20,30.52 z M34,38.17 L14,38.17 L14,34.17 L10,34.17 L10,42.17 C10,44.38 11.79,46.17 14,46.17 L34,46.17 C36.21,46.17 38,44.38 38,42.17 L38,34.17 L34,34.17 L34,38.17 z" fill="#000000"/>
  </g>
</svg>
