<?xml version="1.0" encoding="UTF-8"?>
<!DOCTYPE svg PUBLIC "-//W3C//DTD SVG 1.1//EN" "http://www.w3.org/Graphics/SVG/1.1/DTD/svg11.dtd">
<svg version="1.1" xmlns="http://www.w3.org/2000/svg" xmlns:xlink="http://www.w3.org/1999/xlink" x="0" y="0" width="528" height="528" viewBox="0, 0, 48, 48">
  <g id="Layer_1">
    <path d="M24,38 C21.79,38 20,39.79 20,42 C20,44.21 21.79,46 24,46 C26.21,46 28,44.21 28,42 C28,39.79 26.21,38 24,38 z M12,2 C9.79,2 8,3.79 8,6 C8,8.21 9.79,10 12,10 C14.21,10 16,8.21 16,6 C16,3.79 14.21,2 12,2 z M12,14 C9.79,14 8,15.79 8,18 C8,20.21 9.79,22 12,22 C14.21,22 16,20.21 16,18 C16,15.79 14.21,14 12,14 z M12,26 C9.79,26 8,27.79 8,30 C8,32.21 9.79,34 12,34 C14.21,34 16,32.21 16,30 C16,27.79 14.21,26 12,26 z M36,10 C38.21,10 40,8.21 40,6 C40,3.79 38.21,2 36,2 C33.79,2 32,3.79 32,6 C32,8.21 33.79,10 36,10 z M24,26 C21.79,26 20,27.79 20,30 C20,32.21 21.79,34 24,34 C26.21,34 28,32.21 28,30 C28,27.79 26.21,26 24,26 z M36,26 C33.79,26 32,27.79 32,30 C32,32.21 33.79,34 36,34 C38.21,34 40,32.21 40,30 C40,27.79 38.21,26 36,26 z M36,14 C33.79,14 32,15.79 32,18 C32,20.21 33.79,22 36,22 C38.21,22 40,20.21 40,18 C40,15.79 38.21,14 36,14 z M24,14 C21.79,14 20,15.79 20,18 C20,20.21 21.79,22 24,22 C26.21,22 28,20.21 28,18 C28,15.79 26.21,14 24,14 z M24,2 C21.79,2 20,3.79 20,6 C20,8.21 21.79,10 24,10 C26.21,10 28,8.21 28,6 C28,3.79 26.21,2 24,2 z" fill="#000000"/>
  </g>
</svg>
