<?xml version="1.0" encoding="UTF-8"?>
<!DOCTYPE svg PUBLIC "-//W3C//DTD SVG 1.1//EN" "http://www.w3.org/Graphics/SVG/1.1/DTD/svg11.dtd">
<svg version="1.1" xmlns="http://www.w3.org/2000/svg" xmlns:xlink="http://www.w3.org/1999/xlink" x="0" y="0" width="528" height="528" viewBox="0, 0, 48, 48">
  <g id="Layer_1">
    <path d="M40,26 L8,26 C6.9,26 6,26.9 6,28 L6,40 C6,41.1 6.9,42 8,42 L40,42 C41.1,42 42,41.1 42,40 L42,28 C42,26.9 41.1,26 40,26 z M14,38 C11.79,38 10,36.21 10,34 C10,31.79 11.79,30 14,30 C16.21,30 18,31.79 18,34 C18,36.21 16.21,38 14,38 z M40,6 L8,6 C6.9,6 6,6.9 6,8 L6,20 C6,21.1 6.9,22 8,22 L40,22 C41.1,22 42,21.1 42,20 L42,8 C42,6.9 41.1,6 40,6 z M14,18 C11.79,18 10,16.21 10,14 C10,11.79 11.79,10 14,10 C16.21,10 18,11.79 18,14 C18,16.21 16.21,18 14,18 z" fill="#000000"/>
  </g>
</svg>
