<?xml version="1.0" encoding="UTF-8"?>
<!DOCTYPE svg PUBLIC "-//W3C//DTD SVG 1.1//EN" "http://www.w3.org/Graphics/SVG/1.1/DTD/svg11.dtd">
<svg version="1.1" xmlns="http://www.w3.org/2000/svg" xmlns:xlink="http://www.w3.org/1999/xlink" x="0" y="0" width="528" height="528" viewBox="0, 0, 48, 48">
  <g id="Layer_1">
    <path d="M38,6 L9.98,6 C7.77,6 6.02,7.79 6.02,10 L6,38 C6,40.21 7.77,42 9.98,42 L38,42 C40.21,42 42,40.21 42,38 L42,10 C42,7.79 40.21,6 38,6 z M38,30 L30,30 C30,33.31 27.31,36 24,36 C20.69,36 18,33.31 18,30 L9.98,30 L9.98,10 L38,10 L38,30 z M32,20 L28,20 L28,14 L20,14 L20,20 L16,20 L24,28 L32,20 z" fill="#000000"/>
  </g>
</svg>
