<?xml version="1.0" encoding="UTF-8"?>
<!DOCTYPE svg PUBLIC "-//W3C//DTD SVG 1.1//EN" "http://www.w3.org/Graphics/SVG/1.1/DTD/svg11.dtd">
<svg version="1.1" xmlns="http://www.w3.org/2000/svg" xmlns:xlink="http://www.w3.org/1999/xlink" x="0" y="0" width="528" height="528" viewBox="0, 0, 48, 48">
  <g id="Layer_1">
    <path d="M15.54,13.52 L12.46,10.97 L1.64,24 L12.46,37.04 L15.54,34.49 L6.84,24 L15.54,13.52 z M14,26 L18,26 L18,22 L14,22 L14,26 z M34,22 L30,22 L30,26 L34,26 L34,22 z M22,26 L26,26 L26,22 L22,22 L22,26 z M35.54,10.96 L32.46,13.51 L41.16,24 L32.46,34.48 L35.54,37.03 L46.36,24 L35.54,10.96 z" fill="#000000"/>
  </g>
</svg>
