<?xml version="1.0" encoding="UTF-8"?>
<!DOCTYPE svg PUBLIC "-//W3C//DTD SVG 1.1//EN" "http://www.w3.org/Graphics/SVG/1.1/DTD/svg11.dtd">
<svg version="1.1" xmlns="http://www.w3.org/2000/svg" xmlns:xlink="http://www.w3.org/1999/xlink" x="0" y="0" width="528" height="528" viewBox="0, 0, 48, 48">
  <g id="Layer_1">
    <path d="M34,20 L14,20 L14,24 L34,24 L34,20 z M38,6 L36,6 L36,2 L32,2 L32,6 L16,6 L16,2 L12,2 L12,6 L10,6 C7.79,6 6.02,7.79 6.02,10 L6,38 C6,40.21 7.79,42 10,42 L38,42 C40.21,42 42,40.21 42,38 L42,10 C42,7.79 40.21,6 38,6 z M38,38 L10,38 L10,16 L38,16 L38,38 z M28,28 L14,28 L14,32 L28,32 L28,28 z" fill="#000000"/>
  </g>
</svg>
