<?xml version="1.0" encoding="UTF-8"?>
<!DOCTYPE svg PUBLIC "-//W3C//DTD SVG 1.1//EN" "http://www.w3.org/Graphics/SVG/1.1/DTD/svg11.dtd">
<svg version="1.1" xmlns="http://www.w3.org/2000/svg" xmlns:xlink="http://www.w3.org/1999/xlink" x="0" y="0" width="528" height="528" viewBox="0, 0, 48, 48">
  <g id="Layer_1">
    <path d="M20.17,31.17 L23,34 L33,24 L23,14 L20.17,16.83 L25.34,22 L6,22 L6,26 L25.34,26 L20.17,31.17 z M38,6 L10,6 C7.79,6 6,7.79 6,10 L6,18 L10,18 L10,10 L38,10 L38,38 L10,38 L10,30 L6,30 L6,38 C6,40.21 7.79,42 10,42 L38,42 C40.21,42 42,40.21 42,38 L42,10 C42,7.79 40.21,6 38,6 z" fill="#000000"/>
  </g>
</svg>
