<?xml version="1.0" encoding="UTF-8"?>
<!DOCTYPE svg PUBLIC "-//W3C//DTD SVG 1.1//EN" "http://www.w3.org/Graphics/SVG/1.1/DTD/svg11.dtd">
<svg version="1.1" xmlns="http://www.w3.org/2000/svg" xmlns:xlink="http://www.w3.org/1999/xlink" x="0" y="0" width="528" height="528" viewBox="0, 0, 48, 48">
  <g id="Layer_1">
    <path d="M24,21.8 C22.79,21.8 21.8,22.79 21.8,24 C21.8,25.21 22.79,26.2 24,26.2 C25.22,26.2 26.2,25.21 26.2,24 C26.2,22.79 25.22,21.8 24,21.8 z M24,4 C12.95,4 4,12.95 4,24 C4,35.04 12.95,44 24,44 C35.05,44 44,35.04 44,24 C44,12.95 35.05,4 24,4 z M28.38,28.38 L12,36 L19.62,19.62 L36,12 L28.38,28.38 z" fill="#000000"/>
  </g>
</svg>
