<?xml version="1.0" encoding="UTF-8"?>
<!DOCTYPE svg PUBLIC "-//W3C//DTD SVG 1.1//EN" "http://www.w3.org/Graphics/SVG/1.1/DTD/svg11.dtd">
<svg version="1.1" xmlns="http://www.w3.org/2000/svg" xmlns:xlink="http://www.w3.org/1999/xlink" x="0" y="0" width="528" height="528" viewBox="0, 0, 48, 48">
  <g id="Layer_1">
    <path d="M30.09,32.58 L35.82,26.45 C36.57,25.66 37.26,24.88 37.9,24.1 C38.53,23.32 39.08,22.54 39.54,21.77 C40,20.99 40.36,20.22 40.61,19.44 C40.87,18.66 41,17.87 41,17.07 C41,16 40.82,15.03 40.46,14.15 C40.1,13.28 39.58,12.53 38.89,11.92 C38.2,11.31 37.36,10.84 36.36,10.5 C35.36,10.17 34.22,10 32.94,10 C31.56,10 30.32,10.21 29.24,10.64 C28.16,11.07 27.25,11.65 26.51,12.39 C25.77,13.13 25.21,14 24.83,14.99 C24.47,15.93 24.29,16.94 24.27,18 L28.55,18 C28.56,17.38 28.64,16.79 28.81,16.26 C28.99,15.68 29.26,15.18 29.62,14.76 C29.98,14.34 30.43,14.02 30.97,13.78 C31.52,13.55 32.16,13.43 32.9,13.43 C33.51,13.43 34.05,13.53 34.52,13.74 C34.99,13.95 35.39,14.23 35.71,14.59 C36.03,14.95 36.28,15.39 36.45,15.88 C36.62,16.38 36.7,16.92 36.7,17.51 C36.7,17.94 36.64,18.38 36.53,18.81 C36.42,19.24 36.23,19.71 35.95,20.21 C35.67,20.71 35.3,21.26 34.84,21.87 C34.38,22.47 33.79,23.16 33.09,23.94 L24.74,33.05 L24.74,36 L42,36 L42,32.58 L30.09,32.58 z M4,22 L4,26 L20,26 L20,22 L4,22 z" fill="#000000"/>
  </g>
</svg>
