<?xml version="1.0" encoding="UTF-8"?>
<!DOCTYPE svg PUBLIC "-//W3C//DTD SVG 1.1//EN" "http://www.w3.org/Graphics/SVG/1.1/DTD/svg11.dtd">
<svg version="1.1" xmlns="http://www.w3.org/2000/svg" xmlns:xlink="http://www.w3.org/1999/xlink" x="0" y="0" width="528" height="528" viewBox="0, 0, 48, 48">
  <g id="Layer_1">
    <path d="M32.09,32.58 L37.82,26.45 C38.57,25.66 39.26,24.88 39.9,24.1 C40.53,23.32 41.08,22.54 41.54,21.77 C42,20.99 42.36,20.22 42.61,19.44 C42.87,18.66 43,17.87 43,17.07 C43,16 42.82,15.03 42.46,14.15 C42.1,13.28 41.58,12.53 40.89,11.92 C40.2,11.31 39.36,10.84 38.36,10.5 C37.36,10.17 36.22,10 34.94,10 C33.56,10 32.32,10.21 31.24,10.64 C30.16,11.07 29.25,11.65 28.51,12.39 C27.77,13.13 27.21,14 26.83,14.99 C26.47,15.93 26.29,16.94 26.27,18 L30.55,18 C30.56,17.38 30.64,16.79 30.81,16.26 C30.99,15.68 31.26,15.18 31.62,14.76 C31.98,14.34 32.43,14.02 32.97,13.78 C33.52,13.55 34.16,13.43 34.9,13.43 C35.51,13.43 36.05,13.53 36.52,13.74 C36.99,13.95 37.39,14.23 37.71,14.59 C38.03,14.95 38.28,15.39 38.45,15.88 C38.62,16.38 38.7,16.92 38.7,17.51 C38.7,17.94 38.64,18.38 38.53,18.81 C38.42,19.24 38.23,19.71 37.95,20.21 C37.67,20.71 37.3,21.26 36.84,21.87 C36.38,22.47 35.79,23.16 35.09,23.94 L26.74,33.05 L26.74,36 L44,36 L44,32.58 L32.09,32.58 z M16,14 L12,14 L12,22 L4,22 L4,26 L12,26 L12,34 L16,34 L16,26 L24,26 L24,22 L16,22 L16,14 z" fill="#000000"/>
  </g>
</svg>
