<?xml version="1.0" encoding="UTF-8"?>
<!DOCTYPE svg PUBLIC "-//W3C//DTD SVG 1.1//EN" "http://www.w3.org/Graphics/SVG/1.1/DTD/svg11.dtd">
<svg version="1.1" xmlns="http://www.w3.org/2000/svg" xmlns:xlink="http://www.w3.org/1999/xlink" x="0" y="0" width="528" height="528" viewBox="0, 0, 48, 48">
  <g id="Layer_1">
    <path d="M30,34 L30,38 L34,38 L34,34 L38,34 L38,30 L34,30 L34,26 L30,26 L30,30 L26,30 L26,34 L30,34 z M40,4 L8,4 C5.79,4 4,5.79 4,8 L4,40 C4,42.21 5.79,44 8,44 L40,44 C42.21,44 44,42.21 44,40 L44,8 C44,5.79 42.21,4 40,4 z M10,10 L22,10 L22,14 L10,14 L10,10 z M40,40 L8,40 L40,8 L40,40 z" fill="#000000"/>
  </g>
</svg>
