<?xml version="1.0" encoding="UTF-8"?>
<!DOCTYPE svg PUBLIC "-//W3C//DTD SVG 1.1//EN" "http://www.w3.org/Graphics/SVG/1.1/DTD/svg11.dtd">
<svg version="1.1" xmlns="http://www.w3.org/2000/svg" xmlns:xlink="http://www.w3.org/1999/xlink" x="0" y="0" width="528" height="528" viewBox="0, 0, 48, 48">
  <g id="Layer_1">
    <path d="M41,22 L38,22 L38,14 C38,11.79 36.21,10 34,10 L26,10 L26,7 C26,4.24 23.76,2 21,2 C18.24,2 16,4.24 16,7 L16,10 L8,10 C5.79,10 4.02,11.79 4.02,14 L4.01,21.6 L7,21.6 C9.98,21.6 12.4,24.02 12.4,27 C12.4,29.98 9.98,32.4 7,32.4 L4.01,32.4 L4,40 C4,42.21 5.79,44 8,44 L15.6,44 L15.6,41 C15.6,38.02 18.02,35.6 21,35.6 C23.98,35.6 26.4,38.02 26.4,41 L26.4,44 L34,44 C36.21,44 38,42.21 38,40 L38,32 L41,32 C43.76,32 46,29.76 46,27 C46,24.24 43.76,22 41,22 z" fill="#000000"/>
  </g>
</svg>
