<?xml version="1.0" encoding="UTF-8"?>
<!DOCTYPE svg PUBLIC "-//W3C//DTD SVG 1.1//EN" "http://www.w3.org/Graphics/SVG/1.1/DTD/svg11.dtd">
<svg version="1.1" xmlns="http://www.w3.org/2000/svg" xmlns:xlink="http://www.w3.org/1999/xlink" x="0" y="0" width="528" height="528" viewBox="0, 0, 48, 48">
  <g id="Layer_1">
    <path d="M29.39,34.21 C27.9,35.36 25.99,36 24,36 C22.01,36 20.1,35.36 18.61,34.21 C18.18,33.87 17.55,33.95 17.21,34.39 C16.87,34.83 16.95,35.45 17.39,35.79 C19.22,37.21 21.57,38 24,38 C26.43,38 28.78,37.21 30.61,35.79 C31.05,35.45 31.13,34.82 30.79,34.39 C30.45,33.95 29.82,33.87 29.39,34.21 z" fill="#000000"/>
    <path d="M19,25 C19,26.105 18.105,27 17,27 C15.895,27 15,26.105 15,25 C15,23.895 15.895,23 17,23 C18.105,23 19,23.895 19,25 z" fill="#000000"/>
    <path d="M24,0 C10.75,0 0,10.75 0,24 C0,37.25 10.75,48 24,48 C37.25,48 48,37.25 48,24 C48,10.75 37.25,0 24,0 z M39.92,29.64 C37.74,37.12 31.38,42.55 23.84,42.55 C16.29,42.55 9.92,37.1 7.75,29.6 C5.37,29.4 3.5,27.24 3.5,24.58 C3.5,22.04 5.21,19.95 7.43,19.59 L7.43,19.58 C11.61,16.65 15.04,12.6 15.62,9.48 L15.63,9.49 L15.63,9.46 C18.34,14.71 28.23,19.84 39.28,19.58 C39.48,19.55 39.67,19.51 39.87,19.51 C42.42,19.51 44.49,21.78 44.49,24.58 C44.5,27.36 42.45,29.62 39.92,29.64 z" fill="#000000"/>
    <path d="M33,25 C33,26.105 32.105,27 31,27 C29.895,27 29,26.105 29,25 C29,23.895 29.895,23 31,23 C32.105,23 33,23.895 33,25 z" fill="#000000"/>
  </g>
</svg>
