<?xml version="1.0" encoding="UTF-8"?>
<!DOCTYPE svg PUBLIC "-//W3C//DTD SVG 1.1//EN" "http://www.w3.org/Graphics/SVG/1.1/DTD/svg11.dtd">
<svg version="1.1" xmlns="http://www.w3.org/2000/svg" xmlns:xlink="http://www.w3.org/1999/xlink" x="0" y="0" width="528" height="528" viewBox="0, 0, 48, 48">
  <g id="Layer_1">
    <path d="M33,6 C29.52,6 26.18,7.62 24,10.17 C21.82,7.62 18.48,6 15,6 C8.83,6 4,10.83 4,17 C4,24.55 10.8,30.72 21.1,40.07 L24,42.7 L26.9,40.07 C37.2,30.72 44,24.55 44,17 C44,10.83 39.17,6 33,6 z M24.21,37.11 L24,37.3 L23.79,37.11 C14.28,28.48 8,22.78 8,17 C8,13.01 11.01,10 15,10 C18.08,10 21.08,11.99 22.13,14.72 L25.86,14.72 C26.92,11.99 29.92,10 33,10 C36.99,10 40,13.01 40,17 C40,22.78 33.72,28.48 24.21,37.11 z" fill="#000000"/>
  </g>
</svg>
