<?xml version="1.0" encoding="UTF-8"?>
<!DOCTYPE svg PUBLIC "-//W3C//DTD SVG 1.1//EN" "http://www.w3.org/Graphics/SVG/1.1/DTD/svg11.dtd">
<svg version="1.1" xmlns="http://www.w3.org/2000/svg" xmlns:xlink="http://www.w3.org/1999/xlink" x="0" y="0" width="528" height="528" viewBox="0, 0, 48, 48">
  <g id="Layer_1">
    <path d="M28,4 L12,4 C9.79,4 8.02,5.79 8.02,8 L8,40 C8,42.21 9.77,44 11.98,44 L36,44 C38.21,44 40,42.21 40,40 L40,16 L28,4 z M32,36 L16,36 L16,32 L32,32 L32,36 z M32,28 L16,28 L16,24 L32,24 L32,28 z M26,18 L26,7 L37,18 L26,18 z" fill="#000000"/>
  </g>
</svg>
