<?xml version="1.0" encoding="UTF-8"?>
<!DOCTYPE svg PUBLIC "-//W3C//DTD SVG 1.1//EN" "http://www.w3.org/Graphics/SVG/1.1/DTD/svg11.dtd">
<svg version="1.1" xmlns="http://www.w3.org/2000/svg" xmlns:xlink="http://www.w3.org/1999/xlink" x="0" y="0" width="528" height="528" viewBox="0, 0, 48, 48">
  <g id="Layer_1">
    <path d="M22,8.14 L22,4.1 C17.98,4.5 14.32,6.1 11.35,8.52 L14.2,11.37 C16.42,9.66 19.08,8.5 22,8.14 z M36.65,8.52 C33.69,6.1 30.02,4.5 26,4.1 L26,8.14 C28.92,8.51 31.58,9.66 33.8,11.38 L36.65,8.52 z M39.86,22 L43.9,22 C43.5,17.98 41.9,14.32 39.48,11.35 L36.63,14.2 C38.34,16.42 39.5,19.08 39.86,22 z M11.38,14.2 L8.53,11.35 C6.1,14.32 4.5,17.98 4.1,22 L8.14,22 C8.51,19.08 9.66,16.42 11.38,14.2 z M8.14,26 L4.1,26 C4.5,30.02 6.1,33.68 8.52,36.65 L11.37,33.8 C9.66,31.58 8.51,28.91 8.14,26 z M30,24 C30,20.69 27.31,18 24,18 C20.69,18 18,20.69 18,24 C18,27.31 20.69,30 24,30 C27.31,30 30,27.31 30,24 z M36.62,33.79 L39.47,36.64 C41.9,33.68 43.5,30.02 43.9,26 L39.86,26 C39.5,28.91 38.34,31.58 36.62,33.79 z M26,39.86 L26,43.9 C30.02,43.5 33.68,41.9 36.65,39.48 L33.8,36.63 C31.58,38.34 28.92,39.49 26,39.86 z M11.35,39.48 C14.32,41.9 17.98,43.5 22,43.9 L22,39.86 C19.08,39.49 16.42,38.34 14.2,36.62 L11.35,39.48 z" fill="#000000"/>
  </g>
</svg>
