<?xml version="1.0" encoding="UTF-8"?>
<!DOCTYPE svg PUBLIC "-//W3C//DTD SVG 1.1//EN" "http://www.w3.org/Graphics/SVG/1.1/DTD/svg11.dtd">
<svg version="1.1" xmlns="http://www.w3.org/2000/svg" xmlns:xlink="http://www.w3.org/1999/xlink" x="0" y="0" width="528" height="528" viewBox="0, 0, 48, 48">
  <g id="Layer_1">
    <path d="M37.39,24.8 C36.83,24.48 36.25,24.22 35.67,24 C36.25,23.78 36.83,23.52 37.39,23.2 C41.23,20.98 43.37,16.95 43.38,12.81 C39.79,10.75 35.23,10.59 31.39,12.81 C30.83,13.13 30.32,13.5 29.83,13.9 C29.93,13.27 30,12.65 30,12 C30,7.56 27.58,3.69 24,1.62 C20.42,3.69 18,7.56 18,12 C18,12.65 18.06,13.27 18.16,13.89 C17.67,13.5 17.16,13.13 16.6,12.8 C12.76,10.58 8.2,10.74 4.61,12.8 C4.62,16.94 6.76,20.97 10.6,23.19 C11.16,23.51 11.74,23.77 12.32,23.99 C11.74,24.21 11.16,24.47 10.6,24.79 C6.76,27.01 4.62,31.04 4.61,35.18 C8.2,37.24 12.76,37.4 16.6,35.18 C17.16,34.86 17.67,34.49 18.16,34.09 C18.07,34.73 18,35.35 18,36 C18,40.44 20.42,44.31 24,46.38 C27.58,44.3 30,40.44 30,36 C30,35.35 29.93,34.73 29.84,34.11 C30.33,34.5 30.84,34.87 31.4,35.2 C35.24,37.42 39.8,37.26 43.39,35.2 C43.38,31.05 41.24,27.02 37.39,24.8 z M24,32 C19.58,32 16,28.42 16,24 C16,19.58 19.58,16 24,16 C28.42,16 32,19.58 32,24 C32,28.42 28.42,32 24,32 z" fill="#000000"/>
  </g>
</svg>
