<?xml version="1.0" encoding="UTF-8"?>
<!DOCTYPE svg PUBLIC "-//W3C//DTD SVG 1.1//EN" "http://www.w3.org/Graphics/SVG/1.1/DTD/svg11.dtd">
<svg version="1.1" xmlns="http://www.w3.org/2000/svg" xmlns:xlink="http://www.w3.org/1999/xlink" x="0" y="0" width="528" height="528" viewBox="0, 0, 48, 48">
  <g id="Layer_1">
    <path d="M38.71,20.07 C37.35,13.19 31.28,8 24,8 C18.22,8 13.22,11.28 10.71,16.07 C4.69,16.71 0,21.81 0,28 C0,34.63 5.37,40 12,40 L38,40 C43.52,40 48,35.52 48,30 C48,24.72 43.9,20.44 38.71,20.07 z M38,36 L12,36 C7.59,36 4,32.41 4,28 C4,23.59 7.59,20 12,20 C16.41,20 20,23.59 20,28 L24,28 C24,22.48 20.27,17.85 15.2,16.45 C17.21,13.76 20.4,12 24,12 C30.07,12 35,16.93 35,23 L35,24 L38,24 C41.31,24 44,26.69 44,30 C44,33.31 41.31,36 38,36 z" fill="#000000"/>
  </g>
</svg>
