<?xml version="1.0" encoding="UTF-8"?>
<!DOCTYPE svg PUBLIC "-//W3C//DTD SVG 1.1//EN" "http://www.w3.org/Graphics/SVG/1.1/DTD/svg11.dtd">
<svg version="1.1" xmlns="http://www.w3.org/2000/svg" xmlns:xlink="http://www.w3.org/1999/xlink" x="0" y="0" width="528" height="528" viewBox="0, 0, 48, 48">
  <g id="Layer_1">
    <path d="M6,10 L2,10 L2,42 C2,44.21 3.79,46 6,46 L38,46 L38,42 L6,42 L6,10 z M28,24 L28,16 C28,13.79 26.21,12 24,12 L22,12 C19.79,12 18,13.79 18,16 L18,18 C18,20.21 19.79,22 22,22 L24,22 L24,24 L18,24 L18,28 L24,28 C26.21,28 28,26.21 28,24 z M22,18 L22,16 L24,16 L24,18 L22,18 z M42,2 L14,2 C11.79,2 10,3.79 10,6 L10,34 C10,36.21 11.79,38 14,38 L42,38 C44.21,38 46,36.21 46,34 L46,6 C46,3.79 44.21,2 42,2 z M42,18 L38,18 L38,14 L34,14 L34,18 L30,18 L30,22 L34,22 L34,26 L38,26 L38,22 L42,22 L42,34 L14,34 L14,6 L42,6 L42,18 z" fill="#000000"/>
  </g>
</svg>
