<?xml version="1.0" encoding="UTF-8"?>
<!DOCTYPE svg PUBLIC "-//W3C//DTD SVG 1.1//EN" "http://www.w3.org/Graphics/SVG/1.1/DTD/svg11.dtd">
<svg version="1.1" xmlns="http://www.w3.org/2000/svg" xmlns:xlink="http://www.w3.org/1999/xlink" x="0" y="0" width="528" height="528" viewBox="0, 0, 48, 48">
  <g id="Layer_1">
    <path d="M40,39.17 L40,16 L28,4 L12,4 C9.79,4 8.02,5.79 8.02,8 L8,40 C8,42.21 9.77,44 11.98,44 L36,44 C36.89,44 37.71,43.7 38.37,43.2 L29.5,34.33 C27.93,35.38 26.04,36 24,36 C18.48,36 14,31.52 14,26 C14,20.48 18.48,16 24,16 C29.52,16 34,20.48 34,26 C34,28.04 33.38,29.93 32.34,31.51 L40,39.17 z M18,26 C18,29.31 20.69,32 24,32 C27.31,32 30,29.31 30,26 C30,22.69 27.31,20 24,20 C20.69,20 18,22.69 18,26 z" fill="#000000"/>
  </g>
</svg>
