<?xml version="1.0" encoding="UTF-8"?>
<!DOCTYPE svg PUBLIC "-//W3C//DTD SVG 1.1//EN" "http://www.w3.org/Graphics/SVG/1.1/DTD/svg11.dtd">
<svg version="1.1" xmlns="http://www.w3.org/2000/svg" xmlns:xlink="http://www.w3.org/1999/xlink" x="0" y="0" width="528" height="528" viewBox="0, 0, 48, 48">
  <g id="Layer_1">
    <path d="M22,12 C24.76,12 27.26,13.12 29.07,14.93 L24,20 L36,20 L36,8 L31.9,12.1 C29.37,9.57 25.87,8 22,8 C14.95,8 9.13,13.22 8.16,20 L12.2,20 C13.13,15.44 17.16,12 22,12 z M33.28,30.27 C34.61,28.46 35.51,26.32 35.84,24 L31.8,24 C30.87,28.56 26.84,32 22,32 C19.24,32 16.74,30.88 14.93,29.07 L20,24 L8,24 L8,36 L12.1,31.9 C14.63,34.43 18.13,36 22,36 C25.1,36 27.96,34.98 30.28,33.27 L40,42.98 L42.98,40 L33.28,30.27 z" fill="#000000"/>
  </g>
</svg>
