<?xml version="1.0" encoding="UTF-8"?>
<!DOCTYPE svg PUBLIC "-//W3C//DTD SVG 1.1//EN" "http://www.w3.org/Graphics/SVG/1.1/DTD/svg11.dtd">
<svg version="1.1" xmlns="http://www.w3.org/2000/svg" xmlns:xlink="http://www.w3.org/1999/xlink" x="0" y="0" width="528" height="528" viewBox="0, 0, 48, 48">
  <g id="Layer_1">
    <path d="M14,22 L2,22 L2,26 L14,26 L14,22 z M18.34,15.51 L14.1,11.27 L11.27,14.1 L15.51,18.34 L18.34,15.51 z M26,2 L22,2 L22,14 L26,14 L26,2 z M36.73,14.1 L33.9,11.27 L29.66,15.51 L32.49,18.34 L36.73,14.1 z M34,22 L34,26 L46,26 L46,22 L34,22 z M24,18 C20.69,18 18,20.69 18,24 C18,27.31 20.69,30 24,30 C27.31,30 30,27.31 30,24 C30,20.69 27.31,18 24,18 z M29.66,32.49 L33.9,36.73 L36.73,33.9 L32.49,29.66 L29.66,32.49 z M11.27,33.9 L14.1,36.73 L18.34,32.49 L15.51,29.66 L11.27,33.9 z M22,46 L26,46 L26,34 L22,34 L22,46 z" fill="#000000"/>
  </g>
</svg>
