<?xml version="1.0" encoding="UTF-8"?>
<!DOCTYPE svg PUBLIC "-//W3C//DTD SVG 1.1//EN" "http://www.w3.org/Graphics/SVG/1.1/DTD/svg11.dtd">
<svg version="1.1" xmlns="http://www.w3.org/2000/svg" xmlns:xlink="http://www.w3.org/1999/xlink" x="0" y="0" width="528" height="528" viewBox="0, 0, 48, 48">
  <g id="Layer_1">
    <path d="M30,42 L34,42 L34,38 L30,38 L30,42 z M38,18 L42,18 L42,14 L38,14 L38,18 z M6,10 L6,38 C6,40.21 7.79,42 10,42 L18,42 L18,38 L10,38 L10,10 L18,10 L18,6 L10,6 C7.79,6 6,7.79 6,10 z M38,6 L38,10 L42,10 C42,7.79 40.21,6 38,6 z M22,46 L26,46 L26,2 L22,2 L22,46 z M38,34 L42,34 L42,30 L38,30 L38,34 z M30,10 L34,10 L34,6 L30,6 L30,10 z M38,26 L42,26 L42,22 L38,22 L38,26 z M38,42 C40.21,42 42,40.21 42,38 L38,38 L38,42 z" fill="#000000"/>
  </g>
</svg>
