<?xml version="1.0" encoding="UTF-8"?>
<!DOCTYPE svg PUBLIC "-//W3C//DTD SVG 1.1//EN" "http://www.w3.org/Graphics/SVG/1.1/DTD/svg11.dtd">
<svg version="1.1" xmlns="http://www.w3.org/2000/svg" xmlns:xlink="http://www.w3.org/1999/xlink" x="0" y="0" width="528" height="528" viewBox="0, 0, 48, 48">
  <g id="Layer_1">
    <path d="M18,14 L14,14 L14,18 L18,18 L18,14 z M18,22 L14,22 L14,26 L18,26 L18,22 z M18,6 C15.79,6 14,7.79 14,10 L18,10 L18,6 z M26,30 L22,30 L22,34 L26,34 L26,30 z M38,6 L38,10 L42,10 C42,7.79 40.21,6 38,6 z M26,6 L22,6 L22,10 L26,10 L26,6 z M18,34 L18,30 L14,30 C14,32.21 15.79,34 18,34 z M38,26 L42,26 L42,22 L38,22 L38,26 z M38,18 L42,18 L42,14 L38,14 L38,18 z M38,34 C40.21,34 42,32.21 42,30 L38,30 L38,34 z M10,14 L6,14 L6,38 C6,40.21 7.79,42 10,42 L34,42 L34,38 L10,38 L10,14 z M30,10 L34,10 L34,6 L30,6 L30,10 z M30,34 L34,34 L34,30 L30,30 L30,34 z" fill="#000000"/>
  </g>
</svg>
