<?xml version="1.0" encoding="UTF-8"?>
<!DOCTYPE svg PUBLIC "-//W3C//DTD SVG 1.1//EN" "http://www.w3.org/Graphics/SVG/1.1/DTD/svg11.dtd">
<svg version="1.1" xmlns="http://www.w3.org/2000/svg" xmlns:xlink="http://www.w3.org/1999/xlink" x="0" y="0" width="528" height="528" viewBox="0, 0, 48, 48">
  <g id="Layer_1">
    <path d="M6,26 L10,26 L10,22 L6,22 L6,26 z M6,34 L10,34 L10,30 L6,30 L6,34 z M10,42 L10,38 L6,38 C6,40.21 7.79,42 10,42 z M6,18 L10,18 L10,14 L6,14 L6,18 z M30,42 L34,42 L34,38 L30,38 L30,42 z M38,6 L18,6 C15.79,6 14,7.79 14,10 L14,30 C14,32.21 15.79,34 18,34 L38,34 C40.21,34 42,32.21 42,30 L42,10 C42,7.79 40.21,6 38,6 z M38,30 L18,30 L18,10 L38,10 L38,30 z M22,42 L26,42 L26,38 L22,38 L22,42 z M14,42 L18,42 L18,38 L14,38 L14,42 z" fill="#000000"/>
  </g>
</svg>
