<?xml version="1.0" encoding="UTF-8"?>
<!DOCTYPE svg PUBLIC "-//W3C//DTD SVG 1.1//EN" "http://www.w3.org/Graphics/SVG/1.1/DTD/svg11.dtd">
<svg version="1.1" xmlns="http://www.w3.org/2000/svg" xmlns:xlink="http://www.w3.org/1999/xlink" x="0" y="0" width="528" height="528" viewBox="0, 0, 48, 48">
  <g id="Layer_1">
    <path d="M24,16 C19.58,16 16,19.58 16,24 C16,28.42 19.58,32 24,32 C28.42,32 32,28.42 32,24 C32,19.58 28.42,16 24,16 z M10,30 L6,30 L6,38 C6,40.21 7.79,42 10,42 L18,42 L18,38 L10,38 L10,30 z M10,10 L18,10 L18,6 L10,6 C7.79,6 6,7.79 6,10 L6,18 L10,18 L10,10 z M38,6 L30,6 L30,10 L38,10 L38,18 L42,18 L42,10 C42,7.79 40.21,6 38,6 z M38,38 L30,38 L30,42 L38,42 C40.21,42 42,40.21 42,38 L42,30 L38,30 L38,38 z" fill="#000000"/>
  </g>
</svg>
