<?xml version="1.0" encoding="UTF-8"?>
<!DOCTYPE svg PUBLIC "-//W3C//DTD SVG 1.1//EN" "http://www.w3.org/Graphics/SVG/1.1/DTD/svg11.dtd">
<svg version="1.1" xmlns="http://www.w3.org/2000/svg" xmlns:xlink="http://www.w3.org/1999/xlink" x="0" y="0" width="528" height="528" viewBox="0, 0, 48, 48">
  <g id="Layer_1">
    <path d="M33.12,17.88 L15.24,0 L12.41,2.83 L17.17,7.59 L6.88,17.88 C5.71,19.05 5.71,20.95 6.88,22.12 L17.88,33.12 C18.46,33.71 19.23,34 20,34 C20.77,34 21.54,33.71 22.12,33.12 L33.12,22.12 C34.29,20.95 34.29,19.05 33.12,17.88 z M10.41,20 L20,10.42 L29.59,20 L10.41,20 z M38,23 C38,23 34,27.33 34,30 C34,32.21 35.79,34 38,34 C40.21,34 42,32.21 42,30 C42,27.33 38,23 38,23 z" fill="#000000"/>
    <path d="M0,40 L48,40 L48,48 L0,48 z" fill="#000000" fill-opacity="0.36"/>
  </g>
</svg>
