<?xml version="1.0" encoding="UTF-8"?>
<!DOCTYPE svg PUBLIC "-//W3C//DTD SVG 1.1//EN" "http://www.w3.org/Graphics/SVG/1.1/DTD/svg11.dtd">
<svg version="1.1" xmlns="http://www.w3.org/2000/svg" xmlns:xlink="http://www.w3.org/1999/xlink" x="0" y="0" width="528" height="528" viewBox="0, 0, 48, 48">
  <g id="Layer_1">
    <path d="M6,42 L42,42 L42,38 L6,38 L6,42 z M6,16 L6,32 L14,24 L6,16 z M22,34 L42,34 L42,30 L22,30 L22,34 z M6,6 L6,10 L42,10 L42,6 L6,6 z M22,18 L42,18 L42,14 L22,14 L22,18 z M22,26 L42,26 L42,22 L22,22 L22,26 z" fill="#000000"/>
  </g>
</svg>
