<?xml version="1.0" encoding="UTF-8"?>
<!DOCTYPE svg PUBLIC "-//W3C//DTD SVG 1.1//EN" "http://www.w3.org/Graphics/SVG/1.1/DTD/svg11.dtd">
<svg version="1.1" xmlns="http://www.w3.org/2000/svg" xmlns:xlink="http://www.w3.org/1999/xlink" x="0" y="0" width="528" height="528" viewBox="0, 0, 48, 48">
  <g id="Layer_1">
    <path d="M8,21 C6.34,21 5,22.34 5,24 C5,25.66 6.34,27 8,27 C9.66,27 11,25.66 11,24 C11,22.34 9.66,21 8,21 z M8,9 C6.34,9 5,10.34 5,12 C5,13.66 6.34,15 8,15 C9.66,15 11,13.66 11,12 C11,10.34 9.66,9 8,9 z M8,33.33 C6.53,33.33 5.33,34.52 5.33,36 C5.33,37.48 6.53,38.67 8,38.67 C9.47,38.67 10.67,37.48 10.67,36 C10.67,34.52 9.47,33.33 8,33.33 z M14,38 L42,38 L42,34 L14,34 L14,38 z M14,26 L42,26 L42,22 L14,22 L14,26 z M14,10 L14,14 L42,14 L42,10 L14,10 z" fill="#000000"/>
  </g>
</svg>
