<?xml version="1.0" encoding="UTF-8"?>
<!DOCTYPE svg PUBLIC "-//W3C//DTD SVG 1.1//EN" "http://www.w3.org/Graphics/SVG/1.1/DTD/svg11.dtd">
<svg version="1.1" xmlns="http://www.w3.org/2000/svg" xmlns:xlink="http://www.w3.org/1999/xlink" x="0" y="0" width="528" height="528" viewBox="0, 0, 48, 48">
  <g id="Layer_1">
    <path d="M36,8 L36,6 C36,4.9 35.1,4 34,4 L10,4 C8.9,4 8,4.9 8,6 L8,14 C8,15.1 8.9,16 10,16 L34,16 C35.1,16 36,15.1 36,14 L36,12 L38,12 L38,20 L18,20 L18,42 C18,43.1 18.9,44 20,44 L24,44 C25.1,44 26,43.1 26,42 L26,24 L42,24 L42,8 L36,8 z" fill="#000000"/>
  </g>
</svg>
