<?xml version="1.0" encoding="UTF-8"?>
<!DOCTYPE svg PUBLIC "-//W3C//DTD SVG 1.1//EN" "http://www.w3.org/Graphics/SVG/1.1/DTD/svg11.dtd">
<svg version="1.1" xmlns="http://www.w3.org/2000/svg" xmlns:xlink="http://www.w3.org/1999/xlink" x="0" y="0" width="528" height="528" viewBox="0, 0, 48, 48">
  <g id="Layer_1">
    <path d="M36,28 C36,20 24,6.4 24,6.4 C24,6.4 21.34,9.42 18.53,13.44 L35.7,30.61 C35.89,29.77 36,28.9 36,28 z M34.24,34.24 L25,25 L10.54,10.54 L8,13.09 L14.64,19.73 C13.11,22.65 12,25.58 12,28 C12,34.63 17.37,40 24,40 C27.04,40 29.8,38.86 31.91,37 L37.18,42.27 L39.72,39.72 L34.24,34.24 z" fill="#000000"/>
  </g>
</svg>
