<?xml version="1.0" encoding="UTF-8"?>
<!DOCTYPE svg PUBLIC "-//W3C//DTD SVG 1.1//EN" "http://www.w3.org/Graphics/SVG/1.1/DTD/svg11.dtd">
<svg version="1.1" xmlns="http://www.w3.org/2000/svg" xmlns:xlink="http://www.w3.org/1999/xlink" x="0" y="0" width="528" height="528" viewBox="0, 0, 48, 48">
  <g id="Layer_1">
    <path d="M4,34 L8,34 L8,35 L6,35 L6,37 L8,37 L8,38 L4,38 L4,40 L10,40 L10,32 L4,32 L4,34 z M6,16 L8,16 L8,8 L4,8 L4,10 L6,10 L6,16 z M4,22 L7.6,22 L4,26.2 L4,28 L10,28 L10,26 L6.4,26 L10,21.8 L10,20 L4,20 L4,22 z M14,10 L14,14 L42,14 L42,10 L14,10 z M14,38 L42,38 L42,34 L14,34 L14,38 z M14,26 L42,26 L42,22 L14,22 L14,26 z" fill="#000000"/>
  </g>
</svg>
