<?xml version="1.0" encoding="UTF-8"?>
<!DOCTYPE svg PUBLIC "-//W3C//DTD SVG 1.1//EN" "http://www.w3.org/Graphics/SVG/1.1/DTD/svg11.dtd">
<svg version="1.1" xmlns="http://www.w3.org/2000/svg" xmlns:xlink="http://www.w3.org/1999/xlink" x="0" y="0" width="528" height="528" viewBox="0, 0, 48, 48">
  <g id="Layer_1">
    <path d="M9.19,13.77 C10.59,12.34 11.99,11.06 12.62,11.32 C13.61,11.73 12.6,13.4 12.02,14.37 C11.52,15.21 6.3,22.14 6.3,26.99 C6.3,29.55 7.25,31.67 8.99,32.95 C10.49,34.06 12.46,34.4 14.27,33.87 C16.41,33.24 18.17,31.08 20.39,28.34 C22.81,25.36 26.05,21.46 28.55,21.46 C31.81,21.46 31.85,23.48 32.07,25.05 C24.49,26.35 21.3,32.4 21.3,35.81 C21.3,39.22 24.18,42 27.71,42 C30.96,42 36.3,39.34 37.09,29.8 L42,29.8 L42,24.8 L37.06,24.8 C36.76,21.5 34.88,16.41 29,16.41 C24.5,16.41 20.63,20.23 19.13,22.1 C17.97,23.55 15.02,27.05 14.56,27.55 C14.05,28.14 13.21,29.23 12.33,29.23 C11.44,29.23 10.9,27.56 11.6,25.38 C12.3,23.19 14.4,19.66 15.3,18.35 C16.87,16.07 17.89,14.5 17.89,11.79 C17.89,7.39 14.61,6.01 12.87,6.01 C10.23,6.01 7.93,8.01 7.42,8.52 C6.71,9.24 6.11,9.83 5.67,10.37 L9.19,13.77 z M27.77,37.11 C27.15,37.11 26.3,36.59 26.3,35.66 C26.3,34.46 27.75,31.26 32.05,30.13 C31.43,35.52 29.17,37.11 27.77,37.11 z" fill="#000000"/>
  </g>
</svg>
