<?xml version="1.0" encoding="UTF-8"?>
<!DOCTYPE svg PUBLIC "-//W3C//DTD SVG 1.1//EN" "http://www.w3.org/Graphics/SVG/1.1/DTD/svg11.dtd">
<svg version="1.1" xmlns="http://www.w3.org/2000/svg" xmlns:xlink="http://www.w3.org/1999/xlink" x="0" y="0" width="528" height="528" viewBox="0, 0, 48, 48">
  <g id="Layer_1">
    <path d="M41.88,22 C40.96,13.66 34.34,7.04 26,6.12 L26,2 L22,2 L22,6.12 C19.74,6.37 17.62,7.05 15.69,8.06 L18.69,11.06 C20.33,10.38 22.12,10 24,10 C31.73,10 38,16.27 38,24 C38,25.88 37.62,27.67 36.95,29.31 L39.95,32.31 C40.96,30.38 41.63,28.26 41.88,26 L46,26 L46,22 L41.88,22 z M6,8.55 L10.07,12.62 C7.93,15.24 6.51,18.46 6.12,22 L2,22 L2,26 L6.12,26 C7.04,34.34 13.66,40.96 22,41.88 L22,46 L26,46 L26,41.88 C29.54,41.49 32.76,40.06 35.38,37.92 L39.45,42 L42,39.46 L8.55,6 L6,8.55 z M32.53,35.08 C30.17,36.9 27.22,38 24,38 C16.27,38 10,31.73 10,24 C10,20.78 11.1,17.83 12.92,15.47 L32.53,35.08 z" fill="#000000"/>
  </g>
</svg>
