<?xml version="1.0" encoding="UTF-8"?>
<!DOCTYPE svg PUBLIC "-//W3C//DTD SVG 1.1//EN" "http://www.w3.org/Graphics/SVG/1.1/DTD/svg11.dtd">
<svg version="1.1" xmlns="http://www.w3.org/2000/svg" xmlns:xlink="http://www.w3.org/1999/xlink" x="0" y="0" width="528" height="528" viewBox="0, 0, 48, 48">
  <g id="Layer_1">
    <path d="M24,16 C19.58,16 16,19.58 16,24 C16,28.42 19.58,32 24,32 C28.42,32 32,28.42 32,24 C32,19.58 28.42,16 24,16 z M41.88,22 C40.96,13.66 34.34,7.04 26,6.12 L26,2 L22,2 L22,6.12 C13.66,7.04 7.04,13.66 6.12,22 L2,22 L2,26 L6.12,26 C7.04,34.34 13.66,40.96 22,41.88 L22,46 L26,46 L26,41.88 C34.34,40.96 40.96,34.34 41.88,26 L46,26 L46,22 L41.88,22 z M24,38 C16.27,38 10,31.73 10,24 C10,16.27 16.27,10 24,10 C31.73,10 38,16.27 38,24 C38,31.73 31.73,38 24,38 z" fill="#000000"/>
  </g>
</svg>
