<?xml version="1.0" encoding="UTF-8"?>
<!DOCTYPE svg PUBLIC "-//W3C//DTD SVG 1.1//EN" "http://www.w3.org/Graphics/SVG/1.1/DTD/svg11.dtd">
<svg version="1.1" xmlns="http://www.w3.org/2000/svg" xmlns:xlink="http://www.w3.org/1999/xlink" x="0" y="0" width="528" height="528" viewBox="0, 0, 48, 48">
  <g id="Layer_1">
    <path d="M22,18 L26,18 L26,22 L22,22 z M18,22 L22,22 L22,26 L18,26 z M26,22 L30,22 L30,26 L26,26 z M30,18 L34,18 L34,22 L30,22 z M14,18 L18,18 L18,22 L14,22 z M38,6 L10,6 C7.8,6 6,7.8 6,10 L6,38 C6,40.2 7.8,42 10,42 L38,42 C40.2,42 42,40.2 42,38 L42,10 C42,7.8 40.2,6 38,6 z M18,36 L14,36 L14,32 L18,32 L18,36 z M26,36 L22,36 L22,32 L26,32 L26,36 z M34,36 L30,36 L30,32 L34,32 L34,36 z M38,22 L34,22 L34,26 L38,26 L38,30 L34,30 L34,26 L30,26 L30,30 L26,30 L26,26 L22,26 L22,30 L18,30 L18,26 L14,26 L14,30 L10,30 L10,26 L14,26 L14,22 L10,22 L10,10 L38,10 L38,22 z" fill="#000000"/>
  </g>
</svg>
