<?xml version="1.0" encoding="UTF-8"?>
<!DOCTYPE svg PUBLIC "-//W3C//DTD SVG 1.1//EN" "http://www.w3.org/Graphics/SVG/1.1/DTD/svg11.dtd">
<svg version="1.1" xmlns="http://www.w3.org/2000/svg" xmlns:xlink="http://www.w3.org/1999/xlink" x="0" y="0" width="528" height="528" viewBox="0, 0, 48, 48">
  <g id="Layer_1">
    <path d="M20,24 C17.79,24 16,25.79 16,28 C16,30.21 17.79,32 20,32 C22.21,32 24,30.21 24,28 C24,25.79 22.21,24 20,24 z M12,16 C9.79,16 8,17.79 8,20 C8,22.21 9.79,24 12,24 C14.21,24 16,22.21 16,20 C16,17.79 14.21,16 12,16 z M12,32 C9.79,32 8,33.79 8,36 C8,38.21 9.79,40 12,40 C14.21,40 16,38.21 16,36 C16,33.79 14.21,32 12,32 z M36,16 C38.21,16 40,14.21 40,12 C40,9.79 38.21,8 36,8 C33.79,8 32,9.79 32,12 C32,14.21 33.79,16 36,16 z M28,32 C25.79,32 24,33.79 24,36 C24,38.21 25.79,40 28,40 C30.21,40 32,38.21 32,36 C32,33.79 30.21,32 28,32 z M36,24 C33.79,24 32,25.79 32,28 C32,30.21 33.79,32 36,32 C38.21,32 40,30.21 40,28 C40,25.79 38.21,24 36,24 z M28,16 C25.79,16 24,17.79 24,20 C24,22.21 25.79,24 28,24 C30.21,24 32,22.21 32,20 C32,17.79 30.21,16 28,16 z M20,8 C17.79,8 16,9.79 16,12 C16,14.21 17.79,16 20,16 C22.21,16 24,14.21 24,12 C24,9.79 22.21,8 20,8 z" fill="#000000"/>
  </g>
</svg>
