<?xml version="1.0" encoding="UTF-8"?>
<!DOCTYPE svg PUBLIC "-//W3C//DTD SVG 1.1//EN" "http://www.w3.org/Graphics/SVG/1.1/DTD/svg11.dtd">
<svg version="1.1" xmlns="http://www.w3.org/2000/svg" xmlns:xlink="http://www.w3.org/1999/xlink" x="0" y="0" width="528" height="528" viewBox="0, 0, 48, 48">
  <g id="Layer_1">
    <path d="M16,8 L16,10.91 L20,14.91 L20,8 L28,8 L28,16 L21.09,16 L25.09,20 L28,20 L28,22.91 L32,26.91 L32,20 L40,20 L40,28 L33.09,28 L37.09,32 L40,32 L40,34.91 L44,38.91 L44,8 C44,5.79 42.21,4 40,4 L9.09,4 L13.09,8 L16,8 z M32,8 L40,8 L40,16 L32,16 L32,8 z M2.55,2.55 L-0,5.09 L4,9.09 L4,40 C4,42.21 5.79,44 8,44 L38.91,44 L42.91,48 L45.45,45.45 L2.55,2.55 z M20,25.09 L22.91,28 L20,28 L20,25.09 z M8,13.09 L10.91,16 L8,16 L8,13.09 z M16,40 L8,40 L8,32 L16,32 L16,40 z M16,28 L8,28 L8,20 L14.91,20 L16,21.09 L16,28 z M28,40 L20,40 L20,32 L26.91,32 L28,33.09 L28,40 z M32,40 L32,37.09 L34.91,40 L32,40 z" fill="#000000"/>
  </g>
</svg>
