<?xml version="1.0" encoding="UTF-8"?>
<!DOCTYPE svg PUBLIC "-//W3C//DTD SVG 1.1//EN" "http://www.w3.org/Graphics/SVG/1.1/DTD/svg11.dtd">
<svg version="1.1" xmlns="http://www.w3.org/2000/svg" xmlns:xlink="http://www.w3.org/1999/xlink" x="0" y="0" width="528" height="528" viewBox="0, 0, 48, 48">
  <g id="Layer_1">
    <path d="M40,4 L8,4 C5.79,4 4,5.79 4,8 L4,40 C4,42.21 5.79,44 8,44 L40,44 C42.21,44 44,42.21 44,40 L44,8 C44,5.79 42.21,4 40,4 z M16,40 L8,40 L8,32 L16,32 L16,40 z M16,28 L8,28 L8,20 L16,20 L16,28 z M16,16 L8,16 L8,8 L16,8 L16,16 z M28,40 L20,40 L20,32 L28,32 L28,40 z M28,28 L20,28 L20,20 L28,20 L28,28 z M28,16 L20,16 L20,8 L28,8 L28,16 z M40,40 L32,40 L32,32 L40,32 L40,40 z M40,28 L32,28 L32,20 L40,20 L40,28 z M40,16 L32,16 L32,8 L40,8 L40,16 z" fill="#000000"/>
  </g>
</svg>
