<?xml version="1.0" encoding="UTF-8"?>
<!DOCTYPE svg PUBLIC "-//W3C//DTD SVG 1.1//EN" "http://www.w3.org/Graphics/SVG/1.1/DTD/svg11.dtd">
<svg version="1.1" xmlns="http://www.w3.org/2000/svg" xmlns:xlink="http://www.w3.org/1999/xlink" x="0" y="0" width="528" height="528" viewBox="0, 0, 48, 48">
  <g id="Layer_1">
    <path d="M24,4 C12.95,4 4,12.95 4,24 C4,35.04 12.95,44 24,44 C35.05,44 44,35.04 44,24 C44,12.95 35.05,4 24,4 z M16,35 C13.24,35 11,32.76 11,30 C11,27.24 13.24,25 16,25 C18.76,25 21,27.24 21,30 C21,32.76 18.76,35 16,35 z M19,16 C19,13.24 21.24,11 24,11 C26.76,11 29,13.24 29,16 C29,18.76 26.76,21 24,21 C21.24,21 19,18.76 19,16 z M32,35 C29.24,35 27,32.76 27,30 C27,27.24 29.24,25 32,25 C34.76,25 37,27.24 37,30 C37,32.76 34.76,35 32,35 z" fill="#000000"/>
  </g>
</svg>
