<?xml version="1.0" encoding="UTF-8"?>
<!DOCTYPE svg PUBLIC "-//W3C//DTD SVG 1.1//EN" "http://www.w3.org/Graphics/SVG/1.1/DTD/svg11.dtd">
<svg version="1.1" xmlns="http://www.w3.org/2000/svg" xmlns:xlink="http://www.w3.org/1999/xlink" x="0" y="0" width="528" height="528" viewBox="0, 0, 48, 48">
  <g id="Layer_1">
    <path d="M10,16 C5.58,16 2,19.58 2,24 C2,28.42 5.58,32 10,32 C14.42,32 18,28.42 18,24 C18,19.58 14.42,16 10,16 z M34,12 C27.37,12 22,17.37 22,24 C22,30.63 27.37,36 34,36 C40.63,36 46,30.63 46,24 C46,17.37 40.63,12 34,12 z M34,32 C29.58,32 26,28.42 26,24 C26,19.58 29.58,16 34,16 C38.42,16 42,19.58 42,24 C42,28.42 38.42,32 34,32 z" fill="#000000"/>
  </g>
</svg>
