<?xml version="1.0" encoding="UTF-8"?>
<!DOCTYPE svg PUBLIC "-//W3C//DTD SVG 1.1//EN" "http://www.w3.org/Graphics/SVG/1.1/DTD/svg11.dtd">
<svg version="1.1" xmlns="http://www.w3.org/2000/svg" xmlns:xlink="http://www.w3.org/1999/xlink" x="0" y="0" width="528" height="528" viewBox="0, 0, 48, 48">
  <g id="Layer_1">
    <path d="M12,22 L8,22 L8,14 L4,14 L4,34 L8,34 L8,26 L12,26 L12,34 L16,34 L16,14 L12,14 L12,22 z M26,14 L18,14 L18,34 L26,34 C28.21,34 30,32.21 30,30 L30,18 C30,15.79 28.21,14 26,14 z M26,30 L22,30 L22,18 L26,18 L26,30 z M44,22 L44,18 C44,15.79 42.21,14 40,14 L32,14 L32,34 L36,34 L36,26 L38,26 L40,34 L44,34 L41.62,25.65 C43.02,25.03 44,23.63 44,22 z M40,22 L36,22 L36,18 L40,18 L40,22 z" fill="#000000"/>
  </g>
</svg>
