<?xml version="1.0" encoding="UTF-8"?>
<!DOCTYPE svg PUBLIC "-//W3C//DTD SVG 1.1//EN" "http://www.w3.org/Graphics/SVG/1.1/DTD/svg11.dtd">
<svg version="1.1" xmlns="http://www.w3.org/2000/svg" xmlns:xlink="http://www.w3.org/1999/xlink" x="0" y="0" width="528" height="528" viewBox="0, 0, 48, 48">
  <g id="Layer_1">
    <path d="M36,34 L6.54,4.55 L4,7.09 L12,15.09 L12,22 L8,22 L8,14 L4,14 L4,34 L8,34 L8,26 L12,26 L12,34 L16,34 L16,19.09 L18,21.09 L18,34 L26,34 C27.34,34 28.51,33.34 29.24,32.33 L41.91,45 L44.45,42.45 L36,34 z M26,30 L22,30 L22,25.09 L26,29.09 L26,30 z M36,26 L38,26 L39.64,32.54 L41.09,34 L44,34 L41.62,25.65 C43.02,25.03 44,23.63 44,22 L44,18 C44,15.79 42.21,14 40,14 L32,14 L32,24.91 L36,28.91 L36,26 z M36,18 L40,18 L40,22 L36,22 L36,18 z M30,22.91 L30,18 C30,15.79 28.21,14 26,14 L21.09,14 L30,22.91 z" fill="#000000"/>
  </g>
</svg>
