<?xml version="1.0" encoding="UTF-8"?>
<!DOCTYPE svg PUBLIC "-//W3C//DTD SVG 1.1//EN" "http://www.w3.org/Graphics/SVG/1.1/DTD/svg11.dtd">
<svg version="1.1" xmlns="http://www.w3.org/2000/svg" xmlns:xlink="http://www.w3.org/1999/xlink" x="0" y="0" width="528" height="528" viewBox="0, 0, 48, 48">
  <g id="Layer_1">
    <path d="M34,40 C33.43,40 32.87,39.88 32.47,39.7 C31.06,38.95 30.04,37.93 29.05,34.93 C28.02,31.82 26.11,30.35 24.26,28.92 C22.68,27.7 21.04,26.44 19.63,23.87 C18.58,21.95 18,19.86 18,18 C18,12.39 22.39,8 28,8 C33.61,8 38,12.39 38,18 L42,18 C42,10.15 35.85,4 28,4 C20.15,4 14,10.15 14,18 C14,20.53 14.76,23.3 16.13,25.8 C17.95,29.11 20.1,30.76 21.83,32.1 C23.45,33.35 24.62,34.25 25.26,36.19 C26.46,39.82 28.01,41.87 30.71,43.29 C31.75,43.76 32.85,44 34,44 C38.41,44 42,40.41 42,36 L38,36 C38,38.21 36.21,40 34,40 z M15.27,5.27 L12.44,2.44 C8.46,6.42 6,11.92 6,18 C6,24.08 8.46,29.58 12.44,33.56 L15.27,30.73 C12.01,27.47 10,22.97 10,18 C10,13.03 12.01,8.53 15.27,5.27 z M23,18 C23,20.76 25.24,23 28,23 C30.76,23 33,20.76 33,18 C33,15.24 30.76,13 28,13 C25.24,13 23,15.24 23,18 z" fill="#000000"/>
  </g>
</svg>
