<?xml version="1.0" encoding="UTF-8"?>
<!DOCTYPE svg PUBLIC "-//W3C//DTD SVG 1.1//EN" "http://www.w3.org/Graphics/SVG/1.1/DTD/svg11.dtd">
<svg version="1.1" xmlns="http://www.w3.org/2000/svg" xmlns:xlink="http://www.w3.org/1999/xlink" x="0" y="0" width="528" height="528" viewBox="0, 0, 48, 48">
  <g id="Layer_1">
    <path d="M38,8 L10,8 C7.79,8 6,9.79 6,12 L6,36 C6,38.21 7.79,40 10,40 L38,40 C40.21,40 42,38.21 42,36 L42,12 C42,9.79 40.21,8 38,8 z M22,30 L19,30 L19,26 L15,26 L15,30 L12,30 L12,18 L15,18 L15,23 L19,23 L19,18 L22,18 L22,30 z M36,28 C36,29.1 35.11,30 34,30 L32.5,30 L32.5,33 L29.5,33 L29.5,30 L28,30 C26.89,30 26,29.1 26,28 L26,20 C26,18.9 26.89,18 28,18 L34,18 C35.11,18 36,18.9 36,20 L36,28 z M29,27 L33,27 L33,21 L29,21 L29,27 z" fill="#000000"/>
  </g>
</svg>
