<?xml version="1.0" encoding="UTF-8"?>
<!DOCTYPE svg PUBLIC "-//W3C//DTD SVG 1.1//EN" "http://www.w3.org/Graphics/SVG/1.1/DTD/svg11.dtd">
<svg version="1.1" xmlns="http://www.w3.org/2000/svg" xmlns:xlink="http://www.w3.org/1999/xlink" x="0" y="0" width="528" height="528" viewBox="0, 0, 48, 48">
  <g id="Layer_1">
    <path d="M32,20 L28,20 L28,24 L32,24 L32,20 z M32,28 L28,28 L28,32 L32,32 L32,28 z M16,20 L12,20 L12,24 L16,24 L16,20 z M24,20 L20,20 L20,24 L24,24 L24,20 z M40,8 L8,8 C5.79,8 4,9.79 4,12 L4,36 C4,38.21 5.79,40 8,40 L40,40 C42.21,40 44,38.21 44,36 L44,12 C44,9.79 42.21,8 40,8 z M40,36 L8,36 L8,12 L40,12 L40,36 z" fill="#000000"/>
  </g>
</svg>
