<?xml version="1.0" encoding="UTF-8"?>
<!DOCTYPE svg PUBLIC "-//W3C//DTD SVG 1.1//EN" "http://www.w3.org/Graphics/SVG/1.1/DTD/svg11.dtd">
<svg version="1.1" xmlns="http://www.w3.org/2000/svg" xmlns:xlink="http://www.w3.org/1999/xlink" x="0" y="0" width="528" height="528" viewBox="0, 0, 48, 48">
  <g id="Layer_1">
    <path d="M36,14 L36,8 C36,5.79 34.21,4 32,4 L16,4 C13.79,4 12,5.79 12,8 L12,14 L10,14 L10,26 L16,38 L16,44 L32,44 L32,38 L38,26 L38,14 L36,14 z M16,8 L32,8 L32,14 L28,14 L28,10 L26,10 L26,14 L22,14 L22,10 L20,10 L20,14 L16,14 L16,8 z" fill="#000000"/>
  </g>
</svg>
