<?xml version="1.0" encoding="UTF-8"?>
<!DOCTYPE svg PUBLIC "-//W3C//DTD SVG 1.1//EN" "http://www.w3.org/Graphics/SVG/1.1/DTD/svg11.dtd">
<svg version="1.1" xmlns="http://www.w3.org/2000/svg" xmlns:xlink="http://www.w3.org/1999/xlink" x="0" y="0" width="528" height="528" viewBox="0, 0, 48, 48">
  <g id="Layer_1">
    <path d="M24,10 C16.27,10 10,16.27 10,24 L14,24 C14,18.48 18.48,14 24,14 C29.52,14 34,18.48 34,24 L38,24 C38,16.27 31.73,10 24,10 z M26,28.58 C27.76,27.81 29,26.05 29,24 C29,21.24 26.76,19 24,19 C21.24,19 19,21.24 19,24 C19,26.05 20.24,27.81 22,28.58 L22,35.17 L15.17,42 L18,44.83 L24,38.83 L30,44.83 L32.83,42 L26,35.17 L26,28.58 z M24,2 C11.85,2 2,11.85 2,24 L6,24 C6,14.06 14.06,6 24,6 C33.94,6 42,14.06 42,24 L46,24 C46,11.85 36.15,2 24,2 z" fill="#000000"/>
  </g>
</svg>
