<?xml version="1.0" encoding="UTF-8"?>
<!DOCTYPE svg PUBLIC "-//W3C//DTD SVG 1.1//EN" "http://www.w3.org/Graphics/SVG/1.1/DTD/svg11.dtd">
<svg version="1.1" xmlns="http://www.w3.org/2000/svg" xmlns:xlink="http://www.w3.org/1999/xlink" x="0" y="0" width="528" height="528" viewBox="0, 0, 48, 48">
  <g id="Layer_1">
    <path d="M16,23 C16,21.34 14.66,20 13,20 C11.34,20 10,21.34 10,23 C10,24.66 11.34,26 13,26 C14.66,26 16,24.66 16,23 z M30,13 C30,11.34 28.66,10 27,10 L21,10 C19.34,10 18,11.34 18,13 C18,14.66 19.34,16 21,16 L27,16 C28.66,16 30,14.66 30,13 z M17,30 C15.34,30 14,31.34 14,33 C14,34.66 15.34,36 17,36 C18.66,36 20,34.66 20,33 C20,31.34 18.66,30 17,30 z M24,2 C11.87,2 2,11.87 2,24 C2,36.13 11.87,46 24,46 C36.13,46 46,36.13 46,24 C46,11.87 36.13,2 24,2 z M24,42 C14.07,42 6,33.92 6,24 C6,14.08 14.07,6 24,6 C33.93,6 42,14.08 42,24 C42,33.92 33.93,42 24,42 z M35,20 C33.34,20 32,21.34 32,23 C32,24.66 33.34,26 35,26 C36.66,26 38,24.66 38,23 C38,21.34 36.66,20 35,20 z M31,30 C29.34,30 28,31.34 28,33 C28,34.66 29.34,36 31,36 C32.66,36 34,34.66 34,33 C34,31.34 32.66,30 31,30 z" fill="#000000"/>
  </g>
</svg>
