<?xml version="1.0" encoding="UTF-8"?>
<!DOCTYPE svg PUBLIC "-//W3C//DTD SVG 1.1//EN" "http://www.w3.org/Graphics/SVG/1.1/DTD/svg11.dtd">
<svg version="1.1" xmlns="http://www.w3.org/2000/svg" xmlns:xlink="http://www.w3.org/1999/xlink" x="0" y="0" width="528" height="528" viewBox="0, 0, 48, 48">
  <g id="Layer_1">
    <path d="M10,4 C10,2.9 9.11,2 8,2 C6.89,2 6,2.9 6,4 L6,12 L2,12 L2,24 L14,24 L14,12 L10,12 L10,4 z M18,32 C18,34.61 19.68,36.81 22,37.63 L22,46 L26,46 L26,37.63 C28.32,36.8 30,34.61 30,32 L30,28 L18,28 L18,32 z M2,32 C2,34.61 3.68,36.81 6,37.63 L6,46 L10,46 L10,37.63 C12.32,36.8 14,34.61 14,32 L14,28 L2,28 L2,32 z M42,12 L42,4 C42,2.9 41.11,2 40,2 C38.89,2 38,2.9 38,4 L38,12 L34,12 L34,24 L46,24 L46,12 L42,12 z M26,4 C26,2.9 25.11,2 24,2 C22.89,2 22,2.9 22,4 L22,12 L18,12 L18,24 L30,24 L30,12 L26,12 L26,4 z M34,32 C34,34.61 35.68,36.81 38,37.63 L38,46 L42,46 L42,37.63 C44.32,36.8 46,34.61 46,32 L46,28 L34,28 L34,32 z" fill="#000000"/>
  </g>
</svg>
