<?xml version="1.0" encoding="UTF-8"?>
<!DOCTYPE svg PUBLIC "-//W3C//DTD SVG 1.1//EN" "http://www.w3.org/Graphics/SVG/1.1/DTD/svg11.dtd">
<svg version="1.1" xmlns="http://www.w3.org/2000/svg" xmlns:xlink="http://www.w3.org/1999/xlink" x="0" y="0" width="528" height="528" viewBox="0, 0, 48, 48">
  <g id="Layer_1">
    <path d="M41.29,41.75 L36.58,37.04 L24,24.46 L16.87,17.33 L14.04,14.5 L8.54,9 L6,11.55 L11.56,17.11 C6.46,23.39 6.84,32.64 12.68,38.49 C15.8,41.61 19.9,43.18 23.99,43.18 C27.56,43.18 31.13,41.99 34.05,39.62 L39.45,45 L42,42.45 L41.29,41.75 z M24,39.17 C20.79,39.17 17.78,37.92 15.52,35.66 C13.25,33.39 12,30.38 12,27.17 C12,24.53 12.86,22.03 14.42,19.96 L24,29.55 L24,39.17 z M24,10.2 L24,19.36 L38.51,33.87 C41.24,27.96 40.19,20.73 35.31,15.85 L24,4.54 L16.59,11.95 L19.42,14.78 L24,10.2 z" fill="#000000"/>
  </g>
</svg>
