<?xml version="1.0" encoding="UTF-8"?>
<!DOCTYPE svg PUBLIC "-//W3C//DTD SVG 1.1//EN" "http://www.w3.org/Graphics/SVG/1.1/DTD/svg11.dtd">
<svg version="1.1" xmlns="http://www.w3.org/2000/svg" xmlns:xlink="http://www.w3.org/1999/xlink" x="0" y="0" width="528" height="528" viewBox="0, 0, 48, 48">
  <g id="Layer_1">
    <path d="M40,10 L8,10 C5.79,10 4.02,11.79 4.02,14 L4,34 C4,36.21 5.79,38 8,38 L40,38 C42.21,38 44,36.21 44,34 L44,14 C44,11.79 42.21,10 40,10 z M22,16 L26,16 L26,20 L22,20 L22,16 z M22,22 L26,22 L26,26 L22,26 L22,22 z M16,16 L20,16 L20,20 L16,20 L16,16 z M16,22 L20,22 L20,26 L16,26 L16,22 z M14,26 L10,26 L10,22 L14,22 L14,26 z M14,20 L10,20 L10,16 L14,16 L14,20 z M32,34 L16,34 L16,30 L32,30 L32,34 z M32,26 L28,26 L28,22 L32,22 L32,26 z M32,20 L28,20 L28,16 L32,16 L32,20 z M38,26 L34,26 L34,22 L38,22 L38,26 z M38,20 L34,20 L34,16 L38,16 L38,20 z" fill="#000000"/>
  </g>
</svg>
