<?xml version="1.0" encoding="UTF-8"?>
<!DOCTYPE svg PUBLIC "-//W3C//DTD SVG 1.1//EN" "http://www.w3.org/Graphics/SVG/1.1/DTD/svg11.dtd">
<svg version="1.1" xmlns="http://www.w3.org/2000/svg" xmlns:xlink="http://www.w3.org/1999/xlink" x="0" y="0" width="528" height="528" viewBox="0, 0, 48, 48">
  <g id="Layer_1">
    <path d="M23.99,4 C12.94,4 4,12.95 4,24 C4,35.05 12.94,44 23.99,44 C35.04,44 44,35.05 44,24 C44,12.95 35.04,4 23.99,4 z M37.84,16 L31.94,16 C31.29,13.5 30.38,11.1 29.18,8.88 C32.86,10.14 35.92,12.69 37.84,16 z M24,8.07 C25.67,10.47 26.97,13.14 27.82,16 L20.18,16 C21.03,13.14 22.33,10.47 24,8.07 z M8.52,28 C8.19,26.72 8,25.38 8,24 C8,22.62 8.19,21.28 8.52,20 L15.27,20 C15.11,21.31 15,22.64 15,24 C15,25.36 15.11,26.69 15.28,28 L8.52,28 z M10.15,32 L16.05,32 C16.7,34.5 17.61,36.9 18.81,39.13 C15.13,37.87 12.07,35.31 10.15,32 z M16.05,16 L10.15,16 C12.07,12.69 15.13,10.13 18.81,8.87 C17.61,11.1 16.7,13.5 16.05,16 z M24,39.93 C22.34,37.53 21.04,34.86 20.18,32 L27.82,32 C26.96,34.86 25.66,37.53 24,39.93 z M28.68,28 L19.32,28 C19.13,26.69 19,25.36 19,24 C19,22.64 19.13,21.31 19.32,20 L28.68,20 C28.87,21.31 29,22.64 29,24 C29,25.36 28.87,26.69 28.68,28 z M29.19,39.12 C30.39,36.89 31.3,34.5 31.95,32 L37.85,32 C35.92,35.31 32.86,37.86 29.19,39.12 z M32.72,28 C32.88,26.69 33,25.36 33,24 C33,22.64 32.89,21.31 32.72,20 L39.47,20 C39.8,21.28 40,22.62 40,24 C40,25.38 39.81,26.72 39.47,28 L32.72,28 z" fill="#000000"/>
  </g>
</svg>
