<?xml version="1.0" encoding="UTF-8"?>
<!DOCTYPE svg PUBLIC "-//W3C//DTD SVG 1.1//EN" "http://www.w3.org/Graphics/SVG/1.1/DTD/svg11.dtd">
<svg version="1.1" xmlns="http://www.w3.org/2000/svg" xmlns:xlink="http://www.w3.org/1999/xlink" x="0" y="0" width="528" height="528" viewBox="0, 0, 48, 48">
  <g id="Layer_1">
    <path d="M40,36 C42.21,36 43.98,34.21 43.98,32 L44,10 C44,7.79 42.21,6 40,6 L8,6 C5.79,6 4,7.79 4,10 L4,32 C4,34.21 5.79,36 8,36 L0,36 C0,38.21 1.79,40 4,40 L44,40 C46.21,40 48,38.21 48,36 L40,36 z M8,10 L40,10 L40,32 L8,32 L8,10 z M24,38 C22.9,38 22,37.1 22,36 C22,34.9 22.9,34 24,34 C25.1,34 26,34.9 26,36 C26,37.1 25.1,38 24,38 z" fill="#000000"/>
  </g>
</svg>
