<?xml version="1.0" encoding="UTF-8"?>
<!DOCTYPE svg PUBLIC "-//W3C//DTD SVG 1.1//EN" "http://www.w3.org/Graphics/SVG/1.1/DTD/svg11.dtd">
<svg version="1.1" xmlns="http://www.w3.org/2000/svg" xmlns:xlink="http://www.w3.org/1999/xlink" x="0" y="0" width="528" height="528" viewBox="0, 0, 48, 48">
  <g id="Layer_1">
    <path d="M38,38 L10,38 L10,10 L24,10 L24,6 L10,6 C7.79,6 6,7.79 6,10 L6,38 C6,40.21 7.79,42 10,42 L38,42 C40.21,42 42,40.21 42,38 L42,24 L38,24 L38,38 z M28,6 L28,10 L35.17,10 L15.51,29.66 L18.34,32.49 L38,12.83 L38,20 L42,20 L42,6 L28,6 z" fill="#000000"/>
  </g>
</svg>
