<?xml version="1.0" encoding="UTF-8"?>
<!DOCTYPE svg PUBLIC "-//W3C//DTD SVG 1.1//EN" "http://www.w3.org/Graphics/SVG/1.1/DTD/svg11.dtd">
<svg version="1.1" xmlns="http://www.w3.org/2000/svg" xmlns:xlink="http://www.w3.org/1999/xlink" x="0" y="0" width="528" height="528" viewBox="0, 0, 48, 48">
  <g id="Layer_1">
    <path d="M20,6 L16,6 C16,6.73 15.91,7.44 15.76,8.13 L18.95,11.32 C19.62,9.67 20,7.88 20,6 z M6,8.55 L11.68,14.23 C10.06,15.34 8.11,16 6,16 L6,20 C9.22,20 12.17,18.9 14.53,17.08 L17.38,19.93 C14.29,22.47 10.32,24 6,24 L6,28 C11.43,28 16.39,26.03 20.22,22.77 L25.23,27.78 C21.97,31.61 20,36.57 20,42 L24,42 C24,37.68 25.53,33.71 28.07,30.61 L30.92,33.46 C29.1,35.83 28,38.78 28,42 L32,42 C32,39.89 32.66,37.94 33.78,36.32 L39.46,42 L42,39.45 L8.55,6 L6,8.55 z M28,6 L24,6 C24,9 23.25,11.83 21.95,14.32 L24.88,17.25 C26.85,13.95 28,10.12 28,6 z M39.87,32.24 C40.56,32.09 41.27,32 42,32 L42,28 C40.12,28 38.33,28.38 36.69,29.05 L39.87,32.24 z M30.75,23.12 L33.68,26.05 C36.17,24.75 39,24 42,24 L42,20 C37.88,20 34.05,21.15 30.75,23.12 z" fill="#000000"/>
  </g>
</svg>
