<?xml version="1.0" encoding="UTF-8"?>
<!DOCTYPE svg PUBLIC "-//W3C//DTD SVG 1.1//EN" "http://www.w3.org/Graphics/SVG/1.1/DTD/svg11.dtd">
<svg version="1.1" xmlns="http://www.w3.org/2000/svg" xmlns:xlink="http://www.w3.org/1999/xlink" x="0" y="0" width="528" height="528" viewBox="0, 0, 48, 48">
  <g id="Layer_1">
    <path d="M38,4 L10,4 C7.79,4 6,5.79 6,8 L6,36 C6,38.21 7.79,40 10,40 L18,40 L24,46 L30,40 L38,40 C40.21,40 42,38.21 42,36 L42,8 C42,5.79 40.21,4 38,4 z M26,36 L22,36 L22,32 L26,32 L26,36 z M30.13,20.51 L28.34,22.35 C26.9,23.79 26,25 26,28 L22,28 L22,27 C22,24.79 22.9,22.79 24.34,21.34 L26.83,18.82 C27.55,18.1 28,17.1 28,16 C28,13.79 26.21,12 24,12 C21.79,12 20,13.79 20,16 L16,16 C16,11.58 19.58,8 24,8 C28.42,8 32,11.58 32,16 C32,17.76 31.29,19.35 30.13,20.51 z" fill="#000000"/>
  </g>
</svg>
