<?xml version="1.0" encoding="UTF-8"?>
<!DOCTYPE svg PUBLIC "-//W3C//DTD SVG 1.1//EN" "http://www.w3.org/Graphics/SVG/1.1/DTD/svg11.dtd">
<svg version="1.1" xmlns="http://www.w3.org/2000/svg" xmlns:xlink="http://www.w3.org/1999/xlink" x="0" y="0" width="528" height="528" viewBox="0, 0, 48, 48">
  <g id="Layer_1">
    <path d="M36,16 L34,16 L34,12 C34,6.48 29.52,2 24,2 C18.48,2 14,6.48 14,12 L14,16 L12,16 C9.79,16 8,17.79 8,20 L8,40 C8,42.21 9.79,44 12,44 L36,44 C38.21,44 40,42.21 40,40 L40,20 C40,17.79 38.21,16 36,16 z M24,5.8 C27.42,5.8 30.2,8.58 30.2,12 L30.2,16 L18,16 L18,12 L17.8,12 C17.8,8.58 20.58,5.8 24,5.8 z M36,40 L12,40 L12,20 L36,20 L36,40 z M24,34 C26.21,34 28,32.21 28,30 C28,27.79 26.21,26 24,26 C21.79,26 20,27.79 20,30 C20,32.21 21.79,34 24,34 z" fill="#000000"/>
  </g>
</svg>
