<?xml version="1.0" encoding="UTF-8"?>
<!DOCTYPE svg PUBLIC "-//W3C//DTD SVG 1.1//EN" "http://www.w3.org/Graphics/SVG/1.1/DTD/svg11.dtd">
<svg version="1.1" xmlns="http://www.w3.org/2000/svg" xmlns:xlink="http://www.w3.org/1999/xlink" x="0" y="0" width="528" height="528" viewBox="0, 0, 48, 48">
  <g id="Layer_1">
    <path d="M38.01,6 L10.01,6 C7.8,6 6.01,7.79 6.01,10 L6.01,38 C6.01,40.21 7.8,42 10.01,42 L38.01,42 C40.22,42 42.01,40.21 42.01,38 L42.01,10 C42.01,7.79 40.22,6 38.01,6 z M30.01,21 C30.01,22.66 28.67,24 27.01,24 C28.67,24 30.01,25.34 30.01,27 L30.01,30 C30.01,32.21 28.22,34 26.01,34 L18.01,34 L18.01,30 L26.01,30 L26.01,26 L22.01,26 L22.01,22 L26.01,22 L26.01,18 L18.01,18 L18.01,14 L26.01,14 C28.22,14 30.01,15.79 30.01,18 L30.01,21 z" fill="#000000"/>
  </g>
</svg>
