<?xml version="1.0" encoding="UTF-8"?>
<!DOCTYPE svg PUBLIC "-//W3C//DTD SVG 1.1//EN" "http://www.w3.org/Graphics/SVG/1.1/DTD/svg11.dtd">
<svg version="1.1" xmlns="http://www.w3.org/2000/svg" xmlns:xlink="http://www.w3.org/1999/xlink" x="0" y="0" width="528" height="528" viewBox="0, 0, 48, 48">
  <g id="Layer_1">
    <path d="M22,30 L26,30 L26,26 L22,26 L22,30 z M38,6 L10,6 C7.79,6 6,7.79 6,10 L6,38 C6,40.21 7.79,42 10,42 L38,42 C40.21,42 42,40.21 42,38 L42,10 C42,7.79 40.21,6 38,6 z M30,18 L22,18 L22,22 L26,22 C28.21,22 30,23.79 30,26 L30,30 C30,32.21 28.21,34 26,34 L22,34 C19.79,34 18,32.21 18,30 L18,18 C18,15.79 19.79,14 22,14 L30,14 L30,18 z" fill="#000000"/>
  </g>
</svg>
