<?xml version="1.0" encoding="UTF-8"?>
<!DOCTYPE svg PUBLIC "-//W3C//DTD SVG 1.1//EN" "http://www.w3.org/Graphics/SVG/1.1/DTD/svg11.dtd">
<svg version="1.1" xmlns="http://www.w3.org/2000/svg" xmlns:xlink="http://www.w3.org/1999/xlink" x="0" y="0" width="528" height="528" viewBox="0, 0, 48, 48">
  <g id="Layer_1">
    <path d="M26,14 L22,14 L22,22 L14,22 L14,26 L22,26 L22,34 L26,34 L26,26 L34,26 L34,22 L26,22 L26,14 z M24,4 C12.97,4 4,12.97 4,24 C4,35.03 12.97,44 24,44 L40,44 C42.21,44 44,42.21 44,40 L44,24 C44,12.97 35.03,4 24,4 z M24,40 C15.18,40 8,32.82 8,24 C8,15.18 15.18,8 24,8 C32.82,8 40,15.18 40,24 C40,32.82 32.82,40 24,40 z" fill="#000000"/>
  </g>
</svg>
