<?xml version="1.0" encoding="UTF-8"?>
<!DOCTYPE svg PUBLIC "-//W3C//DTD SVG 1.1//EN" "http://www.w3.org/Graphics/SVG/1.1/DTD/svg11.dtd">
<svg version="1.1" xmlns="http://www.w3.org/2000/svg" xmlns:xlink="http://www.w3.org/1999/xlink" x="0" y="0" width="528" height="528" viewBox="0, 0, 48, 48">
  <g id="Layer_1">
    <path d="M24,14 L24,6 L4,6 L4,42 L44,42 L44,14 L24,14 z M12,38 L8,38 L8,34 L12,34 L12,38 z M12,30 L8,30 L8,26 L12,26 L12,30 z M12,22 L8,22 L8,18 L12,18 L12,22 z M12,14 L8,14 L8,10 L12,10 L12,14 z M20,38 L16,38 L16,34 L20,34 L20,38 z M20,30 L16,30 L16,26 L20,26 L20,30 z M20,22 L16,22 L16,18 L20,18 L20,22 z M20,14 L16,14 L16,10 L20,10 L20,14 z M40,38 L24,38 L24,34 L28,34 L28,30 L24,30 L24,26 L28,26 L28,22 L24,22 L24,18 L40,18 L40,38 z M36,22 L32,22 L32,26 L36,26 L36,22 z M36,30 L32,30 L32,34 L36,34 L36,30 z" fill="#000000"/>
  </g>
</svg>
