<?xml version="1.0" encoding="UTF-8"?>
<!DOCTYPE svg PUBLIC "-//W3C//DTD SVG 1.1//EN" "http://www.w3.org/Graphics/SVG/1.1/DTD/svg11.dtd">
<svg version="1.1" xmlns="http://www.w3.org/2000/svg" xmlns:xlink="http://www.w3.org/1999/xlink" x="0" y="0" width="528" height="528" viewBox="0, 0, 48, 48">
  <g id="Layer_1">
    <path d="M39.54,14.46 L39.57,14.43 L32.12,7 L30,9.12 L34.22,13.34 C32.34,14.06 31,15.87 31,18 C31,20.76 33.24,23 36,23 C36.71,23 37.39,22.85 38,22.58 L38,37 C38,38.1 37.1,39 36,39 C34.9,39 34,38.1 34,37 L34,28 C34,25.79 32.21,24 30,24 L28,24 L28,10 C28,7.79 26.21,6 24,6 L12,6 C9.79,6 8,7.79 8,10 L8,42 L28,42 L28,27 L31,27 L31,37 C31,39.76 33.24,42 36,42 C38.76,42 41,39.76 41,37 L41,18 C41,16.62 40.44,15.37 39.54,14.46 z M24,20 L12,20 L12,10 L24,10 L24,20 z M36,20 C34.9,20 34,19.1 34,18 C34,16.9 34.9,16 36,16 C37.1,16 38,16.9 38,18 C38,19.1 37.1,20 36,20 z" fill="#000000"/>
  </g>
</svg>
