<?xml version="1.0" encoding="UTF-8"?>
<!DOCTYPE svg PUBLIC "-//W3C//DTD SVG 1.1//EN" "http://www.w3.org/Graphics/SVG/1.1/DTD/svg11.dtd">
<svg version="1.1" xmlns="http://www.w3.org/2000/svg" xmlns:xlink="http://www.w3.org/1999/xlink" x="0" y="0" width="528" height="528" viewBox="0, 0, 48, 48">
  <g id="Layer_1">
    <path d="M24,23.09 C19.27,18.7 12.96,16 6,16 L6,38 C12.96,38 19.27,40.7 24,45.09 C28.73,40.7 35.04,38 42,38 L42,16 C35.04,16 28.73,18.7 24,23.09 z M24,16 C27.31,16 30,13.31 30,10 C30,6.69 27.31,4 24,4 C20.69,4 18,6.69 18,10 C18,13.31 20.69,16 24,16 z" fill="#000000"/>
  </g>
</svg>
