<?xml version="1.0" encoding="UTF-8"?>
<!DOCTYPE svg PUBLIC "-//W3C//DTD SVG 1.1//EN" "http://www.w3.org/Graphics/SVG/1.1/DTD/svg11.dtd">
<svg version="1.1" xmlns="http://www.w3.org/2000/svg" xmlns:xlink="http://www.w3.org/1999/xlink" x="0" y="0" width="528" height="528" viewBox="0, 0, 48, 48">
  <g id="Layer_1">
    <path d="M38,14 L38,8 L10,8 L10,14 L4,14 L4,40 L20,40 L20,32 L28,32 L28,40 L44,40 L44,14 L38,14 z M22,20 L18,20 L18,22 L22,22 L22,24 L16,24 L16,18 L20,18 L20,16 L16,16 L16,14 L22,14 L22,20 z M32,24 L30,24 L30,20 L26,20 L26,14 L28,14 L28,18 L30,18 L30,14 L32,14 L32,24 z" fill="#000000"/>
  </g>
</svg>
