<?xml version="1.0" encoding="UTF-8"?>
<!DOCTYPE svg PUBLIC "-//W3C//DTD SVG 1.1//EN" "http://www.w3.org/Graphics/SVG/1.1/DTD/svg11.dtd">
<svg version="1.1" xmlns="http://www.w3.org/2000/svg" xmlns:xlink="http://www.w3.org/1999/xlink" x="0" y="0" width="528" height="528" viewBox="0, 0, 48, 48">
  <g id="Layer_1">
    <path d="M38,4 L10,4 C7.79,4 6,5.79 6,8 L6,36 C6,38.21 7.79,40 10,40 L18,40 L24,46 L30,40 L38,40 C40.21,40 42,38.21 42,36 L42,8 C42,5.79 40.21,4 38,4 z M24,10.6 C26.98,10.6 29.4,13.02 29.4,16 C29.4,18.98 26.98,21.4 24,21.4 C21.02,21.4 18.6,18.98 18.6,16 C18.6,13.02 21.02,10.6 24,10.6 z M36,32 L12,32 L12,30.2 C12,26.2 20,24 24,24 C28,24 36,26.2 36,30.2 L36,32 z" fill="#000000"/>
  </g>
</svg>
