<?xml version="1.0" encoding="UTF-8"?>
<!DOCTYPE svg PUBLIC "-//W3C//DTD SVG 1.1//EN" "http://www.w3.org/Graphics/SVG/1.1/DTD/svg11.dtd">
<svg version="1.1" xmlns="http://www.w3.org/2000/svg" xmlns:xlink="http://www.w3.org/1999/xlink" x="0" y="0" width="528" height="528" viewBox="0, 0, 48, 48">
  <g id="Layer_1">
    <path d="M30,22 L30,10 L24,4 L18,10 L18,14 L6,14 L6,42 L42,42 L42,22 L30,22 z M14,38 L10,38 L10,34 L14,34 L14,38 z M14,30 L10,30 L10,26 L14,26 L14,30 z M14,22 L10,22 L10,18 L14,18 L14,22 z M26,38 L22,38 L22,34 L26,34 L26,38 z M26,30 L22,30 L22,26 L26,26 L26,30 z M26,22 L22,22 L22,18 L26,18 L26,22 z M26,14 L22,14 L22,10 L26,10 L26,14 z M38,38 L34,38 L34,34 L38,34 L38,38 z M38,30 L34,30 L34,26 L38,26 L38,30 z" fill="#000000"/>
  </g>
</svg>
