<?xml version="1.0" encoding="UTF-8"?>
<!DOCTYPE svg PUBLIC "-//W3C//DTD SVG 1.1//EN" "http://www.w3.org/Graphics/SVG/1.1/DTD/svg11.dtd">
<svg version="1.1" xmlns="http://www.w3.org/2000/svg" xmlns:xlink="http://www.w3.org/1999/xlink" x="0" y="0" width="528" height="528" viewBox="0, 0, 48, 48">
  <g id="Layer_1">
    <path d="M40,16 L34,16 L34,8 L6,8 C3.79,8 2,9.79 2,12 L2,34 L6,34 C6,37.31 8.69,40 12,40 C15.31,40 18,37.31 18,34 L30,34 C30,37.31 32.69,40 36,40 C39.31,40 42,37.31 42,34 L46,34 L46,24 L40,16 z M12,37 C10.34,37 9,35.66 9,34 C9,32.34 10.34,31 12,31 C13.66,31 15,32.34 15,34 C15,35.66 13.66,37 12,37 z M39,19 L42.93,24 L34,24 L34,19 L39,19 z M36,37 C34.34,37 33,35.66 33,34 C33,32.34 34.34,31 36,31 C37.66,31 39,32.34 39,34 C39,35.66 37.66,37 36,37 z" fill="#000000"/>
  </g>
</svg>
