<?xml version="1.0" encoding="UTF-8"?>
<!DOCTYPE svg PUBLIC "-//W3C//DTD SVG 1.1//EN" "http://www.w3.org/Graphics/SVG/1.1/DTD/svg11.dtd">
<svg version="1.1" xmlns="http://www.w3.org/2000/svg" xmlns:xlink="http://www.w3.org/1999/xlink" x="0" y="0" width="528" height="528" viewBox="0, 0, 48, 48">
  <g id="Layer_1">
    <path d="M16.2,26.69 L21.86,21.03 L7.83,7 C4.71,10.12 4.71,15.19 7.83,18.31 L16.2,26.69 z M29.77,23.06 C32.82,24.49 37.13,23.48 40.31,20.3 C44.14,16.47 44.87,11 41.94,8.07 C39,5.14 33.52,5.87 29.7,9.7 C26.52,12.88 25.52,17.19 26.94,20.24 C22.49,24.68 7.41,39.76 7.41,39.76 L10.24,42.59 L24,28.83 L37.76,42.59 L40.59,39.76 L26.83,26 L29.77,23.06 z" fill="#000000"/>
  </g>
</svg>
