<?xml version="1.0" encoding="UTF-8"?>
<!DOCTYPE svg PUBLIC "-//W3C//DTD SVG 1.1//EN" "http://www.w3.org/Graphics/SVG/1.1/DTD/svg11.dtd">
<svg version="1.1" xmlns="http://www.w3.org/2000/svg" xmlns:xlink="http://www.w3.org/1999/xlink" x="0" y="0" width="528" height="528" viewBox="0, 0, 48, 48">
  <g id="Layer_1">
    <path d="M8,32 C8,33.77 8.78,35.34 10,36.44 L10,40 C10,41.1 10.9,42 12,42 L14,42 C15.11,42 16,41.1 16,40 L16,38 L32,38 L32,40 C32,41.1 32.89,42 34,42 L36,42 C37.1,42 38,41.1 38,40 L38,36.44 C39.22,35.34 40,33.77 40,32 L40,12 C40,5 32.84,4 24,4 C15.16,4 8,5 8,12 L8,32 z M15,34 C13.34,34 12,32.66 12,31 C12,29.34 13.34,28 15,28 C16.66,28 18,29.34 18,31 C18,32.66 16.66,34 15,34 z M33,34 C31.34,34 30,32.66 30,31 C30,29.34 31.34,28 33,28 C34.66,28 36,29.34 36,31 C36,32.66 34.66,34 33,34 z M36,22 L12,22 L12,12 L36,12 L36,22 z" fill="#000000"/>
  </g>
</svg>
