<?xml version="1.0" encoding="UTF-8"?>
<!DOCTYPE svg PUBLIC "-//W3C//DTD SVG 1.1//EN" "http://www.w3.org/Graphics/SVG/1.1/DTD/svg11.dtd">
<svg version="1.1" xmlns="http://www.w3.org/2000/svg" xmlns:xlink="http://www.w3.org/1999/xlink" x="0" y="0" width="528" height="528" viewBox="0, 0, 48, 48">
  <g id="Layer_1">
    <path d="M14,26 C17.31,26 20,23.31 20,20 C20,16.69 17.31,14 14,14 C10.69,14 8,16.69 8,20 C8,23.31 10.69,26 14,26 z M38,14 L22,14 L22,28 L6,28 L6,10 L2,10 L2,40 L6,40 L6,34 L42,34 L42,40 L46,40 L46,22 C46,17.58 42.42,14 38,14 z" fill="#000000"/>
  </g>
</svg>
