<?xml version="1.0" encoding="UTF-8"?>
<!DOCTYPE svg PUBLIC "-//W3C//DTD SVG 1.1//EN" "http://www.w3.org/Graphics/SVG/1.1/DTD/svg11.dtd">
<svg version="1.1" xmlns="http://www.w3.org/2000/svg" xmlns:xlink="http://www.w3.org/1999/xlink" x="0" y="0" width="528" height="528" viewBox="0, 0, 48, 48">
  <g id="Layer_1">
    <path d="M43.41,22.59 L25.41,4.59 C24.63,3.81 23.36,3.81 22.59,4.59 L4.59,22.59 C3.81,23.37 3.81,24.64 4.59,25.42 L22.59,43.41 L22.59,43.42 C23.37,44.2 24.64,44.2 25.42,43.42 L43.42,25.42 C44.2,24.63 44.2,23.37 43.41,22.59 z M28,29 L28,24 L20,24 L20,30 L16,30 L16,22 C16,20.89 16.89,20 18,20 L28,20 L28,15 L35,22 L28,29 z" fill="#000000"/>
  </g>
</svg>
