<?xml version="1.0" encoding="UTF-8"?>
<!DOCTYPE svg PUBLIC "-//W3C//DTD SVG 1.1//EN" "http://www.w3.org/Graphics/SVG/1.1/DTD/svg11.dtd">
<svg version="1.1" xmlns="http://www.w3.org/2000/svg" xmlns:xlink="http://www.w3.org/1999/xlink" x="0" y="0" width="528" height="528" viewBox="0, 0, 48, 48">
  <g id="Layer_1">
    <path d="M24,44 C33.94,44 42,35.94 42,26 C32.06,26 24,34.06 24,44 z M11.21,20.5 C11.21,23.26 13.45,25.5 16.21,25.5 C17.26,25.5 18.24,25.17 19.04,24.62 L19,25 C19,27.76 21.24,30 24,30 C26.76,30 29,27.76 29,25 L28.96,24.62 C29.77,25.18 30.74,25.5 31.79,25.5 C34.55,25.5 36.79,23.26 36.79,20.5 C36.79,18.51 35.62,16.8 33.93,16 C35.61,15.2 36.79,13.49 36.79,11.5 C36.79,8.74 34.55,6.5 31.79,6.5 C30.74,6.5 29.76,6.83 28.96,7.38 L29,7 C29,4.24 26.76,2 24,2 C21.24,2 19,4.24 19,7 L19.04,7.38 C18.23,6.82 17.26,6.5 16.21,6.5 C13.45,6.5 11.21,8.74 11.21,11.5 C11.21,13.49 12.38,15.2 14.07,16 C12.38,16.8 11.21,18.51 11.21,20.5 z M24,11 C26.76,11 29,13.24 29,16 C29,18.76 26.76,21 24,21 C21.24,21 19,18.76 19,16 C19,13.24 21.24,11 24,11 z M6,26 C6,35.94 14.06,44 24,44 C24,34.06 15.94,26 6,26 z" fill="#000000"/>
  </g>
</svg>
