<?xml version="1.0" encoding="UTF-8"?>
<!DOCTYPE svg PUBLIC "-//W3C//DTD SVG 1.1//EN" "http://www.w3.org/Graphics/SVG/1.1/DTD/svg11.dtd">
<svg version="1.1" xmlns="http://www.w3.org/2000/svg" xmlns:xlink="http://www.w3.org/1999/xlink" x="0" y="0" width="528" height="528" viewBox="0, 0, 48, 48">
  <g id="Layer_1">
    <path d="M40,20 L34,20 L34,17.72 C37.45,16.83 40,13.73 40,10 L34,10 L34,8 C34,6.9 33.11,6 32,6 L16,6 C14.9,6 14,6.9 14,8 L14,10 L8,10 C8,13.72 10.56,16.83 14,17.72 L14,20 L8,20 C8,23.72 10.56,26.83 14,27.72 L14,30 L8,30 C8,33.72 10.56,36.83 14,37.72 L14,40 C14,41.1 14.9,42 16,42 L32,42 C33.11,42 34,41.1 34,40 L34,37.72 C37.45,36.83 40,33.73 40,30 L34,30 L34,27.72 C37.45,26.83 40,23.72 40,20 z M24,38 C21.79,38 20,36.21 20,34 C20,31.79 21.79,30 24,30 C26.21,30 28,31.79 28,34 C28,36.21 26.21,38 24,38 z M24,28 C21.79,28 20,26.21 20,24 C20,21.79 21.79,20 24,20 C26.21,20 28,21.79 28,24 C28,26.21 26.21,28 24,28 z M24,18 C21.79,18 20,16.21 20,14 C20,11.79 21.79,10 24,10 C26.21,10 28,11.79 28,14 C28,16.21 26.21,18 24,18 z" fill="#000000"/>
  </g>
</svg>
