<?xml version="1.0" encoding="UTF-8"?>
<!DOCTYPE svg PUBLIC "-//W3C//DTD SVG 1.1//EN" "http://www.w3.org/Graphics/SVG/1.1/DTD/svg11.dtd">
<svg version="1.1" xmlns="http://www.w3.org/2000/svg" xmlns:xlink="http://www.w3.org/1999/xlink" x="0" y="0" width="528" height="528" viewBox="0, 0, 48, 48">
  <g id="Layer_1">
    <path d="M40,42 C37.22,42 34.44,41.06 32,39.35 C27.12,42.77 20.88,42.77 16,39.35 C13.56,41.06 10.78,42 8,42 L4,42 L4,46 L8,46 C10.75,46 13.48,45.31 16,44.01 C21.04,46.6 26.96,46.6 32,44.01 C34.52,45.3 37.25,46 40,46 L44,46 L44,42 L40,42 z M7.89,38 L8,38 C11.2,38 14.05,36.24 16,34 C17.95,36.24 20.8,38 24,38 C27.2,38 30.05,36.24 32,34 C33.96,36.24 36.79,38 40,38 L40.11,38 L43.9,24.63 C44.07,24.12 44.02,23.56 43.78,23.08 C43.53,22.6 43.1,22.24 42.58,22.09 L40,21.24 L40,12 C40,9.79 38.21,8 36,8 L30,8 L30,2 L18,2 L18,8 L12,8 C9.79,8 8,9.79 8,12 L8,21.24 L5.43,22.08 C4.91,22.24 4.48,22.59 4.23,23.07 C3.98,23.55 3.94,24.11 4.11,24.62 L7.89,38 z M12,12 L36,12 L36,19.93 L24,16 L12,19.93 L12,12 z" fill="#000000"/>
  </g>
</svg>
