<?xml version="1.0" encoding="UTF-8"?>
<!DOCTYPE svg PUBLIC "-//W3C//DTD SVG 1.1//EN" "http://www.w3.org/Graphics/SVG/1.1/DTD/svg11.dtd">
<svg version="1.1" xmlns="http://www.w3.org/2000/svg" xmlns:xlink="http://www.w3.org/1999/xlink" x="0" y="0" width="528" height="528" viewBox="0, 0, 48, 48">
  <g id="Layer_1">
    <path d="M32,9.6 C33.98,9.6 35.6,7.99 35.6,6 C35.6,4.01 33.98,2.4 32,2.4 C30.01,2.4 28.4,4.01 28.4,6 C28.4,7.99 30.01,9.6 32,9.6 z M38,24 C32.48,24 28,28.48 28,34 C28,39.52 32.48,44 38,44 C43.52,44 48,39.52 48,34 C48,28.48 43.52,24 38,24 z M38,41 C34.13,41 31,37.87 31,34 C31,30.13 34.13,27 38,27 C41.87,27 45,30.13 45,34 C45,37.87 41.87,41 38,41 z M29.6,20 L38,20 L38,16.4 L31.6,16.4 L27.73,9.87 C27.14,8.87 26.05,8.2 24.8,8.2 C23.86,8.2 23.01,8.58 22.4,9.2 L15,16.59 C14.38,17.21 14,18.06 14,19 C14,20.26 14.67,21.32 15.7,21.94 L22.4,26 L22.4,36 L26,36 L26,23.04 L21.5,19.7 L26.14,15.04 L29.6,20 z M10,24 C4.48,24 0,28.48 0,34 C0,39.52 4.48,44 10,44 C15.52,44 20,39.52 20,34 C20,28.48 15.52,24 10,24 z M10,41 C6.13,41 3,37.87 3,34 C3,30.13 6.13,27 10,27 C13.87,27 17,30.13 17,34 C17,37.87 13.87,41 10,41 z" fill="#000000"/>
  </g>
</svg>
