<?xml version="1.0" encoding="UTF-8"?>
<!DOCTYPE svg PUBLIC "-//W3C//DTD SVG 1.1//EN" "http://www.w3.org/Graphics/SVG/1.1/DTD/svg11.dtd">
<svg version="1.1" xmlns="http://www.w3.org/2000/svg" xmlns:xlink="http://www.w3.org/1999/xlink" x="0" y="0" width="528" height="528" viewBox="0, 0, 48, 48">
  <g id="Layer_1">
    <path d="M28,7.6 C29.98,7.6 31.6,5.99 31.6,4 C31.6,2.01 29.98,0.4 28,0.4 C26.01,0.4 24.4,2.01 24.4,4 C24.4,5.99 26.01,7.6 28,7.6 z M28.24,20 L38,20 L38,16.4 L30.75,16.4 L26.75,9.74 C26.16,8.74 25.07,8.08 23.83,8.08 C23.49,8.08 23.16,8.13 22.85,8.22 L12,11.6 L12,22 L15.6,22 L15.6,14.67 L19.81,13.36 L12,44 L15.6,44 L21.34,27.78 L26,34 L26,44 L29.6,44 L29.6,31.19 L24.62,22.11 L26.09,16.37 L28.24,20 z" fill="#000000"/>
  </g>
</svg>
