<?xml version="1.0" encoding="UTF-8"?>
<!DOCTYPE svg PUBLIC "-//W3C//DTD SVG 1.1//EN" "http://www.w3.org/Graphics/SVG/1.1/DTD/svg11.dtd">
<svg version="1.1" xmlns="http://www.w3.org/2000/svg" xmlns:xlink="http://www.w3.org/1999/xlink" x="0" y="0" width="528" height="528" viewBox="0, 0, 48, 48">
  <g id="Layer_1">
    <path d="M40,24 C40,21.79 41.79,20 44,20 L44,12 C44,9.79 42.21,8 40,8 L8,8 C5.79,8 4.02,9.79 4.02,12 L4.01,20 C6.22,20.01 8,21.8 8,24 C8,26.21 6.21,28 4.01,28 L4,36 C4,38.21 5.79,40 8,40 L40,40 C42.21,40 44,38.21 44,36 L44,28 C41.79,28 40,26.21 40,24 z M31.16,33.6 L24,29 L16.84,33.6 L19,25.37 L12.42,19.99 L20.91,19.49 L24,11.6 L27.09,19.49 L35.58,19.99 L29,25.37 L31.16,33.6 z" fill="#000000"/>
  </g>
</svg>
