<?xml version="1.0" encoding="UTF-8"?>
<!DOCTYPE svg PUBLIC "-//W3C//DTD SVG 1.1//EN" "http://www.w3.org/Graphics/SVG/1.1/DTD/svg11.dtd">
<svg version="1.1" xmlns="http://www.w3.org/2000/svg" xmlns:xlink="http://www.w3.org/1999/xlink" x="0" y="0" width="528" height="528" viewBox="0, 0, 48, 48">
  <g id="Layer_1">
    <path d="M36,6 L36,10 L32,10 L32,6 L16,6 L16,10 L12,10 L12,6 L8,6 L8,42 L12,42 L12,38 L16,38 L16,42 L32,42 L32,38 L36,38 L36,42 L40,42 L40,6 L36,6 z M16,34 L12,34 L12,30 L16,30 L16,34 z M16,26 L12,26 L12,22 L16,22 L16,26 z M16,18 L12,18 L12,14 L16,14 L16,18 z M36,34 L32,34 L32,30 L36,30 L36,34 z M36,26 L32,26 L32,22 L36,22 L36,26 z M36,18 L32,18 L32,14 L36,14 L36,18 z" fill="#000000"/>
  </g>
</svg>
