<?xml version="1.0" encoding="UTF-8"?>
<!DOCTYPE svg PUBLIC "-//W3C//DTD SVG 1.1//EN" "http://www.w3.org/Graphics/SVG/1.1/DTD/svg11.dtd">
<svg version="1.1" xmlns="http://www.w3.org/2000/svg" xmlns:xlink="http://www.w3.org/1999/xlink" x="0" y="0" width="528" height="528" viewBox="0, 0, 48, 48">
  <g id="Layer_1">
    <path d="M37.84,12.02 C37.43,10.84 36.31,10 35,10 L30,10 L30,6 L18,6 L18,10 L13,10 C11.69,10 10.57,10.84 10.16,12.02 L6,24 L6,40 C6,41.1 6.9,42 8,42 L10,42 C11.11,42 12,41.1 12,40 L12,38 L36,38 L36,40 C36,41.1 36.9,42 38,42 L40,42 C41.11,42 42,41.1 42,40 L42,24 L37.84,12.02 z M13,32 C11.34,32 10,30.66 10,29 C10,27.34 11.34,26 13,26 C14.66,26 16,27.34 16,29 C16,30.66 14.66,32 13,32 z M35,32 C33.34,32 32,30.66 32,29 C32,27.34 33.34,26 35,26 C36.66,26 38,27.34 38,29 C38,30.66 36.66,32 35,32 z M10,22 L13,13 L35,13 L38,22 L10,22 z" fill="#000000"/>
  </g>
</svg>
