<?xml version="1.0" encoding="UTF-8"?>
<!DOCTYPE svg PUBLIC "-//W3C//DTD SVG 1.1//EN" "http://www.w3.org/Graphics/SVG/1.1/DTD/svg11.dtd">
<svg version="1.1" xmlns="http://www.w3.org/2000/svg" xmlns:xlink="http://www.w3.org/1999/xlink" x="0" y="0" width="528" height="528" viewBox="0, 0, 48, 48">
  <g id="Layer_1">
    <path d="M14,36 C11.79,36 10.02,37.79 10.02,40 C10.02,42.21 11.79,44 14,44 C16.21,44 18,42.21 18,40 C18,37.79 16.21,36 14,36 z M2,4 L2,8 L6,8 L13.19,23.17 L10.49,28.07 C10.18,28.65 10,29.3 10,30 C10,32.21 11.79,34 14,34 L38,34 L38,30 L14.85,30 C14.57,30 14.35,29.78 14.35,29.5 C14.35,29.41 14.37,29.33 14.41,29.26 L16.2,26 L31.1,26 C32.6,26 33.91,25.17 34.6,23.94 L41.75,10.96 C41.91,10.68 42,10.35 42,10 C42,8.89 41.1,8 40,8 L10.43,8 L8.53,4 L2,4 z M34,36 C31.79,36 30.02,37.79 30.02,40 C30.02,42.21 31.79,44 34,44 C36.21,44 38,42.21 38,40 C38,37.79 36.21,36 34,36 z" fill="#000000"/>
  </g>
</svg>
