<?xml version="1.0" encoding="UTF-8"?>
<!DOCTYPE svg PUBLIC "-//W3C//DTD SVG 1.1//EN" "http://www.w3.org/Graphics/SVG/1.1/DTD/svg11.dtd">
<svg version="1.1" xmlns="http://www.w3.org/2000/svg" xmlns:xlink="http://www.w3.org/1999/xlink" x="0" y="0" width="528" height="528" viewBox="0, 0, 48, 48">
  <g id="Layer_1">
    <path d="M18.34,33.66 C21.46,36.78 26.53,36.78 29.65,33.66 C32.77,30.54 32.77,25.47 29.65,22.35 L18.34,33.66 z M36,4.02 L12,4 C9.79,4 8,5.79 8,8 L8,40 C8,42.21 9.79,44 12,44 L36,44 C38.21,44 40,42.21 40,40 L40,8 C40,5.79 38.21,4.02 36,4.02 z M20,8 C21.1,8 22,8.9 22,10 C22,11.1 21.1,12 20,12 C18.9,12 18,11.1 18,10 C18,8.9 18.9,8 20,8 z M14,8 C15.1,8 16,8.9 16,10 C16,11.1 15.1,12 14,12 C12.9,12 12,11.1 12,10 C12,8.9 12.9,8 14,8 z M24,40 C17.37,40 12,34.63 12,28 C12,21.37 17.37,16 24,16 C30.63,16 36,21.37 36,28 C36,34.63 30.63,40 24,40 z" fill="#000000"/>
  </g>
</svg>
