<?xml version="1.0" encoding="UTF-8"?>
<!DOCTYPE svg PUBLIC "-//W3C//DTD SVG 1.1//EN" "http://www.w3.org/Graphics/SVG/1.1/DTD/svg11.dtd">
<svg version="1.1" xmlns="http://www.w3.org/2000/svg" xmlns:xlink="http://www.w3.org/1999/xlink" x="0" y="0" width="528" height="528" viewBox="0, 0, 48, 48">
  <g id="Layer_1">
    <path d="M24,13 C26.76,13 29,15.24 29,18 C29,19.47 28.35,20.78 27.34,21.7 L34.6,28.96 C36.55,25.24 38,21.37 38,18 C38,10.27 31.73,4 24,4 C20.04,4 16.47,5.65 13.93,8.29 L20.3,14.66 C21.21,13.65 22.53,13 24,13 z M32.75,32.2 L23.5,22.95 L23.28,22.73 L6.54,6 L4,8.55 L10.36,14.91 C10.13,15.9 10,16.93 10,18 C10,28.5 24,44 24,44 C24,44 27.34,40.3 30.75,35.3 L37.45,42 L40,39.45 L32.75,32.2 z" fill="#000000"/>
  </g>
</svg>
