<?xml version="1.0" encoding="UTF-8"?>
<!DOCTYPE svg PUBLIC "-//W3C//DTD SVG 1.1//EN" "http://www.w3.org/Graphics/SVG/1.1/DTD/svg11.dtd">
<svg version="1.1" xmlns="http://www.w3.org/2000/svg" xmlns:xlink="http://www.w3.org/1999/xlink" x="0" y="0" width="528" height="528" viewBox="0, 0, 48, 48">
  <g id="Layer_1">
    <path d="M42,10 L36.71,10 L39,3.71 L34.3,2 L31.39,10 L6,10 L6,14 L10,26 L6,38 L6,42 L42,42 L42,38 L38,26 L42,14 L42,10 z M32,28 L26,28 L26,34 L22,34 L22,28 L16,28 L16,24 L22,24 L22,18 L26,18 L26,24 L32,24 L32,28 z" fill="#000000"/>
  </g>
</svg>
