<?xml version="1.0" encoding="UTF-8"?>
<!DOCTYPE svg PUBLIC "-//W3C//DTD SVG 1.1//EN" "http://www.w3.org/Graphics/SVG/1.1/DTD/svg11.dtd">
<svg version="1.1" xmlns="http://www.w3.org/2000/svg" xmlns:xlink="http://www.w3.org/1999/xlink" x="0" y="0" width="528" height="528" viewBox="0, 0, 48, 48">
  <g id="Layer_1">
    <path d="M24,4 C16.87,4 10.45,7.09 6.02,12 L24,44 L41.99,12.01 C37.56,7.09 31.14,4 24,4 z M14,14 C14,11.79 15.79,10 18,10 C20.21,10 22,11.79 22,14 C22,16.21 20.21,18 18,18 C15.79,18 14,16.21 14,14 z M24,30 C21.79,30 20,28.21 20,26 C20,23.79 21.79,22 24,22 C26.21,22 28,23.79 28,26 C28,28.21 26.21,30 24,30 z" fill="#000000"/>
  </g>
</svg>
