<?xml version="1.0" encoding="UTF-8"?>
<!DOCTYPE svg PUBLIC "-//W3C//DTD SVG 1.1//EN" "http://www.w3.org/Graphics/SVG/1.1/DTD/svg11.dtd">
<svg version="1.1" xmlns="http://www.w3.org/2000/svg" xmlns:xlink="http://www.w3.org/1999/xlink" x="0" y="0" width="528" height="528" viewBox="0, 0, 48, 48">
  <g id="Layer_1">
    <path d="M41,6 C40.89,6 40.79,6.01 40.69,6.05 L30,10.2 L18,6 L6.73,9.8 C6.31,9.94 6,10.3 6,10.76 L6,41 C6,41.55 6.45,42 7,42 C7.11,42 7.21,41.99 7.31,41.95 L18,37.8 L30,42 L41.28,38.21 C41.7,38.06 42,37.7 42,37.24 L42,7 C42,6.45 41.55,6 41,6 z M30,38 L18,33.79 L18,10 L30,14.21 L30,38 z" fill="#000000"/>
  </g>
</svg>
