<?xml version="1.0" encoding="UTF-8"?>
<!DOCTYPE svg PUBLIC "-//W3C//DTD SVG 1.1//EN" "http://www.w3.org/Graphics/SVG/1.1/DTD/svg11.dtd">
<svg version="1.1" xmlns="http://www.w3.org/2000/svg" xmlns:xlink="http://www.w3.org/1999/xlink" x="0" y="0" width="528" height="528" viewBox="0, 0, 48, 48">
  <g id="Layer_1">
    <path d="M24,28 C27.31,28 29.98,25.31 29.98,22 L30,10 C30,6.68 27.32,4 24,4 C20.69,4 18,6.68 18,10 L18,22 C18,25.31 20.69,28 24,28 z M21.6,9.8 C21.6,8.48 22.68,7.4 24,7.4 C25.32,7.4 26.4,8.48 26.4,9.8 L26.38,22.2 C26.38,23.52 25.31,24.6 24,24.6 C22.68,24.6 21.6,23.52 21.6,22.2 L21.6,9.8 z M34.6,22 C34.6,28 29.53,32.2 24,32.2 C18.48,32.2 13.4,28 13.4,22 L10,22 C10,28.83 15.44,34.47 22,35.44 L22,42 L26,42 L26,35.44 C32.56,34.47 38,28.83 38,22 L34.6,22 z" fill="#000000"/>
  </g>
</svg>
