<?xml version="1.0" encoding="UTF-8"?>
<!DOCTYPE svg PUBLIC "-//W3C//DTD SVG 1.1//EN" "http://www.w3.org/Graphics/SVG/1.1/DTD/svg11.dtd">
<svg version="1.1" xmlns="http://www.w3.org/2000/svg" xmlns:xlink="http://www.w3.org/1999/xlink" x="0" y="0" width="528" height="528" viewBox="0, 0, 48, 48">
  <g id="Layer_1">
    <path d="M14,48 L18,48 L18,44 L14,44 L14,48 z M24,26 C27.31,26 29.98,23.31 29.98,20 L30,8 C30,4.68 27.32,2 24,2 C20.69,2 18,4.68 18,8 L18,20 C18,23.31 20.69,26 24,26 z M22,48 L26,48 L26,44 L22,44 L22,48 z M30,48 L34,48 L34,44 L30,44 L30,48 z M38,20 L34.6,20 C34.6,26 29.53,30.2 24,30.2 C18.48,30.2 13.4,26 13.4,20 L10,20 C10,26.83 15.44,32.47 22,33.44 L22,40 L26,40 L26,33.44 C32.56,32.47 38,26.83 38,20 z" fill="#000000"/>
  </g>
</svg>
