<?xml version="1.0" encoding="UTF-8"?>
<!DOCTYPE svg PUBLIC "-//W3C//DTD SVG 1.1//EN" "http://www.w3.org/Graphics/SVG/1.1/DTD/svg11.dtd">
<svg version="1.1" xmlns="http://www.w3.org/2000/svg" xmlns:xlink="http://www.w3.org/1999/xlink" x="0" y="0" width="528" height="528" viewBox="0, 0, 48, 48">
  <g id="Layer_1">
    <path d="M38,22 L34.6,22 C34.6,23.49 34.29,24.87 33.73,26.1 L36.19,28.56 C37.33,26.61 38,24.38 38,22 z M29.97,22.33 C29.97,22.22 30,22.11 30,22 L30,10 C30,6.68 27.31,4 24,4 C20.69,4 18,6.68 18,10 L18,10.37 L29.97,22.33 z M8.55,6 L6,8.55 L18.02,20.57 L18.02,22.01 C18.02,25.32 20.69,28.01 24,28.01 C24.45,28.01 24.88,27.95 25.3,27.86 L28.62,31.18 C27.19,31.84 25.62,32.21 24,32.21 C18.48,32.21 13.4,28.01 13.4,22.01 L10,22.01 C10,28.84 15.44,34.48 22,35.45 L22,42 L26,42 L26,35.44 C27.81,35.17 29.53,34.54 31.08,33.63 L39.45,42 L42,39.46 L8.55,6 z" fill="#000000"/>
  </g>
</svg>
