<?xml version="1.0" encoding="UTF-8"?>
<!DOCTYPE svg PUBLIC "-//W3C//DTD SVG 1.1//EN" "http://www.w3.org/Graphics/SVG/1.1/DTD/svg11.dtd">
<svg version="1.1" xmlns="http://www.w3.org/2000/svg" xmlns:xlink="http://www.w3.org/1999/xlink" x="0" y="0" width="528" height="528" viewBox="0, 0, 48, 48">
  <g id="Layer_1">
    <path d="M23.99,4 C12.94,4 4,12.95 4,24 C4,35.05 12.94,44 23.99,44 C35.04,44 44,35.05 44,24 C44,12.95 35.04,4 23.99,4 z M24,40 C15.16,40 8,32.84 8,24 C8,15.16 15.16,8 24,8 C32.84,8 40,15.16 40,24 C40,32.84 32.84,40 24,40 z M31,22 C32.66,22 34,20.66 34,19 C34,17.34 32.66,16 31,16 C29.34,16 28,17.34 28,19 C28,20.66 29.34,22 31,22 z M17,22 C18.66,22 20,20.66 20,19 C20,17.34 18.66,16 17,16 C15.34,16 14,17.34 14,19 C14,20.66 15.34,22 17,22 z M24,35 C28.66,35 32.61,32.09 34.21,28 L13.79,28 C15.39,32.09 19.34,35 24,35 z" fill="#000000"/>
  </g>
</svg>
