<?xml version="1.0" encoding="UTF-8"?>
<!DOCTYPE svg PUBLIC "-//W3C//DTD SVG 1.1//EN" "http://www.w3.org/Graphics/SVG/1.1/DTD/svg11.dtd">
<svg version="1.1" xmlns="http://www.w3.org/2000/svg" xmlns:xlink="http://www.w3.org/1999/xlink" x="0" y="0" width="528" height="528" viewBox="0, 0, 48, 48">
  <g id="Layer_1">
    <path d="M44,6 L14,6 C12.62,6 11.53,6.7 10.81,7.76 L0,23.99 L10.81,40.22 C11.53,41.28 12.75,42 14.13,42 L44,42 C46.21,42 48,40.21 48,38 L48,10 C48,7.79 46.21,6 44,6 z M18,27 C16.34,27 15,25.66 15,24 C15,22.34 16.34,21 18,21 C19.66,21 21,22.34 21,24 C21,25.66 19.66,27 18,27 z M28,27 C26.34,27 25,25.66 25,24 C25,22.34 26.34,21 28,21 C29.66,21 31,22.34 31,24 C31,25.66 29.66,27 28,27 z M38,27 C36.34,27 35,25.66 35,24 C35,22.34 36.34,21 38,21 C39.66,21 41,22.34 41,24 C41,25.66 39.66,27 38,27 z" fill="#000000"/>
  </g>
</svg>
