<?xml version="1.0" encoding="UTF-8"?>
<!DOCTYPE svg PUBLIC "-//W3C//DTD SVG 1.1//EN" "http://www.w3.org/Graphics/SVG/1.1/DTD/svg11.dtd">
<svg version="1.1" xmlns="http://www.w3.org/2000/svg" xmlns:xlink="http://www.w3.org/1999/xlink" x="0" y="0" width="528" height="528" viewBox="0, 0, 48, 48">
  <g id="Layer_1">
    <path d="M30,12 L6,12 L6,16 L30,16 L30,12 z M30,20 L6,20 L6,24 L30,24 L30,20 z M6,32 L22,32 L22,28 L6,28 L6,32 z M34,12 L34,28.37 C33.37,28.14 32.71,28 32,28 C28.69,28 26,30.69 26,34 C26,37.31 28.69,40 32,40 C35.31,40 38,37.31 38,34 L38,16 L44,16 L44,12 L34,12 z" fill="#000000"/>
  </g>
</svg>
