<?xml version="1.0" encoding="UTF-8"?>
<!DOCTYPE svg PUBLIC "-//W3C//DTD SVG 1.1//EN" "http://www.w3.org/Graphics/SVG/1.1/DTD/svg11.dtd">
<svg version="1.1" xmlns="http://www.w3.org/2000/svg" xmlns:xlink="http://www.w3.org/1999/xlink" x="0" y="0" width="528" height="528" viewBox="0, 0, 48, 48">
  <g id="Layer_1">
    <path d="M44.34,18.34 C44.34,10.61 38.07,4.34 30.34,4.34 C22.61,4.34 16.34,10.61 16.34,18.34 C16.34,25.27 21.38,31.01 28,32.13 L28,40 L12,40 L12,34 L14,34 L14,26 C14,24.9 13.1,24 12,24 L6,24 C4.9,24 4,24.9 4,26 L4,34 L6,34 L6,44 L38,44 L38,40 L32,40 L32,32.24 C38.95,31.42 44.34,25.51 44.34,18.34 z M9,22 C10.66,22 12,20.66 12,19 C12,17.34 10.66,16 9,16 C7.34,16 6,17.34 6,19 C6,20.66 7.34,22 9,22 z" fill="#000000"/>
  </g>
</svg>
