<?xml version="1.0" encoding="UTF-8"?>
<!DOCTYPE svg PUBLIC "-//W3C//DTD SVG 1.1//EN" "http://www.w3.org/Graphics/SVG/1.1/DTD/svg11.dtd">
<svg version="1.1" xmlns="http://www.w3.org/2000/svg" xmlns:xlink="http://www.w3.org/1999/xlink" x="0" y="0" width="528" height="528" viewBox="0, 0, 48, 48">
  <g id="Layer_1">
    <path d="M40,4.17 L8,4.17 C5.79,4.17 4,5.96 4,8.17 L4,40.17 C4,42.38 5.79,44.17 8,44.17 L40,44.17 C42.21,44.17 44,42.38 44,40.17 L44,8.17 C44,5.96 42.21,4.17 40,4.17 z M40,40.17 L8,40.17 L8,8.17 L40,8.17 L40,40.17 z M36,12.17 L26,12.17 C23.79,12.17 22,13.96 22,16.17 L22,20.72 C20.81,21.41 20,22.69 20,24.17 C20,26.38 21.79,28.17 24,28.17 C26.21,28.17 28,26.38 28,24.17 C28,22.69 27.19,21.42 26,20.72 L26,16.17 L32,16.17 L32,32.17 L16,32.17 L16,16.17 L20,16.17 L20,12.17 L12,12.17 L12,36.17 L36,36.17 L36,12.17 z" fill="#000000"/>
  </g>
</svg>
