<?xml version="1.0" encoding="UTF-8"?>
<!DOCTYPE svg PUBLIC "-//W3C//DTD SVG 1.1//EN" "http://www.w3.org/Graphics/SVG/1.1/DTD/svg11.dtd">
<svg version="1.1" xmlns="http://www.w3.org/2000/svg" xmlns:xlink="http://www.w3.org/1999/xlink" x="0" y="0" width="528" height="528" viewBox="0, 0, 48, 48">
  <g id="Layer_1">
    <path d="M13.16,7.16 L10.3,4.3 C5.51,7.95 2.35,13.59 2.05,20 L6.05,20 C6.36,14.7 9.09,10.06 13.16,7.16 z M39.95,20 L43.95,20 C43.65,13.59 40.49,7.95 35.7,4.3 L32.85,7.15 C36.91,10.06 39.64,14.7 39.95,20 z M36,21 C36,14.85 31.73,9.72 26,8.36 L26,7 C26,5.34 24.66,4 23,4 C21.34,4 20,5.34 20,7 L20,8.36 C14.27,9.72 10,14.85 10,21 L10,32 L6,36 L6,38 L40,38 L40,36 L36,32 L36,21 z M23,44 C23.28,44 23.55,43.97 23.81,43.92 C25.11,43.65 26.18,42.75 26.69,41.56 C26.89,41.08 27,40.56 27,40 L19,40 C19,42.21 20.79,44 23,44 z" fill="#000000"/>
  </g>
</svg>
