<?xml version="1.0" encoding="UTF-8"?>
<!DOCTYPE svg PUBLIC "-//W3C//DTD SVG 1.1//EN" "http://www.w3.org/Graphics/SVG/1.1/DTD/svg11.dtd">
<svg version="1.1" xmlns="http://www.w3.org/2000/svg" xmlns:xlink="http://www.w3.org/1999/xlink" x="0" y="0" width="528" height="528" viewBox="0, 0, 48, 48">
  <g id="Layer_1">
    <path d="M23,44 C25.21,44 27,42.21 27,40 L19,40 C19,42.21 20.79,44 23,44 z M36,21 C36,14.85 31.73,9.72 26,8.36 L26,7 C26,5.34 24.66,4 23,4 C21.34,4 20,5.34 20,7 L20,8.36 C18.98,8.6 18.02,9 17.11,9.47 L36,28.36 L36,21 z M35.46,38 L39.46,42 L42,39.45 L8.55,6 L6,8.55 L11.84,14.39 C10.68,16.32 10,18.58 10,21 L10,32 L6,36 L6,38 L35.46,38 z" fill="#000000"/>
  </g>
</svg>
