<?xml version="1.0" encoding="UTF-8"?>
<!DOCTYPE svg PUBLIC "-//W3C//DTD SVG 1.1//EN" "http://www.w3.org/Graphics/SVG/1.1/DTD/svg11.dtd">
<svg version="1.1" xmlns="http://www.w3.org/2000/svg" xmlns:xlink="http://www.w3.org/1999/xlink" x="0" y="0" width="528" height="528" viewBox="0, 0, 48, 48">
  <g id="Layer_1">
    <path d="M8,8 L22,8 L22,4 L8,4 C5.79,4 4,5.79 4,8 L4,22 L8,22 L8,8 z M20,26 L12,36 L36,36 L30,28 L25.94,33.42 L20,26 z M34,17 C34,15.34 32.66,14 31,14 C29.34,14 28,15.34 28,17 C28,18.66 29.34,20 31,20 C32.66,20 34,18.66 34,17 z M40,4 L26,4 L26,8 L40,8 L40,22 L44,22 L44,8 C44,5.79 42.21,4 40,4 z M40,40 L26,40 L26,44 L40,44 C42.21,44 44,42.21 44,40 L44,26 L40,26 L40,40 z M8,26 L4,26 L4,40 C4,42.21 5.79,44 8,44 L22,44 L22,40 L8,40 L8,26 z" fill="#000000"/>
  </g>
</svg>
