<?xml version="1.0" encoding="UTF-8"?>
<!DOCTYPE svg PUBLIC "-//W3C//DTD SVG 1.1//EN" "http://www.w3.org/Graphics/SVG/1.1/DTD/svg11.dtd">
<svg version="1.1" xmlns="http://www.w3.org/2000/svg" xmlns:xlink="http://www.w3.org/1999/xlink" x="0" y="0" width="528" height="528" viewBox="0, 0, 48, 48">
  <g id="Layer_1">
    <path d="M20,18 L28,18 L28,12 L34,12 L24,2 L14,12 L20,12 L20,18 z M18,20 L12,20 L12,14 L2,24 L12,34 L12,28 L18,28 L18,20 z M46,24 L36,14 L36,20 L30,20 L30,28 L36,28 L36,34 L46,24 z M28,30 L20,30 L20,36 L14,36 L24,46 L34,36 L28,36 L28,30 z" fill="#000000"/>
  </g>
</svg>
