<?xml version="1.0" encoding="UTF-8"?>
<!DOCTYPE svg PUBLIC "-//W3C//DTD SVG 1.1//EN" "http://www.w3.org/Graphics/SVG/1.1/DTD/svg11.dtd">
<svg version="1.1" xmlns="http://www.w3.org/2000/svg" xmlns:xlink="http://www.w3.org/1999/xlink" x="0" y="0" width="528" height="528" viewBox="0, 0, 48, 48">
  <g id="Layer_1">
    <path d="M6,10 L6,22 L16,22 L14,14 L22,16 L22,6 L10,6 C7.79,6 6,7.79 6,10 z M16,26 L6,26 L6,38 C6,40.21 7.79,42 10,42 L22,42 L22,32 L14,34 L16,26 z M34,34 L26,32 L26,42 L38,42 C40.21,42 42,40.21 42,38 L42,26 L32,26 L34,34 z M38,6 L26,6 L26,16 L34,14 L32,22 L42,22 L42,10 C42,7.79 40.21,6 38,6 z" fill="#000000"/>
  </g>
</svg>
