<?xml version="1.0" encoding="UTF-8"?>
<!DOCTYPE svg PUBLIC "-//W3C//DTD SVG 1.1//EN" "http://www.w3.org/Graphics/SVG/1.1/DTD/svg11.dtd">
<svg version="1.1" xmlns="http://www.w3.org/2000/svg" xmlns:xlink="http://www.w3.org/1999/xlink" x="0" y="0" width="528" height="528" viewBox="0, 0, 48, 48">
  <g id="Layer_1">
    <path d="M22,16 C18.69,16 16,18.69 16,22 C16,25.31 18.69,28 22,28 C25.31,28 28,25.31 28,22 C28,18.69 25.31,16 22,16 z M38,6 L10,6 C7.79,6 6,7.79 6,10 L6,38 C6,40.21 7.79,42 10,42 L38,42 C40.21,42 42,40.21 42,38 L42,10 C42,7.79 40.21,6 38,6 z M35.17,38 L27.51,30.34 C25.93,31.38 24.04,32 22,32 C16.48,32 12,27.52 12,22 C12,16.48 16.48,12 22,12 C27.52,12 32,16.48 32,22 C32,24.04 31.38,25.93 30.34,27.51 L38,35.17 L35.17,38 z" fill="#000000"/>
  </g>
</svg>
