<?xml version="1.0" encoding="UTF-8"?>
<!DOCTYPE svg PUBLIC "-//W3C//DTD SVG 1.1//EN" "http://www.w3.org/Graphics/SVG/1.1/DTD/svg11.dtd">
<svg version="1.1" xmlns="http://www.w3.org/2000/svg" xmlns:xlink="http://www.w3.org/1999/xlink" x="0" y="0" width="528" height="528" viewBox="0, 0, 48, 48">
  <g id="Layer_1">
    <path d="M24,6 C14.06,6 6,14.06 6,24 C6,33.94 14.06,42 24,42 C25.66,42 27,40.66 27,39 C27,38.22 26.71,37.52 26.22,36.99 C25.75,36.46 25.47,35.77 25.47,35 C25.47,33.34 26.81,32 28.47,32 L32,32 C37.52,32 42,27.52 42,22 C42,13.16 33.94,6 24,6 z M13,24 C11.34,24 10,22.66 10,21 C10,19.34 11.34,18 13,18 C14.66,18 16,19.34 16,21 C16,22.66 14.66,24 13,24 z M19,16 C17.34,16 16,14.66 16,13 C16,11.34 17.34,10 19,10 C20.66,10 22,11.34 22,13 C22,14.66 20.66,16 19,16 z M29,16 C27.34,16 26,14.66 26,13 C26,11.34 27.34,10 29,10 C30.66,10 32,11.34 32,13 C32,14.66 30.66,16 29,16 z M35,24 C33.34,24 32,22.66 32,21 C32,19.34 33.34,18 35,18 C36.66,18 38,19.34 38,21 C38,22.66 36.66,24 35,24 z" fill="#000000"/>
  </g>
</svg>
