<?xml version="1.0" encoding="UTF-8"?>
<!DOCTYPE svg PUBLIC "-//W3C//DTD SVG 1.1//EN" "http://www.w3.org/Graphics/SVG/1.1/DTD/svg11.dtd">
<svg version="1.1" xmlns="http://www.w3.org/2000/svg" xmlns:xlink="http://www.w3.org/1999/xlink" x="0" y="0" width="528" height="528" viewBox="0, 0, 48, 48">
  <g id="Layer_1">
    <path d="M40,13.09 L40,34.91 C34.81,33.37 29.44,32.59 24,32.59 C18.56,32.59 13.2,33.37 8,34.91 L8,13.09 C13.19,14.63 18.56,15.41 24,15.41 C29.44,15.41 34.8,14.63 40,13.09 M42.86,8 C42.67,8 42.46,8.04 42.24,8.12 C36.36,10.31 30.18,11.41 24,11.41 C17.82,11.41 11.64,10.31 5.76,8.12 C5.54,8.04 5.33,8 5.13,8 C4.47,8 4,8.47 4,9.25 L4,38.75 C4.01,39.53 4.47,40 5.13,40 C5.32,40 5.53,39.96 5.75,39.88 C11.63,37.69 17.81,36.59 23.99,36.59 C30.17,36.59 36.35,37.69 42.23,39.88 C42.45,39.96 42.66,40 42.85,40 C43.51,40 43.99,39.53 43.98,38.75 L43.98,9.25 C44,8.47 43.52,8 42.86,8 z" fill="#000000"/>
  </g>
</svg>
