<?xml version="1.0" encoding="UTF-8"?>
<!DOCTYPE svg PUBLIC "-//W3C//DTD SVG 1.1//EN" "http://www.w3.org/Graphics/SVG/1.1/DTD/svg11.dtd">
<svg version="1.1" xmlns="http://www.w3.org/2000/svg" xmlns:xlink="http://www.w3.org/1999/xlink" x="0" y="0" width="528" height="528" viewBox="0, 0, 48, 48">
  <g id="Layer_1">
    <path d="M39.88,42.24 C37.69,36.36 36.59,30.18 36.59,24 C36.59,17.82 37.69,11.64 39.88,5.76 C39.96,5.54 40,5.33 40,5.13 C40,4.47 39.53,4 38.75,4 L9.25,4 C8.47,4.01 8,4.47 8,5.13 C8,5.32 8.04,5.53 8.12,5.75 C10.31,11.63 11.41,17.81 11.41,23.99 C11.41,30.17 10.31,36.35 8.12,42.23 C8.04,42.46 8,42.67 8,42.87 C8,43.53 8.47,44 9.25,44 L38.75,44 C39.53,44 40,43.52 40,42.86 C40,42.67 39.96,42.46 39.88,42.24 z M13.09,40 C14.63,34.81 15.41,29.44 15.41,24 C15.41,18.56 14.63,13.2 13.09,8 L34.91,8 C33.37,13.19 32.59,18.56 32.59,24 C32.59,29.44 33.37,34.8 34.91,40 L13.09,40 z" fill="#000000"/>
  </g>
</svg>
