<?xml version="1.0" encoding="UTF-8"?>
<!DOCTYPE svg PUBLIC "-//W3C//DTD SVG 1.1//EN" "http://www.w3.org/Graphics/SVG/1.1/DTD/svg11.dtd">
<svg version="1.1" xmlns="http://www.w3.org/2000/svg" xmlns:xlink="http://www.w3.org/1999/xlink" x="0" y="0" width="528" height="528" viewBox="0, 0, 48, 48">
  <g id="Layer_1">
    <path d="M24,12 C28.9,12 33.42,12.39 38.58,13.27 C39.52,16.84 40,20.45 40,24 C40,27.55 39.52,31.16 38.58,34.73 C33.42,35.61 28.9,36 24,36 C19.1,36 14.58,35.61 9.42,34.73 C8.48,31.16 8,27.55 8,24 C8,20.45 8.48,16.84 9.42,13.27 C14.58,12.39 19.1,12 24,12 M24,8 C18.54,8 13.55,8.48 8.09,9.44 L6.24,9.77 L5.74,11.56 C4.58,15.7 4,19.85 4,24 C4,28.15 4.58,32.3 5.74,36.44 L6.24,38.23 L8.09,38.56 C13.55,39.52 18.54,40 24,40 C29.46,40 34.45,39.52 39.91,38.56 L41.76,38.23 L42.26,36.44 C43.42,32.3 44,28.15 44,24 C44,19.85 43.42,15.7 42.26,11.56 L41.76,9.77 L39.91,9.44 C34.45,8.48 29.46,8 24,8 z" fill="#000000"/>
  </g>
</svg>
