<?xml version="1.0" encoding="UTF-8"?>
<!DOCTYPE svg PUBLIC "-//W3C//DTD SVG 1.1//EN" "http://www.w3.org/Graphics/SVG/1.1/DTD/svg11.dtd">
<svg version="1.1" xmlns="http://www.w3.org/2000/svg" xmlns:xlink="http://www.w3.org/1999/xlink" x="0" y="0" width="528" height="528" viewBox="0, 0, 48, 48">
  <g id="Layer_1">
    <path d="M16,20 L10,20 L10,14 L6,14 L6,20 L0,20 L0,24 L6,24 L6,30 L10,30 L10,24 L16,24 L16,20 z M36,22 C39.31,22 41.98,19.31 41.98,16 C41.98,12.69 39.31,10 36,10 C35.36,10 34.75,10.1 34.17,10.29 C35.3,11.91 35.98,13.88 35.98,16 C35.98,18.12 35.3,20.09 34.17,21.71 C34.75,21.9 35.36,22 36,22 z M26,22 C29.31,22 31.98,19.31 31.98,16 C31.98,12.69 29.31,10 26,10 C22.69,10 20,12.69 20,16 C20,19.31 22.69,22 26,22 z M39.24,26.32 C40.9,27.77 42,29.64 42,32 L42,36 L48,36 L48,32 C48,28.92 43.25,27.03 39.24,26.32 z M26,26 C22,26 14,28 14,32 L14,36 L38,36 L38,32 C38,28 30,26 26,26 z" fill="#000000"/>
  </g>
</svg>
