<?xml version="1.0" encoding="UTF-8"?>
<!DOCTYPE svg PUBLIC "-//W3C//DTD SVG 1.1//EN" "http://www.w3.org/Graphics/SVG/1.1/DTD/svg11.dtd">
<svg version="1.1" xmlns="http://www.w3.org/2000/svg" xmlns:xlink="http://www.w3.org/1999/xlink" x="0" y="0" width="528" height="528" viewBox="0, 0, 48, 48">
  <g id="Layer_1">
    <path d="M32,22 C35.31,22 37.98,19.31 37.98,16 C37.98,12.69 35.31,10 32,10 C28.69,10 26,12.69 26,16 C26,19.31 28.69,22 32,22 z M16,22 C19.31,22 21.98,19.31 21.98,16 C21.98,12.69 19.31,10 16,10 C12.69,10 10,12.69 10,16 C10,19.31 12.69,22 16,22 z M16,26 C11.33,26 2,28.34 2,33 L2,38 L30,38 L30,33 C30,28.34 20.67,26 16,26 z M32,26 C31.42,26 30.77,26.04 30.07,26.11 C32.39,27.78 34,30.03 34,33 L34,38 L46,38 L46,33 C46,28.34 36.67,26 32,26 z" fill="#000000"/>
  </g>
</svg>
