<?xml version="1.0" encoding="UTF-8"?>
<!DOCTYPE svg PUBLIC "-//W3C//DTD SVG 1.1//EN" "http://www.w3.org/Graphics/SVG/1.1/DTD/svg11.dtd">
<svg version="1.1" xmlns="http://www.w3.org/2000/svg" xmlns:xlink="http://www.w3.org/1999/xlink" x="0" y="0" width="528" height="528" viewBox="0, 0, 48, 48">
  <g id="Layer_1">
    <path d="M33,26 C30.59,26 26.85,26.67 24,28.01 C21.15,26.67 17.41,26 15,26 C10.67,26 2,28.17 2,32.5 L2,38 L46,38 L46,32.5 C46,28.17 37.33,26 33,26 z M25,35 L5,35 L5,32.5 C5,31.43 10.12,29 15,29 C19.88,29 25,31.43 25,32.5 L25,35 z M43,35 L28,35 L28,32.5 C28,31.59 27.6,30.78 26.96,30.06 C28.73,29.46 30.89,29 33,29 C37.88,29 43,31.43 43,32.5 L43,35 z M15,24 C18.87,24 22,20.86 22,17 C22,13.14 18.87,10 15,10 C11.14,10 8,13.14 8,17 C8,20.86 11.14,24 15,24 z M15,13 C17.21,13 19,14.79 19,17 C19,19.21 17.21,21 15,21 C12.79,21 11,19.21 11,17 C11,14.79 12.79,13 15,13 z M33,24 C36.87,24 40,20.86 40,17 C40,13.14 36.87,10 33,10 C29.14,10 26,13.14 26,17 C26,20.86 29.14,24 33,24 z M33,13 C35.21,13 37,14.79 37,17 C37,19.21 35.21,21 33,21 C30.79,21 29,19.21 29,17 C29,14.79 30.79,13 33,13 z" fill="#000000"/>
  </g>
</svg>
