<?xml version="1.0" encoding="UTF-8"?>
<!DOCTYPE svg PUBLIC "-//W3C//DTD SVG 1.1//EN" "http://www.w3.org/Graphics/SVG/1.1/DTD/svg11.dtd">
<svg version="1.1" xmlns="http://www.w3.org/2000/svg" xmlns:xlink="http://www.w3.org/1999/xlink" x="0" y="0" width="528" height="528" viewBox="0, 0, 48, 48">
  <g id="Layer_1">
    <path d="M30,24 C34.42,24 38,20.41 38,16 C38,11.58 34.42,8 30,8 C25.58,8 22,11.58 22,16 C22,20.41 25.58,24 30,24 z M12,20 L12,14 L8,14 L8,20 L2,20 L2,24 L8,24 L8,30 L12,30 L12,24 L18,24 L18,20 L12,20 z M30,28 C24.67,28 14,30.67 14,36 L14,40 L46,40 L46,36 C46,30.67 35.33,28 30,28 z" fill="#000000"/>
  </g>
</svg>
