<?xml version="1.0" encoding="UTF-8"?>
<!DOCTYPE svg PUBLIC "-//W3C//DTD SVG 1.1//EN" "http://www.w3.org/Graphics/SVG/1.1/DTD/svg11.dtd">
<svg version="1.1" xmlns="http://www.w3.org/2000/svg" xmlns:xlink="http://www.w3.org/1999/xlink" x="0" y="0" width="528" height="528" viewBox="0, 0, 48, 48">
  <g id="Layer_1">
    <path d="M24,11.8 C26.32,11.8 28.2,13.68 28.2,16 C28.2,18.32 26.32,20.2 24,20.2 C21.68,20.2 19.8,18.32 19.8,16 C19.8,13.68 21.68,11.8 24,11.8 M24,29.8 C29.95,29.8 36.2,32.71 36.2,34 L36.2,36.2 L11.8,36.2 L11.8,34 C11.8,32.71 18.05,29.8 24,29.8 M24,8 C19.58,8 16,11.58 16,16 C16,20.41 19.58,24 24,24 C28.42,24 32,20.41 32,16 C32,11.58 28.42,8 24,8 z M24,26 C18.67,26 8,28.67 8,34 L8,40 L40,40 L40,34 C40,28.67 29.33,26 24,26 z" fill="#000000"/>
  </g>
</svg>
