<?xml version="1.0" encoding="UTF-8"?>
<!DOCTYPE svg PUBLIC "-//W3C//DTD SVG 1.1//EN" "http://www.w3.org/Graphics/SVG/1.1/DTD/svg11.dtd">
<svg version="1.1" xmlns="http://www.w3.org/2000/svg" xmlns:xlink="http://www.w3.org/1999/xlink" x="0" y="0" width="528" height="528" viewBox="0, 0, 48, 48">
  <g id="Layer_1">
    <path d="M13,11 L24,22 L38,8 L36,6 L24,18 L15,9 L22,9 L22,6 L10,6 L10,18 L13,18 L13,11 z M47.41,33.34 C41.32,27.55 33.07,24 24,24 C14.93,24 6.68,27.55 0.59,33.34 C0.22,33.71 0,34.21 0,34.76 C0,35.31 0.22,35.81 0.59,36.17 L5.54,41.13 C5.9,41.49 6.4,41.72 6.96,41.72 C7.5,41.72 8,41.5 8.36,41.15 C9.94,39.68 11.74,38.43 13.69,37.44 C14.35,37.11 14.81,36.43 14.81,35.64 L14.81,29.43 C17.7,28.5 20.79,28 24,28 C27.21,28 30.3,28.5 33.2,29.44 L33.2,35.65 C33.2,36.44 33.66,37.12 34.32,37.45 C36.27,38.43 38.07,39.68 39.65,41.16 C40.01,41.51 40.5,41.73 41.05,41.73 C41.6,41.73 42.1,41.51 42.47,41.14 L47.42,36.18 C47.78,35.82 48.01,35.32 48.01,34.77 C48.01,34.22 47.78,33.71 47.41,33.34 z" fill="#000000"/>
  </g>
</svg>
