<?xml version="1.0" encoding="UTF-8"?>
<!DOCTYPE svg PUBLIC "-//W3C//DTD SVG 1.1//EN" "http://www.w3.org/Graphics/SVG/1.1/DTD/svg11.dtd">
<svg version="1.1" xmlns="http://www.w3.org/2000/svg" xmlns:xlink="http://www.w3.org/1999/xlink" x="0" y="0" width="528" height="528" viewBox="0, 0, 48, 48">
  <g id="Layer_1">
    <path d="M34,6 L32,6 L32,16 L34,16 L34,6 z M30,10 L26,10 L26,8 L30,8 L30,6 L24,6 L24,12 L28,12 L28,14 L24,14 L24,16 L30,16 L30,10 z M36,6 L36,16 L38,16 L38,12 L42,12 L42,6 L36,6 z M40,10 L38,10 L38,8 L40,8 L40,10 z M40,31 C37.51,31 35.11,30.6 32.86,29.86 C32.17,29.64 31.38,29.8 30.83,30.35 L26.43,34.76 C20.77,31.88 16.14,27.25 13.25,21.59 L17.65,17.18 C18.2,16.63 18.36,15.84 18.14,15.15 C17.4,12.9 17,10.49 17,8 C17,6.89 16.11,6 15,6 L8,6 C6.89,6 6,6.89 6,8 C6,26.78 21.22,42 40,42 C41.11,42 42,41.11 42,40 L42,33 C42,31.89 41.11,31 40,31 z" fill="#000000"/>
  </g>
</svg>
