<?xml version="1.0" encoding="UTF-8"?>
<!DOCTYPE svg PUBLIC "-//W3C//DTD SVG 1.1//EN" "http://www.w3.org/Graphics/SVG/1.1/DTD/svg11.dtd">
<svg version="1.1" xmlns="http://www.w3.org/2000/svg" xmlns:xlink="http://www.w3.org/1999/xlink" x="0" y="0" width="528" height="528" viewBox="0, 0, 48, 48">
  <g id="Layer_1">
    <path d="M47.41,33.34 C41.32,27.55 33.07,24 24,24 C14.93,24 6.68,27.55 0.59,33.34 C0.22,33.7 0,34.21 0,34.76 C0,35.31 0.22,35.81 0.59,36.17 L5.54,41.12 C5.9,41.48 6.4,41.71 6.95,41.71 C7.49,41.71 7.99,41.49 8.35,41.14 C9.94,39.67 11.73,38.42 13.68,37.44 C14.34,37.11 14.8,36.43 14.8,35.64 L14.8,29.43 C17.7,28.5 20.79,28 24,28 C27.21,28 30.3,28.5 33.2,29.44 L33.2,35.65 C33.2,36.44 33.66,37.12 34.32,37.45 C36.27,38.43 38.07,39.68 39.65,41.15 C40.01,41.5 40.5,41.72 41.05,41.72 C41.6,41.72 42.1,41.5 42.47,41.13 L47.42,36.18 C47.78,35.82 48.01,35.32 48.01,34.77 C48,34.21 47.78,33.7 47.41,33.34 z M42.32,12.51 L39.49,9.68 L32.37,16.8 L35.2,19.63 C35.2,19.63 42.1,12.59 42.32,12.51 z M26,4 L22,4 L22,14 L26,14 L26,4 z M12.8,19.63 L15.63,16.8 L8.51,9.68 L5.68,12.51 C5.9,12.59 12.8,19.63 12.8,19.63 z" fill="#000000"/>
  </g>
</svg>
