<?xml version="1.0" encoding="UTF-8"?>
<!DOCTYPE svg PUBLIC "-//W3C//DTD SVG 1.1//EN" "http://www.w3.org/Graphics/SVG/1.1/DTD/svg11.dtd">
<svg version="1.1" xmlns="http://www.w3.org/2000/svg" xmlns:xlink="http://www.w3.org/1999/xlink" x="0" y="0" width="528" height="528" viewBox="0, 0, 48, 48">
  <g id="Layer_1">
    <path d="M40,31 C37.51,31 35.1,30.6 32.86,29.86 C32.17,29.64 31.38,29.8 30.83,30.35 L26.43,34.76 C20.76,31.88 16.14,27.25 13.25,21.59 L17.65,17.18 C18.2,16.63 18.36,15.84 18.14,15.15 C17.4,12.9 17,10.49 17,8 C17,6.89 16.11,6 15,6 L8,6 C6.9,6 6,6.89 6,8 C6,26.78 21.22,42 40,42 C41.11,42 42,41.11 42,40 L42,33 C42,31.89 41.11,31 40,31 z M40,8 L40,7 C40,4.24 37.76,2 35,2 C32.24,2 30,4.24 30,7 L30,8 C28.89,8 28,8.9 28,10 L28,18 C28,19.1 28.89,20 30,20 L40,20 C41.11,20 42,19.1 42,18 L42,10 C42,8.9 41.11,8 40,8 z M38.4,8 L31.6,8 L31.6,7 C31.6,5.12 33.12,3.6 35,3.6 C36.88,3.6 38.4,5.12 38.4,7 L38.4,8 z" fill="#000000"/>
  </g>
</svg>
