<?xml version="1.0" encoding="UTF-8"?>
<!DOCTYPE svg PUBLIC "-//W3C//DTD SVG 1.1//EN" "http://www.w3.org/Graphics/SVG/1.1/DTD/svg11.dtd">
<svg version="1.1" xmlns="http://www.w3.org/2000/svg" xmlns:xlink="http://www.w3.org/1999/xlink" x="0" y="0" width="528" height="528" viewBox="0, 0, 48, 48">
  <g id="Layer_1">
    <path d="M29.41,19 L34,14.41 L34,22 L35,22 L40.71,16.29 L36.41,12 L40.7,7.71 L35,2 L34,2 L34,9.59 L29.41,5 L28,6.41 L33.59,12 L28,17.59 L29.41,19 z M36,5.83 L37.88,7.71 L36,9.59 L36,5.83 z M36,14.41 L37.88,16.29 L36,18.17 L36,14.41 z M40,31 C37.51,31 35.11,30.6 32.86,29.86 C32.17,29.64 31.38,29.8 30.83,30.35 L26.43,34.76 C20.76,31.88 16.14,27.25 13.25,21.59 L17.65,17.18 C18.2,16.63 18.36,15.84 18.14,15.15 C17.4,12.9 17,10.49 17,8 C17,6.89 16.11,6 15,6 L8,6 C6.89,6 6,6.89 6,8 C6,26.78 21.22,42 40,42 C41.11,42 42,41.11 42,40 L42,33 C42,31.89 41.11,31 40,31 z" fill="#000000"/>
  </g>
</svg>
