<?xml version="1.0" encoding="UTF-8"?>
<!DOCTYPE svg PUBLIC "-//W3C//DTD SVG 1.1//EN" "http://www.w3.org/Graphics/SVG/1.1/DTD/svg11.dtd">
<svg version="1.1" xmlns="http://www.w3.org/2000/svg" xmlns:xlink="http://www.w3.org/1999/xlink" x="0" y="0" width="528" height="528" viewBox="0, 0, 48, 48">
  <g id="Layer_1">
    <path d="M18.8,21 L28.33,4.49 C26.94,4.18 25.49,4 24,4 C19.2,4 14.81,5.69 11.36,8.51 L18.69,21.2 L18.8,21 z M43.08,18 C41.24,12.15 36.78,7.48 31.09,5.32 L23.77,18 L43.08,18 z M43.6,20 L28.62,20 L29.2,21 L38.73,37.5 C41.99,33.94 44,29.21 44,24 C44,22.63 43.86,21.29 43.6,20 z M17.07,24 L9.27,10.5 C6.01,14.06 4,18.79 4,24 C4,25.37 4.14,26.71 4.4,28 L19.38,28 L17.07,24 z M4.92,30 C6.76,35.85 11.22,40.52 16.91,42.68 L24.23,30 L4.92,30 z M27.46,30 L19.66,43.51 C21.06,43.82 22.51,44 24,44 C28.8,44 33.19,42.31 36.64,39.49 L29.31,26.8 L27.46,30 z" fill="#000000"/>
  </g>
</svg>
