<?xml version="1.0" encoding="UTF-8"?>
<!DOCTYPE svg PUBLIC "-//W3C//DTD SVG 1.1//EN" "http://www.w3.org/Graphics/SVG/1.1/DTD/svg11.dtd">
<svg version="1.1" xmlns="http://www.w3.org/2000/svg" xmlns:xlink="http://www.w3.org/1999/xlink" x="0" y="0" width="528" height="528" viewBox="0, 0, 48, 48">
  <g id="Layer_1">
    <path d="M28,20 L4,20 L4,24 L28,24 L28,20 z M28,12 L4,12 L4,16 L28,16 L28,12 z M36,28 L36,20 L32,20 L32,28 L24,28 L24,32 L32,32 L32,40 L36,40 L36,32 L44,32 L44,28 L36,28 z M4,32 L20,32 L20,28 L4,28 L4,32 z" fill="#000000"/>
  </g>
</svg>
