<?xml version="1.0" encoding="UTF-8"?>
<!DOCTYPE svg PUBLIC "-//W3C//DTD SVG 1.1//EN" "http://www.w3.org/Graphics/SVG/1.1/DTD/svg11.dtd">
<svg version="1.1" xmlns="http://www.w3.org/2000/svg" xmlns:xlink="http://www.w3.org/1999/xlink" x="0" y="0" width="528" height="528" viewBox="0, 0, 48, 48">
  <g id="Layer_1">
    <path d="M35.12,28.48 C35.68,27.1 36,25.59 36,24 C36,17.37 30.63,12 24,12 C22.41,12 20.9,12.32 19.51,12.88 L22.76,16.13 C23.17,16.06 23.58,16 24,16 C28.42,16 32,19.58 32,24 C32,24.43 31.96,24.85 31.89,25.25 L35.12,28.48 z M24,8 C32.84,8 40,15.16 40,24 C40,26.71 39.3,29.24 38.11,31.47 L41.05,34.41 C42.91,31.38 44,27.82 44,24 C44,12.95 35.04,4 24,4 C20.18,4 16.62,5.09 13.59,6.95 L16.51,9.87 C18.74,8.68 21.29,8 24,8 z M6.54,5 L4,7.55 L8.21,11.76 C5.58,15.14 4,19.38 4,24 C4,31.39 8.02,37.83 13.99,41.29 L15.99,37.83 C11.22,35.07 8,29.91 8,24 C8,20.49 9.14,17.25 11.06,14.61 L13.93,17.48 C12.71,19.36 12,21.59 12,24 C12,28.44 14.41,32.3 17.99,34.38 L20.01,30.9 C17.62,29.51 16,26.96 16,24 C16,22.71 16.34,21.51 16.88,20.43 L20.04,23.59 L20,24 C20,26.21 21.79,28 24,28 L24.41,27.96 L24.43,27.98 L39.45,43 L42,40.45 L8.54,7 L6.54,5 z" fill="#000000"/>
  </g>
</svg>
