<?xml version="1.0" encoding="UTF-8"?>
<!DOCTYPE svg PUBLIC "-//W3C//DTD SVG 1.1//EN" "http://www.w3.org/Graphics/SVG/1.1/DTD/svg11.dtd">
<svg version="1.1" xmlns="http://www.w3.org/2000/svg" xmlns:xlink="http://www.w3.org/1999/xlink" x="0" y="0" width="528" height="528" viewBox="0, 0, 48, 48">
  <g id="Layer_1">
    <path d="M24,24.5 C26.48,24.5 28.5,22.49 28.5,20 C28.5,17.52 26.48,15.5 24,15.5 C21.52,15.5 19.5,17.52 19.5,20 C19.5,22.49 21.52,24.5 24,24.5 z M33,32.5 C33,29.5 27,28 24,28 C21,28 15,29.5 15,32.5 L15,34 L33,34 L33,32.5 z M38,6 L10,6 C7.79,6 6,7.79 6,10 L6,38 C6,40.21 7.79,42 10,42 L38,42 C40.21,42 42,40.21 42,38 L42,10 C42,7.79 40.21,6 38,6 z M38,38 L10,38 L10,10 L38,10 L38,38 z" fill="#000000"/>
  </g>
</svg>
