<?xml version="1.0" encoding="UTF-8"?>
<!DOCTYPE svg PUBLIC "-//W3C//DTD SVG 1.1//EN" "http://www.w3.org/Graphics/SVG/1.1/DTD/svg11.dtd">
<svg version="1.1" xmlns="http://www.w3.org/2000/svg" xmlns:xlink="http://www.w3.org/1999/xlink" x="0" y="0" width="528" height="528" viewBox="0, 0, 48, 48">
  <g id="Layer_1">
    <path d="M38,16 L10,16 C6.69,16 4,18.69 4,22 L4,34 L12,34 L12,42 L36,42 L36,34 L44,34 L44,22 C44,18.69 41.31,16 38,16 z M32,38 L16,38 L16,28 L32,28 L32,38 z M38,24 C36.89,24 36,23.11 36,22 C36,20.89 36.89,20 38,20 C39.11,20 40,20.89 40,22 C40,23.11 39.11,24 38,24 z M36,6 L12,6 L12,14 L36,14 L36,6 z" fill="#000000"/>
  </g>
</svg>
