<?xml version="1.0" encoding="UTF-8"?>
<!DOCTYPE svg PUBLIC "-//W3C//DTD SVG 1.1//EN" "http://www.w3.org/Graphics/SVG/1.1/DTD/svg11.dtd">
<svg version="1.1" xmlns="http://www.w3.org/2000/svg" xmlns:xlink="http://www.w3.org/1999/xlink" x="0" y="0" width="528" height="528" viewBox="0, 0, 48, 48">
  <g id="Layer_1">
    <path d="M24,4 C12.95,4 4,12.95 4,24 C4,35.05 12.95,44 24,44 C35.05,44 44,35.05 44,24 C44,12.95 35.05,4 24,4 z M22,39.86 C14.11,38.88 8,32.16 8,24 C8,22.77 8.15,21.57 8.42,20.42 L18,30 L18,32 C18,34.21 19.79,36 22,36 L22,39.86 z M35.79,34.79 C35.28,33.17 33.78,32 32,32 L30,32 L30,26 C30,24.9 29.1,24 28,24 L16,24 L16,20 L20,20 C21.1,20 22,19.1 22,18 L22,14 L26,14 C28.21,14 30,12.21 30,10 L30,9.17 C35.86,11.54 40,17.28 40,24 C40,28.16 38.4,31.94 35.79,34.79 z" fill="#000000"/>
  </g>
</svg>
