<?xml version="1.0" encoding="UTF-8"?>
<!DOCTYPE svg PUBLIC "-//W3C//DTD SVG 1.1//EN" "http://www.w3.org/Graphics/SVG/1.1/DTD/svg11.dtd">
<svg version="1.1" xmlns="http://www.w3.org/2000/svg" xmlns:xlink="http://www.w3.org/1999/xlink" x="0" y="0" width="528" height="528" viewBox="0, 0, 48, 48">
  <g id="Layer_1">
    <path d="M36,34 L12,34 L12,30 L36,30 L36,34 z M36,26 L12,26 L12,22 L36,22 L36,26 z M36,18 L12,18 L12,14 L36,14 L36,18 z M6,44 L9,41 L12,44 L15,41 L18,44 L21,41 L24,44 L27,41 L30,44 L33,41 L36,44 L39,41 L42,44 L42,4 L39,7 L36,4 L33,7 L30,4 L27,7 L24,4 L21,7 L18,4 L15,7 L12,4 L9,7 L6,4 L6,44 z" fill="#000000"/>
  </g>
</svg>
