<?xml version="1.0" encoding="UTF-8"?>
<!DOCTYPE svg PUBLIC "-//W3C//DTD SVG 1.1//EN" "http://www.w3.org/Graphics/SVG/1.1/DTD/svg11.dtd">
<svg version="1.1" xmlns="http://www.w3.org/2000/svg" xmlns:xlink="http://www.w3.org/1999/xlink" x="0" y="0" width="528" height="528" viewBox="0, 0, 48, 48">
  <g id="Layer_1">
    <path d="M46,24 L41.12,18.44 L41.8,11.07 L34.58,9.44 L30.8,3.08 L24,6 L17.2,3.08 L13.42,9.44 L6.2,11.07 L6.88,18.44 L2,24 L6.88,29.56 L6.2,36.93 L13.42,38.56 L17.2,44.92 L24,42 L30.8,44.92 L34.58,38.56 L41.8,36.93 L41.12,29.56 L46,24 z M26,34 L22,34 L22,30 L26,30 L26,34 z M26,26 L22,26 L22,14 L26,14 L26,26 z" fill="#000000"/>
  </g>
</svg>
