<?xml version="1.0" encoding="UTF-8"?>
<!DOCTYPE svg PUBLIC "-//W3C//DTD SVG 1.1//EN" "http://www.w3.org/Graphics/SVG/1.1/DTD/svg11.dtd">
<svg version="1.1" xmlns="http://www.w3.org/2000/svg" xmlns:xlink="http://www.w3.org/1999/xlink" x="0" y="0" width="528" height="528" viewBox="0, 0, 48, 48">
  <g id="Layer_1">
    <path d="M31.1,11.1 L22,2 L22,8.14 C14.11,9.12 8,15.84 8,24 C8,32.16 14.11,38.88 22,39.86 L22,35.82 C16.33,34.87 12,29.94 12,24 C12,18.06 16.33,13.13 22,12.18 L22,20 L31.1,11.1 z M39.86,22 C39.52,19.22 38.41,16.54 36.61,14.22 L33.78,17.05 C34.85,18.56 35.53,20.25 35.82,22 L39.86,22 z M26,35.81 L26,39.86 C28.78,39.52 31.48,38.44 33.8,36.64 L30.93,33.77 C29.43,34.83 27.75,35.51 26,35.81 z M33.78,30.95 L36.61,33.78 C38.41,31.46 39.52,28.78 39.86,26 L35.82,26 C35.53,27.75 34.85,29.44 33.78,30.95 z" fill="#000000"/>
  </g>
</svg>
