<?xml version="1.0" encoding="UTF-8"?>
<!DOCTYPE svg PUBLIC "-//W3C//DTD SVG 1.1//EN" "http://www.w3.org/Graphics/SVG/1.1/DTD/svg11.dtd">
<svg version="1.1" xmlns="http://www.w3.org/2000/svg" xmlns:xlink="http://www.w3.org/1999/xlink" x="0" y="0" width="528" height="528" viewBox="0, 0, 48, 48">
  <g id="Layer_1">
    <path d="M14.22,17.05 L11.39,14.22 C9.59,16.54 8.48,19.22 8.14,22 L12.18,22 C12.47,20.25 13.15,18.56 14.22,17.05 z M12.18,26 L8.14,26 C8.48,28.78 9.59,31.46 11.39,33.78 L14.22,30.95 C13.15,29.44 12.47,27.75 12.18,26 z M14.2,36.63 C16.52,38.44 19.22,39.51 22,39.85 L22,35.81 C20.25,35.52 18.57,34.83 17.07,33.76 L14.2,36.63 z M26,8.14 L26,2 L16.9,11.1 L26,20 L26,12.18 C31.67,13.13 36,18.06 36,24 C36,29.94 31.67,34.87 26,35.82 L26,39.86 C33.89,38.87 40,32.16 40,24 C40,15.84 33.89,9.13 26,8.14 z" fill="#000000"/>
  </g>
</svg>
