<?xml version="1.0" encoding="UTF-8"?>
<!DOCTYPE svg PUBLIC "-//W3C//DTD SVG 1.1//EN" "http://www.w3.org/Graphics/SVG/1.1/DTD/svg11.dtd">
<svg version="1.1" xmlns="http://www.w3.org/2000/svg" xmlns:xlink="http://www.w3.org/1999/xlink" x="0" y="0" width="528" height="528" viewBox="0, 0, 48, 48">
  <g id="Layer_1">
    <path d="M38,6 L10,6 C7.79,6 6,7.79 6,10 L6,38 C6,40.21 7.79,42 10,42 L38,42 C40.21,42 42,40.21 42,38 L42,10 C42,7.79 40.21,6 38,6 z M10,9.98 L16,9.98 C16,13.29 13.31,16 10,16 L10,9.98 z M10,24 L10,20 C15.52,20 20,15.5 20,9.98 L24,9.98 C24,17.71 17.73,24 10,24 z M10,36 L17,27 L22,33.01 L29,24 L38,36 L10,36 z" fill="#000000"/>
  </g>
</svg>
