<?xml version="1.0" encoding="UTF-8"?>
<!DOCTYPE svg PUBLIC "-//W3C//DTD SVG 1.1//EN" "http://www.w3.org/Graphics/SVG/1.1/DTD/svg11.dtd">
<svg version="1.1" xmlns="http://www.w3.org/2000/svg" xmlns:xlink="http://www.w3.org/1999/xlink" x="0" y="0" width="528" height="528" viewBox="0, 0, 48, 48">
  <g id="Layer_1">
    <path d="M34,6 L10,6 C7.79,6 6,7.79 6,10 L6,38 C6,40.21 7.79,42 10,42 L38,42 C40.21,42 42,40.21 42,38 L42,14 L34,6 z M24,38 C20.69,38 18,35.31 18,32 C18,28.69 20.69,26 24,26 C27.31,26 30,28.69 30,32 C30,35.31 27.31,38 24,38 z M30,18 L10,18 L10,10 L30,10 L30,18 z" fill="#000000"/>
  </g>
</svg>
