<?xml version="1.0" encoding="UTF-8"?>
<!DOCTYPE svg PUBLIC "-//W3C//DTD SVG 1.1//EN" "http://www.w3.org/Graphics/SVG/1.1/DTD/svg11.dtd">
<svg version="1.1" xmlns="http://www.w3.org/2000/svg" xmlns:xlink="http://www.w3.org/1999/xlink" x="0" y="0" width="528" height="528" viewBox="0, 0, 48, 48">
  <g id="Layer_1">
    <path d="M36,4 L20,4 L8.04,16 L8,40 C8,42.2 9.8,44 12,44 L36,44 C38.2,44 40,42.2 40,40 L40,8 C40,5.8 38.2,4 36,4 z M24,16 L20,16 L20,8 L24,8 L24,16 z M30,16 L26,16 L26,8 L30,8 L30,16 z M36,16 L32,16 L32,8 L36,8 L36,16 z" fill="#000000"/>
  </g>
</svg>
