<?xml version="1.0" encoding="UTF-8"?>
<!DOCTYPE svg PUBLIC "-//W3C//DTD SVG 1.1//EN" "http://www.w3.org/Graphics/SVG/1.1/DTD/svg11.dtd">
<svg version="1.1" xmlns="http://www.w3.org/2000/svg" xmlns:xlink="http://www.w3.org/1999/xlink" x="0" y="0" width="528" height="528" viewBox="0, 0, 48, 48">
  <g id="Layer_1">
    <path d="M31,28 L29.41,28 L28.86,27.45 C30.82,25.18 32,22.23 32,19 C32,11.82 26.18,6 19,6 C11.82,6 6,11.82 6,19 C6,26.18 11.82,32 19,32 C22.23,32 25.18,30.82 27.45,28.87 L28,29.42 L28,31 L38,40.98 L40.98,38 L31,28 z M19,28 C14.03,28 10,23.97 10,19 C10,14.03 14.03,10 19,10 C23.97,10 28,14.03 28,19 C28,23.97 23.97,28 19,28 z" fill="#000000"/>
  </g>
</svg>
