<?xml version="1.0" encoding="UTF-8"?>
<!DOCTYPE svg PUBLIC "-//W3C//DTD SVG 1.1//EN" "http://www.w3.org/Graphics/SVG/1.1/DTD/svg11.dtd">
<svg version="1.1" xmlns="http://www.w3.org/2000/svg" xmlns:xlink="http://www.w3.org/1999/xlink" x="0" y="0" width="528" height="528" viewBox="0, 0, 48, 48">
  <g id="Layer_1">
    <path d="M28,24 C28,21.79 26.21,20 24,20 C21.79,20 20,21.79 20,24 C20,26.21 21.79,28 24,28 C26.21,28 28,26.21 28,24 z M24,6 C14.06,6 6,14.06 6,24 L0,24 L8,32 L16,24 L10,24 C10,16.27 16.27,10 24,10 C31.73,10 38,16.27 38,24 C38,31.73 31.73,38 24,38 C20.97,38 18.18,37.03 15.88,35.39 L13.05,38.26 C16.09,40.6 19.88,42 24,42 C33.94,42 42,33.94 42,24 C42,14.06 33.94,6 24,6 z" fill="#000000"/>
  </g>
</svg>
