<?xml version="1.0" encoding="UTF-8"?>
<!DOCTYPE svg PUBLIC "-//W3C//DTD SVG 1.1//EN" "http://www.w3.org/Graphics/SVG/1.1/DTD/svg11.dtd">
<svg version="1.1" xmlns="http://www.w3.org/2000/svg" xmlns:xlink="http://www.w3.org/1999/xlink" x="0" y="0" width="528" height="528" viewBox="0, 0, 48, 48">
  <g id="Layer_1">
    <path d="M24,20 C21.79,20 20,21.79 20,24 C20,26.21 21.79,28 24,28 C26.21,28 28,26.21 28,24 C28,21.79 26.21,20 24,20 z M38,6 L10,6 C7.79,6 6,7.79 6,10 L6,38 C6,40.21 7.79,42 10,42 L38,42 C40.21,42 42,40.21 42,38 L42,10 C42,7.79 40.21,6 38,6 z M34.5,24 C34.5,24.46 34.46,24.92 34.4,25.37 L37.36,27.69 C37.62,27.9 37.7,28.28 37.52,28.58 L34.72,33.43 C34.55,33.73 34.18,33.85 33.86,33.73 L30.37,32.32 C29.65,32.88 28.86,33.34 28,33.7 L27.48,37.41 C27.44,37.74 27.15,38 26.8,38 L21.2,38 C20.85,38 20.56,37.74 20.51,37.41 L19.99,33.7 C19.14,33.35 18.35,32.88 17.62,32.32 L14.14,33.72 C13.82,33.84 13.46,33.72 13.28,33.42 L10.48,28.57 C10.3,28.27 10.38,27.89 10.64,27.68 L13.6,25.37 C13.54,24.92 13.5,24.47 13.5,24 C13.5,23.54 13.54,23.08 13.6,22.63 L10.64,20.32 C10.38,20.11 10.3,19.73 10.48,19.43 L13.28,14.58 C13.46,14.28 13.82,14.16 14.14,14.28 L17.62,15.68 C18.34,15.13 19.13,14.66 19.99,14.3 L20.51,10.59 C20.56,10.26 20.85,10 21.2,10 L26.8,10 C27.15,10 27.44,10.26 27.49,10.59 L28.01,14.3 C28.86,14.65 29.65,15.12 30.38,15.68 L33.86,14.28 C34.18,14.16 34.54,14.28 34.72,14.58 L37.52,19.43 C37.7,19.73 37.62,20.11 37.36,20.32 L34.4,22.64 C34.46,23.08 34.5,23.54 34.5,24 z" fill="#000000"/>
  </g>
</svg>
