<?xml version="1.0" encoding="UTF-8"?>
<!DOCTYPE svg PUBLIC "-//W3C//DTD SVG 1.1//EN" "http://www.w3.org/Graphics/SVG/1.1/DTD/svg11.dtd">
<svg version="1.1" xmlns="http://www.w3.org/2000/svg" xmlns:xlink="http://www.w3.org/1999/xlink" x="0" y="0" width="528" height="528" viewBox="0, 0, 48, 48">
  <g id="Layer_1">
    <path d="M38.86,25.95 C38.94,25.31 39,24.66 39,24 C39,23.34 38.94,22.69 38.86,22.05 L43.09,18.74 C43.47,18.44 43.58,17.9 43.33,17.46 L39.33,10.53 C39.08,10.1 38.56,9.92 38.11,10.1 L33.13,12.11 C32.1,11.32 30.97,10.65 29.75,10.14 L29,4.84 C28.91,4.37 28.5,4 28,4 L20,4 C19.5,4 19.09,4.37 19.01,4.84 L18.26,10.14 C17.04,10.65 15.91,11.31 14.88,12.11 L9.9,10.1 C9.45,9.93 8.93,10.1 8.68,10.53 L4.68,17.46 C4.43,17.89 4.54,18.43 4.92,18.74 L9.14,22.05 C9.06,22.69 9,23.34 9,24 C9,24.66 9.06,25.31 9.14,25.95 L4.92,29.26 C4.54,29.56 4.43,30.1 4.68,30.54 L8.68,37.47 C8.93,37.9 9.45,38.08 9.9,37.9 L14.88,35.89 C15.91,36.68 17.04,37.35 18.26,37.86 L19.01,43.16 C19.09,43.63 19.5,44 20,44 L28,44 C28.5,44 28.91,43.63 28.99,43.16 L29.74,37.86 C30.96,37.35 32.09,36.69 33.12,35.89 L38.1,37.9 C38.55,38.07 39.07,37.9 39.32,37.47 L43.32,30.54 C43.57,30.11 43.46,29.57 43.08,29.26 L38.86,25.95 z M24,31 C20.13,31 17,27.87 17,24 C17,20.13 20.13,17 24,17 C27.87,17 31,20.13 31,24 C31,27.87 27.87,31 24,31 z" fill="#000000"/>
  </g>
</svg>
