<?xml version="1.0" encoding="UTF-8"?>
<!DOCTYPE svg PUBLIC "-//W3C//DTD SVG 1.1//EN" "http://www.w3.org/Graphics/SVG/1.1/DTD/svg11.dtd">
<svg version="1.1" xmlns="http://www.w3.org/2000/svg" xmlns:xlink="http://www.w3.org/1999/xlink" x="0" y="0" width="528" height="528" viewBox="0, 0, 48, 48">
  <g id="Layer_1">
    <path d="M18,32 L31,32 C33.76,32 36,29.76 36,27 C36,24.24 33.76,22 31,22 L30.9,22 C30.41,18.61 27.52,16 24,16 C21.2,16 18.8,17.66 17.68,20.04 L17.35,20.04 C14.34,20.36 12,22.91 12,26 C12,29.31 14.69,32 18,32 z M42,6 L6,6 C3.79,6 2,7.79 2,10 L2,38 C2,40.21 3.79,42 6,42 L42,42 C44.21,42 46,40.21 46,38 L46,10 C46,7.79 44.21,6 42,6 z M42,38.03 L6,38.03 L6,9.97 L42,9.97 L42,38.03 z" fill="#000000"/>
  </g>
</svg>
