<?xml version="1.0" encoding="UTF-8"?>
<!DOCTYPE svg PUBLIC "-//W3C//DTD SVG 1.1//EN" "http://www.w3.org/Graphics/SVG/1.1/DTD/svg11.dtd">
<svg version="1.1" xmlns="http://www.w3.org/2000/svg" xmlns:xlink="http://www.w3.org/1999/xlink" x="0" y="0" width="528" height="528" viewBox="0, 0, 48, 48">
  <g id="Layer_1">
    <path d="M30,18 L18,18 C16.89,18 16,18.9 16,20 L16,44 C16,45.1 16.89,46 18,46 L30,46 C31.11,46 32,45.1 32,44 L32,20 C32,18.9 31.11,18 30,18 z M24,30 C21.79,30 20,28.21 20,26 C20,23.79 21.79,22 24,22 C26.21,22 28,23.79 28,26 C28,28.21 26.21,30 24,30 z M14.1,12.1 L16.93,14.93 C18.74,13.12 21.24,12 24,12 C26.76,12 29.26,13.12 31.07,14.93 L33.9,12.1 C31.37,9.57 27.87,8 24,8 C20.13,8 16.63,9.57 14.1,12.1 z M24,0 C17.93,0 12.43,2.46 8.44,6.44 L11.27,9.27 C14.53,6.01 19.03,4 24,4 C28.97,4 33.47,6.01 36.73,9.27 L39.56,6.44 C35.57,2.46 30.07,0 24,0 z" fill="#000000"/>
  </g>
</svg>
