<?xml version="1.0" encoding="UTF-8"?>
<!DOCTYPE svg PUBLIC "-//W3C//DTD SVG 1.1//EN" "http://www.w3.org/Graphics/SVG/1.1/DTD/svg11.dtd">
<svg version="1.1" xmlns="http://www.w3.org/2000/svg" xmlns:xlink="http://www.w3.org/1999/xlink" x="0" y="0" width="528" height="528" viewBox="0, 0, 48, 48">
  <g id="Layer_1">
    <path d="M34.42,18 L25.66,4.89 C25.28,4.31 24.64,4.04 24,4.04 C23.36,4.04 22.72,4.32 22.34,4.89 L13.58,18 L4,18 C2.9,18 2,18.9 2,20 C2,20.19 2.03,20.37 2.07,20.54 L7.14,39.08 C7.61,40.76 9.16,42 11,42 L37,42 C38.84,42 40.39,40.76 40.85,39.07 L45.92,20.53 C45.97,20.37 46,20.19 46,20 C46,18.9 45.1,18 44,18 L34.42,18 z M18,18 L24,9.2 L30,18 L18,18 z M24,34 C21.79,34 20,32.21 20,30 C20,27.79 21.79,26 24,26 C26.21,26 28,27.79 28,30 C28,32.21 26.21,34 24,34 z" fill="#000000"/>
  </g>
</svg>
