<?xml version="1.0" encoding="UTF-8"?>
<!DOCTYPE svg PUBLIC "-//W3C//DTD SVG 1.1//EN" "http://www.w3.org/Graphics/SVG/1.1/DTD/svg11.dtd">
<svg version="1.1" xmlns="http://www.w3.org/2000/svg" xmlns:xlink="http://www.w3.org/1999/xlink" x="0" y="0" width="528" height="528" viewBox="0, 0, 48, 48">
  <g id="Layer_1">
    <path d="M22,18 L26,18 L26,12 L32,12 L32,8 L26,8 L26,2 L22,2 L22,8 L16,8 L16,12 L22,12 L22,18 z M14,36 C11.79,36 10.02,37.79 10.02,40 C10.02,42.21 11.79,44 14,44 C16.21,44 18,42.21 18,40 C18,37.79 16.21,36 14,36 z M34,36 C31.79,36 30.02,37.79 30.02,40 C30.02,42.21 31.79,44 34,44 C36.21,44 38,42.21 38,40 C38,37.79 36.21,36 34,36 z M14.35,29.5 C14.35,29.41 14.37,29.33 14.41,29.26 L16.21,26 L31.11,26 C32.61,26 33.92,25.17 34.61,23.94 L42.33,9.92 L38.83,8 L38.82,8 L36.61,12 L31.1,22 L17.07,22 L16.81,21.46 L12.32,12 L10.42,8 L8.53,4 L2,4 L2,8 L6,8 L13.2,23.17 L10.49,28.07 C10.18,28.65 10,29.3 10,30 C10,32.21 11.79,34 14,34 L38,34 L38,30 L14.85,30 C14.57,30 14.35,29.78 14.35,29.5 z" fill="#000000"/>
  </g>
</svg>
