<?xml version="1.0" encoding="UTF-8"?>
<!DOCTYPE svg PUBLIC "-//W3C//DTD SVG 1.1//EN" "http://www.w3.org/Graphics/SVG/1.1/DTD/svg11.dtd">
<svg version="1.1" xmlns="http://www.w3.org/2000/svg" xmlns:xlink="http://www.w3.org/1999/xlink" x="0" y="0" width="528" height="528" viewBox="0, 0, 48, 48">
  <g id="Layer_1">
    <path d="M37.98,23 C38.66,23 39.34,23.06 40,23.15 L40,0 L0,40 L23.13,40 C23.04,39.34 22.98,38.68 22.98,38 C22.98,29.72 29.7,23 37.98,23 z M45.41,38.98 C45.45,38.66 45.48,38.34 45.48,38 C45.48,37.67 45.45,37.34 45.41,37.02 L47.52,35.37 C47.71,35.22 47.76,34.95 47.64,34.73 L45.64,31.27 C45.52,31.05 45.25,30.97 45.03,31.05 L42.54,32.05 C42.02,31.65 41.46,31.32 40.85,31.07 L40.48,28.42 C40.44,28.18 40.23,28 39.98,28 L35.98,28 C35.73,28 35.52,28.18 35.49,28.42 L35.12,31.07 C34.51,31.32 33.95,31.66 33.43,32.05 L30.94,31.05 C30.71,30.96 30.45,31.05 30.33,31.27 L28.33,34.73 C28.2,34.95 28.26,35.22 28.45,35.37 L30.56,37.02 C30.52,37.34 30.49,37.67 30.49,38 C30.49,38.33 30.52,38.66 30.56,38.98 L28.45,40.63 C28.26,40.78 28.21,41.05 28.33,41.27 L30.33,44.73 C30.46,44.95 30.72,45.03 30.94,44.95 L33.43,43.95 C33.95,44.35 34.51,44.68 35.12,44.93 L35.49,47.58 C35.53,47.82 35.74,48 35.98,48 L39.98,48 C40.23,48 40.43,47.82 40.47,47.58 L40.84,44.93 C41.45,44.68 42.01,44.34 42.53,43.95 L45.02,44.95 C45.25,45.04 45.51,44.95 45.63,44.73 L47.63,41.27 C47.76,41.05 47.7,40.78 47.51,40.63 L45.41,38.98 z M37.98,41 C36.32,41 34.98,39.66 34.98,38 C34.98,36.34 36.32,35 37.98,35 C39.64,35 40.98,36.34 40.98,38 C40.98,39.66 39.64,41 37.98,41 z" fill="#000000"/>
  </g>
</svg>
