<?xml version="1.0" encoding="UTF-8"?>
<!DOCTYPE svg PUBLIC "-//W3C//DTD SVG 1.1//EN" "http://www.w3.org/Graphics/SVG/1.1/DTD/svg11.dtd">
<svg version="1.1" xmlns="http://www.w3.org/2000/svg" xmlns:xlink="http://www.w3.org/1999/xlink" x="0" y="0" width="528" height="528" viewBox="0, 0, 48, 48">
  <g id="Layer_1">
    <path d="M39,20 C39.34,20 39.67,20.06 40,20.1 L40,2 L2,40 L28,40 L28,34 C28,32.23 28.77,30.63 30,29.53 L30,29 C30,24.04 34.04,20 39,20 z M44,32 L44,29 C44,26.24 41.76,24 39,24 C36.24,24 34,26.24 34,29 L34,32 C32.9,32 32,32.9 32,34 L32,42 C32,43.1 32.9,44 34,44 L44,44 C45.1,44 46,43.1 46,42 L46,34 C46,32.9 45.1,32 44,32 z M42,32 L36,32 L36,29 C36,27.34 37.34,26 39,26 C40.66,26 42,27.34 42,29 L42,32 z" fill="#000000"/>
  </g>
</svg>
