<?xml version="1.0" encoding="UTF-8"?>
<!DOCTYPE svg PUBLIC "-//W3C//DTD SVG 1.1//EN" "http://www.w3.org/Graphics/SVG/1.1/DTD/svg11.dtd">
<svg version="1.1" xmlns="http://www.w3.org/2000/svg" xmlns:xlink="http://www.w3.org/1999/xlink" x="0" y="0" width="528" height="528" viewBox="0, 0, 48, 48">
  <g id="Layer_1">
    <path d="M42,12 L38,12 L38,30 L12,30 L12,34 C12,35.1 12.9,36 14,36 L36,36 L44,44 L44,14 C44,12.9 43.1,12 42,12 z M34,24 L34,6 C34,4.9 33.1,4 32,4 L6,4 C4.9,4 4,4.9 4,6 L4,34 L12,26 L32,26 C33.1,26 34,25.1 34,24 z" fill="#000000"/>
  </g>
</svg>
