<?xml version="1.0" encoding="UTF-8"?>
<!DOCTYPE svg PUBLIC "-//W3C//DTD SVG 1.1//EN" "http://www.w3.org/Graphics/SVG/1.1/DTD/svg11.dtd">
<svg version="1.1" xmlns="http://www.w3.org/2000/svg" xmlns:xlink="http://www.w3.org/1999/xlink" x="0" y="0" width="528" height="528" viewBox="0, 0, 48, 48">
  <g id="Layer_1">
    <path d="M40,4 L8,4 C5.79,4 4.02,5.79 4.02,8 L4,44 L12,36 L40,36 C42.21,36 44,34.21 44,32 L44,8 C44,5.79 42.21,4 40,4 z M16,28 L12,28 L12,24 L16,24 L16,28 z M16,22 L12,22 L12,18 L16,18 L16,22 z M16,16 L12,16 L12,12 L16,12 L16,16 z M30,28 L20,28 L20,24 L30,24 L30,28 z M36,22 L20,22 L20,18 L36,18 L36,22 z M36,16 L20,16 L20,12 L36,12 L36,16 z" fill="#000000"/>
  </g>
</svg>
