<?xml version="1.0" encoding="UTF-8"?>
<!DOCTYPE svg PUBLIC "-//W3C//DTD SVG 1.1//EN" "http://www.w3.org/Graphics/SVG/1.1/DTD/svg11.dtd">
<svg version="1.1" xmlns="http://www.w3.org/2000/svg" xmlns:xlink="http://www.w3.org/1999/xlink" x="0" y="0" width="528" height="528" viewBox="0, 0, 48, 48">
  <g id="Layer_1">
    <path d="M34,4 L14,4 C11.79,4 10,5.79 10,8 L10,40 C10,42.21 11.79,43.98 14,43.98 L34,44 C36.21,44 38,42.21 38,40 L38,8 C38,5.79 36.21,4 34,4 z M24,8 C26.21,8 28,9.79 28,12 C28,14.21 26.21,16 24,16 C21.79,16 20,14.21 20,12 C20,9.79 21.79,8 24,8 z M24,40 C18.48,40 14,35.52 14,30 C14,24.48 18.48,20 24,20 C29.52,20 34,24.48 34,30 C34,35.52 29.52,40 24,40 z M24,24 C20.69,24 18,26.69 18,30 C18,33.31 20.69,36 24,36 C27.31,36 30,33.31 30,30 C30,26.69 27.31,24 24,24 z" fill="#000000"/>
  </g>
</svg>
