<?xml version="1.0" encoding="UTF-8"?>
<!DOCTYPE svg PUBLIC "-//W3C//DTD SVG 1.1//EN" "http://www.w3.org/Graphics/SVG/1.1/DTD/svg11.dtd">
<svg version="1.1" xmlns="http://www.w3.org/2000/svg" xmlns:xlink="http://www.w3.org/1999/xlink" x="0" y="0" width="528" height="528" viewBox="0, 0, 48, 48">
  <g id="Layer_1">
    <path d="M4,40 L44,40 L44,32 L4,32 L4,40 z M8,34 L12,34 L12,38 L8,38 L8,34 z M4,8 L4,16 L44,16 L44,8 L4,8 z M12,14 L8,14 L8,10 L12,10 L12,14 z M4,28 L44,28 L44,20 L4,20 L4,28 z M8,22 L12,22 L12,26 L8,26 L8,22 z" fill="#000000"/>
  </g>
</svg>
