<?xml version="1.0" encoding="UTF-8"?>
<!DOCTYPE svg PUBLIC "-//W3C//DTD SVG 1.1//EN" "http://www.w3.org/Graphics/SVG/1.1/DTD/svg11.dtd">
<svg version="1.1" xmlns="http://www.w3.org/2000/svg" xmlns:xlink="http://www.w3.org/1999/xlink" x="0" y="0" width="528" height="528" viewBox="0, 0, 48, 48">
  <g id="Layer_1">
    <path d="M42,12 L6,12 C3.79,12 2,13.79 2,16 L2,32 C2,34.21 3.79,36 6,36 L42,36 C44.21,36 46,34.21 46,32 L46,16 C46,13.79 44.21,12 42,12 z M42,32 L6,32 L6,16 L10,16 L10,24 L14,24 L14,16 L18,16 L18,24 L22,24 L22,16 L26,16 L26,24 L30,24 L30,16 L34,16 L34,24 L38,24 L38,16 L42,16 L42,32 z" fill="#000000"/>
  </g>
</svg>
