<?xml version="1.0" encoding="UTF-8"?>
<!DOCTYPE svg PUBLIC "-//W3C//DTD SVG 1.1//EN" "http://www.w3.org/Graphics/SVG/1.1/DTD/svg11.dtd">
<svg version="1.1" xmlns="http://www.w3.org/2000/svg" xmlns:xlink="http://www.w3.org/1999/xlink" x="0" y="0" width="528" height="528" viewBox="0, 0, 48, 48">
  <g id="Layer_1">
    <path d="M5.06,39.31 L7.75,40.42 L7.75,22.37 L2.9,34.08 C2.06,36.11 3.03,38.46 5.06,39.31 z M44.06,31.89 L34.14,7.96 C33.52,6.46 32.06,5.53 30.53,5.5 C30,5.49 29.46,5.59 28.93,5.8 L14.2,11.9 C12.7,12.52 11.78,13.97 11.74,15.5 C11.73,16.04 11.82,16.58 12.04,17.11 L21.95,41.04 C22.58,42.56 24.05,43.48 25.61,43.5 C26.13,43.5 26.65,43.41 27.16,43.2 L41.89,37.1 C43.92,36.26 44.9,33.92 44.06,31.89 z M15.75,17.5 C14.65,17.5 13.75,16.6 13.75,15.5 C13.75,14.4 14.65,13.5 15.75,13.5 C16.85,13.5 17.75,14.4 17.75,15.5 C17.75,16.6 16.85,17.5 15.75,17.5 z M11.75,39.5 C11.75,41.7 13.55,43.5 15.75,43.5 L18.66,43.5 L11.75,26.82 L11.75,39.5 z" fill="#000000"/>
  </g>
</svg>
