<?xml version="1.0" encoding="UTF-8"?>
<!DOCTYPE svg PUBLIC "-//W3C//DTD SVG 1.1//EN" "http://www.w3.org/Graphics/SVG/1.1/DTD/svg11.dtd">
<svg version="1.1" xmlns="http://www.w3.org/2000/svg" xmlns:xlink="http://www.w3.org/1999/xlink" x="0" y="0" width="528" height="528" viewBox="0, 0, 48, 48">
  <g id="Layer_1">
    <path d="M40,8 L8,8 C5.79,8 4,9.79 4,12 L4,36 C4,38.21 5.79,40 8,40 L40,40 C42.21,40 44,38.21 44,36 L44,12 C44,9.79 42.21,8 40,8 z M15.51,32.49 L12.68,35.32 C9.57,32.19 8,28.1 8,24 C8,19.9 9.57,15.81 12.69,12.69 L15.52,15.52 C13.18,17.85 12,20.93 12,24 C12,27.07 13.17,30.15 15.51,32.49 z M24,32 C19.58,32 16,28.42 16,24 C16,19.58 19.58,16 24,16 C28.42,16 32,19.58 32,24 C32,28.42 28.42,32 24,32 z M35.31,35.31 L32.48,32.48 C34.83,30.15 36,27.07 36,24 C36,20.93 34.82,17.85 32.49,15.51 L35.32,12.68 C38.43,15.81 40,19.9 40,24 C40,28.1 38.43,32.19 35.31,35.31 z M24,20 C21.79,20 20,21.79 20,24 C20,26.21 21.79,28 24,28 C26.21,28 28,26.21 28,24 C28,21.79 26.21,20 24,20 z" fill="#000000"/>
  </g>
</svg>
