<?xml version="1.0" encoding="UTF-8"?>
<!DOCTYPE svg PUBLIC "-//W3C//DTD SVG 1.1//EN" "http://www.w3.org/Graphics/SVG/1.1/DTD/svg11.dtd">
<svg version="1.1" xmlns="http://www.w3.org/2000/svg" xmlns:xlink="http://www.w3.org/1999/xlink" x="0" y="0" width="528" height="528" viewBox="0, 0, 48, 48">
  <g id="Layer_1">
    <path d="M36,19 L36,12 C36,10.9 35.11,10 34,10 L6,10 C4.89,10 4,10.9 4,12 L4,36 C4,37.1 4.89,38 6,38 L34,38 C35.11,38 36,37.1 36,36 L36,29 L44,37 L44,11 L36,19 z M26,31 L26,26 L14,26 L14,31 L7,24 L14,17 L14,22 L26,22 L26,17 L33,24 L26,31 z" fill="#000000"/>
  </g>
</svg>
