<?xml version="1.0" encoding="UTF-8"?>
<!DOCTYPE svg PUBLIC "-//W3C//DTD SVG 1.1//EN" "http://www.w3.org/Graphics/SVG/1.1/DTD/svg11.dtd">
<svg version="1.1" xmlns="http://www.w3.org/2000/svg" xmlns:xlink="http://www.w3.org/1999/xlink" x="0" y="0" width="528" height="528" viewBox="0, 0, 48, 48">
  <g id="Layer_1">
    <path d="M38,16 L30,24 L36,24 C36,30.63 30.63,36 24,36 C21.97,36 20.07,35.49 18.39,34.61 L15.47,37.53 C17.95,39.08 20.86,40 24,40 C32.84,40 40,32.84 40,24 L46,24 L38,16 z M12,24 C12,17.37 17.37,12 24,12 C26.03,12 27.93,12.51 29.61,13.39 L32.53,10.47 C30.05,8.92 27.14,8 24,8 C15.16,8 8,15.16 8,24 L2,24 L10,32 L18,24 L12,24 z" fill="#000000"/>
  </g>
</svg>
