<?xml version="1.0" encoding="UTF-8"?>
<!DOCTYPE svg PUBLIC "-//W3C//DTD SVG 1.1//EN" "http://www.w3.org/Graphics/SVG/1.1/DTD/svg11.dtd">
<svg version="1.1" xmlns="http://www.w3.org/2000/svg" xmlns:xlink="http://www.w3.org/1999/xlink" x="0" y="0" width="528" height="528" viewBox="0, 0, 48, 48">
  <g id="Layer_1">
    <path d="M6,24 C6,28.42 7.82,32.4 10.71,35.29 L6,40 L18,40 L18,28 L13.53,32.47 C11.35,30.3 10,27.31 10,24 C10,18.78 13.34,14.35 18,12.7 L18,8.52 C11.1,10.3 6,16.55 6,24 z M22,34 L26,34 L26,30 L22,30 L22,34 z M42,8 L30,8 L30,20 L34.47,15.53 C36.65,17.7 38,20.69 38,24 C38,29.22 34.66,33.65 30,35.3 L30,39.47 C36.9,37.7 42,31.45 42,24 C42,19.58 40.18,15.6 37.29,12.71 L42,8 z M22,26 L26,26 L26,14 L22,14 L22,26 z" fill="#000000"/>
  </g>
</svg>
