<?xml version="1.0" encoding="UTF-8"?>
<!DOCTYPE svg PUBLIC "-//W3C//DTD SVG 1.1//EN" "http://www.w3.org/Graphics/SVG/1.1/DTD/svg11.dtd">
<svg version="1.1" xmlns="http://www.w3.org/2000/svg" xmlns:xlink="http://www.w3.org/1999/xlink" x="0" y="0" width="528" height="528" viewBox="0, 0, 48, 48">
  <g id="Layer_1">
    <path d="M20,12.7 L20,8.52 C18.4,8.93 16.91,9.59 15.54,10.44 L18.47,13.37 C18.96,13.12 19.47,12.88 20,12.7 z M5.73,10.82 L10.44,15.53 C8.9,17.99 8,20.88 8,24 C8,28.42 9.81,32.4 12.71,35.29 L8,40 L20,40 L20,28 L15.53,32.47 C13.35,30.3 12,27.31 12,24 C12,22 12.5,20.12 13.37,18.46 L29.54,34.63 C29.05,34.89 28.54,35.12 28.01,35.31 L28.01,39.48 C29.61,39.07 31.1,38.41 32.47,37.56 L37.19,42.28 L39.74,39.73 L8.27,8.27 L5.73,10.82 z M40,8 L28,8 L28,20 L32.47,15.53 C34.65,17.7 36,20.69 36,24 C36,26 35.5,27.88 34.63,29.54 L37.56,32.47 C39.1,30.01 40,27.12 40,24 C40,19.58 38.19,15.6 35.29,12.71 L40,8 z" fill="#000000"/>
  </g>
</svg>
