<?xml version="1.0" encoding="UTF-8"?>
<!DOCTYPE svg PUBLIC "-//W3C//DTD SVG 1.1//EN" "http://www.w3.org/Graphics/SVG/1.1/DTD/svg11.dtd">
<svg version="1.1" xmlns="http://www.w3.org/2000/svg" xmlns:xlink="http://www.w3.org/1999/xlink" x="0" y="0" width="528" height="528" viewBox="0, 0, 48, 48">
  <g id="Layer_1">
    <path d="M42.82,23.16 L24.83,5.17 C24.11,4.45 23.11,4 22,4 L8,4 C5.79,4 4,5.79 4,8 L4,22 C4,23.11 4.45,24.11 5.18,24.83 L23.18,42.83 C23.9,43.55 24.9,44 26,44 C27.11,44 28.11,43.55 28.83,42.83 L42.83,28.83 C43.55,28.1 44,27.1 44,26 C44,24.89 43.55,23.89 42.82,23.16 z M11,14 C9.34,14 8,12.66 8,11 C8,9.34 9.34,8 11,8 C12.66,8 14,9.34 14,11 C14,12.66 12.66,14 11,14 z M34.54,30.54 L26,39.08 L17.46,30.54 C16.56,29.63 16,28.38 16,27 C16,24.24 18.24,22 21,22 C22.38,22 23.64,22.56 24.54,23.47 L26,24.93 L27.46,23.47 C28.37,22.56 29.62,22 31,22 C33.76,22 36,24.24 36,27 C36,28.38 35.44,29.63 34.54,30.54 z" fill="#000000"/>
  </g>
</svg>
