<?xml version="1.0" encoding="UTF-8"?>
<!DOCTYPE svg PUBLIC "-//W3C//DTD SVG 1.1//EN" "http://www.w3.org/Graphics/SVG/1.1/DTD/svg11.dtd">
<svg version="1.1" xmlns="http://www.w3.org/2000/svg" xmlns:xlink="http://www.w3.org/1999/xlink" x="0" y="0" width="528" height="528" viewBox="0, 0, 48, 48">
  <g id="Layer_1">
    <path d="M39.02,6.15 L6.15,39.02 C6.33,39.71 6.68,40.33 7.17,40.82 L7.18,40.83 C7.67,41.32 8.29,41.67 8.98,41.85 L41.85,8.98 C41.48,7.6 40.4,6.52 39.02,6.15 z M23.76,6 L6,23.76 L6,29.42 L29.42,6 L23.76,6 z M10,6 C7.8,6 6,7.8 6,10 L6,14.01 L14.01,6 L10,6 z M38,42 C39.1,42 40.1,41.55 40.82,40.83 C41.55,40.1 42,39.1 42,38 L42,33.99 L33.99,42 L38,42 z M18.58,42 L24.24,42 L42,24.24 L42,18.58 L18.58,42 z" fill="#000000"/>
  </g>
</svg>
