<?xml version="1.0" encoding="UTF-8"?>
<!DOCTYPE svg PUBLIC "-//W3C//DTD SVG 1.1//EN" "http://www.w3.org/Graphics/SVG/1.1/DTD/svg11.dtd">
<svg version="1.1" xmlns="http://www.w3.org/2000/svg" xmlns:xlink="http://www.w3.org/1999/xlink" x="0" y="0" width="528" height="528" viewBox="0, 0, 48, 48">
  <g id="Layer_1">
    <path d="M30,6 L12,6 C10.34,6 8.92,7.01 8.32,8.44 L2.29,22.54 C2.11,23 2,23.49 2,24 L2,27.83 L2.02,27.85 L2,28 C2,30.21 3.79,32 6,32 L18.63,32 L16.72,41.14 C16.68,41.34 16.65,41.55 16.65,41.77 C16.65,42.6 16.99,43.35 17.53,43.89 L19.66,46 L32.83,32.83 C33.55,32.1 34,31.1 34,30 L34,10 C34,7.79 32.21,6 30,6 z M38,6 L38,30 L46,30 L46,6 L38,6 z" fill="#000000"/>
  </g>
</svg>
