<?xml version="1.0" encoding="UTF-8"?>
<!DOCTYPE svg PUBLIC "-//W3C//DTD SVG 1.1//EN" "http://www.w3.org/Graphics/SVG/1.1/DTD/svg11.dtd">
<svg version="1.1" xmlns="http://www.w3.org/2000/svg" xmlns:xlink="http://www.w3.org/1999/xlink" x="0" y="0" width="528" height="528" viewBox="0, 0, 48, 48">
  <g id="Layer_1">
    <path d="M24,12 C24,10.9 23.1,10 22,10 L11.63,10 L12.96,3.65 C12.99,3.5 13.01,3.34 13.01,3.18 C13.01,2.56 12.76,2 12.35,1.59 L10.76,0 L0.88,9.88 C0.34,10.42 0,11.17 0,12 L0,25 C0,26.66 1.34,28 3,28 L16.5,28 C17.74,28 18.81,27.25 19.26,26.17 L23.79,15.59 C23.92,15.25 24,14.89 24,14.5 L24,12 z M45,20 L31.5,20 C30.26,20 29.19,20.75 28.74,21.83 L24.21,32.41 C24.08,32.75 24,33.11 24,33.5 L24,36 C24,37.1 24.9,38 26,38 L36.37,38 L35.04,44.35 C35.01,44.5 34.99,44.66 34.99,44.82 C34.99,45.44 35.24,46 35.65,46.41 L37.24,48 L47.12,38.12 C47.66,37.58 48,36.83 48,36 L48,23 C48,21.34 46.66,20 45,20 z" fill="#000000"/>
  </g>
</svg>
