<?xml version="1.0" encoding="UTF-8"?>
<!DOCTYPE svg PUBLIC "-//W3C//DTD SVG 1.1//EN" "http://www.w3.org/Graphics/SVG/1.1/DTD/svg11.dtd">
<svg version="1.1" xmlns="http://www.w3.org/2000/svg" xmlns:xlink="http://www.w3.org/1999/xlink" x="0" y="0" width="528" height="528" viewBox="0, 0, 48, 48">
  <g id="Layer_1">
    <path d="M0,15.43 L0,18.8 L6,16.8 L6,36 L10,36 L10,12 L9.49,12 L0,15.43 z M47.57,28.73 C47.28,28.16 46.86,27.67 46.31,27.25 C45.76,26.83 45.08,26.48 44.29,26.19 C43.49,25.9 42.59,25.65 41.59,25.44 C40.89,25.29 40.32,25.14 39.86,24.98 C39.4,24.83 39.03,24.66 38.76,24.48 C38.49,24.3 38.3,24.09 38.19,23.87 C38.08,23.65 38.03,23.39 38.03,23.1 C38.03,22.81 38.09,22.54 38.21,22.27 C38.33,22.01 38.51,21.78 38.75,21.58 C38.99,21.38 39.29,21.22 39.66,21.1 C40.02,20.98 40.45,20.92 40.94,20.92 C41.44,20.92 41.88,20.99 42.26,21.14 C42.64,21.28 42.96,21.48 43.21,21.73 C43.47,21.98 43.66,22.26 43.79,22.57 C43.92,22.89 43.98,23.21 43.98,23.54 L47.88,23.54 C47.88,22.76 47.72,22.03 47.41,21.36 C47.1,20.69 46.64,20.1 46.04,19.6 C45.44,19.1 44.71,18.71 43.85,18.43 C42.98,18.14 42.01,18 40.93,18 C39.9,18 38.97,18.14 38.15,18.42 C37.32,18.7 36.62,19.09 36.03,19.57 C35.45,20.05 35,20.61 34.69,21.25 C34.38,21.89 34.22,22.56 34.22,23.26 C34.22,23.99 34.37,24.63 34.68,25.19 C34.98,25.75 35.41,26.23 35.96,26.64 C36.51,27.05 37.16,27.4 37.93,27.69 C38.69,27.98 39.54,28.22 40.47,28.41 C41.25,28.57 41.88,28.74 42.37,28.92 C42.86,29.1 43.23,29.3 43.5,29.51 C43.77,29.72 43.95,29.94 44.04,30.18 C44.13,30.42 44.18,30.68 44.18,30.96 C44.18,31.59 43.91,32.1 43.38,32.49 C42.84,32.88 42.06,33.08 41.04,33.08 C40.6,33.08 40.17,33.03 39.76,32.93 C39.34,32.83 38.97,32.67 38.64,32.44 C38.31,32.22 38.04,31.92 37.82,31.56 C37.61,31.2 37.48,30.75 37.45,30.21 L33.66,30.21 C33.66,30.93 33.82,31.63 34.13,32.32 C34.44,33.01 34.91,33.63 35.53,34.17 C36.15,34.72 36.92,35.16 37.83,35.49 C38.74,35.83 39.8,36 40.98,36 C42.04,36 43,35.87 43.87,35.62 C44.74,35.36 45.48,35 46.09,34.54 C46.71,34.07 47.18,33.52 47.51,32.88 C47.84,32.24 48.01,31.53 48.01,30.76 C48,29.97 47.86,29.3 47.57,28.73 z M27.64,14.09 C26.96,13.28 26.14,12.7 25.19,12.34 C24.23,11.98 23.17,11.8 21.99,11.8 C20.83,11.8 19.77,11.98 18.81,12.34 C17.85,12.7 17.03,13.28 16.36,14.09 C15.68,14.9 15.16,15.96 14.79,17.26 C14.42,18.57 14.24,20.16 14.24,22.04 L14.24,25.87 C14.24,27.75 14.43,29.35 14.8,30.66 C15.18,31.97 15.71,33.04 16.39,33.86 C17.08,34.68 17.9,35.28 18.85,35.65 C19.81,36.02 20.87,36.2 22.03,36.2 C23.2,36.2 24.27,36.01 25.22,35.65 C26.17,35.28 26.98,34.69 27.66,33.86 C28.33,33.04 28.86,31.97 29.23,30.66 C29.6,29.35 29.78,27.75 29.78,25.87 L29.78,22.04 C29.78,20.16 29.59,18.57 29.23,17.26 C28.85,15.96 28.32,14.9 27.64,14.09 z M25.81,26.45 C25.81,27.65 25.73,28.66 25.57,29.5 C25.41,30.34 25.16,31.02 24.84,31.54 C24.52,32.06 24.12,32.44 23.66,32.68 C23.19,32.92 22.65,33.04 22.03,33.04 C21.42,33.04 20.88,32.92 20.4,32.68 C19.92,32.44 19.52,32.06 19.19,31.54 C18.86,31.02 18.61,30.34 18.44,29.5 C18.27,28.66 18.18,27.65 18.18,26.45 L18.18,21.44 C18.18,20.23 18.26,19.22 18.43,18.4 C18.6,17.58 18.85,16.92 19.17,16.41 C19.5,15.9 19.9,15.54 20.37,15.32 C20.84,15.1 21.38,14.99 21.99,14.99 C22.6,14.99 23.14,15.1 23.61,15.32 C24.08,15.54 24.48,15.91 24.81,16.41 C25.14,16.92 25.38,17.58 25.55,18.4 C25.72,19.22 25.8,20.24 25.8,21.44 L25.8,26.45 z" fill="#000000"/>
  </g>
</svg>
