<?xml version="1.0" encoding="UTF-8"?>
<!DOCTYPE svg PUBLIC "-//W3C//DTD SVG 1.1//EN" "http://www.w3.org/Graphics/SVG/1.1/DTD/svg11.dtd">
<svg version="1.1" xmlns="http://www.w3.org/2000/svg" xmlns:xlink="http://www.w3.org/1999/xlink" x="0" y="0" width="528" height="528" viewBox="0, 0, 48, 48">
  <g id="Layer_1">
    <path d="M30,2 L18,2 L18,6 L30,6 L30,2 z M22,28 L26,28 L26,16 L22,16 L22,28 z M38.05,14.77 L40.9,11.92 C40.04,10.89 39.1,9.95 38.07,9.09 L35.22,11.94 C32.15,9.48 28.24,8 23.99,8 C14.04,8 6,16.06 6,26 C6,35.94 14.04,44 23.99,44 C33.94,44 42,35.94 42,26 C42,21.75 40.52,17.85 38.05,14.77 z M24,40 C16.27,40 10,33.73 10,26 C10,18.27 16.27,12 24,12 C31.73,12 38,18.27 38,26 C38,33.73 31.73,40 24,40 z" fill="#000000"/>
  </g>
</svg>
