<?xml version="1.0" encoding="UTF-8"?>
<!DOCTYPE svg PUBLIC "-//W3C//DTD SVG 1.1//EN" "http://www.w3.org/Graphics/SVG/1.1/DTD/svg11.dtd">
<svg version="1.1" xmlns="http://www.w3.org/2000/svg" xmlns:xlink="http://www.w3.org/1999/xlink" x="0" y="0" width="528" height="528" viewBox="0, 0, 48, 48">
  <g id="Layer_1">
    <path d="M38.07,9.1 L35.22,11.95 C32.15,9.48 28.24,8 23.99,8 C20.33,8 16.94,9.1 14.1,10.97 L17.01,13.88 C19.07,12.69 21.45,12 24,12 C31.73,12 38,18.27 38,26 C38,28.55 37.31,30.93 36.12,32.99 L39.03,35.9 C40.9,33.06 42,29.66 42,26 C42,21.75 40.52,17.85 38.05,14.77 L40.9,11.92 L38.07,9.1 z M30,2 L18,2 L18,6 L30,6 L30,2 z M22,18.87 L26,22.87 L26,16 L22,16 L22,18.87 z M6.04,8 L3.49,10.54 L9,16.05 C7.11,18.9 6,22.32 6,26 C6,35.94 14.04,44 23.99,44 C27.67,44 31.09,42.89 33.94,41 L38.94,46 L41.48,43.45 L26.08,28.04 L6.04,8 z M24,40 C16.27,40 10,33.73 10,26 C10,23.43 10.7,21.03 11.91,18.96 L31.04,38.09 C28.97,39.3 26.57,40 24,40 z" fill="#000000"/>
  </g>
</svg>
