<?xml version="1.0" encoding="UTF-8"?>
<!DOCTYPE svg PUBLIC "-//W3C//DTD SVG 1.1//EN" "http://www.w3.org/Graphics/SVG/1.1/DTD/svg11.dtd">
<svg version="1.1" xmlns="http://www.w3.org/2000/svg" xmlns:xlink="http://www.w3.org/1999/xlink" x="0" y="0" width="528" height="528" viewBox="0, 0, 48, 48">
  <g id="Layer_1">
    <path d="M23.22,25.95 C22.9,25.47 22.49,25.03 21.99,24.64 C21.48,24.25 20.87,23.94 20.14,23.69 C20.75,23.42 21.28,23.08 21.74,22.69 C22.2,22.29 22.58,21.87 22.88,21.42 C23.18,20.97 23.41,20.5 23.57,20.01 C23.72,19.52 23.8,19.04 23.8,18.56 C23.8,17.45 23.61,16.48 23.25,15.63 C22.88,14.79 22.36,14.08 21.69,13.52 C21.02,12.96 20.22,12.53 19.28,12.24 C18.34,11.95 17.31,11.81 16.18,11.81 C15.08,11.81 14.07,11.97 13.14,12.3 C12.21,12.63 11.41,13.08 10.74,13.66 C10.07,14.24 9.55,14.93 9.17,15.72 C8.79,16.51 8.61,17.38 8.61,18.31 L12.57,18.31 C12.57,17.8 12.66,17.34 12.85,16.93 C13.04,16.52 13.29,16.17 13.62,15.89 C13.95,15.6 14.33,15.38 14.78,15.22 C15.23,15.06 15.71,14.98 16.23,14.98 C17.45,14.98 18.35,15.29 18.95,15.92 C19.54,16.55 19.84,17.42 19.84,18.55 C19.84,19.09 19.76,19.59 19.6,20.03 C19.44,20.48 19.19,20.86 18.85,21.17 C18.51,21.49 18.09,21.73 17.59,21.91 C17.09,22.09 16.5,22.18 15.81,22.18 L13.46,22.18 L13.46,25.31 L15.81,25.31 C16.48,25.31 17.09,25.39 17.63,25.54 C18.17,25.69 18.63,25.93 19.01,26.25 C19.39,26.57 19.68,26.98 19.89,27.47 C20.1,27.96 20.2,28.54 20.2,29.22 C20.2,30.46 19.85,31.41 19.14,32.06 C18.43,32.71 17.47,33.04 16.24,33.04 C15.65,33.04 15.12,32.96 14.64,32.79 C14.16,32.62 13.75,32.38 13.42,32.07 C13.08,31.76 12.82,31.39 12.64,30.95 C12.45,30.52 12.36,30.04 12.36,29.51 L8.37,29.51 C8.37,30.61 8.58,31.58 9.01,32.41 C9.43,33.25 10,33.95 10.72,34.51 C11.44,35.07 12.27,35.49 13.21,35.77 C14.15,36.05 15.14,36.19 16.17,36.19 C17.3,36.19 18.35,36.03 19.33,35.73 C20.3,35.42 21.15,34.97 21.86,34.38 C22.57,33.79 23.13,33.06 23.53,32.19 C23.93,31.32 24.13,30.33 24.13,29.22 C24.13,28.63 24.06,28.06 23.91,27.51 C23.76,26.95 23.53,26.43 23.22,25.95 z M41.75,28.73 C41.46,28.16 41.04,27.67 40.49,27.25 C39.94,26.83 39.26,26.48 38.47,26.19 C37.67,25.9 36.77,25.65 35.77,25.44 C35.07,25.29 34.5,25.14 34.04,24.98 C33.58,24.83 33.21,24.66 32.94,24.48 C32.67,24.3 32.48,24.09 32.37,23.87 C32.26,23.65 32.21,23.39 32.21,23.1 C32.21,22.81 32.27,22.54 32.39,22.27 C32.51,22.01 32.69,21.78 32.93,21.58 C33.17,21.38 33.47,21.22 33.84,21.1 C34.2,20.98 34.63,20.92 35.12,20.92 C35.62,20.92 36.06,20.99 36.44,21.14 C36.82,21.28 37.14,21.48 37.39,21.73 C37.65,21.98 37.84,22.26 37.97,22.57 C38.1,22.89 38.16,23.21 38.16,23.54 L42.06,23.54 C42.06,22.76 41.9,22.03 41.59,21.36 C41.27,20.69 40.82,20.1 40.22,19.6 C39.62,19.1 38.89,18.71 38.03,18.43 C37.16,18.14 36.19,18 35.1,18 C34.07,18 33.14,18.14 32.32,18.42 C31.49,18.7 30.79,19.09 30.2,19.57 C29.62,20.05 29.17,20.61 28.86,21.25 C28.55,21.89 28.39,22.56 28.39,23.26 C28.39,23.99 28.54,24.63 28.85,25.19 C29.15,25.75 29.58,26.23 30.13,26.64 C30.68,27.05 31.33,27.4 32.1,27.69 C32.86,27.98 33.71,28.22 34.64,28.41 C35.42,28.57 36.05,28.74 36.54,28.92 C37.03,29.1 37.4,29.3 37.67,29.51 C37.94,29.72 38.12,29.94 38.21,30.18 C38.3,30.42 38.35,30.68 38.35,30.96 C38.35,31.59 38.08,32.1 37.55,32.49 C37.01,32.88 36.23,33.08 35.21,33.08 C34.77,33.08 34.34,33.03 33.93,32.93 C33.51,32.83 33.14,32.67 32.81,32.44 C32.48,32.22 32.21,31.92 31.99,31.56 C31.78,31.2 31.65,30.75 31.62,30.21 L27.83,30.21 C27.83,30.93 27.99,31.63 28.3,32.32 C28.61,33.01 29.08,33.63 29.7,34.17 C30.32,34.72 31.09,35.16 32,35.49 C32.91,35.83 33.97,36 35.15,36 C36.21,36 37.17,35.87 38.04,35.62 C38.91,35.36 39.65,35 40.26,34.54 C40.88,34.07 41.35,33.52 41.68,32.88 C42.01,32.24 42.18,31.53 42.18,30.76 C42.18,29.97 42.03,29.3 41.75,28.73 z" fill="#000000"/>
  </g>
</svg>
