<?xml version="1.0" encoding="UTF-8"?>
<!DOCTYPE svg PUBLIC "-//W3C//DTD SVG 1.1//EN" "http://www.w3.org/Graphics/SVG/1.1/DTD/svg11.dtd">
<svg version="1.1" xmlns="http://www.w3.org/2000/svg" xmlns:xlink="http://www.w3.org/1999/xlink" x="0" y="0" width="528" height="528" viewBox="0, 0, 48, 48">
  <g id="Layer_1">
    <path d="M24,4 C12.95,4 4,12.95 4,24 C4,35.05 12.95,44 24,44 C35.05,44 44,35.05 44,24 C44,12.95 35.05,4 24,4 z M22,39.86 C14.11,38.88 8,32.16 8,24 C8,15.84 14.11,9.12 22,8.14 L22,39.86 z M26,8.14 C28.06,8.4 30,9.04 31.74,10 L26,10 L26,8.14 z M26,14 L36.48,14 C36.98,14.63 37.44,15.3 37.84,16 L26,16 L26,14 z M26,20 L39.48,20 C39.65,20.65 39.78,21.32 39.87,22 L26,22 L26,20 z M26,39.86 L26,38 L31.74,38 C30,38.96 28.06,39.6 26,39.86 z M36.48,34 L26,34 L26,32 L37.84,32 C37.44,32.7 36.98,33.37 36.48,34 z M39.48,28 L26,28 L26,26 L39.86,26 C39.78,26.68 39.64,27.35 39.48,28 z" fill="#000000"/>
  </g>
</svg>
