<?xml version="1.0" encoding="UTF-8"?>
<!DOCTYPE svg PUBLIC "-//W3C//DTD SVG 1.1//EN" "http://www.w3.org/Graphics/SVG/1.1/DTD/svg11.dtd">
<svg version="1.1" xmlns="http://www.w3.org/2000/svg" xmlns:xlink="http://www.w3.org/1999/xlink" x="0" y="0" width="528" height="528" viewBox="0, 0, 48, 48">
  <g id="Layer_1">
    <path d="M38.14,9.86 L35.31,12.69 C38.21,15.58 40,19.58 40,24 C40,32.84 32.84,40 24,40 C15.16,40 8,32.84 8,24 C8,15.84 14.11,9.12 22,8.14 L22,12.18 C16.33,13.13 12,18.06 12,24 C12,30.63 17.37,36 24,36 C30.63,36 36,30.63 36,24 C36,20.69 34.66,17.69 32.49,15.51 L29.66,18.34 C31.1,19.79 32,21.79 32,24 C32,28.42 28.42,32 24,32 C19.58,32 16,28.42 16,24 C16,20.28 18.56,17.17 22,16.28 L22,20.55 C20.81,21.24 20,22.52 20,24 C20,26.21 21.79,28 24,28 C26.21,28 28,26.21 28,24 C28,22.52 27.19,21.25 26,20.55 L26,4 L24,4 C12.95,4 4,12.95 4,24 C4,35.04 12.95,44 24,44 C35.04,44 44,35.04 44,24 C44,18.48 41.76,13.48 38.14,9.86 z" fill="#231F20"/>
  </g>
</svg>
