<?xml version="1.0" encoding="UTF-8"?>
<!DOCTYPE svg PUBLIC "-//W3C//DTD SVG 1.1//EN" "http://www.w3.org/Graphics/SVG/1.1/DTD/svg11.dtd">
<svg version="1.1" xmlns="http://www.w3.org/2000/svg" xmlns:xlink="http://www.w3.org/1999/xlink" x="0" y="0" width="528" height="528" viewBox="0, 0, 48, 48">
  <g id="Layer_1">
    <path d="M25.74,30.15 L20.66,25.13 L20.72,25.07 C24.2,21.19 26.68,16.73 28.14,12.01 L34,12.01 L34,8 L20,8 L20,4 L16,4 L16,8 L2,8 L2,11.98 L24.34,11.98 C22.99,15.84 20.88,19.5 18,22.7 C16.14,20.63 14.6,18.38 13.38,16 L9.38,16 C10.84,19.26 12.84,22.34 15.34,25.12 L5.17,35.17 L8,38 L18,28 L24.22,34.22 L25.74,30.15 z M37,20 L33,20 L24,44 L28,44 L30.25,38 L39.75,38 L42,44 L46,44 L37,20 z M31.75,34 L35,25.33 L38.25,34 L31.75,34 z" fill="#000000"/>
  </g>
</svg>
