<?xml version="1.0" encoding="UTF-8"?>
<!DOCTYPE svg PUBLIC "-//W3C//DTD SVG 1.1//EN" "http://www.w3.org/Graphics/SVG/1.1/DTD/svg11.dtd">
<svg version="1.1" xmlns="http://www.w3.org/2000/svg" xmlns:xlink="http://www.w3.org/1999/xlink" x="0" y="0" width="528" height="528" viewBox="0, 0, 48, 48">
  <g id="Layer_1">
    <path d="M6,34 L6,38 L18,38 L18,34 L6,34 z M6,10 L6,14 L26,14 L26,10 L6,10 z M26,42 L26,38 L42,38 L42,34 L26,34 L26,30 L22,30 L22,42 L26,42 z M14,18 L14,22 L6,22 L6,26 L14,26 L14,30 L18,30 L18,18 L14,18 z M42,26 L42,22 L22,22 L22,26 L42,26 z M30,18 L34,18 L34,14 L42,14 L42,10 L34,10 L34,6 L30,6 L30,18 z" fill="#000000"/>
  </g>
</svg>
