<?xml version="1.0" encoding="UTF-8"?>
<!DOCTYPE svg PUBLIC "-//W3C//DTD SVG 1.1//EN" "http://www.w3.org/Graphics/SVG/1.1/DTD/svg11.dtd">
<svg version="1.1" xmlns="http://www.w3.org/2000/svg" xmlns:xlink="http://www.w3.org/1999/xlink" x="0" y="0" width="528" height="528" viewBox="0, 0, 48, 48">
  <g id="Layer_1">
    <path d="M30,14 L30,22 L32,22 L32,26 L26,26 L26,10 L30,10 L24,2 L18,10 L22,10 L22,26 L16,26 L16,21.86 C17.41,21.13 18.4,19.7 18.4,18 C18.4,15.57 16.43,13.6 14,13.6 C11.57,13.6 9.6,15.57 9.6,18 C9.6,19.7 10.59,21.13 12,21.86 L12,26 C12,28.21 13.79,30 16,30 L22,30 L22,36.1 C20.58,36.83 19.6,38.29 19.6,40 C19.6,42.43 21.57,44.4 24,44.4 C26.43,44.4 28.4,42.43 28.4,40 C28.4,38.29 27.42,36.83 26,36.1 L26,30 L32,30 C34.21,30 36,28.21 36,26 L36,22 L38,22 L38,14 L30,14 z" fill="#000000"/>
  </g>
</svg>
