<?xml version="1.0" encoding="UTF-8"?>
<!DOCTYPE svg PUBLIC "-//W3C//DTD SVG 1.1//EN" "http://www.w3.org/Graphics/SVG/1.1/DTD/svg11.dtd">
<svg version="1.1" xmlns="http://www.w3.org/2000/svg" xmlns:xlink="http://www.w3.org/1999/xlink" x="0" y="0" width="528" height="528" viewBox="0, 0, 48, 48">
  <g id="Layer_1">
    <path d="M40,26 L6,26 C4.9,26 4,26.9 4,28 L4,40 C4,41.1 4.9,42 6,42 L40,42 C41.1,42 42,41.1 42,40 L42,28 C42,26.9 41.1,26 40,26 z M40,6 L6,6 C4.9,6 4,6.9 4,8 L4,20 C4,21.1 4.9,22 6,22 L40,22 C41.1,22 42,21.1 42,20 L42,8 C42,6.9 41.1,6 40,6 z" fill="#000000"/>
  </g>
</svg>
