<?xml version="1.0" encoding="UTF-8"?>
<!DOCTYPE svg PUBLIC "-//W3C//DTD SVG 1.1//EN" "http://www.w3.org/Graphics/SVG/1.1/DTD/svg11.dtd">
<svg version="1.1" xmlns="http://www.w3.org/2000/svg" xmlns:xlink="http://www.w3.org/1999/xlink" x="0" y="0" width="528" height="528" viewBox="0, 0, 48, 48">
  <g id="Layer_1">
    <path d="M8,28 L16,28 L16,20 L8,20 L8,28 z M8,38 L16,38 L16,30 L8,30 L8,38 z M8,18 L16,18 L16,10 L8,10 L8,18 z M18,28 L42,28 L42,20 L18,20 L18,28 z M18,38 L42,38 L42,30 L18,30 L18,38 z M18,10 L18,18 L42,18 L42,10 L18,10 z" fill="#000000"/>
  </g>
</svg>
