<?xml version="1.0" encoding="UTF-8"?>
<!DOCTYPE svg PUBLIC "-//W3C//DTD SVG 1.1//EN" "http://www.w3.org/Graphics/SVG/1.1/DTD/svg11.dtd">
<svg version="1.1" xmlns="http://www.w3.org/2000/svg" xmlns:xlink="http://www.w3.org/1999/xlink" x="0" y="0" width="528" height="528" viewBox="0, 0, 48, 48">
  <g id="Layer_1">
    <path d="M8,22 L18,22 L18,10 L8,10 L8,22 z M8,36 L18,36 L18,24 L8,24 L8,36 z M20,36 L30,36 L30,24 L20,24 L20,36 z M32,36 L42,36 L42,24 L32,24 L32,36 z M20,22 L30,22 L30,10 L20,10 L20,22 z M32,10 L32,22 L42,22 L42,10 L32,10 z" fill="#000000"/>
  </g>
</svg>
