<?xml version="1.0" encoding="UTF-8"?>
<!DOCTYPE svg PUBLIC "-//W3C//DTD SVG 1.1//EN" "http://www.w3.org/Graphics/SVG/1.1/DTD/svg11.dtd">
<svg version="1.1" xmlns="http://www.w3.org/2000/svg" xmlns:xlink="http://www.w3.org/1999/xlink" x="0" y="0" width="528" height="528" viewBox="0, 0, 48, 48">
  <g id="Layer_1">
    <path d="M12,10 L6,10 C4.9,10 4,10.9 4,12 L4,36 C4,37.1 4.9,38 6,38 L12,38 C13.1,38 14,37.1 14,36 L14,12 C14,10.9 13.1,10 12,10 z M40,10 L34,10 C32.9,10 32,10.9 32,12 L32,36 C32,37.1 32.9,38 34,38 L40,38 C41.1,38 42,37.1 42,36 L42,12 C42,10.9 41.1,10 40,10 z M26,10 L20,10 C18.9,10 18,10.9 18,12 L18,36 C18,37.1 18.9,38 20,38 L26,38 C27.1,38 28,37.1 28,36 L28,12 C28,10.9 27.1,10 26,10 z" fill="#000000"/>
  </g>
</svg>
