<?xml version="1.0" encoding="UTF-8"?>
<!DOCTYPE svg PUBLIC "-//W3C//DTD SVG 1.1//EN" "http://www.w3.org/Graphics/SVG/1.1/DTD/svg11.dtd">
<svg version="1.1" xmlns="http://www.w3.org/2000/svg" xmlns:xlink="http://www.w3.org/1999/xlink" x="0" y="0" width="528" height="528" viewBox="0, 0, 48, 48">
  <g id="Layer_1">
    <path d="M24,14 C29.52,14 34,18.48 34,24 C34,25.29 33.74,26.52 33.29,27.65 L39.14,33.5 C42.16,30.98 44.54,27.72 46.01,24 C42.54,15.22 34.01,9 24,9 C21.2,9 18.52,9.5 16.03,10.4 L20.35,14.71 C21.48,14.27 22.71,14 24,14 z M4,8.55 L8.56,13.11 L9.47,14.02 C6.17,16.6 3.56,20.03 2,24 C5.46,32.78 14,39 24,39 C27.1,39 30.06,38.4 32.77,37.31 L33.62,38.16 L39.45,44 L42,41.46 L6.55,6 L4,8.55 z M15.06,19.6 L18.15,22.69 C18.06,23.12 18,23.55 18,24 C18,27.31 20.69,30 24,30 C24.45,30 24.88,29.94 25.3,29.85 L28.39,32.94 C27.06,33.6 25.58,34 24,34 C18.48,34 14,29.52 14,24 C14,22.42 14.4,20.94 15.06,19.6 z M23.67,18.03 L29.97,24.33 L30,24 C30,20.69 27.31,18 24,18 L23.67,18.03 z" fill="#000000"/>
  </g>
</svg>
