<?xml version="1.0" encoding="UTF-8"?>
<!DOCTYPE svg PUBLIC "-//W3C//DTD SVG 1.1//EN" "http://www.w3.org/Graphics/SVG/1.1/DTD/svg11.dtd">
<svg version="1.1" xmlns="http://www.w3.org/2000/svg" xmlns:xlink="http://www.w3.org/1999/xlink" x="0" y="0" width="528" height="528" viewBox="0, 0, 48, 48">
  <g id="Layer_1">
    <path d="M37,12 C30.92,12 26,16.92 26,23 C26,25.66 26.94,28.1 28.51,30 L19.48,30 C21.05,28.1 21.99,25.66 21.99,23 C21.99,16.92 17.07,12 10.99,12 C4.91,12 -0,16.92 -0,23 C-0,29.08 4.92,34 11,34 L37,34 C43.08,34 48,29.08 48,23 C48,16.92 43.08,12 37,12 z M11,30 C7.13,30 4,26.87 4,23 C4,19.13 7.13,16 11,16 C14.87,16 18,19.13 18,23 C18,26.87 14.87,30 11,30 z M37,30 C33.13,30 30,26.87 30,23 C30,19.13 33.13,16 37,16 C40.87,16 44,19.13 44,23 C44,26.87 40.87,30 37,30 z" fill="#000000"/>
  </g>
</svg>
