<?xml version="1.0" encoding="UTF-8"?>
<!DOCTYPE svg PUBLIC "-//W3C//DTD SVG 1.1//EN" "http://www.w3.org/Graphics/SVG/1.1/DTD/svg11.dtd">
<svg version="1.1" xmlns="http://www.w3.org/2000/svg" xmlns:xlink="http://www.w3.org/1999/xlink" x="0" y="0" width="528" height="528" viewBox="0, 0, 48, 48">
  <g id="Layer_1">
    <path d="M33,24 C33,20.47 30.96,17.42 28,15.95 L28,20.37 L32.91,25.28 C32.97,24.86 33,24.43 33,24 z M38,24 C38,25.88 37.59,27.65 36.92,29.28 L39.95,32.31 C41.25,29.82 42,27 42,24 C42,15.44 36.01,8.28 28,6.46 L28,10.59 C33.78,12.31 38,17.66 38,24 z M8.55,6 L6,8.55 L15.45,18 L6,18 L6,30 L14,30 L24,40 L24,26.55 L32.51,35.06 C31.17,36.09 29.66,36.92 28,37.42 L28,41.55 C30.75,40.92 33.26,39.66 35.37,37.93 L39.45,42 L42,39.45 L24,21.45 L8.55,6 z M24,8 L19.82,12.18 L24,16.36 L24,8 z" fill="#000000"/>
  </g>
</svg>
