<?xml version="1.0" encoding="UTF-8"?>
<!DOCTYPE svg PUBLIC "-//W3C//DTD SVG 1.1//EN" "http://www.w3.org/Graphics/SVG/1.1/DTD/svg11.dtd">
<svg version="1.1" xmlns="http://www.w3.org/2000/svg" xmlns:xlink="http://www.w3.org/1999/xlink" x="0" y="0" width="528" height="528" viewBox="0, 0, 48, 48">
  <g id="Layer_1">
    <path d="M44,8 L44,7 C44,4.24 41.76,2 39,2 C36.24,2 34,4.24 34,7 L34,8 C32.89,8 32,8.9 32,10 L32,18 C32,19.1 32.89,20 34,20 L44,20 C45.11,20 46,19.1 46,18 L46,10 C46,8.9 45.11,8 44,8 z M42.4,8 L35.6,8 L35.6,7 C35.6,5.12 37.12,3.6 39,3.6 C40.88,3.6 42.4,5.12 42.4,7 L42.4,8 z M37.85,24 C37.93,24.66 38,25.32 38,26 C38,30.16 36.4,33.94 33.79,36.79 C33.28,35.17 31.78,34 30,34 L28,34 L28,28 C28,26.9 27.1,26 26,26 L14,26 L14,22 L18,22 C19.1,22 20,21.1 20,20 L20,16 L24,16 C26.21,16 28,14.21 28,12 L28,6.92 C26.11,6.32 24.09,6 22,6 C10.95,6 2,14.95 2,26 C2,37.05 10.95,46 22,46 C33.05,46 42,37.05 42,26 C42,25.32 41.96,24.66 41.9,24 L37.85,24 z M20,41.86 C12.11,40.88 6,34.16 6,26 C6,24.77 6.15,23.57 6.42,22.42 L16,32 L16,34 C16,36.21 17.79,38 20,38 L20,41.86 z" fill="#000000"/>
  </g>
</svg>
