<?xml version="1.0" encoding="UTF-8"?>
<!DOCTYPE svg PUBLIC "-//W3C//DTD SVG 1.1//EN" "http://www.w3.org/Graphics/SVG/1.1/DTD/svg11.dtd">
<svg version="1.1" xmlns="http://www.w3.org/2000/svg" xmlns:xlink="http://www.w3.org/1999/xlink" x="0" y="0" width="528" height="528" viewBox="0, 0, 48, 48">
  <g id="Layer_1">
    <path d="M40,12 L35.63,12 C35.85,11.37 36,10.7 36,10 C36,6.69 33.31,4 30,4 C27.91,4 26.07,5.07 25,6.69 L24,8.05 L23,6.69 C21.93,5.07 20.09,4 18,4 C14.69,4 12,6.69 12,10 C12,10.7 12.14,11.37 12.37,12 L8,12 C5.79,12 4.02,13.79 4.02,16 L4,38 C4,40.21 5.79,42 8,42 L40,42 C42.21,42 44,40.21 44,38 L44,16 C44,13.79 42.21,12 40,12 z M30,8 C31.1,8 32,8.9 32,10 C32,11.1 31.1,12 30,12 C28.9,12 28,11.1 28,10 C28,8.9 28.9,8 30,8 z M18,8 C19.1,8 20,8.9 20,10 C20,11.1 19.1,12 18,12 C16.9,12 16,11.1 16,10 C16,8.9 16.9,8 18,8 z M40,38 L8,38 L8,34 L40,34 L40,38 z M40,28 L8,28 L8,16 L18.16,16 L14,21.67 L17.25,24 L22,17.53 L24,14.81 L26,17.53 L30.75,24 L34,21.67 L29.84,16 L40,16 L40,28 z" fill="#000000"/>
  </g>
</svg>
