<?xml version="1.0" encoding="UTF-8"?>
<!DOCTYPE svg PUBLIC "-//W3C//DTD SVG 1.1//EN" "http://www.w3.org/Graphics/SVG/1.1/DTD/svg11.dtd">
<svg version="1.1" xmlns="http://www.w3.org/2000/svg" xmlns:xlink="http://www.w3.org/1999/xlink" x="0" y="0" width="528" height="528" viewBox="0, 0, 48, 48">
  <g id="Layer_1">
    <path d="M40,4 L8,4 C5.79,4 4,5.79 4,8 L4,30 C4,32.21 5.79,34 8,34 L16,34 L16,44 L24,40 L32,44 L32,34 L40,34 C42.21,34 44,32.21 44,30 L44,8 C44,5.79 42.21,4 40,4 z M40,30 L8,30 L8,26 L40,26 L40,30 z M40,20 L8,20 L8,8 L40,8 L40,20 z" fill="#000000"/>
  </g>
</svg>
