<?xml version="1.0" encoding="UTF-8"?>
<!DOCTYPE svg PUBLIC "-//W3C//DTD SVG 1.1//EN" "http://www.w3.org/Graphics/SVG/1.1/DTD/svg11.dtd">
<svg version="1.1" xmlns="http://www.w3.org/2000/svg" xmlns:xlink="http://www.w3.org/1999/xlink" x="0" y="0" width="528" height="528" viewBox="0, 0, 48, 48">
  <g id="Layer_1">
    <path d="M13.51,9.69 L9.93,6.1 L7.1,8.93 L10.69,12.52 L13.51,9.69 z M8,21 L2,21 L2,25 L8,25 L8,21 z M26,1.1 L22,1.1 L22,7 L26,7 L26,1.1 z M40.9,8.93 L38.07,6.1 L34.48,9.69 L37.31,12.52 L40.9,8.93 z M34.49,36.31 L38.08,39.9 L40.91,37.07 L37.32,33.48 L34.49,36.31 z M40,21 L40,25 L46,25 L46,21 L40,21 z M24,11 C17.37,11 12,16.37 12,23 C12,29.63 17.37,35 24,35 C30.63,35 36,29.63 36,23 C36,16.37 30.63,11 24,11 z M22,44.9 L26,44.9 L26,39 L22,39 L22,44.9 z M7.1,37.07 L9.93,39.9 L13.52,36.31 L10.69,33.48 L7.1,37.07 z" fill="#000000"/>
  </g>
</svg>
