<?xml version="1.0" encoding="UTF-8"?>
<!DOCTYPE svg PUBLIC "-//W3C//DTD SVG 1.1//EN" "http://www.w3.org/Graphics/SVG/1.1/DTD/svg11.dtd">
<svg version="1.1" xmlns="http://www.w3.org/2000/svg" xmlns:xlink="http://www.w3.org/1999/xlink" x="0" y="0" width="528" height="528" viewBox="0, 0, 48, 48">
  <g id="Layer_1">
    <path d="M27,1.34 C27,1.34 28.48,6.64 28.48,10.94 C28.48,15.06 25.78,18.41 21.65,18.41 C17.52,18.41 14.4,15.07 14.4,10.94 L14.45,10.22 C10.43,15.03 8,21.23 8,28 C8,36.84 15.16,44 24,44 C32.84,44 40,36.84 40,28 C40,17.21 34.81,7.59 27,1.34 z M23.42,38 C19.86,38 16.97,35.19 16.97,31.72 C16.97,28.47 19.06,26.19 22.6,25.48 C26.14,24.77 29.8,23.07 31.83,20.33 C32.61,22.91 33.02,25.63 33.02,28.4 C33.02,33.69 28.72,38 23.42,38 z" fill="#000000"/>
  </g>
</svg>
