<?xml version="1.0" encoding="UTF-8"?>
<!DOCTYPE svg PUBLIC "-//W3C//DTD SVG 1.1//EN" "http://www.w3.org/Graphics/SVG/1.1/DTD/svg11.dtd">
<svg version="1.1" xmlns="http://www.w3.org/2000/svg" xmlns:xlink="http://www.w3.org/1999/xlink" x="0" y="0" width="528" height="528" viewBox="0, 0, 48, 48">
  <g id="Layer_1">
    <path d="M24,22 C21.79,22 20,23.79 20,26 C20,28.21 21.79,30 24,30 C26.21,30 28,28.21 28,26 C28,23.79 26.21,22 24,22 z M36,26 C36,19.37 30.63,14 24,14 C17.37,14 12,19.37 12,26 C12,30.44 14.41,34.3 17.99,36.38 L20.01,32.9 C17.62,31.51 16,28.96 16,26 C16,21.58 19.58,18 24,18 C28.42,18 32,21.58 32,26 C32,28.96 30.38,31.51 27.99,32.89 L30.01,36.37 C33.59,34.3 36,30.44 36,26 z M24,6 C12.95,6 4,14.95 4,26 C4,33.39 8.02,39.83 13.99,43.29 L15.99,39.83 C11.22,37.07 8,31.91 8,26 C8,17.16 15.16,10 24,10 C32.84,10 40,17.16 40,26 C40,31.91 36.78,37.07 32.01,39.84 L34.01,43.3 C39.98,39.83 44,33.39 44,26 C44,14.95 35.04,6 24,6 z" fill="#000000"/>
  </g>
</svg>
