<?xml version="1.0" encoding="UTF-8"?>
<!DOCTYPE svg PUBLIC "-//W3C//DTD SVG 1.1//EN" "http://www.w3.org/Graphics/SVG/1.1/DTD/svg11.dtd">
<svg version="1.1" xmlns="http://www.w3.org/2000/svg" xmlns:xlink="http://www.w3.org/1999/xlink" x="0" y="0" width="286" height="264" viewBox="0, 0, 26, 24">
  <g id="Layer_1">
    <path d="M21,8.5 C21.85,8.5 22.64,8.73 23.34,9.12 L25.58,6.33 C25.1,5.96 20.26,2 13,2 C5.74,2 0.9,5.96 0.42,6.32 L12.99,21.98 L13,22 L13.01,21.99 L17.22,16.75 C16.46,15.88 16,14.75 16,13.5 C16,10.74 18.24,8.5 21,8.5 z" fill="#000000" fill-opacity="0.3"/>
    <path d="M21,10 C19.07,10 17.5,11.57 17.5,13.5 L19.25,13.5 C19.25,12.53 20.03,11.75 21,11.75 C21.97,11.75 22.75,12.53 22.75,13.5 C22.75,13.98 22.55,14.42 22.24,14.74 L21.15,15.84 C20.52,16.47 20.13,17.35 20.13,18.31 L20.13,18.75 L21.88,18.75 C21.88,17.44 22.27,16.91 22.91,16.28 L23.69,15.48 C24.19,14.98 24.51,14.28 24.51,13.51 C24.5,11.57 22.93,10 21,10 z M20.05,21.95 L21.95,21.95 L21.95,20.05 L20.05,20.05 L20.05,21.95 z" fill="#000000"/>
  </g>
</svg>
