<?xml version="1.0" encoding="UTF-8"?>
<!DOCTYPE svg PUBLIC "-//W3C//DTD SVG 1.1//EN" "http://www.w3.org/Graphics/SVG/1.1/DTD/svg11.dtd">
<svg version="1.1" xmlns="http://www.w3.org/2000/svg" xmlns:xlink="http://www.w3.org/1999/xlink" x="0" y="0" width="528" height="528" viewBox="0, 0, 48, 48">
  <g id="Layer_1">
    <path d="M41,19 C41.56,19 42.09,19.08 42.63,19.16 L48,12 C41.31,6.98 33,4 24,4 C15,4 6.69,6.98 0,12 L24,44 L31,34.67 L31,29 C31,23.48 35.48,19 41,19 z M46,32 L46,29 C46,26.24 43.76,24 41,24 C38.24,24 36,26.24 36,29 L36,32 C34.9,32 34,32.9 34,34 L34,42 C34,43.1 34.9,44 36,44 L46,44 C47.1,44 48,43.1 48,42 L48,34 C48,32.9 47.1,32 46,32 z M44,32 L38,32 L38,29 C38,27.34 39.34,26 41,26 C42.66,26 44,27.34 44,29 L44,32 z" fill="#000000"/>
  </g>
</svg>
